<?xml version="1.0" standalone="no"?>
<svg xmlns="http://www.w3.org/2000/svg" id="svg_3" width="150" height="150" style="background-color: rgb(58, 58, 58);">
    <g transform="translate( 75, 0)" class="axis" fill="none" font-size="10" font-family="sans-serif" text-anchor="end">
        <path class="domain" stroke="#000" d="M0,150.5H0.5V0.5H0" style="stroke: orange; stroke-width: 0.5;"/>
    </g>
    <g transform="translate( 0,75)" class="axis" fill="none" font-size="10" font-family="sans-serif"
       text-anchor="middle">
        <path class="domain" stroke="#000" d="M0.5,0V0.5H150.5V0" style="stroke: orange; stroke-width: 0.5;"/>
    </g>
    <path d="M0,97.49897850158035L0.0749999999999984,97.49896823535056L0.1499999999999968,97.49895786594342L0.2249999999999952,97.49894739232204L0.2999999999999936,97.498936813439L0.374999999999992,97.49892612823643L0.45000000000000373,97.49891533564576L0.5250000000000021,97.49890443458779L0.6000000000000005,97.49889342397233L0.6749999999999989,97.49888230269838L0.7499999999999973,97.49887106965375L0.8249999999999957,97.49885972371513L0.8999999999999941,97.49884826374794L0.9749999999999925,97.49883668860618L1.0500000000000043,97.4988249971323L1.1250000000000027,97.49881318815716L1.200000000000001,97.49880126049983L1.2749999999999995,97.49878921296757L1.3499999999999979,97.49877704435559L1.4249999999999963,97.49876475344703L1.4999999999999947,97.49875233901278L1.574999999999993,97.4987397998114L1.6500000000000048,97.49872713458893L1.7250000000000032,97.49871434207887L1.8000000000000016,97.49870142100195L1.875,97.49868837006605L1.9499999999999984,97.49867518796607L2.024999999999997,97.49866187338377L2.099999999999995,97.49864842498769L2.1749999999999936,97.49863484143299L2.249999999999992,97.49862112136131L2.3250000000000037,97.49860726340059L2.400000000000002,97.49859326616507L2.4750000000000005,97.49857912825499L2.549999999999999,97.49856484825654L2.6249999999999973,97.49855042474172L2.6999999999999957,97.49853585626818L2.774999999999994,97.49852114137904L2.8499999999999925,97.4985062786028L2.9250000000000043,97.49849126645319L3.0000000000000027,97.49847610342896L3.075000000000001,97.4984607880138L3.1499999999999995,97.49844531867616L3.224999999999998,97.49842969386908L3.2999999999999963,97.49841391203012L3.3749999999999947,97.498397971581L3.449999999999993,97.49838187092772L3.525000000000005,97.49836560846018L3.600000000000003,97.49834918255212L3.6750000000000016,97.49833259156094L3.75,97.49831583382753L3.8249999999999984,97.49829890767609L3.899999999999997,97.49828181141402L3.974999999999995,97.49826454333163L4.049999999999994,97.49824710170216L4.124999999999992,97.49822948478138L4.200000000000004,97.49821169080761L4.275000000000002,97.49819371800143L4.3500000000000005,97.49817556456554L4.424999999999999,97.49815722868459L4.499999999999997,97.49813870852498L4.574999999999996,97.49812000223466L4.649999999999994,97.498101107943L4.7249999999999925,97.49808202376056L4.800000000000004,97.49806274777887L4.875000000000003,97.49804327807038L4.950000000000001,97.49802361268804L5.0249999999999995,97.49800374966534L5.099999999999998,97.49798368701593L5.174999999999996,97.49796342273353L5.249999999999995,97.49794295479174L5.324999999999993,97.4979222811437L5.400000000000005,97.49790139972204L5.475000000000003,97.4978803084386L5.550000000000002,97.49785900518424L5.625,97.49783748782862L5.699999999999998,97.49781575421997L5.774999999999997,97.49779380218493L5.849999999999995,97.49777162952827L5.924999999999994,97.4977492340327L5.999999999999992,97.49772661345867L6.075000000000004,97.49770376554407L6.150000000000002,97.49768068800412L6.2250000000000005,97.49765737853106L6.299999999999999,97.49763383479387L6.374999999999997,97.4976100544382L6.449999999999996,97.49758603508599L6.524999999999994,97.49756177433527L6.5999999999999925,97.49753726975995L6.675000000000004,97.49751251890955L6.750000000000003,97.49748751930898L6.825000000000001,97.49746226845824L6.8999999999999995,97.49743676383221L6.974999999999998,97.49741100288045L7.049999999999996,97.49738498302682L7.124999999999995,97.49735870166933L7.199999999999993,97.49733215617978L7.275000000000005,97.49730534390363L7.350000000000003,97.49727826215963L7.425000000000002,97.49725090823958L7.5,97.49722327940805L7.574999999999998,97.49719537290215L7.649999999999997,97.49716718593122L7.724999999999995,97.4971387156765L7.799999999999994,97.49710995929098L7.874999999999992,97.49708091389897L7.950000000000004,97.49705157659592L8.025000000000002,97.49702194444808L8.100000000000001,97.49699201449219L8.174999999999999,97.49696178373526L8.249999999999996,97.49693124915416L8.324999999999996,97.49690040769542L8.399999999999993,97.49686925627486L8.474999999999993,97.49683779177732L8.550000000000004,97.49680601105634L8.625000000000002,97.49677391093378L8.700000000000001,97.49674148819963L8.774999999999999,97.49670873961159L8.849999999999998,97.49667566189478L8.924999999999997,97.49664225174138L8.999999999999995,97.49660850581034L9.074999999999994,97.49657442072709L9.150000000000006,97.49653999308302L9.225000000000003,97.49650521943539L9.300000000000002,97.49647009630681L9.375,97.49643462018489L9.449999999999998,97.49639878752203L9.524999999999997,97.49636259473493L9.599999999999996,97.49632603820426L9.674999999999994,97.49628911427435L9.749999999999993,97.49625181925278L9.825000000000005,97.49621414941001L9.900000000000002,97.49617610097903L9.975000000000001,97.49613767015495L10.049999999999999,97.49609885309468L10.124999999999996,97.49605964591645L10.199999999999996,97.49602004469955L10.274999999999995,97.49598004548379L10.349999999999993,97.49593964426923L10.425000000000004,97.49589883701572L10.500000000000004,97.49585761964248L10.575000000000001,97.49581598802776L10.649999999999999,97.49577393800834L10.724999999999998,97.49573146537924L10.799999999999997,97.49568856589309L10.874999999999995,97.49564523525994L10.949999999999992,97.49560146914669L11.025000000000006,97.49555726317669L11.100000000000003,97.4955126129293L11.175,97.49546751393947L11.25,97.49542196169725L11.324999999999998,97.4953759516474L11.399999999999997,97.49532947918885L11.474999999999996,97.49528253967432L11.549999999999994,97.49523512840985L11.625000000000005,97.49518724065422L11.700000000000005,97.49513887161866L11.775000000000002,97.49509001646622L11.85,97.49504067031133L11.924999999999999,97.49499082821933L11.999999999999998,97.49494048520597L12.074999999999996,97.49488963623693L12.149999999999995,97.49483827622726L12.224999999999993,97.4947864000409L12.300000000000004,97.49473400249019L12.375000000000004,97.49468107833536L12.450000000000001,97.49462762228391L12.524999999999999,97.49457362899022L12.599999999999998,97.49451909305492L12.674999999999997,97.49446400902434L12.749999999999995,97.49440837139007L12.824999999999992,97.49435217458827L12.900000000000006,97.49429541299922L12.975000000000003,97.49423808094673L13.05,97.49418017269751L13.125,97.49412168246072L13.2,97.49406260438727L13.274999999999997,97.49400293256932L13.349999999999994,97.49394266103963L13.424999999999994,97.49388178377097L13.500000000000005,97.49382029467563L13.575000000000003,97.49375818760458L13.650000000000002,97.4936954563471L13.725,97.49363209463L13.799999999999999,97.49356809611706L13.874999999999998,97.49350345440837L13.949999999999996,97.4934381630397L14.024999999999993,97.49337221548187L14.099999999999993,97.49330560514007L14.175000000000004,97.49323832535319L14.250000000000002,97.49317036939323L14.325000000000001,97.4931017304645L14.4,97.49303240170308L14.474999999999998,97.49296237617602L14.549999999999997,97.49289164688071L14.624999999999995,97.49282020674417L14.699999999999992,97.49274804862233L14.775000000000006,97.49267516529929L14.850000000000003,97.49260154948668L14.925,97.49252719382287L15,97.49245209087219L15.075,97.49237623312433L15.149999999999997,97.4922996129934L15.225000000000001,97.49222222281739L15.3,97.49214405485715L15.374999999999998,97.49206510129586L15.449999999999998,97.4919853542381L15.524999999999995,97.49190480570907L15.600000000000001,97.49182344765386L15.674999999999999,97.4917412719366L15.749999999999996,97.49165827033967L15.824999999999996,97.4915744345628L15.900000000000002,97.49148975622239L15.975,97.4914042268505L16.049999999999997,97.49131783789413L16.124999999999996,97.49123058071432L16.200000000000003,97.49114244658526L16.275,97.49105342669348L16.349999999999998,97.49096351213691L16.424999999999997,97.49087269392405L16.500000000000004,97.49078096297296L16.575,97.49068831011047L16.65,97.49059472607125L16.724999999999998,97.49050020149679L16.8,97.49040472693457L16.875,97.49030829283706L16.95,97.49021088956073L17.024999999999995,97.49011250736521L17.1,97.49001313641219L17.175,97.48991276676449L17.25,97.48981138838505L17.324999999999996,97.48970899113596L17.400000000000002,97.4896055647774L17.475,97.48950109896668L17.549999999999997,97.48939558325709L17.624999999999996,97.489289007097L17.699999999999996,97.48918135982868L17.775000000000002,97.48907263068733L17.849999999999998,97.48896280879995L17.924999999999997,97.48885188318425L17.999999999999996,97.48873984274759L18.075000000000003,97.4886266762858L18.15,97.48851237248218L18.224999999999998,97.48839691990622L18.299999999999997,97.48828030701259L18.375,97.4881625221399L18.45,97.48804355350954L18.525,97.48792338922458L18.599999999999994,97.48780201726848L18.675,97.48767942550393L18.75,97.48755560167169L18.825,97.48743053338922L18.899999999999995,97.48730420814962L18.975,97.48717661332026L19.05,97.48704773614153L19.125,97.48691756372565L19.199999999999996,97.48678608305521L19.275000000000002,97.4866532809821L19.35,97.48651914422592L19.425,97.48638365937296L19.499999999999996,97.48624681287458L19.574999999999996,97.48610859104603L19.650000000000002,97.48596898006502L19.725,97.4858279659703L19.799999999999997,97.48568553466038L19.874999999999996,97.48554167189201L19.950000000000003,97.48539636327875L20.025000000000002,97.48524959428968L20.099999999999998,97.48510135024773L20.174999999999997,97.48495161632839L20.25,97.48480037755814L20.325000000000003,97.48464761881297L20.4,97.48449332481691L20.474999999999998,97.4843374801404L20.55,97.48418006919886L20.625,97.48402107625104L20.7,97.48386048539754L20.775,97.48369828057912L20.85,97.48353444557519L20.925,97.48336896400208L20.999999999999996,97.48320181931152L21.075,97.48303299478889L21.150000000000002,97.4828624735516L21.225,97.48269023854738L21.299999999999997,97.4825162725526L21.374999999999996,97.4823405581705L21.449999999999996,97.48216307782951L21.525000000000002,97.48198381378143L21.599999999999998,97.48180274809971L21.674999999999997,97.48161986267763L21.749999999999993,97.4814351392265L21.825000000000003,97.48124855927385L21.9,97.48106010416149L21.974999999999998,97.48086975504376L22.049999999999994,97.48067749288558L22.125000000000004,97.4804832984606L22.2,97.4802871523492L22.275,97.4800890349366L22.349999999999994,97.4798889264109L22.425000000000004,97.4796868067611L22.5,97.47948265577503L22.575,97.47927645303744L22.649999999999995,97.47906817792789L22.725000000000005,97.47885780961869L22.8,97.47864532707283L22.875,97.47843070904189L22.949999999999996,97.47821393406386L23.025000000000002,97.4779949804611L23.1,97.47777382633805L23.175,97.4775504495791L23.249999999999996,97.47732482784642L23.324999999999996,97.4770969385776L23.4,97.47686675898356L23.475,97.47663426604615L23.549999999999997,97.47639943651588L23.624999999999996,97.47616224690958L23.7,97.47592267350811L23.775,97.47568069235392L23.849999999999998,97.47543627924871L23.924999999999997,97.47518940975095L24,97.47494005917349L24.075,97.47468820258106L24.149999999999995,97.4744338147878L24.224999999999998,97.47417687035471L24.3,97.47391734358715L24.375,97.4736552085322L24.449999999999996,97.47339043897614L24.525,97.47312300844183L24.6,97.47285289018595L24.675,97.47258005719647L24.749999999999996,97.47230448218986L24.824999999999996,97.47202613760837L24.900000000000002,97.47174499561734L24.975,97.47146102810234L25.049999999999997,97.47117420666635L25.124999999999996,97.47088450262702L25.199999999999996,97.47059188701368L25.275000000000002,97.47029633056454L25.349999999999998,97.46999780372369L25.424999999999997,97.46969627663823L25.499999999999996,97.46939171915517L25.575000000000003,97.46908410081852L25.65,97.46877339086619L25.724999999999998,97.46845955822693L25.799999999999997,97.46814257151719L25.875000000000004,97.46782239903807L25.95,97.46749900877202L26.025,97.46717236837979L26.099999999999998,97.46684244519703L26.175,97.46650920623117L26.25,97.466172618158L26.325,97.46583264731846L26.4,97.4654892597152L26.475,97.46514242100915L26.549999999999997,97.46479209651613L26.625,97.46443825120343L26.7,97.46408084968621L26.775000000000002,97.46371985622406L26.849999999999998,97.46335523471727L26.924999999999997,97.46298694870342L27,97.46261496135358L27.074999999999996,97.46223923546873L27.15,97.46185973347599L27.224999999999998,97.46147641742478L27.3,97.46108924898323L27.374999999999996,97.46069818943413L27.45,97.46030319967123L27.525,97.45990424019521L27.599999999999998,97.45950127110981L27.674999999999997,97.45909425211778L27.75,97.45868314251685L27.825,97.45826790119575L27.9,97.45784848662998L27.974999999999994,97.45742485687776L28.05,97.45699696957577L28.125,97.45656478193487L28.2,97.45612825073599L28.274999999999995,97.4556873323256L28.35,97.45524198261154L28.425,97.45479215705842L28.5,97.45433781068336L28.574999999999996,97.45387889805129L28.650000000000002,97.45341537327059L28.725,97.45294718998841L28.8,97.45247430138602L28.874999999999996,97.45199666017415L28.949999999999996,97.4515142185883L29.025000000000002,97.4510269283839L29.1,97.45053474083154L29.174999999999997,97.45003760671204L29.249999999999996,97.44953547631157L29.325000000000003,97.44902829941668L29.400000000000002,97.44851602530925L29.474999999999998,97.44799860276146L29.549999999999997,97.44747598003059L29.625,97.44694810485396L29.700000000000003,97.44641492444362L29.775,97.44587638548106L29.849999999999998,97.44533243411195L29.925,97.44478301594069L30,97.44422807602501L30.075,97.44366755887046L30.15,97.44310140842484L30.225,97.44252956807266L30.3,97.44195198062938L30.374999999999996,97.44136858833582L30.45,97.4407793328522L30.525000000000002,97.44018415525252L30.6,97.43958299601854L30.674999999999997,97.4389757950338L30.749999999999996,97.4383624915777L30.825000000000003,97.43774302431942L30.900000000000002,97.43711733131167L30.974999999999998,97.43648534998465L31.049999999999997,97.43584701713971L31.124999999999993,97.43520226894302L31.200000000000003,97.43455104091922L31.275,97.43389326794497L31.349999999999998,97.43322888424242L31.424999999999994,97.43255782337268L31.500000000000004,97.43188001822904L31.575,97.43119540103046L31.65,97.43050390331467L31.724999999999994,97.42980545593129L31.800000000000004,97.429099989035L31.875,97.42838743207854L31.95,97.42766771380559L32.025,97.42694076224376L32.1,97.42620650469726L32.175,97.42546486773975L32.25,97.4247157772069L32.324999999999996,97.42395915818902L32.400000000000006,97.4231949350236L32.475,97.42242303128768L32.55,97.42164336979025L32.62499999999999,97.42085587256449L32.7,97.42006046086001L32.775,97.41925705513503L32.85,97.41844557504827L32.925,97.41762593945106L32.99999999999999,97.41679806637913L33.075,97.41596187304452L33.15,97.41511727582717L33.224999999999994,97.41426419026668L33.3,97.41340253105376L33.375,97.41253221202177L33.45,97.41165314613812L33.525,97.41076524549544L33.599999999999994,97.40986842130297L33.675000000000004,97.4089625838775L33.75,97.40804764263456L33.824999999999996,97.40712350607924L33.9,97.40619008179715L33.975,97.40524727644507L34.050000000000004,97.40429499574165L34.125,97.40333314445807L34.199999999999996,97.40236162640838L34.275,97.40138034443996L34.35,97.4003892004238L34.425,97.39938809524466L34.5,97.39837692879121L34.575,97.39735559994597L34.65,97.39632400657516L34.724999999999994,97.39528204551863L34.8,97.39422961257938L34.875,97.39316660251325L34.95,97.39209290901833L35.025,97.39100842472439L35.099999999999994,97.38991304118211L35.175,97.38880664885221L35.25,97.38768913709453L35.324999999999996,97.38656039415696L35.4,97.38542030716427L35.475,97.38426876210681L35.550000000000004,97.38310564382914L35.625,97.38193083601843L35.699999999999996,97.38074422119291L35.775,97.37954568069014L35.85,97.37833509465509L35.925,97.37711234202808L36,97.37587730053288L36.074999999999996,97.3746298466643L36.150000000000006,97.3733698556759L36.225,97.37209720156756L36.3,97.37081175707277L36.375,97.36951339364605L36.45,97.36820198144994L36.525,97.36687738934216L36.6,97.36553948486237L36.675,97.364188134219L36.74999999999999,97.36282320227589L36.825,97.3614445525387L36.9,97.3600520471413L36.975,97.35864554683198L37.05,97.35722491095954L37.125,97.35578999745923L37.2,97.35434066283848L37.275,97.35287676216265L37.349999999999994,97.35139814904042L37.425,97.34990467560925L37.5,97.34839619252058L37.575,97.34687254892481L37.65,97.34533359245634L37.725,97.34377916921821L37.8,97.34220912376682L37.875,97.34062329909632L37.95,97.33902153662292L38.025,97.33740367616903L38.1,97.33576955594725L38.175,97.33411901254422L38.25,97.33245188090419L38.325,97.33076799431265L38.4,97.32906718437951L38.475,97.32734928102235L38.550000000000004,97.32561411244941L38.62499999999999,97.32386150514242L38.7,97.32209128383914L38.775,97.320303271516L38.85,97.31849728937026L38.92499999999999,97.3166731568022L39,97.31483069139705L39.075,97.31296970890673L39.15,97.31109002323144L39.224999999999994,97.30919144640106L39.300000000000004,97.3072737885563L39.375,97.30533685792977L39.45,97.30338046082686L39.52499999999999,97.30140440160615L39.6,97.29940848266011L39.675000000000004,97.29739250439518L39.75,97.29535626521184L39.824999999999996,97.2932995614845L39.900000000000006,97.29122218754104L39.975,97.28912393564237L40.050000000000004,97.28700459596152L40.12499999999999,97.28486395656276L40.2,97.2827018033804L40.275000000000006,97.2805179201973L40.35,97.2783120886233L40.425,97.2760840880734L40.49999999999999,97.27383369574574L40.575,97.27156068659919L40.650000000000006,97.26926483333091L40.724999999999994,97.2669459063537L40.8,97.26460367377288L40.875,97.26223790136332L40.95,97.25984835254573L41.02499999999999,97.25743478836328L41.099999999999994,97.25499696745752L41.175000000000004,97.25253464604435L41.25,97.25004757788955L41.324999999999996,97.24753551428424L41.4,97.24499820401999L41.475,97.24243539336362L41.550000000000004,97.23984682603196L41.62499999999999,97.2372322431661L41.699999999999996,97.23459138330558L41.775000000000006,97.23192398236222L41.85,97.22922977359372L41.925,97.22650848757692L41.99999999999999,97.22375985218096L42.075,97.22098359254002L42.150000000000006,97.21817943102582L42.224999999999994,97.21534708721988L42.3,97.21248627788543L42.37499999999999,97.2095967169392L42.45,97.20667811542265L42.525,97.2037301814732L42.599999999999994,97.20075262029502L42.675,97.19774513412949L42.75000000000001,97.19470742222548L42.824999999999996,97.19163918080929L42.9,97.18854010305421L42.974999999999994,97.18540987904989L43.050000000000004,97.18224819577131L43.125,97.17905473704752L43.199999999999996,97.17582918352997L43.275,97.17257121266064L43.35000000000001,97.16928049863972L43.425,97.16595671239304L43.5,97.16259952153925L43.574999999999996,97.15920859035646L43.650000000000006,97.15578357974869L43.724999999999994,97.15232414721203L43.8,97.14882994680039L43.875,97.14530062909077L43.95,97.14173584114849L44.025,97.13813522649177L44.099999999999994,97.13449842505614L44.175,97.1308250731584L44.25000000000001,97.12711480346037L44.324999999999996,97.12336724493194L44.4,97.11958202281414L44.474999999999994,97.11575875858159L44.55,97.11189706990471L44.625,97.10799657061139L44.699999999999996,97.10405687064846L44.775,97.10007757604266L44.85,97.09605828886119L44.925,97.09199860717197L45,97.08789812500348L45.074999999999996,97.08375643230406L45.15,97.07957311490102L45.225,97.0753477544591L45.3,97.07107992843873L45.375,97.06676921005379L45.45000000000001,97.06241516822882L45.525,97.05801736755603L45.6,97.05357536825167L45.675,97.0490887261121L45.75,97.04455699246941L45.824999999999996,97.0399797141464L45.9,97.03535643341147L45.975,97.03068668793267L46.050000000000004,97.02597001073157L46.125,97.0212059301365L46.2,97.01639396973547L46.275,97.01153364832841L46.35,97.00662447987912L46.425,97.00166597346666L46.49999999999999,96.99665763323628L46.575,96.99159895834975L46.65,96.98648944293541L46.725,96.98132857603743L46.8,96.97611584156482L46.875,96.97085071823979L46.95,96.96553267954563L47.025,96.96016119367404L47.099999999999994,96.95473572347196L47.175,96.9492557263878L47.25,96.94372065441736L47.325,96.93812995404878L47.4,96.9324830662074L47.475,96.92677942619967L47.55,96.9210184636569L47.625,96.915199602478L47.699999999999996,96.90932226077203L47.775,96.90338585079988L47.85,96.89738977891565L47.925000000000004,96.89133344550712L48,96.88521624493592L48.075,96.87903756547689L48.15,96.87279678925694L48.225,96.86649329219324L48.29999999999999,96.86012644393085L48.37499999999999,96.85369560777961L48.45,96.84720014065056L48.525,96.84063939299159L48.6,96.83401270872243L48.675000000000004,96.82731942516915L48.75,96.82055887299784L48.825,96.8137303761476L48.89999999999999,96.80683325176311L48.974999999999994,96.79986681012613L49.050000000000004,96.79283035458673L49.125,96.78572318149347L49.2,96.77854458012314L49.275000000000006,96.77129383260959L49.35,96.76397021387206L49.425000000000004,96.75657299154254L49.49999999999999,96.74910142589266L49.574999999999996,96.74155476975963L49.650000000000006,96.7339322684715L49.725,96.72623315977187L49.800000000000004,96.71845667374339L49.875,96.71060203273099L49.95,96.70266845126403L50.025000000000006,96.69465513597775L50.099999999999994,96.68656128553394L50.175,96.67838609054084L50.24999999999999,96.6701287334721L50.325,96.66178838858514L50.39999999999999,96.65336422183853L50.475,96.64485539080857L50.550000000000004,96.63626104460508L50.625,96.62758032378625L50.699999999999996,96.61881236027278L50.775,96.60995627726103L50.849999999999994,96.60101118913528L50.925000000000004,96.59197620137931L50.99999999999999,96.58285041048676L51.075,96.57363290387099L51.150000000000006,96.5643227597736L51.225,96.55491904717248L51.3,96.5454208256885L51.37499999999999,96.5358271454916L51.449999999999996,96.52613704720576L51.525000000000006,96.51634956181312L51.599999999999994,96.50646371055691L51.675000000000004,96.49647850484382L51.75000000000001,96.48639294614495L51.825,96.47620602589602L51.9,96.46591672539651L51.974999999999994,96.4555240157078L52.05,96.44502685755026L52.12499999999999,96.43442420119933L52.199999999999996,96.42371498638053L52.275,96.41289814216347L52.35,96.40197258685471L52.425000000000004,96.39093722788961L52.5,96.37979096172306L52.574999999999996,96.36853267371919L52.65,96.3571612380398L52.724999999999994,96.34567551753182L52.8,96.33407436361367L52.875,96.32235661616028L52.95,96.31052110338712L53.025000000000006,96.29856664173306L53.099999999999994,96.28649203574199L53.175,96.27429607794323L53.25,96.26197754873084L53.324999999999996,96.24953521624163L53.4,96.236967836232L53.474999999999994,96.22427415195344L53.550000000000004,96.21145289402699L53.62500000000001,96.19850278031615L53.699999999999996,96.18542251579873L53.775,96.17221079243743L53.849999999999994,96.15886628904886L53.925,96.14538767117159L54,96.1317735909326L54.074999999999996,96.1180226869125L54.15,96.10413358400945L54.22500000000001,96.09010489330154L54.3,96.07593521190807L54.375,96.06162312284908L54.449999999999996,96.04716719490371L54.525,96.03256598246713L54.6,96.01781802540594L54.675,96.00292184891212L54.75,95.98787596335563L54.82500000000001,95.97267886413536L54.9,95.95732903152874L54.975,95.94182493053972L55.05,95.92616501074525L55.125,95.91034770614033L55.199999999999996,95.89437143498131L55.275,95.87823459962776L55.35,95.8619355863827L55.425000000000004,95.84547276533121L55.5,95.82884449017749L55.575,95.81204909808014L55.65,95.79508490948598L55.725,95.77795022796198L55.8,95.76064334002575L55.87499999999999,95.74316251497405L55.95,95.72550600470981L56.025,95.7076720435673L56.1,95.68965884813552L56.175,95.67146461707993L56.25,95.65308753096227L56.325,95.63452575205861L56.4,95.61577742417559L56.474999999999994,95.5968406724648L56.55,95.57771360323527L56.625,95.55839430376416L56.7,95.53888084210541L56.775,95.51917126689662L56.85,95.49926360716381L56.925,95.47915587212444L57,95.45884605098821L57.074999999999996,95.43833211275614L57.15,95.41761200601728L57.225,95.39668365874368L57.300000000000004,95.3755449780832L57.375,95.35419385015012L57.45,95.33262813981392L57.525,95.31084569048551L57.6,95.28884432390186L57.67499999999999,95.26662183990797L57.74999999999999,95.2441760162369L57.825,95.22150460828763L57.9,95.1986053489004L57.975,95.17547594813024L58.050000000000004,95.15211409301779L58.125,95.12851744735805L58.2,95.10468365146681L58.27499999999999,95.08061032194462L58.349999999999994,95.05629505143844L58.425000000000004,95.03173540840099L58.5,95.00692893684749L58.575,94.98187315611011L58.650000000000006,94.9565655605899L58.725,94.93100361950619L58.800000000000004,94.90518477664361L58.87499999999999,94.87910645009632L58.949999999999996,94.85276603200997L59.025000000000006,94.82616088832079L59.1,94.79928835849222L59.175000000000004,94.77214575524891L59.25,94.74473036430791L59.325,94.71703944410727L59.400000000000006,94.68907022553189L59.474999999999994,94.66081991163664L59.55,94.63228567736653L59.625,94.6034646692744L59.7,94.57435400523542L59.77499999999999,94.5449507741589L59.85,94.51525203569726L59.925000000000004,94.48525481995189L60,94.45495612717622L60.074999999999996,94.42435292747572L60.15,94.39344216050492L60.224999999999994,94.36222073516134L60.3,94.33068552927648L60.37500000000001,94.29883338930344L60.45,94.2666611300017L60.525000000000006,94.23416553411846L60.6,94.20134335206711L60.675,94.16819130160209L60.74999999999999,94.13470606749071L60.824999999999996,94.10088430118165L60.9,94.06672262047012L60.974999999999994,94.03221760915955L61.050000000000004,93.99736581672006L61.12500000000001,93.96216375794339L61.2,93.92660791259428L61.275,93.89069472505861L61.349999999999994,93.85442060398768L61.425,93.81778192193914L61.49999999999999,93.78077501501431L61.575,93.74339618249158L61.650000000000006,93.7056416864566L61.725,93.66750775142827L61.800000000000004,93.62899056398135L61.875,93.59008627236499L61.949999999999996,93.55079098611758L62.025,93.51110077567776L62.099999999999994,93.4710116719914L62.175,93.43051966611475L62.25000000000001,93.38962070881347L62.325,93.34831071015773L62.400000000000006,93.30658553911327L62.474999999999994,93.2644410231282L62.55,93.2218729477158L62.625,93.17887705603303L62.699999999999996,93.13544904845494L62.775,93.09158458214453L62.84999999999999,93.04727927061867L62.925000000000004,93.00252868330925L63.00000000000001,92.95732834512026L63.074999999999996,92.9116737359802L63.15,92.86556029039012L63.224999999999994,92.81898339696704L63.3,92.7719383979828L63.375,92.72442058889828L63.45,92.676425217893L63.525000000000006,92.62794748538984L63.60000000000001,92.57898254357517L63.675,92.52952549591399L63.75,92.47957139666033L63.824999999999996,92.42911525036263L63.9,92.37815201136422L63.975,92.32667658329872L64.05,92.27468381858043L64.125,92.22216851788954L64.2,92.16912542965225L64.275,92.11554924951552L64.35,92.06143461981668L64.425,92.00677612904767L64.5,91.95156831131385L64.575,91.89580564578748L64.64999999999999,91.83948255615547L64.725,91.78259341006199L64.80000000000001,91.725132518545L64.875,91.66709413546744L64.95,91.60847245694266L65.025,91.54926162075397L65.1,91.48945570576836L65.175,91.42904873134455L65.24999999999999,91.36803465673472L65.325,91.30640738048058L65.4,91.24416073980314L65.475,91.18128850998646L65.55,91.11778440375517L65.625,91.05364207064571L65.7,90.98885509637137L65.775,90.92341700218067L65.85,90.85732124420969L65.925,90.79056121282753L66.00000000000001,90.72313023197545L66.075,90.65502155849916L66.15,90.58622838147454L66.225,90.51674382152657L66.3,90.44656093014137L66.375,90.3756726889713L66.44999999999999,90.30407200913317L66.52499999999999,90.23175173049931L66.6,90.15870462098161L66.675,90.08492337580824L66.75,90.01040061679322L66.825,89.9351288915985L66.9,89.85910067298887L66.975,89.7823083580791L67.05,89.70474426757372L67.125,89.626400644999L67.2,89.54726965592744L67.275,89.46734338719418L67.35000000000001,89.38661384610573L67.425,89.30507295964071L67.5,89.22271257364255L67.575,89.13952445200397L67.64999999999999,89.05550027584351L67.725,88.97063164267351L67.8,88.88491006555998L67.875,88.79832697227371L67.95,88.71087370443328L68.025,88.62254151663898L68.10000000000001,88.53332157559842L68.175,88.44320495924319L68.25,88.35218265583651L68.32499999999999,88.26024556307223L68.39999999999999,88.16738448716441L68.47500000000001,88.07359014192812L68.55,87.97885314785066L68.625,87.88316403115364L68.7,87.78651322284571L68.775,87.68889105776546L68.85,87.59028777361502L68.925,87.49069350998383L69,87.3900983073625L69.075,87.288492106147L69.15,87.18586474563247L69.22500000000001,87.08220596299736L69.3,86.97750539227704L69.375,86.87175256332716L69.44999999999999,86.76493690077673L69.52499999999999,86.65704772297045L69.6,86.54807424090063L69.675,86.43800555712829L69.75,86.32683066469329L69.825,86.21453844601375L69.9,86.10111767177423L69.97500000000001,85.98655699980279L70.05,85.87084497393677L70.125,85.75397002287714L70.19999999999999,85.63592045903141L70.27499999999999,85.51668447734482L70.35000000000001,85.39625015411983L70.42500000000001,85.27460544582375L70.5,85.1517381878844L70.575,85.02763609347359L70.64999999999999,84.90228675227846L70.725,84.77567762926041L70.8,84.64779606340167L70.875,84.51862926643905L70.95,84.38816432158524L71.025,84.25638818223702L71.10000000000001,84.12328767067063L71.17500000000001,83.98884947672401L71.25,83.85306015646574L71.325,83.71590613085064L71.39999999999999,83.57737368436185L71.475,83.43744896363923L71.55,83.29611797609417L71.625,83.1533665885101L71.7,83.00918052562932L71.775,82.86354536872537L71.85,82.71644655416122L71.925,82.56786937193282L72,82.41779896419811L72.075,82.26622032379129L72.14999999999999,82.11311829272199L72.22500000000001,81.95847756065952L72.30000000000001,81.8022826634018L72.375,81.64451798132895L72.45,81.48516773784128L72.52499999999999,81.32421599778166L72.6,81.16164666584196L72.675,80.9974434849535L72.75,80.83159003466135L72.825,80.66406972948228L72.9,80.49486581724616L72.97500000000001,80.3239613774208L73.05,80.15133931941976L73.125,79.97698238089339L73.2,79.80087312600254L73.27499999999999,79.62299394367498L73.35,79.44332704584423L73.425,79.2618544656708L73.5,79.0785580557454L73.575,78.89341948627435L73.65,78.70642024324638L73.725,78.51754162658136L73.8,78.32676474826025L73.875,78.1340705304362L73.95,77.93943970352687L74.02499999999999,77.74285280428737L74.10000000000001,77.54429017386397L74.17500000000001,77.3437319558281L74.25,77.14115809419091L74.325,76.93654833139736L74.4,76.7298822063007L74.475,76.52113905211617L74.55,76.3102979943544L74.62499999999999,76.09733794873394L74.7,75.88223761907274L74.775,75.66497549515856L74.85,75.445529850598L74.925,75.22387874064371L75,75L75.07499999999999,74.92500000000001L75.15,74.85L75.225,74.775L75.3,74.7L75.37500000000001,74.62499999999999L75.45,74.55L75.525,74.475L75.6,74.4L75.675,74.325L75.75,74.25L75.82499999999999,74.17500000000001L75.9,74.1L75.97500000000001,74.02499999999999L76.05,73.95L76.12500000000001,73.87499999999999L76.2,73.8L76.27499999999999,73.72500000000001L76.35,73.65L76.425,73.575L76.5,73.5L76.575,73.425L76.65,73.35L76.72500000000001,73.27499999999999L76.8,73.2L76.875,73.125L76.95,73.05L77.02499999999999,72.97500000000001L77.10000000000001,72.89999999999999L77.175,72.825L77.25,72.75L77.32500000000002,72.67499999999998L77.4,72.6L77.475,72.525L77.55,72.45L77.625,72.375L77.7,72.3L77.77499999999999,72.22500000000001L77.85000000000001,72.14999999999999L77.92500000000001,72.07499999999999L78,72L78.07499999999999,71.92500000000001L78.15,71.85L78.225,71.775L78.3,71.7L78.375,71.625L78.45,71.55L78.525,71.475L78.60000000000001,71.39999999999999L78.675,71.325L78.75,71.25L78.82499999999999,71.17500000000001L78.9,71.1L78.975,71.025L79.04999999999998,70.95000000000002L79.12500000000001,70.87499999999999L79.2,70.8L79.27499999999999,70.72500000000001L79.35000000000001,70.64999999999999L79.425,70.575L79.5,70.5L79.57499999999999,70.42500000000001L79.64999999999999,70.35000000000001L79.72500000000001,70.27499999999999L79.80000000000001,70.19999999999999L79.875,70.125L79.95,70.05L80.02499999999999,69.97500000000001L80.10000000000001,69.89999999999999L80.175,69.825L80.24999999999999,69.75000000000001L80.32500000000002,69.67499999999998L80.4,69.6L80.475,69.525L80.55000000000001,69.44999999999999L80.625,69.375L80.7,69.3L80.77499999999999,69.22500000000001L80.85,69.15L80.925,69.075L81,69L81.075,68.925L81.15,68.85L81.225,68.775L81.30000000000001,68.69999999999999L81.375,68.625L81.44999999999999,68.55000000000001L81.52499999999999,68.47500000000001L81.60000000000001,68.39999999999999L81.675,68.325L81.75,68.25L81.825,68.175L81.9,68.1L81.975,68.025L82.04999999999998,67.95000000000002L82.125,67.875L82.2,67.8L82.27499999999999,67.72500000000001L82.35000000000001,67.64999999999999L82.425,67.575L82.5,67.5L82.575,67.425L82.64999999999999,67.35000000000001L82.725,67.275L82.8,67.2L82.875,67.125L82.95,67.05L83.025,66.975L83.10000000000001,66.89999999999999L83.175,66.825L83.24999999999999,66.75000000000001L83.325,66.675L83.4,66.6L83.475,66.525L83.55000000000001,66.44999999999999L83.625,66.375L83.7,66.3L83.775,66.225L83.85,66.15L83.925,66.075L83.99999999999999,66.00000000000001L84.075,65.925L84.15,65.85L84.225,65.775L84.30000000000001,65.69999999999999L84.375,65.625L84.44999999999999,65.55000000000001L84.525,65.475L84.6,65.4L84.675,65.325L84.75000000000001,65.24999999999999L84.825,65.175L84.9,65.1L84.975,65.025L85.05,64.95L85.125,64.875L85.19999999999999,64.80000000000001L85.275,64.725L85.35000000000001,64.64999999999999L85.425,64.575L85.50000000000001,64.49999999999999L85.575,64.425L85.64999999999999,64.35000000000001L85.725,64.275L85.8,64.2L85.875,64.125L85.95,64.05L86.025,63.974999999999994L86.10000000000001,63.89999999999999L86.175,63.825L86.25,63.75L86.325,63.675L86.39999999999999,63.60000000000001L86.47500000000001,63.52499999999999L86.55,63.45L86.625,63.375L86.70000000000002,63.29999999999998L86.775,63.224999999999994L86.85,63.150000000000006L86.925,63.075L87,63L87.075,62.925L87.15,62.849999999999994L87.22500000000001,62.77499999999999L87.30000000000001,62.69999999999999L87.375,62.625L87.44999999999999,62.55000000000001L87.525,62.474999999999994L87.6,62.400000000000006L87.675,62.325L87.75,62.25L87.825,62.175L87.9,62.099999999999994L87.97500000000001,62.02499999999999L88.05,61.95L88.125,61.875L88.19999999999999,61.80000000000001L88.275,61.724999999999994L88.35,61.650000000000006L88.42499999999998,61.57500000000002L88.50000000000001,61.499999999999986L88.575,61.425L88.64999999999999,61.35000000000001L88.72500000000001,61.27499999999999L88.8,61.2L88.875,61.125L88.94999999999999,61.05000000000001L89.025,60.974999999999994L89.10000000000001,60.89999999999999L89.17500000000001,60.82499999999999L89.25,60.75L89.325,60.675L89.39999999999999,60.60000000000001L89.47500000000001,60.52499999999999L89.55,60.45L89.62499999999999,60.375000000000014L89.70000000000002,60.29999999999998L89.775,60.224999999999994L89.85,60.150000000000006L89.92500000000001,60.07499999999999L90,60L90.075,59.925L90.14999999999999,59.85000000000001L90.22500000000001,59.77499999999999L90.3,59.7L90.375,59.625L90.45,59.55L90.525,59.474999999999994L90.6,59.400000000000006L90.67500000000001,59.32499999999999L90.75,59.25L90.82499999999999,59.17500000000001L90.90000000000002,59.09999999999998L90.975,59.025000000000006L91.05,58.95L91.125,58.875L91.2,58.8L91.275,58.724999999999994L91.35,58.650000000000006L91.42499999999998,58.57500000000002L91.5,58.5L91.575,58.425L91.64999999999999,58.35000000000001L91.72500000000001,58.27499999999999L91.8,58.2L91.875,58.125L91.95,58.05L92.02499999999999,57.97500000000001L92.10000000000001,57.89999999999999L92.175,57.825L92.25,57.75L92.325,57.675L92.4,57.599999999999994L92.47500000000001,57.52499999999999L92.55,57.45L92.62499999999999,57.375000000000014L92.7,57.3L92.775,57.224999999999994L92.85,57.150000000000006L92.92500000000001,57.07499999999999L93,57L93.075,56.925L93.15,56.849999999999994L93.225,56.775000000000006L93.3,56.7L93.37499999999999,56.625000000000014L93.45,56.55L93.525,56.474999999999994L93.6,56.400000000000006L93.67500000000001,56.32499999999999L93.75,56.25L93.82499999999999,56.17500000000001L93.9,56.099999999999994L93.97500000000001,56.02499999999999L94.05,55.95L94.12500000000001,55.874999999999986L94.2,55.8L94.275,55.724999999999994L94.35,55.650000000000006L94.425,55.575L94.5,55.5L94.57499999999999,55.42500000000001L94.65,55.349999999999994L94.725,55.275000000000006L94.8,55.2L94.87500000000001,55.124999999999986L94.95,55.05L95.02499999999999,54.97500000000001L95.1,54.900000000000006L95.175,54.825L95.25,54.75L95.325,54.675L95.4,54.599999999999994L95.47500000000001,54.52499999999999L95.55,54.45L95.625,54.375L95.7,54.3L95.77499999999999,54.22500000000001L95.85000000000001,54.14999999999999L95.925,54.075L96,54L96.07500000000002,53.92499999999998L96.15,53.849999999999994L96.225,53.775000000000006L96.3,53.7L96.375,53.625L96.45,53.55L96.525,53.474999999999994L96.59999999999998,53.40000000000002L96.67500000000001,53.32499999999999L96.75,53.25L96.82499999999999,53.17500000000001L96.9,53.099999999999994L96.975,53.025000000000006L97.05,52.95L97.125,52.875L97.2,52.8L97.275,52.724999999999994L97.35000000000001,52.64999999999999L97.425,52.575L97.5,52.5L97.57499999999999,52.42500000000001L97.65,52.349999999999994L97.72500000000001,52.27499999999999L97.79999999999998,52.20000000000002L97.87500000000001,52.124999999999986L97.95,52.05L98.02499999999999,51.97500000000001L98.10000000000001,51.89999999999999L98.175,51.825L98.25,51.75L98.32499999999999,51.67500000000001L98.4,51.599999999999994L98.475,51.525000000000006L98.55000000000001,51.44999999999999L98.625,51.375L98.7,51.3L98.77499999999999,51.22500000000001L98.85000000000001,51.14999999999999L98.925,51.075L98.99999999999999,51.000000000000014L99.07500000000002,50.92499999999998L99.15,50.849999999999994L99.225,50.775000000000006L99.30000000000001,50.69999999999999L99.375,50.625L99.45,50.55L99.52499999999999,50.47500000000001L99.60000000000001,50.39999999999999L99.675,50.325L99.75,50.25L99.825,50.175L99.9,50.099999999999994L99.975,50.025000000000006L100.05000000000001,49.94999999999999L100.125,49.875L100.19999999999999,49.80000000000001L100.27500000000002,49.72499999999998L100.35,49.650000000000006L100.425,49.575L100.5,49.5L100.575,49.425L100.65,49.349999999999994L100.725,49.275000000000006L100.79999999999998,49.20000000000002L100.875,49.125L100.95,49.05L101.02499999999999,48.97500000000001L101.10000000000001,48.89999999999999L101.175,48.825L101.25,48.75L101.325,48.675L101.39999999999999,48.60000000000001L101.47500000000001,48.52499999999999L101.55,48.45L101.625,48.375L101.7,48.3L101.775,48.224999999999994L101.85000000000001,48.14999999999999L101.925,48.075L101.99999999999999,48.000000000000014L102.075,47.925L102.15,47.849999999999994L102.225,47.775000000000006L102.30000000000001,47.69999999999999L102.375,47.625L102.45,47.55L102.525,47.474999999999994L102.6,47.400000000000006L102.675,47.325L102.74999999999999,47.250000000000014L102.825,47.175L102.9,47.099999999999994L102.975,47.025000000000006L103.05000000000001,46.94999999999999L103.125,46.875L103.19999999999999,46.80000000000001L103.275,46.724999999999994L103.35000000000001,46.64999999999999L103.425,46.575L103.50000000000001,46.499999999999986L103.575,46.425L103.65,46.349999999999994L103.725,46.275000000000006L103.8,46.2L103.875,46.125L103.94999999999999,46.05000000000001L104.025,45.974999999999994L104.1,45.900000000000006L104.175,45.825L104.25000000000001,45.749999999999986L104.325,45.675L104.39999999999999,45.60000000000001L104.475,45.525000000000006L104.55,45.45L104.625,45.375L104.7,45.3L104.775,45.224999999999994L104.85000000000001,45.14999999999999L104.925,45.075L105,45L105.075,44.925L105.14999999999999,44.85000000000001L105.22500000000001,44.77499999999999L105.3,44.7L105.375,44.625L105.45000000000002,44.54999999999998L105.525,44.474999999999994L105.6,44.400000000000006L105.675,44.325L105.75,44.25L105.825,44.175L105.9,44.099999999999994L105.97499999999998,44.02500000000002L106.05000000000001,43.94999999999999L106.125,43.875L106.19999999999999,43.80000000000001L106.275,43.724999999999994L106.35,43.650000000000006L106.425,43.575L106.5,43.5L106.575,43.425L106.64999999999999,43.35000000000001L106.72500000000001,43.27499999999999L106.8,43.2L106.875,43.125L106.94999999999999,43.05000000000001L107.025,42.974999999999994L107.10000000000001,42.89999999999999L107.17499999999998,42.82500000000002L107.25000000000001,42.749999999999986L107.325,42.675L107.39999999999999,42.60000000000001L107.47500000000001,42.52499999999999L107.55,42.45L107.625,42.375L107.69999999999999,42.30000000000001L107.775,42.224999999999994L107.85,42.150000000000006L107.92500000000001,42.07499999999999L108,42L108.075,41.925L108.14999999999999,41.85000000000001L108.22500000000001,41.77499999999999L108.30000000000001,41.69999999999999L108.37499999999999,41.625000000000014L108.45000000000002,41.54999999999998L108.52499999999999,41.47500000000001L108.6,41.400000000000006L108.67500000000001,41.32499999999999L108.75,41.25L108.825,41.175L108.89999999999999,41.10000000000001L108.97500000000001,41.02499999999999L109.05,40.95L109.125,40.875L109.2,40.8L109.275,40.724999999999994L109.35,40.650000000000006L109.42500000000001,40.57499999999999L109.50000000000001,40.499999999999986L109.57499999999999,40.42500000000001L109.65000000000002,40.34999999999998L109.725,40.275000000000006L109.8,40.2L109.875,40.125L109.95,40.05L110.025,39.974999999999994L110.1,39.900000000000006L110.17500000000001,39.82499999999999L110.25,39.75L110.325,39.675L110.39999999999999,39.60000000000001L110.47500000000001,39.52499999999999L110.55,39.45L110.625,39.375L110.7,39.3L110.77499999999999,39.22500000000001L110.85000000000001,39.14999999999999L110.925,39.075L111,39L111.075,38.925L111.15,38.849999999999994L111.22500000000001,38.77499999999999L111.3,38.7L111.37500000000001,38.624999999999986L111.45,38.55L111.525,38.474999999999994L111.6,38.400000000000006L111.67500000000001,38.32499999999999L111.75,38.25L111.825,38.175L111.9,38.099999999999994L111.975,38.025000000000006L112.05000000000001,37.94999999999999L112.12499999999999,37.875000000000014L112.2,37.8L112.27499999999999,37.72500000000001L112.35,37.650000000000006L112.42500000000001,37.57499999999999L112.5,37.5L112.57499999999999,37.42500000000001L112.65,37.349999999999994L112.72500000000001,37.27499999999999L112.8,37.2L112.87500000000001,37.124999999999986L112.95,37.05L113.025,36.974999999999994L113.1,36.900000000000006L113.175,36.825L113.25000000000001,36.749999999999986L113.32499999999999,36.67500000000001L113.4,36.599999999999994L113.475,36.525000000000006L113.55,36.45L113.62500000000001,36.374999999999986L113.7,36.3L113.77499999999999,36.22500000000001L113.85,36.150000000000006L113.92500000000001,36.07499999999999L114,36L114.075,35.925L114.14999999999999,35.85000000000001L114.22500000000001,35.77499999999999L114.3,35.7L114.375,35.625L114.45,35.55L114.52499999999999,35.47500000000001L114.60000000000001,35.39999999999999L114.675,35.325L114.75,35.25L114.82500000000002,35.17499999999998L114.9,35.099999999999994L114.975,35.025000000000006L115.05,34.95L115.12500000000001,34.874999999999986L115.2,34.8L115.275,34.724999999999994L115.34999999999998,34.65000000000002L115.42500000000001,34.57499999999999L115.5,34.5L115.57499999999999,34.42500000000001L115.65,34.349999999999994L115.725,34.275000000000006L115.8,34.2L115.875,34.125L115.95,34.05L116.02499999999999,33.97500000000001L116.10000000000001,33.89999999999999L116.175,33.825L116.25,33.75L116.32499999999999,33.67500000000001L116.4,33.599999999999994L116.47500000000001,33.52499999999999L116.54999999999998,33.45000000000002L116.62500000000001,33.374999999999986L116.7,33.3L116.77499999999999,33.22500000000001L116.85000000000001,33.14999999999999L116.925,33.075L117,33L117.07499999999999,32.92500000000001L117.15,32.849999999999994L117.225,32.775000000000006L117.30000000000001,32.69999999999999L117.375,32.625L117.45,32.55L117.52499999999999,32.47500000000001L117.60000000000001,32.39999999999999L117.67500000000001,32.32499999999999L117.74999999999999,32.250000000000014L117.82500000000002,32.17499999999998L117.89999999999999,32.10000000000001L117.975,32.025000000000006L118.05000000000001,31.94999999999999L118.125,31.875L118.2,31.799999999999997L118.27499999999999,31.72500000000001L118.35000000000001,31.64999999999999L118.425,31.575000000000003L118.5,31.5L118.575,31.424999999999997L118.65,31.349999999999994L118.725,31.275000000000006L118.80000000000001,31.19999999999999L118.87500000000001,31.124999999999986L118.94999999999999,31.05000000000001L119.02500000000002,30.97499999999998L119.1,30.900000000000006L119.175,30.825000000000003L119.25,30.75L119.325,30.674999999999997L119.4,30.599999999999994L119.475,30.525000000000006L119.55000000000001,30.44999999999999L119.625,30.375L119.7,30.299999999999997L119.77499999999999,30.22500000000001L119.85000000000001,30.14999999999999L119.925,30.075000000000003L120,30L120.07499999999999,29.92500000000001L120.14999999999999,29.85000000000001L120.22500000000001,29.77499999999999L120.3,29.700000000000003L120.375,29.625L120.45000000000002,29.549999999999983L120.525,29.474999999999994L120.6,29.400000000000006L120.675,29.325000000000003L120.75000000000001,29.249999999999986L120.825,29.174999999999997L120.9,29.099999999999994L120.975,29.025000000000006L121.05000000000001,28.94999999999999L121.12499999999999,28.875000000000014L121.2,28.799999999999997L121.27500000000002,28.72499999999998L121.35,28.650000000000006L121.42500000000001,28.57499999999999L121.49999999999999,28.500000000000014L121.575,28.424999999999997L121.64999999999999,28.35000000000001L121.725,28.275000000000006L121.80000000000001,28.19999999999999L121.875,28.125L121.94999999999999,28.05000000000001L122.025,27.974999999999994L122.10000000000001,27.89999999999999L122.175,27.825000000000003L122.25000000000001,27.749999999999986L122.32500000000002,27.674999999999983L122.4,27.599999999999994L122.47499999999998,27.52500000000002L122.55,27.450000000000003L122.62500000000001,27.374999999999986L122.69999999999999,27.30000000000001L122.775,27.224999999999994L122.85,27.150000000000006L122.925,27.075000000000003L122.99999999999999,27.000000000000014L123.075,26.924999999999997L123.15,26.849999999999994L123.225,26.775000000000006L123.30000000000001,26.69999999999999L123.375,26.625L123.45,26.549999999999997L123.52499999999999,26.47500000000001L123.60000000000001,26.39999999999999L123.67500000000001,26.32499999999999L123.75,26.25L123.82499999999999,26.17500000000001L123.89999999999999,26.10000000000001L123.97500000000001,26.02499999999999L124.05,25.950000000000003L124.125,25.875L124.20000000000002,25.799999999999983L124.275,25.724999999999994L124.35,25.650000000000006L124.425,25.575000000000003L124.50000000000001,25.499999999999986L124.575,25.424999999999997L124.65,25.349999999999994L124.72499999999998,25.27500000000002L124.80000000000001,25.19999999999999L124.87499999999999,25.125000000000014L124.94999999999999,25.05000000000001L125.02500000000002,24.97499999999998L125.1,24.900000000000006L125.175,24.825000000000003L125.25,24.75L125.325,24.674999999999997L125.39999999999999,24.60000000000001L125.47500000000001,24.52499999999999L125.55000000000001,24.44999999999999L125.625,24.375L125.69999999999997,24.300000000000026L125.775,24.224999999999994L125.85000000000001,24.14999999999999L125.92499999999998,24.075000000000017L126.00000000000001,23.999999999999986L126.07500000000002,23.924999999999983L126.14999999999999,23.85000000000001L126.225,23.775000000000006L126.3,23.700000000000003L126.375,23.625L126.44999999999999,23.55000000000001L126.525,23.474999999999994L126.6,23.400000000000006L126.67500000000001,23.32499999999999L126.75,23.25L126.825,23.174999999999997L126.9,23.099999999999994L126.97500000000001,23.02499999999999L127.05000000000001,22.94999999999999L127.12499999999999,22.875000000000014L127.20000000000002,22.799999999999983L127.27499999999999,22.72500000000001L127.35,22.650000000000006L127.42500000000003,22.574999999999974L127.5,22.5L127.57499999999999,22.42500000000001L127.64999999999999,22.35000000000001L127.72500000000001,22.27499999999999L127.8,22.200000000000003L127.875,22.125L127.95000000000002,22.049999999999983L128.025,21.974999999999994L128.1,21.900000000000006L128.175,21.82499999999999L128.25,21.75L128.325,21.67500000000001L128.4,21.599999999999994L128.475,21.525000000000006L128.55,21.44999999999999L128.625,21.375L128.7,21.30000000000001L128.775,21.224999999999994L128.85,21.150000000000006L128.925,21.07499999999999L129,21L129.07500000000002,20.924999999999983L129.15,20.849999999999994L129.225,20.775000000000006L129.3,20.69999999999999L129.375,20.625L129.45,20.55000000000001L129.52499999999998,20.475000000000023L129.60000000000002,20.399999999999977L129.67499999999998,20.325000000000017L129.75,20.25L129.82500000000002,20.174999999999983L129.9,20.099999999999994L129.975,20.025000000000006L130.05,19.94999999999999L130.125,19.875L130.2,19.80000000000001L130.275,19.724999999999994L130.35,19.650000000000006L130.425,19.57499999999999L130.49999999999997,19.50000000000003L130.57500000000002,19.424999999999983L130.65,19.349999999999994L130.725,19.275000000000006L130.8,19.19999999999999L130.875,19.125L130.95,19.05000000000001L131.02499999999998,18.975000000000023L131.1,18.900000000000006L131.175,18.82499999999999L131.25,18.75L131.325,18.67500000000001L131.4,18.599999999999994L131.47500000000002,18.524999999999977L131.55,18.44999999999999L131.625,18.375L131.70000000000002,18.299999999999983L131.775,18.224999999999994L131.85,18.150000000000006L131.92499999999998,18.075000000000017L132.00000000000003,17.99999999999997L132.075,17.92500000000001L132.15,17.849999999999994L132.225,17.775000000000006L132.3,17.69999999999999L132.375,17.625L132.45,17.55000000000001L132.525,17.474999999999994L132.6,17.400000000000006L132.675,17.32499999999999L132.75,17.25L132.82500000000002,17.174999999999983L132.89999999999998,17.100000000000023L132.97500000000002,17.024999999999977L133.05,16.94999999999999L133.125,16.875L133.2,16.80000000000001L133.275,16.724999999999994L133.35,16.650000000000006L133.42499999999998,16.575000000000017L133.5,16.5L133.57500000000002,16.424999999999983L133.65,16.349999999999994L133.725,16.275000000000006L133.8,16.19999999999999L133.875,16.125L133.95,16.05000000000001L134.025,15.974999999999994L134.1,15.900000000000006L134.175,15.824999999999989L134.25,15.75L134.325,15.675000000000011L134.4,15.599999999999994L134.475,15.525000000000006L134.55,15.449999999999989L134.625,15.375L134.70000000000002,15.299999999999983L134.775,15.224999999999994L134.85,15.150000000000006L134.925,15.074999999999989L135,15L135.075,14.925000000000011L135.15,14.849999999999994L135.22500000000002,14.774999999999977L135.29999999999998,14.700000000000017L135.375,14.625L135.45000000000002,14.549999999999983L135.525,14.474999999999994L135.6,14.400000000000006L135.67499999999998,14.325000000000017L135.75,14.25L135.825,14.175000000000011L135.9,14.099999999999994L135.97500000000002,14.024999999999977L136.05,13.949999999999989L136.125,13.875L136.20000000000002,13.799999999999983L136.275,13.724999999999994L136.35,13.650000000000006L136.42499999999998,13.575000000000017L136.5,13.5L136.57500000000002,13.424999999999983L136.64999999999998,13.350000000000023L136.725,13.275000000000006L136.8,13.199999999999989L136.875,13.125L136.95,13.050000000000011L137.025,12.974999999999994L137.1,12.900000000000006L137.17499999999998,12.825000000000017L137.25,12.75L137.32500000000002,12.674999999999983L137.4,12.599999999999994L137.475,12.525000000000006L137.55,12.449999999999989L137.625,12.375L137.7,12.300000000000011L137.775,12.224999999999994L137.85000000000002,12.149999999999977L137.925,12.074999999999989L138,12L138.075,11.925000000000011L138.15,11.849999999999994L138.225,11.775000000000006L138.29999999999998,11.700000000000017L138.375,11.625L138.45000000000002,11.549999999999983L138.525,11.474999999999994L138.6,11.400000000000006L138.675,11.324999999999989L138.75,11.25L138.825,11.175000000000011L138.89999999999998,11.100000000000023L138.97500000000002,11.024999999999977L139.04999999999998,10.950000000000017L139.125,10.875L139.20000000000002,10.799999999999983L139.275,10.724999999999994L139.35,10.650000000000006L139.425,10.574999999999989L139.5,10.5L139.575,10.425000000000011L139.65,10.349999999999994L139.72500000000002,10.274999999999977L139.8,10.199999999999989L139.87499999999997,10.125000000000028L139.95000000000002,10.049999999999983L140.025,9.974999999999994L140.1,9.900000000000006L140.17499999999998,9.825000000000017L140.25000000000003,9.749999999999972L140.325,9.675000000000011L140.39999999999998,9.600000000000023L140.475,9.525000000000006L140.55,9.449999999999989L140.625,9.375L140.7,9.300000000000011L140.775,9.224999999999994L140.85000000000002,9.149999999999977L140.925,9.074999999999989L141,9L141.07500000000002,8.924999999999983L141.15,8.849999999999994L141.225,8.775000000000006L141.29999999999998,8.700000000000017L141.37500000000003,8.624999999999972L141.45,8.550000000000011L141.525,8.474999999999994L141.60000000000002,8.399999999999977L141.675,8.324999999999989L141.75,8.25L141.825,8.175000000000011L141.9,8.099999999999994L141.975,8.025000000000006L142.04999999999998,7.950000000000017L142.12500000000003,7.874999999999972L142.20000000000002,7.799999999999983L142.27499999999998,7.725000000000023L142.35000000000002,7.649999999999977L142.425,7.574999999999989L142.5,7.5L142.575,7.425000000000011L142.65,7.349999999999994L142.725,7.275000000000006L142.79999999999998,7.200000000000017L142.875,7.125L142.95000000000002,7.049999999999983L143.025,6.974999999999994L143.1,6.900000000000006L143.175,6.824999999999989L143.25,6.75L143.325,6.675000000000011L143.4,6.599999999999994L143.47500000000002,6.524999999999977L143.55,6.449999999999989L143.625,6.375L143.7,6.300000000000011L143.775,6.224999999999994L143.85,6.150000000000006L143.92499999999998,6.075000000000017L144.00000000000003,5.999999999999972L144.07500000000002,5.924999999999983L144.15,5.849999999999994L144.225,5.775000000000006L144.3,5.699999999999989L144.375,5.625L144.45,5.550000000000011L144.525,5.474999999999994L144.60000000000002,5.399999999999977L144.67499999999998,5.325000000000017L144.75,5.25L144.82500000000002,5.174999999999983L144.9,5.099999999999994L144.975,5.025000000000006L145.04999999999998,4.950000000000017L145.125,4.875L145.2,4.800000000000011L145.275,4.724999999999994L145.35000000000002,4.649999999999977L145.425,4.574999999999989L145.5,4.5L145.57500000000002,4.424999999999983L145.65,4.349999999999994L145.725,4.275000000000006L145.79999999999998,4.200000000000017L145.87500000000003,4.124999999999972L145.95000000000002,4.049999999999983L146.02499999999998,3.9750000000000227L146.1,3.9000000000000057L146.175,3.8249999999999886L146.25,3.75L146.325,3.6750000000000114L146.4,3.5999999999999943L146.475,3.5250000000000057L146.54999999999998,3.450000000000017L146.625,3.375L146.70000000000002,3.299999999999983L146.775,3.2249999999999943L146.85,3.1500000000000057L146.925,3.0749999999999886L147,3L147.075,2.9250000000000114L147.15,2.8499999999999943L147.22500000000002,2.7749999999999773L147.3,2.6999999999999886L147.375,2.625L147.45,2.5500000000000114L147.525,2.4749999999999943L147.6,2.4000000000000057L147.67499999999998,2.325000000000017L147.75000000000003,2.2499999999999716L147.82500000000002,2.174999999999983L147.9,2.0999999999999943L147.975,2.0250000000000057L148.05,1.9499999999999886L148.125,1.875L148.2,1.8000000000000114L148.27499999999998,1.7250000000000227L148.35000000000002,1.6499999999999773L148.42499999999998,1.575000000000017L148.5,1.5L148.57500000000002,1.424999999999983L148.65,1.3499999999999943L148.725,1.2750000000000057L148.8,1.1999999999999886L148.875,1.125L148.95,1.0500000000000114L149.025,0.9749999999999943L149.10000000000002,0.8999999999999773L149.175,0.8249999999999886L149.24999999999997,0.7500000000000284L149.32500000000002,0.674999999999983L149.4,0.5999999999999943L149.475,0.5250000000000057L149.54999999999998,0.45000000000001705L149.62500000000003,0.3749999999999716L149.7,0.30000000000001137L149.77499999999998,0.22500000000002274L149.85,0.15000000000000568L149.925,0.07499999999998863L150,0"
          stroke="lightblue" stroke-width="3" fill="none"/>
</svg>