<?xml version="1.0" standalone="no"?>
<svg xmlns="http://www.w3.org/2000/svg" id="svg_9" width="150" height="150" style="background-color: rgb(58, 58, 58);">
    <g transform="translate( 4.838709677419355, 0)" class="axis" fill="none" font-size="10" font-family="sans-serif"
       text-anchor="end">
        <path class="domain" stroke="#000" d="M0,150.5H0.5V0.5H0" style="stroke: orange; stroke-width: 0.5;"/>
    </g>
    <g transform="translate( 0,145.16129032258064)" class="axis" fill="none" font-size="10" font-family="sans-serif"
       text-anchor="middle">
        <path class="domain" stroke="#000" d="M0.5,0V0.5H150.5V0" style="stroke: orange; stroke-width: 0.5;"/>
    </g>
    <path d="M4.838709677419355,24.19354838709677L5.32258064516129,25.397197530342567L5.806451612903226,26.58887016450541L6.290322580645162,27.76868545784177L6.774193548387098,28.936761392864142L7.258064516129033,30.093214778139426L7.741935483870968,31.238161259969928L8.225806451612904,32.37171533395785L8.709677419354838,33.493990356455356L9.193548387096774,34.605098555899815L9.67741935483871,35.705151044037166L10.161290322580646,36.79425782703288L10.64516129032258,37.87252781647288L11.129032258064516,38.94006884025467L11.612903225806452,39.996987653370255L12.096774193548386,41.04338994858172L12.580645161290324,42.07938036699056L13.064516129032258,43.10506250850197L13.548387096774196,44.12053894218484L14.03225806451613,45.12591121652876L14.516129032258066,46.121279869598965L14.999999999999998,47.106744439090264L15.483870967741936,48.08240347228082L15.967741935483872,49.048354535887015L16.451612903225804,50.00469422582016L16.93548387096774,50.95151817684618L17.419354838709676,51.88892107214923L17.903225806451612,52.81699665280003L18.387096774193548,53.73583772712999L18.87096774193548,54.645536180012286L19.35483870967742,55.54618298205027L19.838709677419356,56.43786819867468L20.322580645161292,57.320680999150284L20.806451612903228,58.194709665492795L21.29032258064516,59.0600416012972L21.7741935483871,59.91676334047821L22.258064516129032,60.764960555923665L22.741935483870968,61.60471806806193L23.2258064516129,62.43611985334405L23.709677419354836,63.259249052641366L24.193548387096772,64.07418797955975L24.67741935483871,64.88101812867106L25.161290322580648,65.67982018366249L25.64516129032258,66.47067402540524L26.129032258064516,67.25365873994258L26.612903225806452,68.0288526263984L27.09677419354839,68.79633320480734L27.580645161290327,69.55617722386684L28.064516129032256,70.308460668612L28.548387096774192,71.05325876801417L29.032258064516128,71.79064600250403L29.516129032258064,72.52069611141945L29.999999999999996,73.24348210037974L30.483870967741936,73.95907624858607L30.967741935483872,74.66755011604963L31.451612903225808,75.36897455074758L31.935483870967744,76.06341969570788L32.41935483870968,76.75095499602374L32.90322580645161,77.43164920579814L33.387096774193544,78.10557039501931L33.87096774193548,78.77278595636776L34.354838709677416,79.43336261195567L34.83870967741935,80.08736641999904L35.32258064516129,80.73486278142373L35.806451612903224,81.37591644640541L36.29032258064516,82.01059152084483L36.774193548387096,82.63895147277833L37.25806451612903,83.26105913872469L37.74193548387096,83.876976729969L38.225806451612904,84.48676583878361L38.70967741935484,85.09048744458755L39.193548387096776,85.68820192004455L39.677419354838705,86.27996903710019L40.16129032258064,86.86584797295939L40.64516129032258,87.44589731600391L41.12903225806451,88.02017507165144L41.61290322580645,88.58873866815614L42.096774193548384,89.15164496235144L42.58064516129032,89.70895024533586L43.064516129032256,90.26071024810211L43.5483870967742,90.8069801471103L44.032258064516135,91.34781456980551L44.516129032258064,91.88326760008073L45,92.41339278368521L45.483870967741936,92.93824313357908L45.967741935483865,93.45787113523467L46.4516129032258,93.97232875188521L46.93548387096774,94.48166742972109L47.41935483870967,94.9859381030345L47.90322580645161,95.48519119931305L48.387096774193544,95.97947664428236L48.87096774193548,96.46884386689888L49.35483870967742,96.95334180429263L49.83870967741936,97.43301890666115L50.322580645161295,97.90792314211438L50.80645161290323,98.37810200147163L51.29032258064516,98.84360250301064L51.774193548387096,99.3044711971695L52.25806451612903,99.76075417120167L52.74193548387097,100.2124970537848L53.225806451612904,100.65974501958358L53.70967741935484,101.10254279376733L54.19354838709678,101.54093465648248L54.67741935483872,101.97496444728056L55.161290322580655,102.40467556950239L55.64516129032259,102.83011099461831L56.12903225806452,103.25131326652532L56.612903225806456,103.66832450580162L57.09677419354839,104.08118641391866L57.58064516129033,104.48994027741129L58.06451612903226,104.89462697200652L58.5483870967742,105.29528696671102L59.032258064516135,105.69196032785814L59.51612903225808,106.08468672311457L60.000000000000014,106.47350542544712L60.48387096774195,106.85845531705002L60.96774193548387,107.23957489323323L61.45161290322581,107.61690226627198L61.935483870967744,107.990475169218L62.41935483870968,108.3603309596729L62.903225806451616,108.72650662352393L63.38709677419355,109.08903877864266L63.87096774193549,109.44796367854667L64.35483870967742,109.80331721602508L64.83870967741936,110.15513492672774L65.3225806451613,110.50345199271894L65.80645161290323,110.84830324599551L66.29032258064517,111.1897231719702L66.7741935483871,111.52774591292007L67.25806451612904,111.86240527140093L67.74193548387098,112.19373471362752L68.22580645161291,112.52176737282014L68.70967741935485,112.8465360525181L69.19354838709678,113.16807322986L69.67741935483872,113.48641105883154L70.16129032258065,113.80158137348087L70.64516129032259,114.11361569110211L71.12903225806453,114.42254521538706L71.61290322580646,114.72840083954559L72.0967741935484,115.03121314939497L72.58064516129033,115.33101242641857L73.06451612903226,115.6278286507939L73.54838709677419,115.92169150439075L74.03225806451613,116.21263037373937L74.51612903225806,116.50067435296914L75,116.78585224671804L75.48387096774192,117.06819257301305L75.96774193548387,117.34772356612211L76.45161290322581,117.62447317937749L76.93548387096774,117.89846908797112L77.41935483870968,118.1697386917222L77.90322580645162,118.43830911781716L78.38709677419355,118.70420722352242L78.87096774193549,118.96745959887012L79.35483870967742,119.22809256931718L79.83870967741937,119.48613219837786L80.3225806451613,119.74160429023007L80.80645161290322,119.99453439229592L81.29032258064517,120.24494779779636L81.7741935483871,120.49286954828064L82.25806451612904,120.7383244361304L82.74193548387098,120.98133700703897L83.22580645161291,121.22193156246597L83.70967741935485,121.46013216206742L84.19354838709678,121.69596262610179L84.67741935483872,121.929446537812L85.16129032258064,122.16060724578381L85.64516129032258,122.38946786628064L86.12903225806451,122.61605128555524L86.61290322580645,122.84038016213839L87.0967741935484,123.06247692910468L87.58064516129032,123.28236379631588L88.06451612903227,123.50006275264195L88.54838709677419,123.71559556815994L89.03225806451613,123.92898379633102L89.51612903225806,124.14024877615584L90,124.34941163430841L90.48387096774194,124.55649328724886L90.96774193548387,124.76151444331506L91.45161290322582,124.96449560479347L91.93548387096774,125.16545706996938L92.4193548387097,125.36441893515678L92.90322580645162,125.56140109670797L93.38709677419355,125.7564232530033L93.87096774193549,125.94950490642088L94.35483870967742,126.14066536528699L94.83870967741936,126.32992374580678L95.3225806451613,126.51729897397604L95.80645161290323,126.70280978747373L96.29032258064517,126.88647473753579L96.77419354838709,127.06831219081027L97.25806451612904,127.24834033119406L97.74193548387096,127.4265771616512L98.2258064516129,127.60304050601326L98.70967741935485,127.77774801076174L99.19354838709677,127.95071714679271L99.67741935483872,128.1219652111639L100.16129032258064,128.29150932882447L100.64516129032259,128.4593664543275L101.1290322580645,128.62555337352535L101.61290322580646,128.79008670524846L102.09677419354841,128.95298290296714L102.58064516129032,129.1142582564369L103.06451612903228,129.27392889332745L103.54838709677419,129.43201078083558L104.03225806451611,129.58851972728175L104.51612903225806,129.74347138369103L105,129.8968812453582L105.48387096774194,130.04876465339728L105.96774193548387,130.19913679627564L106.45161290322581,130.34801271133284L106.93548387096774,130.4954072862845L107.41935483870968,130.6413352607109L107.90322580645162,130.7858112275311L108.38709677419357,130.9288496344622L108.87096774193549,131.07046478546408L109.35483870967744,131.21067084216986L109.83870967741936,131.34948182530204L110.32258064516131,131.48691161607462L110.80645161290322,131.6229739575812L111.29032258064518,131.75768245616928L111.77419354838709,131.89105058280103L112.25806451612904,132.02309167440023L112.74193548387096,132.1538189351861L113.22580645161291,132.28324543799363L113.70967741935483,132.41138412558092L114.19354838709678,132.53824781192358L114.6774193548387,132.66384918349596L115.16129032258065,132.7882008005398L115.64516129032259,132.91131509832056L116.12903225806453,133.0332043883705L116.61290322580646,133.1538808597203L117.09677419354838,133.27335658011756L117.58064516129033,133.39164349723393L118.06451612903226,133.5087534398597L118.5483870967742,133.62469811908673L119.03225806451611,133.73948912947955L119.51612903225808,133.85313795023487L119.99999999999999,133.96565594632943L120.48387096774194,134.07705436965668L120.96774193548386,134.1873443601517L121.45161290322581,134.29653694690552L121.93548387096774,134.40464304926778L122.41935483870968,134.5116734779388L122.90322580645162,134.61763893605064L123.38709677419355,134.72255002023743L123.87096774193549,134.826417221695L124.35483870967742,134.92925092723007L124.83870967741936,135.03106142029887L125.3225806451613,135.13185888203557L125.80645161290323,135.23165339227032L126.29032258064518,135.3304549305373L126.7741935483871,135.42827337707268L127.25806451612905,135.52511851380265L127.74193548387098,135.6210000253216L128.22580645161293,135.7159274998605L128.70967741935485,135.809910430246L129.19354838709677,135.9029582148494L129.67741935483872,135.99508015852675L130.16129032258064,136.08628547354917L130.6451612903226,136.17658328052414L131.1290322580645,136.2659826093076L131.61290322580646,136.35449239990697L132.09677419354838,136.44212150337506L132.58064516129033,136.52887868269522L133.06451612903226,136.61477261365772L133.5483870967742,136.69981188572717L134.03225806451613,136.7840050029017L134.51612903225808,136.86736038456314L135,136.9498863663192L135.48387096774195,137.03159120083671L135.96774193548387,137.11248305866732L136.45161290322582,137.19257002906417L136.93548387096774,137.27186012079102L137.4193548387097,137.35036126292317L137.90322580645162,137.4280813056402L138.38709677419357,137.5050280210112L138.8709677419355,137.5812091037718L139.35483870967744,137.65663217209377L139.83870967741936,137.73130476834675L140.3225806451613,137.80523435985268L140.80645161290323,137.87842833963222L141.29032258064515,137.95089402714444L141.7741935483871,138.02263866901842L142.25806451612902,138.09366943977813L142.74193548387098,138.16399344255987L143.2258064516129,138.2336177098225L143.70967741935485,138.3025492040508L144.19354838709677,138.37079481845157L144.67741935483872,138.4383613776432L145.16129032258064,138.50525563833784L145.6451612903226,138.57148429001737L146.1290322580645,138.63705395560208L146.61290322580646,138.70197119211326L147.09677419354838,138.7662424913286L147.58064516129033,138.82987428043157L148.06451612903226,138.89287292265413L148.5483870967742,138.95524471791302L149.03225806451613,139.0169959034397L149.51612903225808,139.07813265440421L150,139.1386610845326L150.48387096774195,139.1985872467183L150.96774193548384,139.25791713362747L151.45161290322582,139.31665667829824L151.93548387096774,139.37481175473405L152.41935483870967,139.432388178491L152.90322580645162,139.48939170725947L153.38709677419357,139.54582804143976L153.8709677419355,139.6017028247124L154.3548387096774,139.65702164460222L154.83870967741936,139.71179003303737L155.32258064516128,139.76601346690228L155.80645161290323,139.81969736858554L156.29032258064518,139.87284710652207L156.7741935483871,139.92546799572995L157.25806451612902,139.97756529834191L157.74193548387098,140.0291442241317L158.22580645161293,140.0802099310348L158.70967741935485,140.13076752566454L159.19354838709677,140.18082206382246L159.67741935483875,140.2303785510041L160.16129032258064,140.27944194289947L160.6451612903226,140.32801714588865L161.1290322580645,140.3761090175324L161.61290322580643,140.42372236705802L162.09677419354838,140.47086195584006L162.58064516129033,140.51753249787677L163.06451612903226,140.56373866026118L163.5483870967742,140.60948506364804L164.03225806451613,140.65477628271583L164.51612903225808,140.6996168466242L165,140.7440112394669L165.48387096774195,140.7879639007202L165.96774193548387,140.83147922568685L166.4516129032258,140.87456156593564L166.93548387096777,140.91721522973648L167.41935483870967,140.9594444824913L167.90322580645162,141.00125354716056L168.38709677419354,141.04264660468556L168.8709677419355,141.08362779440657L169.3548387096774,141.12420121447667L169.83870967741936,141.16437092227176L170.32258064516128,141.204140934796L170.80645161290323,141.2435152290838L171.29032258064515,141.28249774259749L171.7741935483871,141.32109237362081L172.25806451612902,141.35930298164908L172.74193548387098,141.3971333877749L173.2258064516129,141.43458737507044L173.70967741935485,141.47166868896562L174.1935483870968,141.50838103762277L174.67741935483872,141.5447280923073L175.16129032258064,141.580713487755L175.6451612903226,141.6163408225354L176.12903225806454,141.65161365941165L176.61290322580646,141.68653552569685L177.09677419354838,141.7211099136067L177.58064516129036,141.75534028060886L178.06451612903226,141.7892300497685L178.54838709677418,141.82278261009083L179.03225806451613,141.85600131685976L179.51612903225808,141.88888949197374L180,141.92145042427765L180.48387096774192,141.95368736989184L180.96774193548387,141.98560355253775L181.45161290322582,142.01720216386025L181.93548387096774,142.04848636374678L182.41935483870967,142.07945928064342L182.90322580645164,142.11012401186767L183.38709677419357,142.14048362391821L183.8709677419355,142.17054115278154L184.3548387096774,142.20029960423557L184.8387096774194,142.22976195415026L185.32258064516128,142.25893114878517L185.80645161290323,142.28781010508408L186.29032258064515,142.31640171096663L186.7741935483871,142.3447088256173L187.25806451612902,142.3727342797711L187.74193548387098,142.4004808759968L188.2258064516129,142.4279513889772L188.70967741935485,142.45514856578643L189.19354838709677,142.48207512616483L189.67741935483872,142.50873376279094L190.16129032258067,142.53512714155056L190.6451612903226,142.56125790180363L191.1290322580645,142.58712865664793L191.61290322580643,142.61274199318046L192.0967741935484,142.6381004727563L192.58064516129033,142.66320663124444L193.06451612903226,142.68806297928174L193.54838709677418,142.71267200252368L194.03225806451613,142.73703616189306L194.51612903225805,142.76115789382618L195,142.7850396105163L195.48387096774192,142.808683700155L195.96774193548387,142.83209252717094L196.4516129032258,142.85526843246635L196.93548387096774,142.87821373365102L197.4193548387097,142.90093072527426L197.90322580645162,142.92342167905412L198.38709677419354,142.94568884410472L198.87096774193546,142.96773444716115L199.35483870967744,142.9895606928021L199.83870967741936,143.01116976367024L200.32258064516128,143.0325638206907L200.80645161290317,143.05374500328708L201.29032258064518,143.07471542959522L201.7741935483871,143.09547719667523L202.258064516129,143.11603238072112L202.74193548387092,143.13638303726847L203.22580645161287,143.15653120139984L203.70967741935482,143.17647888794846L204.19354838709674,143.19622809169962L204.67741935483866,143.21578078759012L205.1612903225806,143.23513893090583L205.64516129032256,143.25430445747728L206.12903225806448,143.27327928387305L206.61290322580643,143.2920653075916L207.09677419354836,143.31066440725095L207.5806451612903,143.32907844277656L208.06451612903223,143.34730925558736L208.54838709677418,143.3653586687798L209.0322580645161,143.38322848731028L209.51612903225805,143.40092049817548L210,143.41843647059125L210.48387096774192,143.43577815616945L210.96774193548384,143.45294728909306L211.4516129032258,143.46994558628973L211.93548387096774,143.48677474760328L212.41935483870967,143.5034364559639L212.9032258064516,143.51993237755633L213.38709677419357,143.53626416198645L213.8709677419355,143.55243344244633L214.3548387096774,143.56844183587745L214.83870967741933,143.58429094313254L215.3225806451613,143.5999823491355L215.80645161290323,143.61551762304003L216.29032258064515,143.63089831838644L216.77419354838707,143.64612597325714L217.25806451612897,143.66120211043022L217.74193548387098,143.67612823753205L218.2258064516129,143.6909058471877L218.7096774193548,143.70553641717052L219.1935483870967,143.72002141054963L219.67741935483872,143.7343622758365L220.1612903225806,143.7485604471296L220.64516129032253,143.76261734425785L221.12903225806448,143.7765343729227L221.61290322580643,143.79031292483862L222.09677419354836,143.8039543778723L222.58064516129028,143.81746009618035L223.06451612903223,143.83083143034594L223.54838709677418,143.84406971751358L224.0322580645161,143.857176281523L224.51612903225805,143.87015243304157L224.99999999999997,143.88299946969525L225.48387096774192,143.89571867619838L225.96774193548384,143.9083113244822L226.4516129032258,143.9207786738221L226.93548387096772,143.93312197096333L227.41935483870967,143.94534245024593L227.90322580645162,143.957441333728L228.38709677419354,143.969419831308L228.87096774193546,143.98127914084563L229.35483870967738,143.99302044828173L229.83870967741936,144.00464492775683L230.32258064516128,144.0161537417286L230.8064516129032,144.02754804108798L231.29032258064512,144.03882896527443L231.7741935483871,144.04999764238977L232.25806451612902,144.061055189311L232.74193548387095,144.07200271180204L233.22580645161287,144.08284130462425L233.70967741935485,144.09357205164596L234.19354838709677,144.1041960259508L234.6774193548387,144.11471428994508L235.16129032258058,144.12512789546395L235.6451612903226,144.13543788387662L236.1290322580645,144.14564528619056L236.6129032258064,144.15575112315446L237.09677419354836,144.16575640536047L237.58064516129033,144.17566213334516L238.06451612903223,144.18546929768956L238.54838709677415,144.1951788791183L239.0322580645161,144.20479184859758L239.51612903225805,144.21430916743236L239.99999999999997,144.2237317873625L240.48387096774192,144.2330606506578L240.96774193548384,144.24229669021238L241.45161290322577,144.25144082963791L241.93548387096772,144.26049398335593L242.41935483870967,144.26945705668936L242.9032258064516,144.278330945953L243.3870967741935,144.28711653854316L243.8709677419355,144.29581471302646L244.3548387096774,144.30442633922758L244.83870967741933,144.3129522783163L245.32258064516125,144.3213933828936L245.80645161290323,144.32975049707707L246.29032258064515,144.338024456585L246.77419354838707,144.3462160888203L247.258064516129,144.354326212953L247.74193548387098,144.36235564000225L248.2258064516129,144.37030517291745L248.70967741935482,144.37817560665854L249.19354838709674,144.38596772827543L249.67741935483872,144.3936823169868L250.16129032258064,144.40132014425794L250.64516129032256,144.40888197387793L251.1290322580645,144.416368562036L251.61290322580646,144.4237806573973L252.09677419354838,144.43111900117748L252.5806451612903,144.43838432721702L253.0645161290322,144.44557736205462L253.54838709677415,144.45269882499971L254.03225806451613,144.4597494282046L254.51612903225802,144.46672987673537L254.99999999999997,144.4736408686428L255.4838709677419,144.48048309503176L255.96774193548384,144.48725724013065L256.4516129032258,144.49396398135957L256.9354838709677,144.5006039893983L257.41935483870964,144.5071779282531L257.9032258064516,144.5136864553234L258.38709677419354,144.5201302214673L258.87096774193543,144.52650987106676L259.3548387096774,144.5328260420921L259.83870967741933,144.53907936616568L260.3225806451613,144.5452704686251L260.8064516129032,144.55139996858577L261.2903225806451,144.5574684790028L261.7741935483871,144.56347660673228L262.258064516129,144.569424952592L262.741935483871,144.5753141114215L263.22580645161287,144.58114467214156L263.7096774193548,144.58691721781312L264.19354838709677,144.59263232569558L264.6774193548387,144.59829056730445L265.1612903225806,144.60389250846862L265.64516129032256,144.6094387093869L266.1290322580645,144.61492972468395L266.61290322580646,144.62036610346593L267.09677419354836,144.62574838937522L267.5806451612903,144.6310771206449L268.06451612903226,144.63635283015256L268.5483870967742,144.6415760454735L269.0322580645161,144.64674728893365L269.516129032258,144.65186707766165L270,144.65693592364062L270.48387096774195,144.6619543337594L270.96774193548384,144.66692280986322L271.45161290322574,144.67184184880378L271.93548387096774,144.67671194248905L272.41935483870964,144.68153357793253L272.9032258064516,144.68630723730175L273.3870967741935,144.6910333979666L273.8709677419355,144.6957125325471L274.3548387096774,144.70034510896065L274.83870967741933,144.70493159046868L275.3225806451612,144.70947243572323L275.80645161290323,144.71396809881256L276.2903225806451,144.71841902930674L276.7741935483871,144.72282567230252L277.258064516129,144.72718846846792L277.7419354838709,144.73150785408612L278.22580645161287,144.73578426109933L278.7096774193548,144.7400181171518L279.19354838709677,144.7442098456327L279.67741935483866,144.7483598657183L280.1612903225806,144.75246859241412L280.64516129032256,144.7565364365962L281.1290322580645,144.76056380505244L281.6129032258064,144.76455110052297L282.09677419354836,144.76849872174066L282.5806451612903,144.77240706347095L283.06451612903226,144.77627651655126L283.54838709677415,144.78010746793012L284.03225806451616,144.78390030070585L284.51612903225805,144.78765539416491L285,144.79137312381977L285.4838709677419,144.79505386144646L285.9677419354839,144.79869797512188L286.4516129032258,144.80230582926038L286.93548387096774,144.80587778465036L287.41935483870964,144.8094141984904L287.90322580645164,144.8129154244248L288.38709677419354,144.81638181257907L288.87096774193543,144.8198137095949L289.3548387096774,144.8232114586649L289.83870967741933,144.82657539956676L290.3225806451613,144.82990586869738L290.8064516129032,144.83320319910646L291.2903225806451,144.83646772052978L291.7741935483871,144.83969975942222L292.258064516129,144.84289963899033L292.7419354838709,144.84606767922477L293.22580645161287,144.8492041969322L293.7096774193548,144.85230950576698L294.19354838709677,144.85538391626258L294.67741935483866,144.85842773586265L295.1612903225806,144.86144126895164L295.64516129032256,144.86442481688542L296.1290322580645,144.86737867802123L296.61290322580646,144.87030314774765L297.09677419354836,144.8731985185141L297.5806451612903,144.87606507986004L298.06451612903226,144.87890311844404L298.5483870967742,144.8817129180723L299.0322580645161,144.88449475972715L299.51612903225805,144.88724892159505L300,144.88997567909445L300.4838709677419,144.89267530490343L300.96774193548384,144.89534806898678L301.45161290322574,144.89799423862317L301.9354838709677,144.90061407843174L302.4193548387097,144.90320785039867L302.9032258064516,144.9057758139033L303.38709677419354,144.90831822574415L303.87096774193543,144.91083534016448L304.3548387096774,144.91332740887788L304.83870967741933,144.91579468109325L305.3225806451612,144.9182374035399L305.80645161290323,144.92065582049213L306.2903225806452,144.9230501737936L306.7741935483871,144.92542070288164L307.258064516129,144.92776764481115L307.7419354838709,144.9300912342783L308.22580645161287,144.93239170364396L308.7096774193548,144.93466928295697L309.1935483870967,144.93692419997717L309.6774193548387,144.93915668019812L310.16129032258067,144.94136694686972L310.64516129032256,144.9435552210205L311.1290322580645,144.94572172147966L311.6129032258064,144.94786666489907L312.09677419354836,144.94999026577486L312.58064516129036,144.9520927364689L313.06451612903226,144.95417428723L313.5483870967742,144.95623512621492L314.03225806451616,144.95827545950937L314.51612903225805,144.96029549114832L315,144.96229542313662L315.4838709677419,144.96427545546916L315.9677419354838,144.9662357861508L316.45161290322585,144.96817661121625L316.93548387096774,144.97009812474965L317.41935483870964,144.97200051890394L317.9032258064516,144.9738839839201L318.38709677419354,144.97574870814623L318.87096774193543,144.9775948780563L319.3548387096774,144.97942267826883L319.8387096774193,144.9812322915654L320.3225806451613,144.98302389890878L320.80645161290323,144.98479767946128L321.2903225806451,144.98655381060235L321.7741935483871,144.98829246794662L322.258064516129,144.99001382536127L322.7419354838709,144.99171805498347L323.22580645161287,144.99340532723758L323.7096774193548,144.99507581085228L324.19354838709677,144.99672967287728L324.6774193548387,144.99836707870017L325.1612903225806,144.9999881920629L325.64516129032256,145.00159317507817L326.1290322580645,145.0031821882456L326.6129032258064,145.00475539046784L327.0967741935484,145.00631293906642L327.5806451612903,145.00785498979752L328.06451612903226,145.00938169686745L328.5483870967742,145.01089321294825L329.0322580645161,145.01238968919273L329.51612903225805,145.01387127524978L329.99999999999994,145.01533811927928L330.48387096774195,145.0167903679668L330.9677419354839,145.01822816653845L331.4516129032258,145.01965165877527L331.9354838709677,145.02106098702768L332.4193548387097,145.02245629222966L332.9032258064516,145.02383771391294L333.3870967741935,145.02520539022078L333.87096774193543,145.026559457922L334.35483870967744,145.02790005242446L334.83870967741933,145.02922730778877L335.3225806451613,145.03054135674154L335.8064516129032,145.03184233068876L336.2903225806451,145.03313035972891L336.7741935483871,145.034405572666L337.25806451612897,145.03566809702235L337.741935483871,145.03691805905146L338.2258064516129,145.03815558375055L338.7096774193548,145.03938079487315L339.19354838709677,145.04059381494142L339.67741935483866,145.04179476525832L340.1612903225806,145.0429837659199L340.64516129032256,145.04416093582725L341.12903225806446,145.0453263926983L341.61290322580646,145.04648025307972L342.09677419354836,145.04762263235853L342.5806451612903,145.0487536447736L343.06451612903226,145.04987340342709L343.54838709677415,145.05098202029583L344.0322580645161,145.05207960624242L344.51612903225805,145.05316627102636L345,145.05424212331502L345.48387096774195,145.05530727069456L345.96774193548384,145.0563618196806L346.4516129032258,145.0574058757289L346.93548387096774,145.05843954324595L347.41935483870964,145.05946292559938L347.9032258064516,145.06047612512822L348.3870967741936,145.06147924315331L348.8709677419355,145.0624723799873L349.35483870967744,145.06345563494466L349.83870967741933,145.06442910635175L350.3225806451613,145.06539289155648L350.80645161290323,145.06634708693818L351.2903225806451,145.06729178791724L351.774193548387,145.06822708896448L352.258064516129,145.0691530836108L352.741935483871,145.07006986445643L353.22580645161287,145.07097752318023L353.7096774193548,145.07187615054886L354.1935483870967,145.07276583642576L354.67741935483866,145.07364666978026L355.1612903225806,145.07451873869644L355.6451612903225,145.07538213038194L356.1290322580645,145.07623693117662L356.61290322580646,145.0770832265613L357.09677419354836,145.0779211011662L357.5806451612903,145.07875063877947L358.0645161290322,145.07957192235557L358.54838709677415,145.08038503402358L359.03225806451616,145.08119005509528L359.51612903225805,145.0819870660735L360,145.08277614666L360.48387096774195,145.08355737576343L360.96774193548384,145.08433083150743L361.4516129032258,145.0850965912382L361.9354838709677,145.08585473153232L362.41935483870964,145.08660532820448L362.90322580645164,145.08734845631497L363.38709677419354,145.0880841901772L363.8709677419355,145.0888126033652L364.3548387096774,145.08953376872088L364.83870967741933,145.0902477583614L365.3225806451613,145.09095464368625L365.8064516129032,145.0916544953846L366.29032258064507,145.09234738344222L366.77419354838713,145.09303337714846L367.258064516129,145.0937125451033L367.7419354838709,145.09438495522406L368.22580645161287,145.09505067475231L368.7096774193548,145.0957097702606L369.1935483870967,145.096362307659L369.67741935483866,145.0970083522018L370.16129032258056,145.09764796849402L370.64516129032256,145.09828122049777L371.1290322580645,145.09890817153882L371.6129032258064,145.09952888431278L372.09677419354836,145.1001434208914L372.5806451612903,145.10075184272895L373.0645161290322,145.10135421066806L373.5483870967742,145.10195058494602L374.0322580645161,145.10254102520076L374.51612903225805,145.10312559047682L375,145.10370433923117L375.4838709677419,145.10427732933923L375.96774193548384,145.10484461810043L376.45161290322574,145.10540626224414L376.9354838709677,145.10596231793528L377.4193548387097,145.10651284077983L377.9032258064516,145.10705788583056L378.38709677419354,145.1075975075924L378.8709677419355,145.10813176002802L379.3548387096774,145.10866069656305L379.83870967741933,145.10918437009164L380.3225806451612,145.10970283298158L380.80645161290323,145.11021613707956L381.2903225806452,145.1107243337164L381.7741935483871,145.11122747371223L382.258064516129,145.1117256073815L382.741935483871,145.11221878453787L383.22580645161287,145.1127070544996L383.7096774193548,145.113190466094L384.1935483870967,145.1136690676627L384.6774193548387,145.1141429070662L385.16129032258067,145.11461203168886L385.64516129032256,145.11507648844355L386.12903225806446,145.1155363237763L386.61290322580646,145.11599158367105L387.09677419354836,145.11644231365415L387.58064516129025,145.116888558799L388.06451612903226,145.11733036373045L388.54838709677426,145.11776777262938L389.03225806451616,145.11820082923705L389.5161290322581,145.1186295768595L390,145.1190540583718L390.4838709677419,145.1194743162225L390.96774193548384,145.1198903924377L391.45161290322574,145.1203023286254L391.93548387096774,145.12071016597955L392.41935483870964,145.1211139452842L392.9032258064516,145.12151370691765L393.3870967741935,145.1219094908564L393.8709677419355,145.12230133667916L394.3548387096774,145.12268928357082L394.8387096774194,145.12307337032644L395.3225806451613,145.12345363535496L395.80645161290323,145.12383011668322L396.2903225806451,145.1242028519597L396.7741935483871,145.1245718784582L397.25806451612897,145.12493723308168L397.741935483871,145.12529895236594L398.22580645161287,145.12565707248316L398.7096774193549,145.1260116292457L399.19354838709677,145.12636265810949L399.6774193548387,145.12671019417775L400.1612903225806,145.1270542722043L400.64516129032256,145.12739492659733L401.12903225806446,145.1277321914225L401.61290322580635,145.12806610040658L402.0967741935484,145.1283966869408L402.58064516129036,145.128723984084L403.06451612903226,145.1290480245662L403.5483870967742,145.12936884079176L404.0322580645161,145.12968646484254L404.516129032258,145.1300009284812L404.99999999999994,145.13031226315437L405.48387096774184,145.13062049999579L405.9677419354839,145.1309256698294L406.45161290322585,145.13122780317244L406.93548387096774,145.13152693023846L407.41935483870964,145.13182308094045L407.9032258064516,145.13211628489373L408.3870967741935,145.13240657141893L408.87096774193543,145.13269396954493L409.3548387096773,145.1329785080118L409.8387096774194,145.13326021527362L410.3225806451613,145.13353911950136L410.80645161290323,145.13381524858565L411.2903225806451,145.13408863013964L411.7741935483871,145.13435929150174L412.25806451612897,145.1346272597383L412.741935483871,145.13489256164632L413.22580645161287,145.13515522375627L413.7096774193548,145.13541527233457L414.19354838709677,145.13567273338626L414.6774193548387,145.13592763265768L415.1612903225806,145.136179995639L415.64516129032256,145.13642984756666L416.12903225806446,145.13667721342614L416.61290322580646,145.13692211795416L417.09677419354836,145.13716458564144L417.58064516129025,145.1374046407349L418.06451612903226,145.1376423072403L418.5483870967742,145.1378776089244L419.0322580645161,145.1381105693177L419.51612903225805,145.1383412117163L420,145.1385695591847L420.4838709677419,145.13879563455785L420.96774193548384,145.13901946044345L421.45161290322574,145.13924105922425L421.93548387096774,145.13946045306037L422.4193548387097,145.13967766389132L422.9032258064516,145.1398927134384L423.3870967741935,145.14010562320672L423.8709677419355,145.14031641448747L424.3548387096774,145.14052510835992L424.83870967741933,145.14073172569366L425.3225806451612,145.14093628715057L425.80645161290323,145.14113881318698L426.2903225806451,145.14133932405565L426.77419354838713,145.14153783980785L427.258064516129,145.1417343802953L427.741935483871,145.14192896517224L428.22580645161287,145.1421216138973L428.7096774193548,145.1423123457355L429.1935483870967,145.14250117976022L429.67741935483866,145.14268813485498L430.1612903225806,145.1428732297155L430.6451612903226,145.14305648285136L431.1290322580645,145.14323791258806L431.61290322580646,145.1434175370687L432.09677419354836,145.1435953742559L432.5806451612903,145.14377144193355L433.0645161290322,145.1439457577085L433.54838709677415,145.14411833901255L434.03225806451616,145.1442892031039L434.5161290322581,145.14445836706915L435,145.1446258478248L435.48387096774195,145.1447916621191L435.96774193548384,145.14495582653362L436.4516129032258,145.1451183574849L436.9354838709677,145.14527927122623L437.4193548387096,145.14543858384906L437.90322580645164,145.14559631128478L438.3870967741936,145.14575246930633L438.8709677419355,145.14590707352957L439.35483870967744,145.1460601394151L439.83870967741933,145.14621168226964L440.3225806451612,145.14636171724757L440.8064516129032,145.14651025935254L441.29032258064507,145.14665732343886L441.7741935483871,145.14680292421306L442.2580645161291,145.14694707623536L442.741935483871,145.14708979392108L443.22580645161287,145.1472310915421L443.7096774193548,145.14737098322829L444.1935483870967,145.14750948296893L444.67741935483866,145.14764660461415L445.16129032258056,145.14778236187618L445.64516129032256,145.1479167683309L446.1290322580645,145.14804983741905L446.61290322580646,145.14818158244768L447.09677419354836,145.14831201659132L447.5806451612903,145.14844115289358L448.0645161290322,145.14856900426815L448.5483870967742,145.14869558350028L449.0322580645161,145.148820903248L449.51612903225805,145.14894497604342L450,145.14906781429391L450.48387096774195,145.14918943028334L450.96774193548384,145.1493098361735L451.4516129032258,145.14942904400502L451.9354838709677,145.14954706569878L452.4193548387097,145.14966391305708L452.9032258064516,145.14977959776476L453.3870967741935,145.14989413139034L453.87096774193543,145.1500075253873L454.35483870967744,145.15011979109516L454.83870967741933,145.15023093974054L455.32258064516134,145.15034098243842L455.80645161290323,145.1504499301932L456.2903225806451,145.15055779389968L456.7741935483871,145.15066458434433L457.25806451612897,145.15077031220633L457.7419354838709,145.15087498805852L458.2258064516129,145.15097862236857L458.7096774193548,145.1510812255L459.1935483870967,145.1511828077132L459.6774193548387,145.15128337916653L460.1612903225806,145.15138294991718L460.64516129032256,145.15148152992228L461.12903225806446,145.15157912903996L461.6129032258064,145.15167575703018L462.09677419354836,145.15177142355583L462.58064516129036,145.15186613818366L463.06451612903226,145.1519599103852L463.5483870967742,145.15205274953772L464.0322580645161,145.15214466492526L464.51612903225805,145.1522356657394L464.99999999999994,145.1523257610803L465.4838709677419,145.1524149599576L465.9677419354838,145.15250327129124L466.45161290322585,145.1525907039124L466.93548387096774,145.1526772665645L467.4193548387097,145.15276296790378L467.9032258064516,145.1528478165005L468.38709677419354,145.15293182083957L468.87096774193543,145.1530149893215L469.3548387096774,145.1530973302632L469.8387096774193,145.15317885189884L470.32258064516134,145.15325956238067L470.80645161290323,145.15333946977978L471.2903225806452,145.153418582087L471.7741935483871,145.1534969072136L472.258064516129,145.15357445299216L472.7419354838709,145.15365122717733L473.2258064516128,145.1537272374466L473.7096774193548,145.15380249140105L474.1935483870968,145.15387699656614L474.6774193548387,145.15395076039246L475.16129032258067,145.15402379025645L475.64516129032256,145.15409609346113L476.12903225806446,145.15416767723693L476.6129032258064,145.15423854874223L477.0967741935483,145.1543087150643L477.5806451612903,145.15437818321976L478.0645161290322,145.15444696015555L478.5483870967742,145.15451505274942L479.0322580645161,145.15458246781063L479.51612903225805,145.15464921208078L479.99999999999994,145.15471529223433L480.48387096774195,145.1547807148794L480.96774193548384,145.15484548655823L481.4516129032258,145.15490961374812L481.9354838709677,145.15497310286182L482.4193548387097,145.15503596024826L482.9032258064516,145.15509819219326L483.38709677419354,145.15515980492006L483.87096774193543,145.15522080459L484.35483870967744,145.15528119730305L484.83870967741933,145.1553409890986L485.3225806451613,145.1554001859558L485.8064516129032,145.15545879379448L486.2903225806452,145.15551681847538L486.7741935483871,145.15557426580108L487.258064516129,145.15563114151635L487.741935483871,145.15568745130878L488.2258064516129,145.1557432008094L488.7096774193548,145.15579839559325"
          stroke="lightblue" stroke-width="3" fill="none"/>
</svg>