<?xml version="1.0" standalone="no"?>
<svg xmlns="http://www.w3.org/2000/svg" id="svg_15" width="150" height="150" style="background-color: rgb(58, 58, 58);">
    <g transform="translate( 75, 0)" class="axis" fill="none" font-size="10" font-family="sans-serif" text-anchor="end">
        <path class="domain" stroke="#000" d="M0,150.5H0.5V0.5H0" style="stroke: orange; stroke-width: 0.5;"/>
    </g>
    <g transform="translate( 0,145.16129032258064)" class="axis" fill="none" font-size="10" font-family="sans-serif"
       text-anchor="middle">
        <path class="domain" stroke="#000" d="M0.5,0V0.5H150.5V0" style="stroke: orange; stroke-width: 0.5;"/>
    </g>
    <path d="M75.75,2.8216166874798887L76.5,45.26398827749789L77.25,64.20493998667115L78,75.5748943233729L78.75,83.38637922153882L79.5,89.19013164781315L80.25,93.729257012788L81,97.4105057240708L81.75,100.47780487208237L82.5,103.08755329245452L83.25000000000001,105.34529864178936L84.00000000000001,107.32521791314201L84.74999999999999,109.08118586762274L85.50000000000001,110.65341375774825L86.25,112.07261235651129L87,113.36270163542616L87.75,114.54263124233715L88.5,115.62763740368379L89.25,116.63013157576881L90,117.56034198370295L90.75,118.42678540336593L91.5,119.23661987340019L92.25,119.99591232077695L93,120.70984435770058L93.75,121.38287246470023L94.5,122.01885405591734L95.25,122.62114770252727L96,123.19269355593323L96.75,123.73607843820295L97.5,124.25358894246403L98.25,124.74725507185529L99,125.21888634925493L99.75,125.67010188824987L100.5,126.10235558518329L101.25,126.51695734226286L101.99999999999999,126.915091041185L102.75000000000001,127.29782984020855L103.49999999999999,127.66614925403213L104.25000000000001,128.020938387125L105,128.3630096213943L105.75000000000001,128.69310700383122L106.5,129.01191353576567L107.25,129.3200575300792L108,129.61811817428875L108.75,129.90663041436562L109.5,130.1860892553799L110.25,130.4569535596922L111,130.71964941077573L111.75,130.97457310031112L112.5,131.22209378753635L113.25,131.46255587261965L114,131.6962811197914L114.75,131.92357056090896L115.5,132.1447062058638L116.25,132.35995258263634L117,132.56955812674835L117.75,132.7737564372628L118.5,132.97276741426282L119.24999999999999,133.16679829084376L120,133.3560445710225L120.74999999999999,133.5406908835672L121.50000000000001,133.72091176054113L122.24999999999999,133.89687234830689L123.00000000000001,134.06872905783175L123.75,134.23663016034575L124.50000000000001,134.4007163337163L125.25,134.56112116430495L126.00000000000001,134.71797160854587L126.75,134.8713884180261L127.50000000000001,135.0214865314431L128.25,135.1683754364589L129,135.3121595041572L129.75,135.45293829853125L130.5,135.59080686318535L131.25,135.7258559872151L132,135.858172452038L132.75,135.98783926077382L133.5,136.11493585162097L134.25,136.239538296538L135,136.36171948641734L135.75,136.4815493038285L136.5,136.59909478430987L137.25,136.71442026710028L138,136.8275875361218L138.75,136.9386559519545L139.5,137.04768257547883L140.25,137.1547222838041L141,137.25982787904826L141.75,137.36305019048734L142.5,137.46443817054953L143.25,137.5640389850902L144,137.6618980983486L144.75,137.75805935295477L145.5,137.85256504532617L146.25,137.94545599676644L147,138.0367716205552L147.75,138.1265499852944L148.5,138.21482787475796L149.25,138.3016408444715L150,138.387023275233L150.74999999999997,138.47100842376898L151.5,138.55362847070768L152.25000000000003,138.6349145660356L153,138.71489687219426L153.75,138.79360460496088L154.5,138.8710660722479L155.25000000000003,138.94730871094606L156,139.02235912192762L156.75,139.09624310331822L157.5,139.16898568213833L158.25000000000003,139.24061114440894L159,139.3111430638091L159.75,139.38060432896816L160.5,139.4490171694689L161.25000000000003,139.5164031806345L162,139.58278334716528L162.75,139.64817806568962L163.49999999999997,139.7126071662872L164.25,139.77608993304025L165,139.8386451236648L165.75,139.90029098827057L166.49999999999997,139.96104528729524L167.25,140.0209253086562L168.00000000000003,140.07994788416033L168.75,140.13812940520938L169.49999999999997,140.19548583783737L170.25,140.25203273711307L171.00000000000003,140.30778526093994L171.75,140.36275818328275L172.5,140.41696590684964L173.25,140.47042247525604L174.00000000000003,140.5231415846953L174.75,140.5751365951403L175.5,140.62642054109773L176.25,140.67700614193694L177.00000000000003,140.72690581181266L177.75,140.77613166920096L178.5,140.82469554606647L179.25,140.8726089966772L180.00000000000003,140.9198833060837L180.75,140.96652949827725L181.5,141.01255834404193L182.24999999999997,141.05798036851382L183,141.1028058584606L183.75,141.14704486929375L184.5,141.19070723182494L185.24999999999997,141.23380255877794L186,141.27634025106613L186.75000000000003,141.31832950384637L187.5,141.35977931235786L188.24999999999997,141.4006984775556L189,141.4410956115472L189.75000000000003,141.48097914284054L190.5,141.52035732141078L191.25,141.5592382235938L192,141.59762975681326L192.75000000000003,141.6355396641478L193.5,141.6729755287453L194.25,141.70994477808964L195,141.74645468812645L195.75000000000003,141.78251238725304L196.5,141.818124860178L197.25,141.8532989516553L198,141.88804137009822L198.75000000000003,141.9223586910773L199.5,141.9562573607067L200.25,141.9897436989239L200.99999999999997,142.02282390266566L201.75,142.0555040489453L202.5,142.087790097834L203.25,142.1196878953503L203.99999999999997,142.151203176261L204.75,142.1823415667965L205.50000000000003,142.21310858728415L206.25,142.24350965470205L206.99999999999997,142.27355008515647L207.75,142.3032350962858L208.50000000000003,142.332569809593L209.25,142.36155925270984L210,142.39020836159474L210.75,142.418521982667L211.50000000000003,142.446504874879L212.25,142.4741617117293L213,142.50149708321806L213.75,142.52851549774695L214.50000000000003,142.55522138396557L215.25,142.58161909256586L216,142.60771289802665L216.75,142.63350700030958L217.50000000000003,142.65900552650854L218.25,142.68421253245347L219,142.7091320042707L219.74999999999997,142.73376785990092L220.5,142.75812395057596L221.25,142.78220406225617L222,142.80601191702937L222.74999999999997,142.8295511744727L223.5,142.8528254329783L224.25000000000003,142.87583823104455L225,142.89859304853312L225.75000000000003,142.92109330789376L226.5,142.94334237535728L227.25000000000003,142.9653435620977L228,142.98710012536495L228.75,143.00861526958857L229.5,143.02989214745352L230.25,143.0509338609488L231,143.07174346239L231.75,143.09232395541625L232.5,143.1126782959624L233.25,143.13280939320722L234,143.15272011049842L234.75,143.17241326625492L235.5,143.1918916348474L236.25,143.21115794745728L237,143.23021489291528L237.75,143.24906511851972L238.5,143.2677112308354L239.25,143.28615579647348L240,143.30440134285305L240.75,143.32245035894468L241.50000000000003,143.34030529599667L242.25,143.35796856824444L243.00000000000003,143.37544255360334L243.75,143.3927295943456L244.50000000000003,143.40983199776184L245.25,143.42675203680724L246.00000000000003,143.4434919507333L246.75,143.460053945705L247.50000000000003,143.4764401954044L248.25,143.4926528416204L249,143.50869399482568L249.75,143.52456573474038L250.5,143.54027011088374L251.25,143.55580914311338L252,143.5711848221528L252.75,143.58639911010738L253.5,143.60145394096926L254.25,143.61635122111107L255,143.63109282976927L255.75,143.64568061951707L256.5,143.66011641672716L257.25,143.67440202202474L258,143.68853921073085L258.75,143.70252973329642L259.5,143.7163753157273L260.25,143.73007766000023L261,143.74363844447024L261.75,143.75705932426976L262.5,143.7703419316992L263.25,143.7834878766098L264,143.79649874677844L264.75,143.80937610827502L265.5,143.82212150582208L266.25,143.83473646314755L267,143.8472224833301L267.75,143.85958104913766L268.5,143.87181362335917L269.25,143.88392164912992L270,143.89590655025006L270.75,143.9077697314973L271.5,143.91951257893302L272.25,143.93113646020277L273,143.9426427248306L273.75,143.95403270450797L274.5,143.96530771337686L275.25,143.97646904830745L276,143.9875179891707L276.75,143.99845579910527L277.5,144.00928372477992L278.25,144.02000299665042L279,144.030614829212L279.75,144.0411204212468L280.5,144.05152095606672L281.25,144.0618176017519L282,144.07201151138455L282.75,144.0821038232785L283.5,144.09209566120467L284.25,144.10198813461216L285,144.11178233884542L285.75,144.12147935535737L286.5,144.1310802519188L287.25,144.14058608282377L288,144.14999788909137L288.75,144.159316698664L289.5,144.16854352660172L290.25,144.17767937527367L291,144.18672523454546L291.75,144.1956820819638L292.5,144.20455088293738L293.25,144.21333259091494L294,144.22202814756002L294.75,144.23063848292264L295.5,144.23916451560805L296.25,144.24760715294252L297,144.2559672911363L297.75,144.26424581544367L298.5,144.27244360032026L299.25,144.28056150957778L300,144.28860039653597L300.75,144.29656110417199L301.49999999999994,144.30444446526738L302.25,144.31225130255228L303,144.31998242884754L303.75000000000006,144.3276386472042L304.50000000000006,144.3352207510407L305.25,144.34272952427784L306,144.3501657414714L306.75,144.3575301679426L307.5,144.3648235599066L308.24999999999994,144.3720466645984L309,144.37920022039717L309.75,144.38628495694817L310.50000000000006,144.39330159528302L311.25,144.40025084793766L312,144.40713341906863L312.75,144.4139500045674L313.5,144.42070129217285L314.24999999999994,144.42738796158181L315,144.4340106845582L315.75,144.4405701250399L316.50000000000006,144.4470669392444L317.25000000000006,144.45350177577242L318,144.45987527571012L318.75,144.46618807272952L319.5,144.47244079318747L320.24999999999994,144.478634056223L321,144.48476847385308L321.75,144.49084465106705L322.50000000000006,144.49686318591947L323.25000000000006,144.50282466962148L324,144.50872968663083L324.75,144.51457881474056L325.5,144.5203726251661L326.25,144.52611168263135L326.99999999999994,144.53179654545312L327.75,144.53742776562456L328.5,144.54300588889706L329.25000000000006,144.54853145486112L330,144.5540049970259L330.75,144.55942704289754L331.5,144.56479811405634L332.25,144.5701187262328L332.99999999999994,144.57538938938254L333.75,144.5806106077599L334.5,144.58578287999075L335.25000000000006,144.59090669914406L336.00000000000006,144.59598255280227L336.75,144.60101092313093L337.5,144.60599228694707L338.25,144.61092711578667L338.99999999999994,144.61581587597107L339.75,144.6206590286724L340.5,144.62545702997832L341.25000000000006,144.63021033095535L342.00000000000006,144.63491937771164L342.75,144.63958461145876L343.5,144.6442064685725L344.25,144.6487853806528L345,144.6533217745831L345.74999999999994,144.65781607258825L346.5,144.6622686922923L347.25,144.66668004677487L348.00000000000006,144.67105054462712L348.75,144.6753805900067L349.5,144.67967058269198L350.25,144.68392091813556L351,144.68813198751695L351.74999999999994,144.69230417779457L352.5,144.69643787175704L353.25,144.70053344807368L354.00000000000006,144.70459128134425L354.75000000000006,144.70861174214824L355.5,144.7125951970932L356.25,144.7165420088626L357,144.72045253626288L357.74999999999994,144.7243271342699L358.5,144.72816615407493L359.25,144.73196994312957L360.00000000000006,144.7357388451906L360.75000000000006,144.7394732003638L361.5,144.7431733451473L362.25,144.74683961247453L363,144.75047233175613L363.75,144.75407182892187L364.49999999999994,144.75763842646148L365.25,144.76117244346537L366,144.76467419566436L366.75000000000006,144.7681439954693L367.5,144.77158215200984L368.25,144.77498897117292L369,144.77836475564047L369.75,144.781709804927L370.49999999999994,144.78502441541622L371.25,144.7883088803976L372,144.79156349010213L372.75000000000006,144.79478853173782L373.50000000000006,144.79798428952466L374.25,144.80115104472907L375,144.80428907569794L375.75,144.80739865789218L376.50000000000006,144.81048006392007L377.25,144.8135335635697L378,144.81655942384148L378.75,144.81955790897996L379.50000000000006,144.8225292805052L380.25,144.825473797244L381,144.82839171536037L381.75,144.83128328838598L382.5,144.8341487672498L383.25,144.83698840030783L384,144.83980243337206L384.75,144.84259110973923L385.5,144.8453546702192L386.25,144.84809335316302L387,144.85080739449052L387.75,144.8534970277176L388.5,144.85616248398324L389.25000000000006,144.8588039920761L390,144.86142177846077L390.75,144.8640160673037L391.5,144.866587080499L392.25000000000006,144.8691350376934L393,144.87166015631166L393.75,144.8741626515808L394.5,144.87664273655486L395.25000000000006,144.87910062213868L396,144.8815365171118L396.75,144.8839506281519L397.5,144.88634315985794L398.25000000000006,144.8887143147731L399,144.89106429340734L399.75,144.8933932942598L400.5,144.89570151384078L401.25000000000006,144.89798914669348L402,144.90025638541573L402.75,144.90250342068094L403.5,144.90473044125935L404.25,144.90693763403866L405,144.90912518404446L405.75,144.91129327446058L406.5,144.91344208664904L407.25,144.91557180016972L408.00000000000006,144.91768259279996L408.75,144.91977464055387L409.5,144.92184811770122L410.25,144.92390319678637L411.00000000000006,144.92594004864685L411.75,144.92795884243168L412.5,144.92995974561953L413.25,144.9319429240367L414.00000000000006,144.9339085418747L414.75,144.9358567617079L415.5,144.93778774451073L416.25,144.93970164967484L417.00000000000006,144.94159863502588L417.75,144.94347885684033L418.5,144.9453424698618L419.25,144.94718962731753L420.00000000000006,144.94902048093437L420.75,144.9508351809547L421.5,144.95263387615213L422.25,144.95441671384722L423,144.95618383992255L423.75,144.95793539883815L424.5,144.95967153364634L425.25,144.96139238600668L426,144.96309809620055L426.75000000000006,144.96478880314564L427.5,144.96646464441028L428.25,144.9681257562276L429,144.96977227350953L429.75000000000006,144.97140432986055L430.5,144.9730220575914L431.25,144.97462558773265L432,144.976215050048L432.75000000000006,144.97779057304743L433.5,144.97935228400033L434.25,144.98090030894835L435,144.9824347727182L435.75000000000006,144.98395579893415L436.5,144.98546351003063L437.25,144.98695802726445L438,144.98843947072703L438.75000000000006,144.98990795935643L439.5,144.99136361094924L440.25,144.99280654217233L441,144.99423686857455L441.75,144.99565470459822L442.5,144.99706016359042L443.25,144.99845335781438L444,144.99983439846045L444.75,145.00120339565723L445.50000000000006,145.00256045848235L446.25,145.00390569497324L447,145.00523921213787L447.75,145.00656111596498L448.50000000000006,145.00787151143487L449.25,145.00917050252932L450,145.01045819224194L450.75,145.01173468258818L451.50000000000006,145.01300007461532L452.25,145.0142544684122L453,145.01549796311897L453.75,145.01673065693677L454.50000000000006,145.01795264713715L455.25,145.01916403007155L456,145.02036490118053L456.75,145.02155535500302L457.50000000000006,145.02273548518534L458.25,145.02390538449026L459,145.02506514480592L459.75,145.0262148571545L460.5,145.02735461170116L461.25,145.0284844977623L462,145.02960460381442L462.75,145.0307150175023L463.5,145.03181582564747L464.25000000000006,145.03290711425637L465,145.03398896852852L465.75,145.0350614728646L466.5,145.03612471087442L467.25000000000006,145.03717876538477L468,145.0382237184472L468.75,145.03925965134587L469.5,145.04028664460503L470.25000000000006,145.0413047779967L471,145.042314130548L471.75,145.04331478054863L472.5,145.0443068055582L473.25000000000006,145.04529028241345L474,145.04626528723531L474.75,145.0472318954361L475.5,145.04819018172648L476.25000000000006,145.04914022012238L477,145.05008208395182L477.75,145.05101584586177L478.5,145.05194157782478L479.25,145.05285935114568L480,145.0537692364681L480.75,145.05467130378096L481.5,145.055565622425L482.25,145.05645226109897L483.00000000000006,145.05733128786608L483.75,145.0582027701601L484.5,145.05906677479166L485.25,145.05992336795418L486.00000000000006,145.06077261523006L486.75,145.06161458159653L487.5,145.06244933143162L488.25,145.06327692852L489.00000000000006,145.06409743605872L489.75,145.06491091666294L490.5,145.06571743237166L491.25,145.06651704465324L492.00000000000006,145.06730981441098L492.75,145.0680958019886L493.5,145.06887506717564L494.25,145.06964766921294L495.00000000000006,145.0704136667978L495.75,145.07117311808935L496.5,145.07192608071372L497.25,145.07267261176918L498,145.0734127678313L498.75,145.07414660495786L499.5,145.07487417869407L500.25,145.07559554407726L501,145.07631075564197L501.75000000000006,145.0770198674246L502.5,145.07772293296844L503.25,145.0784200053282L504,145.07911113707482L504.75000000000006,145.07979638030005L505.5,145.0804757866211L506.25,145.0811494071851L507,145.0818172926738L507.75000000000006,145.08247949330777L508.5,145.083136058851L509.25,145.08378703861516L510,145.084432481464L510.75000000000006,145.08507243581758L511.5,145.0857069496565L512.25,145.08633607052613L513,145.0869598455407L513.75,145.0875783213875L514.5,145.08819154433078L515.25,145.08879956021602L516,145.08940241447365L516.75,145.09000015212314L517.5,145.0905928177769L518.25,145.0911804556441L519,145.0917631095345L519.75,145.09234082286224L520.5,145.09291363864963L521.25,145.09348159953078L522,145.09404474775528L522.75,145.09460312519198L523.5,145.09515677333232L524.25,145.09570573329418L525,145.0962500458252L525.75,145.09678975130632L526.5,145.09732488975536L527.25,145.0978555008302L528,145.09838162383244L528.75,145.09890329771048L529.5,145.09942056106314L530.25,145.09993345214264L531,145.10044200885807L531.75,145.10094626877853L532.5,145.10144626913632L533.25,145.1019420468301L534,145.10243363842804L534.75,145.10292108017092L535.5,145.1034044079751L536.25,145.10388365743566L537,145.1043588638294L537.75,145.10483006211774L538.5,145.10529728694974L539.25,145.10576057266496L540,145.10621995329637L540.75,145.10667546257324L541.5,145.10712713392388L542.25,145.10757500047853L543,145.10801909507214L543.75,145.10845945024704L544.5,145.10889609825568L545.25,145.1093290710634L546,145.10975840035098L546.75,145.11018411751743L547.5,145.11060625368245L548.25,145.1110248396891L549,145.11143990610634L549.75,145.1118514832316L550.5,145.11225960109329L551.25,145.1126642894532L552,145.11306557780912L552.75,145.11346349539718L553.5,145.11385807119424L554.25,145.11424933392036L555,145.11463731204117L555.75,145.11502203377015L556.5,145.11540352707095L557.25,145.11578181965987L558,145.11615693900785L558.75,145.11652891234294L559.5,145.11689776665253L560.25,145.11726352868544L561,145.1176262249542L561.75,145.1179858817372L562.5,145.11834252508086L563.25,145.11869618080175L564,145.11904687448862L564.75,145.11939463150466L565.5,145.1197394769894L566.25,145.12008143586084L567,145.12042053281752L567.75,145.12075679234036L568.5,145.12109023869488L569.25,145.12142089593297L570,145.12174878789497L570.75,145.12207393821157L571.5,145.1223963703057L572.25,145.12271610739438L573,145.12303317249075L573.75,145.12334758840578L574.5,145.12365937775022L575.25,145.12396856293628L576,145.12427516617961L576.75,145.12457920950104L577.5,145.1248807147282L578.25,145.1251797034975L579,145.12547619725578L579.75,145.12577021726193L580.5,145.12606178458873L581.25,145.1263509201245L582,145.12663764457483L582.75,145.12692197846405L583.5,145.12720394213707L584.25,145.12748355576096L585,145.1277608393265L585.75,145.1280358126498L586.5,145.12830849537394L587.25,145.12857890697046L588,145.1288470667409L588.75,145.12911299381844L589.5,145.1293767071693L590.25,145.1296382255944L591,145.12989756773064L591.75,145.13015475205253L592.5,145.1304097968737L593.25,145.13066272034814L594,145.13091354047188L594.75,145.13116227508422L595.5,145.1314089418693L596.25,145.13165355835736L597,145.1318961419262L597.75,145.13213670980255L598.5,145.1323752790634L599.25,145.13261186663735L600,145.132846489306L600.75,145.13307916370513L601.5,145.1333099063262L602.2500000000001,145.13353873351747L602.9999999999999,145.1337656614854L603.75,145.13399070629586L604.5,145.13421388387542L605.25,145.13443521001255L606,145.134654700359L606.75,145.13487237043077L607.5000000000001,145.1350882356096L608.25,145.13530231114393L609.0000000000001,145.13551461215033L609.7499999999999,145.13572515361443L610.5,145.13593395039229L611.25,145.13614101721146L612,145.13634636867212L612.75,145.13655001924826L613.5,145.13675198328883L614.2500000000001,145.13695227501876L615,145.13715090854012L615.7500000000001,145.13734789783325L616.4999999999999,145.13754325675774L617.25,145.13773699905366L618,145.13792913834246L618.75,145.13811968812814L619.5,145.13830866179825L620.25,145.13849607262492L621.0000000000001,145.13868193376592L621.7499999999999,145.1388662582656L622.5,145.13904905905605L623.25,145.13923034895785L624,145.13941014068135L624.75,145.1395884468274L625.5,145.13976527988845L626.2500000000001,145.13994065224952L627,145.14011457618912L627.7500000000001,145.1402870638801L628.4999999999999,145.14045812739076L629.25,145.1406277786857L630,145.14079602962667L630.75,145.14096289197357L631.5,145.14112837738531L632.25,145.14129249742072L633.0000000000001,145.14145526353943L633.75,145.14161668710273L634.5000000000001,145.14177677937445L635.2499999999999,145.14193555152184L636,145.14209301461636L636.75,145.14224917963466L637.5,145.1424040574592L638.25,145.14255765887927L639,145.14270999459177L639.7500000000001,145.14286107520198L640.4999999999999,145.14301091122434L641.25,145.14315951308336L642,145.14330689111432L642.75,145.1434530555641L643.5,145.14359801659188L644.25,145.14374178427005L645.0000000000001,145.14388436858485L645.75,145.1440257794372L646.5000000000001,145.14416602664335L647.2499999999999,145.14430511993578L648,145.14444306896385L648.75,145.14457988329445L649.5,145.14471557241285L650.25,145.14485014572335L651,145.14498361255008L651.7500000000001,145.1451159821375L652.5,145.14524726365133L653.2500000000001,145.14537746617913L653.9999999999999,145.14550659873095L654.75,145.14563467024004L655.5,145.1457616895636L656.25,145.14588766548337L657,145.14601260670625L657.75,145.146136521865L658.5000000000001,145.1462594195189L659.2499999999999,145.14638130815447L660,145.14650219618588L660.75,145.1466220919558L661.5,145.14674100373597L662.25,145.14685893972768L663,145.14697590806261L663.7500000000001,145.14709191680328L664.5,145.1472069739437L665.2500000000001,145.14732108740995L665.9999999999999,145.14743426506084L666.75,145.14754651468837L667.5,145.14765784401845L668.25,145.14776826071136L669,145.1478777723624L669.75,145.14798638650237L670.5000000000001,145.14809411059832L671.25,145.14820095205383L672.0000000000001,145.14830691820978L672.7499999999999,145.1484120163448L673.5,145.1485162536758L674.25,145.14861963735862L675,145.1487221744884L675.75,145.1488238721002L676.5,145.1489247371695L677.25,145.14902477661272L678.0000000000001,145.14912399728777L678.75,145.1492224059945L679.5,145.1493200094752L680.25,145.14941681441513L681,145.14951282744306L681.75,145.14960805513164L682.5,145.149702503998L683.25,145.14979618050413L684.0000000000001,145.14988909105745L684.7500000000001,145.14998124201128L685.5,145.15007263966518L686.25,145.15016329026557L687,145.1502532000061L687.75,145.15034237502815L688.5,145.15043082142122L689.25,145.15051854522352L690,145.15060555242218L690.7500000000001,145.15069184895393L691.5,145.15077744070538L692.25,145.1508623335135L693,145.1509465331661L693.75,145.1510300454021L694.5,145.15111287591222L695.25,145.1511950303391L696,145.15127651427787L696.7500000000001,145.15135733327654L697.5,145.15143749283644L698.25,145.15151699841257L699,145.15159585541394L699.75,145.15167406920418L700.5,145.15175164510163L701.25,145.15182858838L702,145.15190490426858L702.7500000000001,145.15198059795276L703.5000000000001,145.15205567457423L704.25,145.15213013923156L705,145.15220399698035L705.75,145.15227725283387L706.5,145.1523499117631L707.25,145.1524219786974L708,145.15249345852467L708.75,145.15256435609177L709.5000000000001,145.15263467620488L710.25,145.1527044236298L711,145.15277360309244L711.75,145.1528422192789L712.5,145.1529102768361L713.25,145.15297778037194L714,145.15304473445562L714.75,145.1531111436181L715.5000000000001,145.15317701235233L716.25,145.15324234511365L717,145.15330714631995L717.75,145.15337142035222L718.5,145.1534351715547L719.25,145.1534984042352L720,145.15356112266556L720.75,145.15362333108177L721.5000000000001,145.15368503368438L722.2500000000001,145.1537462346388L723,145.15380693807555L723.75,145.15386714809063L724.5,145.15392686874574L725.25,145.15398610406862L726,145.15404485805334L726.75,145.15410313466057L727.5000000000001,145.15416093781786L728.2500000000001,145.15421827141995L729,145.154275139329L729.75,145.15433154537493L730.5,145.15438749335567L731.25,145.15444298703738L732,145.15449803015485L732.75,145.1545526264116L733.5,145.1546067794803L734.2500000000001,145.1546604930029L735,145.154713770591L735.75,145.1547666158261L736.5,145.15481903225972L737.25,145.15487102341385L738,145.15492259278102L738.75,145.15497374382474L739.5,145.15502447997957L740.2500000000001,145.15507480465143L741.0000000000001,145.15512472121793L741.75,145.15517423302848L742.5,145.15522334340454L743.25,145.15527205564L744,145.15532037300125L744.75,145.1553682987275L745.5,145.15541583603098L746.2500000000001,145.15546298809718L747.0000000000001,145.1555097580851L747.75,145.15555614912736L748.5,145.15560216433065L749.25,145.1556478067757L750,145.15569307951768L750.75,145.15573798558628L751.5,145.1557825279861L752.25,145.1558267096967L753.0000000000001,145.1558705336728L753.75,145.1559140028447L754.5,145.15595712011822L755.25,145.15599988837513L756,145.15604231047323L756.75,145.1560843892465L757.5,145.15612612750553L758.25,145.15616752803746L759.0000000000001,145.15620859360632L759.7500000000001,145.15624932695323L760.5,145.15628973079646L761.25,145.1563298078318L762,145.1563695607327L762.75,145.15640899215035L763.5,145.15644810471397L764.25,145.156486901031L765.0000000000001,145.15652538368724L765.7500000000001,145.15656355524703L766.5,145.1566014182535L767.25,145.15663897522865L768,145.1566762286736L768.75,145.15671318106874L769.5,145.15674983487392L770.25,145.15678619252859L771,145.156822256452L771.7500000000001,145.15685802904335L772.5,145.15689351268205L773.25,145.1569287097277L774,145.15696362252044L774.75,145.156998253381L775.5,145.15703260461095L776.25,145.15706667849278L777,145.1571004772901L777.7500000000001,145.15713400324776L778.5000000000001,145.15716725859215L779.25,145.15720024553113L780,145.15723296625436L780.75,145.1572654229334L781.5,145.1572976177218L782.25,145.15732955275544L783,145.1573612301524L783.7500000000001,145.15739265201336L784.5000000000001,145.15742382042157L785.25,145.15745473744317L786,145.15748540512712L786.75,145.15751582550553L787.5,145.15754600059373L788.25,145.15757593239036L789,145.15760562287764L789.75,145.15763507402136L790.5000000000001,145.1576642877711L791.25,145.1576932660604L792,145.15772201080676L792.75,145.15775052391197L793.5,145.15777880726208L794.25,145.1578068627275L795,145.15783469216342L795.75,145.1578622974095L796.5000000000001,145.15788968029045L797.2500000000001,145.15791684261575L798,145.1579437861801L798.75,145.1579705127634L799.5,145.1579970241308L800.25,145.15802332203293L801,145.1580494082061L801.75,145.1580752843722L802.5000000000001,145.158100952239L803.2500000000001,145.1581264135002L804,145.15815166983558L804.75,145.158176722911L805.5,145.15820157437875L806.25,145.15822622587737L807,145.15825067903205L807.75,145.15827493545453L808.5,145.1582989967433L809.2500000000001,145.15832286448375L810,145.15834654024815L810.75,145.1583700255959L811.5,145.15839332207358L812.25,145.15841643121502L813,145.15843935454149L813.75,145.1584620935617L814.5,145.158484649772L815.2500000000001,145.15850702465642L816.0000000000001,145.1585292196868L816.75,145.15855123632295L817.5,145.1585730760126L818.25,145.15859474019163L819,145.15861623028414L819.75,145.1586375477025L820.5,145.1586586938475L821.2500000000001,145.1586796701085L822.0000000000001,145.15870047786333L822.75,145.1587211184786L823.5,145.1587415933097L824.25,145.15876190370088L825,145.1587820509853"
          stroke="lightblue" stroke-width="3" fill="none"/>
    <path d="M75.75,2.8216166874798887L76.5,45.26398827749789L77.25,64.20493998667115L78,75.5748943233729L78.75,83.38637922153882L79.5,89.19013164781315L80.25,93.729257012788L81,97.4105057240708L81.75,100.47780487208237L82.5,103.08755329245452L83.25000000000001,105.34529864178936L84.00000000000001,107.32521791314201L84.74999999999999,109.08118586762274L85.50000000000001,110.65341375774825L86.25,112.07261235651129L87,113.36270163542616L87.75,114.54263124233715L88.5,115.62763740368379L89.25,116.63013157576881L90,117.56034198370295L90.75,118.42678540336593L91.5,119.23661987340019L92.25,119.99591232077695L93,120.70984435770058L93.75,121.38287246470023L94.5,122.01885405591734L95.25,122.62114770252727L96,123.19269355593323L96.75,123.73607843820295L97.5,124.25358894246403L98.25,124.74725507185529L99,125.21888634925493L99.75,125.67010188824987L100.5,126.10235558518329L101.25,126.51695734226286L101.99999999999999,126.915091041185L102.75000000000001,127.29782984020855L103.49999999999999,127.66614925403213L104.25000000000001,128.020938387125L105,128.3630096213943L105.75000000000001,128.69310700383122L106.5,129.01191353576567L107.25,129.3200575300792L108,129.61811817428875L108.75,129.90663041436562L109.5,130.1860892553799L110.25,130.4569535596922L111,130.71964941077573L111.75,130.97457310031112L112.5,131.22209378753635L113.25,131.46255587261965L114,131.6962811197914L114.75,131.92357056090896L115.5,132.1447062058638L116.25,132.35995258263634L117,132.56955812674835L117.75,132.7737564372628L118.5,132.97276741426282L119.24999999999999,133.16679829084376L120,133.3560445710225L120.74999999999999,133.5406908835672L121.50000000000001,133.72091176054113L122.24999999999999,133.89687234830689L123.00000000000001,134.06872905783175L123.75,134.23663016034575L124.50000000000001,134.4007163337163L125.25,134.56112116430495L126.00000000000001,134.71797160854587L126.75,134.8713884180261L127.50000000000001,135.0214865314431L128.25,135.1683754364589L129,135.3121595041572L129.75,135.45293829853125L130.5,135.59080686318535L131.25,135.7258559872151L132,135.858172452038L132.75,135.98783926077382L133.5,136.11493585162097L134.25,136.239538296538L135,136.36171948641734L135.75,136.4815493038285L136.5,136.59909478430987L137.25,136.71442026710028L138,136.8275875361218L138.75,136.9386559519545L139.5,137.04768257547883L140.25,137.1547222838041L141,137.25982787904826L141.75,137.36305019048734L142.5,137.46443817054953L143.25,137.5640389850902L144,137.6618980983486L144.75,137.75805935295477L145.5,137.85256504532617L146.25,137.94545599676644L147,138.0367716205552L147.75,138.1265499852944L148.5,138.21482787475796L149.25,138.3016408444715L150,138.387023275233L150.74999999999997,138.47100842376898L151.5,138.55362847070768L152.25000000000003,138.6349145660356L153,138.71489687219426L153.75,138.79360460496088L154.5,138.8710660722479L155.25000000000003,138.94730871094606L156,139.02235912192762L156.75,139.09624310331822L157.5,139.16898568213833L158.25000000000003,139.24061114440894L159,139.3111430638091L159.75,139.38060432896816L160.5,139.4490171694689L161.25000000000003,139.5164031806345L162,139.58278334716528L162.75,139.64817806568962L163.49999999999997,139.7126071662872L164.25,139.77608993304025L165,139.8386451236648L165.75,139.90029098827057L166.49999999999997,139.96104528729524L167.25,140.0209253086562L168.00000000000003,140.07994788416033L168.75,140.13812940520938L169.49999999999997,140.19548583783737L170.25,140.25203273711307L171.00000000000003,140.30778526093994L171.75,140.36275818328275L172.5,140.41696590684964L173.25,140.47042247525604L174.00000000000003,140.5231415846953L174.75,140.5751365951403L175.5,140.62642054109773L176.25,140.67700614193694L177.00000000000003,140.72690581181266L177.75,140.77613166920096L178.5,140.82469554606647L179.25,140.8726089966772L180.00000000000003,140.9198833060837L180.75,140.96652949827725L181.5,141.01255834404193L182.24999999999997,141.05798036851382L183,141.1028058584606L183.75,141.14704486929375L184.5,141.19070723182494L185.24999999999997,141.23380255877794L186,141.27634025106613L186.75000000000003,141.31832950384637L187.5,141.35977931235786L188.24999999999997,141.4006984775556L189,141.4410956115472L189.75000000000003,141.48097914284054L190.5,141.52035732141078L191.25,141.5592382235938L192,141.59762975681326L192.75000000000003,141.6355396641478L193.5,141.6729755287453L194.25,141.70994477808964L195,141.74645468812645L195.75000000000003,141.78251238725304L196.5,141.818124860178L197.25,141.8532989516553L198,141.88804137009822L198.75000000000003,141.9223586910773L199.5,141.9562573607067L200.25,141.9897436989239L200.99999999999997,142.02282390266566L201.75,142.0555040489453L202.5,142.087790097834L203.25,142.1196878953503L203.99999999999997,142.151203176261L204.75,142.1823415667965L205.50000000000003,142.21310858728415L206.25,142.24350965470205L206.99999999999997,142.27355008515647L207.75,142.3032350962858L208.50000000000003,142.332569809593L209.25,142.36155925270984L210,142.39020836159474L210.75,142.418521982667L211.50000000000003,142.446504874879L212.25,142.4741617117293L213,142.50149708321806L213.75,142.52851549774695L214.50000000000003,142.55522138396557L215.25,142.58161909256586L216,142.60771289802665L216.75,142.63350700030958L217.50000000000003,142.65900552650854L218.25,142.68421253245347L219,142.7091320042707L219.74999999999997,142.73376785990092L220.5,142.75812395057596L221.25,142.78220406225617L222,142.80601191702937L222.74999999999997,142.8295511744727L223.5,142.8528254329783L224.25000000000003,142.87583823104455L225,142.89859304853312L225.75000000000003,142.92109330789376L226.5,142.94334237535728L227.25000000000003,142.9653435620977L228,142.98710012536495L228.75,143.00861526958857L229.5,143.02989214745352L230.25,143.0509338609488L231,143.07174346239L231.75,143.09232395541625L232.5,143.1126782959624L233.25,143.13280939320722L234,143.15272011049842L234.75,143.17241326625492L235.5,143.1918916348474L236.25,143.21115794745728L237,143.23021489291528L237.75,143.24906511851972L238.5,143.2677112308354L239.25,143.28615579647348L240,143.30440134285305L240.75,143.32245035894468L241.50000000000003,143.34030529599667L242.25,143.35796856824444L243.00000000000003,143.37544255360334L243.75,143.3927295943456L244.50000000000003,143.40983199776184L245.25,143.42675203680724L246.00000000000003,143.4434919507333L246.75,143.460053945705L247.50000000000003,143.4764401954044L248.25,143.4926528416204L249,143.50869399482568L249.75,143.52456573474038L250.5,143.54027011088374L251.25,143.55580914311338L252,143.5711848221528L252.75,143.58639911010738L253.5,143.60145394096926L254.25,143.61635122111107L255,143.63109282976927L255.75,143.64568061951707L256.5,143.66011641672716L257.25,143.67440202202474L258,143.68853921073085L258.75,143.70252973329642L259.5,143.7163753157273L260.25,143.73007766000023L261,143.74363844447024L261.75,143.75705932426976L262.5,143.7703419316992L263.25,143.7834878766098L264,143.79649874677844L264.75,143.80937610827502L265.5,143.82212150582208L266.25,143.83473646314755L267,143.8472224833301L267.75,143.85958104913766L268.5,143.87181362335917L269.25,143.88392164912992L270,143.89590655025006L270.75,143.9077697314973L271.5,143.91951257893302L272.25,143.93113646020277L273,143.9426427248306L273.75,143.95403270450797L274.5,143.96530771337686L275.25,143.97646904830745L276,143.9875179891707L276.75,143.99845579910527L277.5,144.00928372477992L278.25,144.02000299665042L279,144.030614829212L279.75,144.0411204212468L280.5,144.05152095606672L281.25,144.0618176017519L282,144.07201151138455L282.75,144.0821038232785L283.5,144.09209566120467L284.25,144.10198813461216L285,144.11178233884542L285.75,144.12147935535737L286.5,144.1310802519188L287.25,144.14058608282377L288,144.14999788909137L288.75,144.159316698664L289.5,144.16854352660172L290.25,144.17767937527367L291,144.18672523454546L291.75,144.1956820819638L292.5,144.20455088293738L293.25,144.21333259091494L294,144.22202814756002L294.75,144.23063848292264L295.5,144.23916451560805L296.25,144.24760715294252L297,144.2559672911363L297.75,144.26424581544367L298.5,144.27244360032026L299.25,144.28056150957778L300,144.28860039653597L300.75,144.29656110417199L301.49999999999994,144.30444446526738L302.25,144.31225130255228L303,144.31998242884754L303.75000000000006,144.3276386472042L304.50000000000006,144.3352207510407L305.25,144.34272952427784L306,144.3501657414714L306.75,144.3575301679426L307.5,144.3648235599066L308.24999999999994,144.3720466645984L309,144.37920022039717L309.75,144.38628495694817L310.50000000000006,144.39330159528302L311.25,144.40025084793766L312,144.40713341906863L312.75,144.4139500045674L313.5,144.42070129217285L314.24999999999994,144.42738796158181L315,144.4340106845582L315.75,144.4405701250399L316.50000000000006,144.4470669392444L317.25000000000006,144.45350177577242L318,144.45987527571012L318.75,144.46618807272952L319.5,144.47244079318747L320.24999999999994,144.478634056223L321,144.48476847385308L321.75,144.49084465106705L322.50000000000006,144.49686318591947L323.25000000000006,144.50282466962148L324,144.50872968663083L324.75,144.51457881474056L325.5,144.5203726251661L326.25,144.52611168263135L326.99999999999994,144.53179654545312L327.75,144.53742776562456L328.5,144.54300588889706L329.25000000000006,144.54853145486112L330,144.5540049970259L330.75,144.55942704289754L331.5,144.56479811405634L332.25,144.5701187262328L332.99999999999994,144.57538938938254L333.75,144.5806106077599L334.5,144.58578287999075L335.25000000000006,144.59090669914406L336.00000000000006,144.59598255280227L336.75,144.60101092313093L337.5,144.60599228694707L338.25,144.61092711578667L338.99999999999994,144.61581587597107L339.75,144.6206590286724L340.5,144.62545702997832L341.25000000000006,144.63021033095535L342.00000000000006,144.63491937771164L342.75,144.63958461145876L343.5,144.6442064685725L344.25,144.6487853806528L345,144.6533217745831L345.74999999999994,144.65781607258825L346.5,144.6622686922923L347.25,144.66668004677487L348.00000000000006,144.67105054462712L348.75,144.6753805900067L349.5,144.67967058269198L350.25,144.68392091813556L351,144.68813198751695L351.74999999999994,144.69230417779457L352.5,144.69643787175704L353.25,144.70053344807368L354.00000000000006,144.70459128134425L354.75000000000006,144.70861174214824L355.5,144.7125951970932L356.25,144.7165420088626L357,144.72045253626288L357.74999999999994,144.7243271342699L358.5,144.72816615407493L359.25,144.73196994312957L360.00000000000006,144.7357388451906L360.75000000000006,144.7394732003638L361.5,144.7431733451473L362.25,144.74683961247453L363,144.75047233175613L363.75,144.75407182892187L364.49999999999994,144.75763842646148L365.25,144.76117244346537L366,144.76467419566436L366.75000000000006,144.7681439954693L367.5,144.77158215200984L368.25,144.77498897117292L369,144.77836475564047L369.75,144.781709804927L370.49999999999994,144.78502441541622L371.25,144.7883088803976L372,144.79156349010213L372.75000000000006,144.79478853173782L373.50000000000006,144.79798428952466L374.25,144.80115104472907L375,144.80428907569794L375.75,144.80739865789218L376.50000000000006,144.81048006392007L377.25,144.8135335635697L378,144.81655942384148L378.75,144.81955790897996L379.50000000000006,144.8225292805052L380.25,144.825473797244L381,144.82839171536037L381.75,144.83128328838598L382.5,144.8341487672498L383.25,144.83698840030783L384,144.83980243337206L384.75,144.84259110973923L385.5,144.8453546702192L386.25,144.84809335316302L387,144.85080739449052L387.75,144.8534970277176L388.5,144.85616248398324L389.25000000000006,144.8588039920761L390,144.86142177846077L390.75,144.8640160673037L391.5,144.866587080499L392.25000000000006,144.8691350376934L393,144.87166015631166L393.75,144.8741626515808L394.5,144.87664273655486L395.25000000000006,144.87910062213868L396,144.8815365171118L396.75,144.8839506281519L397.5,144.88634315985794L398.25000000000006,144.8887143147731L399,144.89106429340734L399.75,144.8933932942598L400.5,144.89570151384078L401.25000000000006,144.89798914669348L402,144.90025638541573L402.75,144.90250342068094L403.5,144.90473044125935L404.25,144.90693763403866L405,144.90912518404446L405.75,144.91129327446058L406.5,144.91344208664904L407.25,144.91557180016972L408.00000000000006,144.91768259279996L408.75,144.91977464055387L409.5,144.92184811770122L410.25,144.92390319678637L411.00000000000006,144.92594004864685L411.75,144.92795884243168L412.5,144.92995974561953L413.25,144.9319429240367L414.00000000000006,144.9339085418747L414.75,144.9358567617079L415.5,144.93778774451073L416.25,144.93970164967484L417.00000000000006,144.94159863502588L417.75,144.94347885684033L418.5,144.9453424698618L419.25,144.94718962731753L420.00000000000006,144.94902048093437L420.75,144.9508351809547L421.5,144.95263387615213L422.25,144.95441671384722L423,144.95618383992255L423.75,144.95793539883815L424.5,144.95967153364634L425.25,144.96139238600668L426,144.96309809620055L426.75000000000006,144.96478880314564L427.5,144.96646464441028L428.25,144.9681257562276L429,144.96977227350953L429.75000000000006,144.97140432986055L430.5,144.9730220575914L431.25,144.97462558773265L432,144.976215050048L432.75000000000006,144.97779057304743L433.5,144.97935228400033L434.25,144.98090030894835L435,144.9824347727182L435.75000000000006,144.98395579893415L436.5,144.98546351003063L437.25,144.98695802726445L438,144.98843947072703L438.75000000000006,144.98990795935643L439.5,144.99136361094924L440.25,144.99280654217233L441,144.99423686857455L441.75,144.99565470459822L442.5,144.99706016359042L443.25,144.99845335781438L444,144.99983439846045L444.75,145.00120339565723L445.50000000000006,145.00256045848235L446.25,145.00390569497324L447,145.00523921213787L447.75,145.00656111596498L448.50000000000006,145.00787151143487L449.25,145.00917050252932L450,145.01045819224194L450.75,145.01173468258818L451.50000000000006,145.01300007461532L452.25,145.0142544684122L453,145.01549796311897L453.75,145.01673065693677L454.50000000000006,145.01795264713715L455.25,145.01916403007155L456,145.02036490118053L456.75,145.02155535500302L457.50000000000006,145.02273548518534L458.25,145.02390538449026L459,145.02506514480592L459.75,145.0262148571545L460.5,145.02735461170116L461.25,145.0284844977623L462,145.02960460381442L462.75,145.0307150175023L463.5,145.03181582564747L464.25000000000006,145.03290711425637L465,145.03398896852852L465.75,145.0350614728646L466.5,145.03612471087442L467.25000000000006,145.03717876538477L468,145.0382237184472L468.75,145.03925965134587L469.5,145.04028664460503L470.25000000000006,145.0413047779967L471,145.042314130548L471.75,145.04331478054863L472.5,145.0443068055582L473.25000000000006,145.04529028241345L474,145.04626528723531L474.75,145.0472318954361L475.5,145.04819018172648L476.25000000000006,145.04914022012238L477,145.05008208395182L477.75,145.05101584586177L478.5,145.05194157782478L479.25,145.05285935114568L480,145.0537692364681L480.75,145.05467130378096L481.5,145.055565622425L482.25,145.05645226109897L483.00000000000006,145.05733128786608L483.75,145.0582027701601L484.5,145.05906677479166L485.25,145.05992336795418L486.00000000000006,145.06077261523006L486.75,145.06161458159653L487.5,145.06244933143162L488.25,145.06327692852L489.00000000000006,145.06409743605872L489.75,145.06491091666294L490.5,145.06571743237166L491.25,145.06651704465324L492.00000000000006,145.06730981441098L492.75,145.0680958019886L493.5,145.06887506717564L494.25,145.06964766921294L495.00000000000006,145.0704136667978L495.75,145.07117311808935L496.5,145.07192608071372L497.25,145.07267261176918L498,145.0734127678313L498.75,145.07414660495786L499.5,145.07487417869407L500.25,145.07559554407726L501,145.07631075564197L501.75000000000006,145.0770198674246L502.5,145.07772293296844L503.25,145.0784200053282L504,145.07911113707482L504.75000000000006,145.07979638030005L505.5,145.0804757866211L506.25,145.0811494071851L507,145.0818172926738L507.75000000000006,145.08247949330777L508.5,145.083136058851L509.25,145.08378703861516L510,145.084432481464L510.75000000000006,145.08507243581758L511.5,145.0857069496565L512.25,145.08633607052613L513,145.0869598455407L513.75,145.0875783213875L514.5,145.08819154433078L515.25,145.08879956021602L516,145.08940241447365L516.75,145.09000015212314L517.5,145.0905928177769L518.25,145.0911804556441L519,145.0917631095345L519.75,145.09234082286224L520.5,145.09291363864963L521.25,145.09348159953078L522,145.09404474775528L522.75,145.09460312519198L523.5,145.09515677333232L524.25,145.09570573329418L525,145.0962500458252L525.75,145.09678975130632L526.5,145.09732488975536L527.25,145.0978555008302L528,145.09838162383244L528.75,145.09890329771048L529.5,145.09942056106314L530.25,145.09993345214264L531,145.10044200885807L531.75,145.10094626877853L532.5,145.10144626913632L533.25,145.1019420468301L534,145.10243363842804L534.75,145.10292108017092L535.5,145.1034044079751L536.25,145.10388365743566L537,145.1043588638294L537.75,145.10483006211774L538.5,145.10529728694974L539.25,145.10576057266496L540,145.10621995329637L540.75,145.10667546257324L541.5,145.10712713392388L542.25,145.10757500047853L543,145.10801909507214L543.75,145.10845945024704L544.5,145.10889609825568L545.25,145.1093290710634L546,145.10975840035098L546.75,145.11018411751743L547.5,145.11060625368245L548.25,145.1110248396891L549,145.11143990610634L549.75,145.1118514832316L550.5,145.11225960109329L551.25,145.1126642894532L552,145.11306557780912L552.75,145.11346349539718L553.5,145.11385807119424L554.25,145.11424933392036L555,145.11463731204117L555.75,145.11502203377015L556.5,145.11540352707095L557.25,145.11578181965987L558,145.11615693900785L558.75,145.11652891234294L559.5,145.11689776665253L560.25,145.11726352868544L561,145.1176262249542L561.75,145.1179858817372L562.5,145.11834252508086L563.25,145.11869618080175L564,145.11904687448862L564.75,145.11939463150466L565.5,145.1197394769894L566.25,145.12008143586084L567,145.12042053281752L567.75,145.12075679234036L568.5,145.12109023869488L569.25,145.12142089593297L570,145.12174878789497L570.75,145.12207393821157L571.5,145.1223963703057L572.25,145.12271610739438L573,145.12303317249075L573.75,145.12334758840578L574.5,145.12365937775022L575.25,145.12396856293628L576,145.12427516617961L576.75,145.12457920950104L577.5,145.1248807147282L578.25,145.1251797034975L579,145.12547619725578L579.75,145.12577021726193L580.5,145.12606178458873L581.25,145.1263509201245L582,145.12663764457483L582.75,145.12692197846405L583.5,145.12720394213707L584.25,145.12748355576096L585,145.1277608393265L585.75,145.1280358126498L586.5,145.12830849537394L587.25,145.12857890697046L588,145.1288470667409L588.75,145.12911299381844L589.5,145.1293767071693L590.25,145.1296382255944L591,145.12989756773064L591.75,145.13015475205253L592.5,145.1304097968737L593.25,145.13066272034814L594,145.13091354047188L594.75,145.13116227508422L595.5,145.1314089418693L596.25,145.13165355835736L597,145.1318961419262L597.75,145.13213670980255L598.5,145.1323752790634L599.25,145.13261186663735L600,145.132846489306L600.75,145.13307916370513L601.5,145.1333099063262L602.2500000000001,145.13353873351747L602.9999999999999,145.1337656614854L603.75,145.13399070629586L604.5,145.13421388387542L605.25,145.13443521001255L606,145.134654700359L606.75,145.13487237043077L607.5000000000001,145.1350882356096L608.25,145.13530231114393L609.0000000000001,145.13551461215033L609.7499999999999,145.13572515361443L610.5,145.13593395039229L611.25,145.13614101721146L612,145.13634636867212L612.75,145.13655001924826L613.5,145.13675198328883L614.2500000000001,145.13695227501876L615,145.13715090854012L615.7500000000001,145.13734789783325L616.4999999999999,145.13754325675774L617.25,145.13773699905366L618,145.13792913834246L618.75,145.13811968812814L619.5,145.13830866179825L620.25,145.13849607262492L621.0000000000001,145.13868193376592L621.7499999999999,145.1388662582656L622.5,145.13904905905605L623.25,145.13923034895785L624,145.13941014068135L624.75,145.1395884468274L625.5,145.13976527988845L626.2500000000001,145.13994065224952L627,145.14011457618912L627.7500000000001,145.1402870638801L628.4999999999999,145.14045812739076L629.25,145.1406277786857L630,145.14079602962667L630.75,145.14096289197357L631.5,145.14112837738531L632.25,145.14129249742072L633.0000000000001,145.14145526353943L633.75,145.14161668710273L634.5000000000001,145.14177677937445L635.2499999999999,145.14193555152184L636,145.14209301461636L636.75,145.14224917963466L637.5,145.1424040574592L638.25,145.14255765887927L639,145.14270999459177L639.7500000000001,145.14286107520198L640.4999999999999,145.14301091122434L641.25,145.14315951308336L642,145.14330689111432L642.75,145.1434530555641L643.5,145.14359801659188L644.25,145.14374178427005L645.0000000000001,145.14388436858485L645.75,145.1440257794372L646.5000000000001,145.14416602664335L647.2499999999999,145.14430511993578L648,145.14444306896385L648.75,145.14457988329445L649.5,145.14471557241285L650.25,145.14485014572335L651,145.14498361255008L651.7500000000001,145.1451159821375L652.5,145.14524726365133L653.2500000000001,145.14537746617913L653.9999999999999,145.14550659873095L654.75,145.14563467024004L655.5,145.1457616895636L656.25,145.14588766548337L657,145.14601260670625L657.75,145.146136521865L658.5000000000001,145.1462594195189L659.2499999999999,145.14638130815447L660,145.14650219618588L660.75,145.1466220919558L661.5,145.14674100373597L662.25,145.14685893972768L663,145.14697590806261L663.7500000000001,145.14709191680328L664.5,145.1472069739437L665.2500000000001,145.14732108740995L665.9999999999999,145.14743426506084L666.75,145.14754651468837L667.5,145.14765784401845L668.25,145.14776826071136L669,145.1478777723624L669.75,145.14798638650237L670.5000000000001,145.14809411059832L671.25,145.14820095205383L672.0000000000001,145.14830691820978L672.7499999999999,145.1484120163448L673.5,145.1485162536758L674.25,145.14861963735862L675,145.1487221744884L675.75,145.1488238721002L676.5,145.1489247371695L677.25,145.14902477661272L678.0000000000001,145.14912399728777L678.75,145.1492224059945L679.5,145.1493200094752L680.25,145.14941681441513L681,145.14951282744306L681.75,145.14960805513164L682.5,145.149702503998L683.25,145.14979618050413L684.0000000000001,145.14988909105745L684.7500000000001,145.14998124201128L685.5,145.15007263966518L686.25,145.15016329026557L687,145.1502532000061L687.75,145.15034237502815L688.5,145.15043082142122L689.25,145.15051854522352L690,145.15060555242218L690.7500000000001,145.15069184895393L691.5,145.15077744070538L692.25,145.1508623335135L693,145.1509465331661L693.75,145.1510300454021L694.5,145.15111287591222L695.25,145.1511950303391L696,145.15127651427787L696.7500000000001,145.15135733327654L697.5,145.15143749283644L698.25,145.15151699841257L699,145.15159585541394L699.75,145.15167406920418L700.5,145.15175164510163L701.25,145.15182858838L702,145.15190490426858L702.7500000000001,145.15198059795276L703.5000000000001,145.15205567457423L704.25,145.15213013923156L705,145.15220399698035L705.75,145.15227725283387L706.5,145.1523499117631L707.25,145.1524219786974L708,145.15249345852467L708.75,145.15256435609177L709.5000000000001,145.15263467620488L710.25,145.1527044236298L711,145.15277360309244L711.75,145.1528422192789L712.5,145.1529102768361L713.25,145.15297778037194L714,145.15304473445562L714.75,145.1531111436181L715.5000000000001,145.15317701235233L716.25,145.15324234511365L717,145.15330714631995L717.75,145.15337142035222L718.5,145.1534351715547L719.25,145.1534984042352L720,145.15356112266556L720.75,145.15362333108177L721.5000000000001,145.15368503368438L722.2500000000001,145.1537462346388L723,145.15380693807555L723.75,145.15386714809063L724.5,145.15392686874574L725.25,145.15398610406862L726,145.15404485805334L726.75,145.15410313466057L727.5000000000001,145.15416093781786L728.2500000000001,145.15421827141995L729,145.154275139329L729.75,145.15433154537493L730.5,145.15438749335567L731.25,145.15444298703738L732,145.15449803015485L732.75,145.1545526264116L733.5,145.1546067794803L734.2500000000001,145.1546604930029L735,145.154713770591L735.75,145.1547666158261L736.5,145.15481903225972L737.25,145.15487102341385L738,145.15492259278102L738.75,145.15497374382474L739.5,145.15502447997957L740.2500000000001,145.15507480465143L741.0000000000001,145.15512472121793L741.75,145.15517423302848L742.5,145.15522334340454L743.25,145.15527205564L744,145.15532037300125L744.75,145.1553682987275L745.5,145.15541583603098L746.2500000000001,145.15546298809718L747.0000000000001,145.1555097580851L747.75,145.15555614912736L748.5,145.15560216433065L749.25,145.1556478067757L750,145.15569307951768L750.75,145.15573798558628L751.5,145.1557825279861L752.25,145.1558267096967L753.0000000000001,145.1558705336728L753.75,145.1559140028447L754.5,145.15595712011822L755.25,145.15599988837513L756,145.15604231047323L756.75,145.1560843892465L757.5,145.15612612750553L758.25,145.15616752803746L759.0000000000001,145.15620859360632L759.7500000000001,145.15624932695323L760.5,145.15628973079646L761.25,145.1563298078318L762,145.1563695607327L762.75,145.15640899215035L763.5,145.15644810471397L764.25,145.156486901031L765.0000000000001,145.15652538368724L765.7500000000001,145.15656355524703L766.5,145.1566014182535L767.25,145.15663897522865L768,145.1566762286736L768.75,145.15671318106874L769.5,145.15674983487392L770.25,145.15678619252859L771,145.156822256452L771.7500000000001,145.15685802904335L772.5,145.15689351268205L773.25,145.1569287097277L774,145.15696362252044L774.75,145.156998253381L775.5,145.15703260461095L776.25,145.15706667849278L777,145.1571004772901L777.7500000000001,145.15713400324776L778.5000000000001,145.15716725859215L779.25,145.15720024553113L780,145.15723296625436L780.75,145.1572654229334L781.5,145.1572976177218L782.25,145.15732955275544L783,145.1573612301524L783.7500000000001,145.15739265201336L784.5000000000001,145.15742382042157L785.25,145.15745473744317L786,145.15748540512712L786.75,145.15751582550553L787.5,145.15754600059373L788.25,145.15757593239036L789,145.15760562287764L789.75,145.15763507402136L790.5000000000001,145.1576642877711L791.25,145.1576932660604L792,145.15772201080676L792.75,145.15775052391197L793.5,145.15777880726208L794.25,145.1578068627275L795,145.15783469216342L795.75,145.1578622974095L796.5000000000001,145.15788968029045L797.2500000000001,145.15791684261575L798,145.1579437861801L798.75,145.1579705127634L799.5,145.1579970241308L800.25,145.15802332203293L801,145.1580494082061L801.75,145.1580752843722L802.5000000000001,145.158100952239L803.2500000000001,145.1581264135002L804,145.15815166983558L804.75,145.158176722911L805.5,145.15820157437875L806.25,145.15822622587737L807,145.15825067903205L807.75,145.15827493545453L808.5,145.1582989967433L809.2500000000001,145.15832286448375L810,145.15834654024815L810.75,145.1583700255959L811.5,145.15839332207358L812.25,145.15841643121502L813,145.15843935454149L813.75,145.1584620935617L814.5,145.158484649772L815.2500000000001,145.15850702465642L816.0000000000001,145.1585292196868L816.75,145.15855123632295L817.5,145.1585730760126L818.25,145.15859474019163L819,145.15861623028414L819.75,145.1586375477025L820.5,145.1586586938475L821.2500000000001,145.1586796701085L822.0000000000001,145.15870047786333L822.75,145.1587211184786L823.5,145.1587415933097L824.25,145.15876190370088L825,145.1587820509853L825,145.16129032258064L824.25,145.16129032258064L823.5,145.16129032258064L822.75,145.16129032258064L822.0000000000001,145.16129032258064L821.2500000000001,145.16129032258064L820.5,145.16129032258064L819.75,145.16129032258064L819,145.16129032258064L818.25,145.16129032258064L817.5,145.16129032258064L816.75,145.16129032258064L816.0000000000001,145.16129032258064L815.2500000000001,145.16129032258064L814.5,145.16129032258064L813.75,145.16129032258064L813,145.16129032258064L812.25,145.16129032258064L811.5,145.16129032258064L810.75,145.16129032258064L810,145.16129032258064L809.2500000000001,145.16129032258064L808.5,145.16129032258064L807.75,145.16129032258064L807,145.16129032258064L806.25,145.16129032258064L805.5,145.16129032258064L804.75,145.16129032258064L804,145.16129032258064L803.2500000000001,145.16129032258064L802.5000000000001,145.16129032258064L801.75,145.16129032258064L801,145.16129032258064L800.25,145.16129032258064L799.5,145.16129032258064L798.75,145.16129032258064L798,145.16129032258064L797.2500000000001,145.16129032258064L796.5000000000001,145.16129032258064L795.75,145.16129032258064L795,145.16129032258064L794.25,145.16129032258064L793.5,145.16129032258064L792.75,145.16129032258064L792,145.16129032258064L791.25,145.16129032258064L790.5000000000001,145.16129032258064L789.75,145.16129032258064L789,145.16129032258064L788.25,145.16129032258064L787.5,145.16129032258064L786.75,145.16129032258064L786,145.16129032258064L785.25,145.16129032258064L784.5000000000001,145.16129032258064L783.7500000000001,145.16129032258064L783,145.16129032258064L782.25,145.16129032258064L781.5,145.16129032258064L780.75,145.16129032258064L780,145.16129032258064L779.25,145.16129032258064L778.5000000000001,145.16129032258064L777.7500000000001,145.16129032258064L777,145.16129032258064L776.25,145.16129032258064L775.5,145.16129032258064L774.75,145.16129032258064L774,145.16129032258064L773.25,145.16129032258064L772.5,145.16129032258064L771.7500000000001,145.16129032258064L771,145.16129032258064L770.25,145.16129032258064L769.5,145.16129032258064L768.75,145.16129032258064L768,145.16129032258064L767.25,145.16129032258064L766.5,145.16129032258064L765.7500000000001,145.16129032258064L765.0000000000001,145.16129032258064L764.25,145.16129032258064L763.5,145.16129032258064L762.75,145.16129032258064L762,145.16129032258064L761.25,145.16129032258064L760.5,145.16129032258064L759.7500000000001,145.16129032258064L759.0000000000001,145.16129032258064L758.25,145.16129032258064L757.5,145.16129032258064L756.75,145.16129032258064L756,145.16129032258064L755.25,145.16129032258064L754.5,145.16129032258064L753.75,145.16129032258064L753.0000000000001,145.16129032258064L752.25,145.16129032258064L751.5,145.16129032258064L750.75,145.16129032258064L750,145.16129032258064L749.25,145.16129032258064L748.5,145.16129032258064L747.75,145.16129032258064L747.0000000000001,145.16129032258064L746.2500000000001,145.16129032258064L745.5,145.16129032258064L744.75,145.16129032258064L744,145.16129032258064L743.25,145.16129032258064L742.5,145.16129032258064L741.75,145.16129032258064L741.0000000000001,145.16129032258064L740.2500000000001,145.16129032258064L739.5,145.16129032258064L738.75,145.16129032258064L738,145.16129032258064L737.25,145.16129032258064L736.5,145.16129032258064L735.75,145.16129032258064L735,145.16129032258064L734.2500000000001,145.16129032258064L733.5,145.16129032258064L732.75,145.16129032258064L732,145.16129032258064L731.25,145.16129032258064L730.5,145.16129032258064L729.75,145.16129032258064L729,145.16129032258064L728.2500000000001,145.16129032258064L727.5000000000001,145.16129032258064L726.75,145.16129032258064L726,145.16129032258064L725.25,145.16129032258064L724.5,145.16129032258064L723.75,145.16129032258064L723,145.16129032258064L722.2500000000001,145.16129032258064L721.5000000000001,145.16129032258064L720.75,145.16129032258064L720,145.16129032258064L719.25,145.16129032258064L718.5,145.16129032258064L717.75,145.16129032258064L717,145.16129032258064L716.25,145.16129032258064L715.5000000000001,145.16129032258064L714.75,145.16129032258064L714,145.16129032258064L713.25,145.16129032258064L712.5,145.16129032258064L711.75,145.16129032258064L711,145.16129032258064L710.25,145.16129032258064L709.5000000000001,145.16129032258064L708.75,145.16129032258064L708,145.16129032258064L707.25,145.16129032258064L706.5,145.16129032258064L705.75,145.16129032258064L705,145.16129032258064L704.25,145.16129032258064L703.5000000000001,145.16129032258064L702.7500000000001,145.16129032258064L702,145.16129032258064L701.25,145.16129032258064L700.5,145.16129032258064L699.75,145.16129032258064L699,145.16129032258064L698.25,145.16129032258064L697.5,145.16129032258064L696.7500000000001,145.16129032258064L696,145.16129032258064L695.25,145.16129032258064L694.5,145.16129032258064L693.75,145.16129032258064L693,145.16129032258064L692.25,145.16129032258064L691.5,145.16129032258064L690.7500000000001,145.16129032258064L690,145.16129032258064L689.25,145.16129032258064L688.5,145.16129032258064L687.75,145.16129032258064L687,145.16129032258064L686.25,145.16129032258064L685.5,145.16129032258064L684.7500000000001,145.16129032258064L684.0000000000001,145.16129032258064L683.25,145.16129032258064L682.5,145.16129032258064L681.75,145.16129032258064L681,145.16129032258064L680.25,145.16129032258064L679.5,145.16129032258064L678.75,145.16129032258064L678.0000000000001,145.16129032258064L677.25,145.16129032258064L676.5,145.16129032258064L675.75,145.16129032258064L675,145.16129032258064L674.25,145.16129032258064L673.5,145.16129032258064L672.7499999999999,145.16129032258064L672.0000000000001,145.16129032258064L671.25,145.16129032258064L670.5000000000001,145.16129032258064L669.75,145.16129032258064L669,145.16129032258064L668.25,145.16129032258064L667.5,145.16129032258064L666.75,145.16129032258064L665.9999999999999,145.16129032258064L665.2500000000001,145.16129032258064L664.5,145.16129032258064L663.7500000000001,145.16129032258064L663,145.16129032258064L662.25,145.16129032258064L661.5,145.16129032258064L660.75,145.16129032258064L660,145.16129032258064L659.2499999999999,145.16129032258064L658.5000000000001,145.16129032258064L657.75,145.16129032258064L657,145.16129032258064L656.25,145.16129032258064L655.5,145.16129032258064L654.75,145.16129032258064L653.9999999999999,145.16129032258064L653.2500000000001,145.16129032258064L652.5,145.16129032258064L651.7500000000001,145.16129032258064L651,145.16129032258064L650.25,145.16129032258064L649.5,145.16129032258064L648.75,145.16129032258064L648,145.16129032258064L647.2499999999999,145.16129032258064L646.5000000000001,145.16129032258064L645.75,145.16129032258064L645.0000000000001,145.16129032258064L644.25,145.16129032258064L643.5,145.16129032258064L642.75,145.16129032258064L642,145.16129032258064L641.25,145.16129032258064L640.4999999999999,145.16129032258064L639.7500000000001,145.16129032258064L639,145.16129032258064L638.25,145.16129032258064L637.5,145.16129032258064L636.75,145.16129032258064L636,145.16129032258064L635.2499999999999,145.16129032258064L634.5000000000001,145.16129032258064L633.75,145.16129032258064L633.0000000000001,145.16129032258064L632.25,145.16129032258064L631.5,145.16129032258064L630.75,145.16129032258064L630,145.16129032258064L629.25,145.16129032258064L628.4999999999999,145.16129032258064L627.7500000000001,145.16129032258064L627,145.16129032258064L626.2500000000001,145.16129032258064L625.5,145.16129032258064L624.75,145.16129032258064L624,145.16129032258064L623.25,145.16129032258064L622.5,145.16129032258064L621.7499999999999,145.16129032258064L621.0000000000001,145.16129032258064L620.25,145.16129032258064L619.5,145.16129032258064L618.75,145.16129032258064L618,145.16129032258064L617.25,145.16129032258064L616.4999999999999,145.16129032258064L615.7500000000001,145.16129032258064L615,145.16129032258064L614.2500000000001,145.16129032258064L613.5,145.16129032258064L612.75,145.16129032258064L612,145.16129032258064L611.25,145.16129032258064L610.5,145.16129032258064L609.7499999999999,145.16129032258064L609.0000000000001,145.16129032258064L608.25,145.16129032258064L607.5000000000001,145.16129032258064L606.75,145.16129032258064L606,145.16129032258064L605.25,145.16129032258064L604.5,145.16129032258064L603.75,145.16129032258064L602.9999999999999,145.16129032258064L602.2500000000001,145.16129032258064L601.5,145.16129032258064L600.75,145.16129032258064L600,145.16129032258064L599.25,145.16129032258064L598.5,145.16129032258064L597.75,145.16129032258064L597,145.16129032258064L596.25,145.16129032258064L595.5,145.16129032258064L594.75,145.16129032258064L594,145.16129032258064L593.25,145.16129032258064L592.5,145.16129032258064L591.75,145.16129032258064L591,145.16129032258064L590.25,145.16129032258064L589.5,145.16129032258064L588.75,145.16129032258064L588,145.16129032258064L587.25,145.16129032258064L586.5,145.16129032258064L585.75,145.16129032258064L585,145.16129032258064L584.25,145.16129032258064L583.5,145.16129032258064L582.75,145.16129032258064L582,145.16129032258064L581.25,145.16129032258064L580.5,145.16129032258064L579.75,145.16129032258064L579,145.16129032258064L578.25,145.16129032258064L577.5,145.16129032258064L576.75,145.16129032258064L576,145.16129032258064L575.25,145.16129032258064L574.5,145.16129032258064L573.75,145.16129032258064L573,145.16129032258064L572.25,145.16129032258064L571.5,145.16129032258064L570.75,145.16129032258064L570,145.16129032258064L569.25,145.16129032258064L568.5,145.16129032258064L567.75,145.16129032258064L567,145.16129032258064L566.25,145.16129032258064L565.5,145.16129032258064L564.75,145.16129032258064L564,145.16129032258064L563.25,145.16129032258064L562.5,145.16129032258064L561.75,145.16129032258064L561,145.16129032258064L560.25,145.16129032258064L559.5,145.16129032258064L558.75,145.16129032258064L558,145.16129032258064L557.25,145.16129032258064L556.5,145.16129032258064L555.75,145.16129032258064L555,145.16129032258064L554.25,145.16129032258064L553.5,145.16129032258064L552.75,145.16129032258064L552,145.16129032258064L551.25,145.16129032258064L550.5,145.16129032258064L549.75,145.16129032258064L549,145.16129032258064L548.25,145.16129032258064L547.5,145.16129032258064L546.75,145.16129032258064L546,145.16129032258064L545.25,145.16129032258064L544.5,145.16129032258064L543.75,145.16129032258064L543,145.16129032258064L542.25,145.16129032258064L541.5,145.16129032258064L540.75,145.16129032258064L540,145.16129032258064L539.25,145.16129032258064L538.5,145.16129032258064L537.75,145.16129032258064L537,145.16129032258064L536.25,145.16129032258064L535.5,145.16129032258064L534.75,145.16129032258064L534,145.16129032258064L533.25,145.16129032258064L532.5,145.16129032258064L531.75,145.16129032258064L531,145.16129032258064L530.25,145.16129032258064L529.5,145.16129032258064L528.75,145.16129032258064L528,145.16129032258064L527.25,145.16129032258064L526.5,145.16129032258064L525.75,145.16129032258064L525,145.16129032258064L524.25,145.16129032258064L523.5,145.16129032258064L522.75,145.16129032258064L522,145.16129032258064L521.25,145.16129032258064L520.5,145.16129032258064L519.75,145.16129032258064L519,145.16129032258064L518.25,145.16129032258064L517.5,145.16129032258064L516.75,145.16129032258064L516,145.16129032258064L515.25,145.16129032258064L514.5,145.16129032258064L513.75,145.16129032258064L513,145.16129032258064L512.25,145.16129032258064L511.5,145.16129032258064L510.75000000000006,145.16129032258064L510,145.16129032258064L509.25,145.16129032258064L508.5,145.16129032258064L507.75000000000006,145.16129032258064L507,145.16129032258064L506.25,145.16129032258064L505.5,145.16129032258064L504.75000000000006,145.16129032258064L504,145.16129032258064L503.25,145.16129032258064L502.5,145.16129032258064L501.75000000000006,145.16129032258064L501,145.16129032258064L500.25,145.16129032258064L499.5,145.16129032258064L498.75,145.16129032258064L498,145.16129032258064L497.25,145.16129032258064L496.5,145.16129032258064L495.75,145.16129032258064L495.00000000000006,145.16129032258064L494.25,145.16129032258064L493.5,145.16129032258064L492.75,145.16129032258064L492.00000000000006,145.16129032258064L491.25,145.16129032258064L490.5,145.16129032258064L489.75,145.16129032258064L489.00000000000006,145.16129032258064L488.25,145.16129032258064L487.5,145.16129032258064L486.75,145.16129032258064L486.00000000000006,145.16129032258064L485.25,145.16129032258064L484.5,145.16129032258064L483.75,145.16129032258064L483.00000000000006,145.16129032258064L482.25,145.16129032258064L481.5,145.16129032258064L480.75,145.16129032258064L480,145.16129032258064L479.25,145.16129032258064L478.5,145.16129032258064L477.75,145.16129032258064L477,145.16129032258064L476.25000000000006,145.16129032258064L475.5,145.16129032258064L474.75,145.16129032258064L474,145.16129032258064L473.25000000000006,145.16129032258064L472.5,145.16129032258064L471.75,145.16129032258064L471,145.16129032258064L470.25000000000006,145.16129032258064L469.5,145.16129032258064L468.75,145.16129032258064L468,145.16129032258064L467.25000000000006,145.16129032258064L466.5,145.16129032258064L465.75,145.16129032258064L465,145.16129032258064L464.25000000000006,145.16129032258064L463.5,145.16129032258064L462.75,145.16129032258064L462,145.16129032258064L461.25,145.16129032258064L460.5,145.16129032258064L459.75,145.16129032258064L459,145.16129032258064L458.25,145.16129032258064L457.50000000000006,145.16129032258064L456.75,145.16129032258064L456,145.16129032258064L455.25,145.16129032258064L454.50000000000006,145.16129032258064L453.75,145.16129032258064L453,145.16129032258064L452.25,145.16129032258064L451.50000000000006,145.16129032258064L450.75,145.16129032258064L450,145.16129032258064L449.25,145.16129032258064L448.50000000000006,145.16129032258064L447.75,145.16129032258064L447,145.16129032258064L446.25,145.16129032258064L445.50000000000006,145.16129032258064L444.75,145.16129032258064L444,145.16129032258064L443.25,145.16129032258064L442.5,145.16129032258064L441.75,145.16129032258064L441,145.16129032258064L440.25,145.16129032258064L439.5,145.16129032258064L438.75000000000006,145.16129032258064L438,145.16129032258064L437.25,145.16129032258064L436.5,145.16129032258064L435.75000000000006,145.16129032258064L435,145.16129032258064L434.25,145.16129032258064L433.5,145.16129032258064L432.75000000000006,145.16129032258064L432,145.16129032258064L431.25,145.16129032258064L430.5,145.16129032258064L429.75000000000006,145.16129032258064L429,145.16129032258064L428.25,145.16129032258064L427.5,145.16129032258064L426.75000000000006,145.16129032258064L426,145.16129032258064L425.25,145.16129032258064L424.5,145.16129032258064L423.75,145.16129032258064L423,145.16129032258064L422.25,145.16129032258064L421.5,145.16129032258064L420.75,145.16129032258064L420.00000000000006,145.16129032258064L419.25,145.16129032258064L418.5,145.16129032258064L417.75,145.16129032258064L417.00000000000006,145.16129032258064L416.25,145.16129032258064L415.5,145.16129032258064L414.75,145.16129032258064L414.00000000000006,145.16129032258064L413.25,145.16129032258064L412.5,145.16129032258064L411.75,145.16129032258064L411.00000000000006,145.16129032258064L410.25,145.16129032258064L409.5,145.16129032258064L408.75,145.16129032258064L408.00000000000006,145.16129032258064L407.25,145.16129032258064L406.5,145.16129032258064L405.75,145.16129032258064L405,145.16129032258064L404.25,145.16129032258064L403.5,145.16129032258064L402.75,145.16129032258064L402,145.16129032258064L401.25000000000006,145.16129032258064L400.5,145.16129032258064L399.75,145.16129032258064L399,145.16129032258064L398.25000000000006,145.16129032258064L397.5,145.16129032258064L396.75,145.16129032258064L396,145.16129032258064L395.25000000000006,145.16129032258064L394.5,145.16129032258064L393.75,145.16129032258064L393,145.16129032258064L392.25000000000006,145.16129032258064L391.5,145.16129032258064L390.75,145.16129032258064L390,145.16129032258064L389.25000000000006,145.16129032258064L388.5,145.16129032258064L387.75,145.16129032258064L387,145.16129032258064L386.25,145.16129032258064L385.5,145.16129032258064L384.75,145.16129032258064L384,145.16129032258064L383.25,145.16129032258064L382.5,145.16129032258064L381.75,145.16129032258064L381,145.16129032258064L380.25,145.16129032258064L379.50000000000006,145.16129032258064L378.75,145.16129032258064L378,145.16129032258064L377.25,145.16129032258064L376.50000000000006,145.16129032258064L375.75,145.16129032258064L375,145.16129032258064L374.25,145.16129032258064L373.50000000000006,145.16129032258064L372.75000000000006,145.16129032258064L372,145.16129032258064L371.25,145.16129032258064L370.49999999999994,145.16129032258064L369.75,145.16129032258064L369,145.16129032258064L368.25,145.16129032258064L367.5,145.16129032258064L366.75000000000006,145.16129032258064L366,145.16129032258064L365.25,145.16129032258064L364.49999999999994,145.16129032258064L363.75,145.16129032258064L363,145.16129032258064L362.25,145.16129032258064L361.5,145.16129032258064L360.75000000000006,145.16129032258064L360.00000000000006,145.16129032258064L359.25,145.16129032258064L358.5,145.16129032258064L357.74999999999994,145.16129032258064L357,145.16129032258064L356.25,145.16129032258064L355.5,145.16129032258064L354.75000000000006,145.16129032258064L354.00000000000006,145.16129032258064L353.25,145.16129032258064L352.5,145.16129032258064L351.74999999999994,145.16129032258064L351,145.16129032258064L350.25,145.16129032258064L349.5,145.16129032258064L348.75,145.16129032258064L348.00000000000006,145.16129032258064L347.25,145.16129032258064L346.5,145.16129032258064L345.74999999999994,145.16129032258064L345,145.16129032258064L344.25,145.16129032258064L343.5,145.16129032258064L342.75,145.16129032258064L342.00000000000006,145.16129032258064L341.25000000000006,145.16129032258064L340.5,145.16129032258064L339.75,145.16129032258064L338.99999999999994,145.16129032258064L338.25,145.16129032258064L337.5,145.16129032258064L336.75,145.16129032258064L336.00000000000006,145.16129032258064L335.25000000000006,145.16129032258064L334.5,145.16129032258064L333.75,145.16129032258064L332.99999999999994,145.16129032258064L332.25,145.16129032258064L331.5,145.16129032258064L330.75,145.16129032258064L330,145.16129032258064L329.25000000000006,145.16129032258064L328.5,145.16129032258064L327.75,145.16129032258064L326.99999999999994,145.16129032258064L326.25,145.16129032258064L325.5,145.16129032258064L324.75,145.16129032258064L324,145.16129032258064L323.25000000000006,145.16129032258064L322.50000000000006,145.16129032258064L321.75,145.16129032258064L321,145.16129032258064L320.24999999999994,145.16129032258064L319.5,145.16129032258064L318.75,145.16129032258064L318,145.16129032258064L317.25000000000006,145.16129032258064L316.50000000000006,145.16129032258064L315.75,145.16129032258064L315,145.16129032258064L314.24999999999994,145.16129032258064L313.5,145.16129032258064L312.75,145.16129032258064L312,145.16129032258064L311.25,145.16129032258064L310.50000000000006,145.16129032258064L309.75,145.16129032258064L309,145.16129032258064L308.24999999999994,145.16129032258064L307.5,145.16129032258064L306.75,145.16129032258064L306,145.16129032258064L305.25,145.16129032258064L304.50000000000006,145.16129032258064L303.75000000000006,145.16129032258064L303,145.16129032258064L302.25,145.16129032258064L301.49999999999994,145.16129032258064L300.75,145.16129032258064L300,145.16129032258064L299.25,145.16129032258064L298.5,145.16129032258064L297.75,145.16129032258064L297,145.16129032258064L296.25,145.16129032258064L295.5,145.16129032258064L294.75,145.16129032258064L294,145.16129032258064L293.25,145.16129032258064L292.5,145.16129032258064L291.75,145.16129032258064L291,145.16129032258064L290.25,145.16129032258064L289.5,145.16129032258064L288.75,145.16129032258064L288,145.16129032258064L287.25,145.16129032258064L286.5,145.16129032258064L285.75,145.16129032258064L285,145.16129032258064L284.25,145.16129032258064L283.5,145.16129032258064L282.75,145.16129032258064L282,145.16129032258064L281.25,145.16129032258064L280.5,145.16129032258064L279.75,145.16129032258064L279,145.16129032258064L278.25,145.16129032258064L277.5,145.16129032258064L276.75,145.16129032258064L276,145.16129032258064L275.25,145.16129032258064L274.5,145.16129032258064L273.75,145.16129032258064L273,145.16129032258064L272.25,145.16129032258064L271.5,145.16129032258064L270.75,145.16129032258064L270,145.16129032258064L269.25,145.16129032258064L268.5,145.16129032258064L267.75,145.16129032258064L267,145.16129032258064L266.25,145.16129032258064L265.5,145.16129032258064L264.75,145.16129032258064L264,145.16129032258064L263.25,145.16129032258064L262.5,145.16129032258064L261.75,145.16129032258064L261,145.16129032258064L260.25,145.16129032258064L259.5,145.16129032258064L258.75,145.16129032258064L258,145.16129032258064L257.25,145.16129032258064L256.5,145.16129032258064L255.75,145.16129032258064L255,145.16129032258064L254.25,145.16129032258064L253.5,145.16129032258064L252.75,145.16129032258064L252,145.16129032258064L251.25,145.16129032258064L250.5,145.16129032258064L249.75,145.16129032258064L249,145.16129032258064L248.25,145.16129032258064L247.50000000000003,145.16129032258064L246.75,145.16129032258064L246.00000000000003,145.16129032258064L245.25,145.16129032258064L244.50000000000003,145.16129032258064L243.75,145.16129032258064L243.00000000000003,145.16129032258064L242.25,145.16129032258064L241.50000000000003,145.16129032258064L240.75,145.16129032258064L240,145.16129032258064L239.25,145.16129032258064L238.5,145.16129032258064L237.75,145.16129032258064L237,145.16129032258064L236.25,145.16129032258064L235.5,145.16129032258064L234.75,145.16129032258064L234,145.16129032258064L233.25,145.16129032258064L232.5,145.16129032258064L231.75,145.16129032258064L231,145.16129032258064L230.25,145.16129032258064L229.5,145.16129032258064L228.75,145.16129032258064L228,145.16129032258064L227.25000000000003,145.16129032258064L226.5,145.16129032258064L225.75000000000003,145.16129032258064L225,145.16129032258064L224.25000000000003,145.16129032258064L223.5,145.16129032258064L222.74999999999997,145.16129032258064L222,145.16129032258064L221.25,145.16129032258064L220.5,145.16129032258064L219.74999999999997,145.16129032258064L219,145.16129032258064L218.25,145.16129032258064L217.50000000000003,145.16129032258064L216.75,145.16129032258064L216,145.16129032258064L215.25,145.16129032258064L214.50000000000003,145.16129032258064L213.75,145.16129032258064L213,145.16129032258064L212.25,145.16129032258064L211.50000000000003,145.16129032258064L210.75,145.16129032258064L210,145.16129032258064L209.25,145.16129032258064L208.50000000000003,145.16129032258064L207.75,145.16129032258064L206.99999999999997,145.16129032258064L206.25,145.16129032258064L205.50000000000003,145.16129032258064L204.75,145.16129032258064L203.99999999999997,145.16129032258064L203.25,145.16129032258064L202.5,145.16129032258064L201.75,145.16129032258064L200.99999999999997,145.16129032258064L200.25,145.16129032258064L199.5,145.16129032258064L198.75000000000003,145.16129032258064L198,145.16129032258064L197.25,145.16129032258064L196.5,145.16129032258064L195.75000000000003,145.16129032258064L195,145.16129032258064L194.25,145.16129032258064L193.5,145.16129032258064L192.75000000000003,145.16129032258064L192,145.16129032258064L191.25,145.16129032258064L190.5,145.16129032258064L189.75000000000003,145.16129032258064L189,145.16129032258064L188.24999999999997,145.16129032258064L187.5,145.16129032258064L186.75000000000003,145.16129032258064L186,145.16129032258064L185.24999999999997,145.16129032258064L184.5,145.16129032258064L183.75,145.16129032258064L183,145.16129032258064L182.24999999999997,145.16129032258064L181.5,145.16129032258064L180.75,145.16129032258064L180.00000000000003,145.16129032258064L179.25,145.16129032258064L178.5,145.16129032258064L177.75,145.16129032258064L177.00000000000003,145.16129032258064L176.25,145.16129032258064L175.5,145.16129032258064L174.75,145.16129032258064L174.00000000000003,145.16129032258064L173.25,145.16129032258064L172.5,145.16129032258064L171.75,145.16129032258064L171.00000000000003,145.16129032258064L170.25,145.16129032258064L169.49999999999997,145.16129032258064L168.75,145.16129032258064L168.00000000000003,145.16129032258064L167.25,145.16129032258064L166.49999999999997,145.16129032258064L165.75,145.16129032258064L165,145.16129032258064L164.25,145.16129032258064L163.49999999999997,145.16129032258064L162.75,145.16129032258064L162,145.16129032258064L161.25000000000003,145.16129032258064L160.5,145.16129032258064L159.75,145.16129032258064L159,145.16129032258064L158.25000000000003,145.16129032258064L157.5,145.16129032258064L156.75,145.16129032258064L156,145.16129032258064L155.25000000000003,145.16129032258064L154.5,145.16129032258064L153.75,145.16129032258064L153,145.16129032258064L152.25000000000003,145.16129032258064L151.5,145.16129032258064L150.74999999999997,145.16129032258064L150,145.16129032258064L149.25,145.16129032258064L148.5,145.16129032258064L147.75,145.16129032258064L147,145.16129032258064L146.25,145.16129032258064L145.5,145.16129032258064L144.75,145.16129032258064L144,145.16129032258064L143.25,145.16129032258064L142.5,145.16129032258064L141.75,145.16129032258064L141,145.16129032258064L140.25,145.16129032258064L139.5,145.16129032258064L138.75,145.16129032258064L138,145.16129032258064L137.25,145.16129032258064L136.5,145.16129032258064L135.75,145.16129032258064L135,145.16129032258064L134.25,145.16129032258064L133.5,145.16129032258064L132.75,145.16129032258064L132,145.16129032258064L131.25,145.16129032258064L130.5,145.16129032258064L129.75,145.16129032258064L129,145.16129032258064L128.25,145.16129032258064L127.50000000000001,145.16129032258064L126.75,145.16129032258064L126.00000000000001,145.16129032258064L125.25,145.16129032258064L124.50000000000001,145.16129032258064L123.75,145.16129032258064L123.00000000000001,145.16129032258064L122.24999999999999,145.16129032258064L121.50000000000001,145.16129032258064L120.74999999999999,145.16129032258064L120,145.16129032258064L119.24999999999999,145.16129032258064L118.5,145.16129032258064L117.75,145.16129032258064L117,145.16129032258064L116.25,145.16129032258064L115.5,145.16129032258064L114.75,145.16129032258064L114,145.16129032258064L113.25,145.16129032258064L112.5,145.16129032258064L111.75,145.16129032258064L111,145.16129032258064L110.25,145.16129032258064L109.5,145.16129032258064L108.75,145.16129032258064L108,145.16129032258064L107.25,145.16129032258064L106.5,145.16129032258064L105.75000000000001,145.16129032258064L105,145.16129032258064L104.25000000000001,145.16129032258064L103.49999999999999,145.16129032258064L102.75000000000001,145.16129032258064L101.99999999999999,145.16129032258064L101.25,145.16129032258064L100.5,145.16129032258064L99.75,145.16129032258064L99,145.16129032258064L98.25,145.16129032258064L97.5,145.16129032258064L96.75,145.16129032258064L96,145.16129032258064L95.25,145.16129032258064L94.5,145.16129032258064L93.75,145.16129032258064L93,145.16129032258064L92.25,145.16129032258064L91.5,145.16129032258064L90.75,145.16129032258064L90,145.16129032258064L89.25,145.16129032258064L88.5,145.16129032258064L87.75,145.16129032258064L87,145.16129032258064L86.25,145.16129032258064L85.50000000000001,145.16129032258064L84.74999999999999,145.16129032258064L84.00000000000001,145.16129032258064L83.25000000000001,145.16129032258064L82.5,145.16129032258064L81.75,145.16129032258064L81,145.16129032258064L80.25,145.16129032258064L79.5,145.16129032258064L78.75,145.16129032258064L78,145.16129032258064L77.25,145.16129032258064L76.5,145.16129032258064L75.75,145.16129032258064Z"
          stroke-width="0" fill-opacity="0.5" fill="lightblue"/>
</svg>