<?xml version="1.0" standalone="no"?>
<svg xmlns="http://www.w3.org/2000/svg" id="svg_10" width="150" height="150" style="background-color: rgb(58, 58, 58);">
    <g transform="translate( 4.838709677419355, 0)" class="axis" fill="none" font-size="10" font-family="sans-serif"
       text-anchor="end">
        <path class="domain" stroke="#000" d="M0,150.5H0.5V0.5H0" style="stroke: orange; stroke-width: 0.5;"/>
    </g>
    <g transform="translate( 0,145.16129032258064)" class="axis" fill="none" font-size="10" font-family="sans-serif"
       text-anchor="middle">
        <path class="domain" stroke="#000" d="M0.5,0V0.5H150.5V0" style="stroke: orange; stroke-width: 0.5;"/>
    </g>
    <path d="M4.838709677419355,24.19354838709677L5.32258064516129,24.79537794896484L5.806451612903226,25.391248802299586L6.290322580645162,25.981249006832982L6.774193548387098,26.565464895635657L7.258064516129033,27.14398111723051L7.741935483870968,27.716880676479803L8.225806451612904,28.28424497428705L8.709677419354838,28.84615384615384L9.193548387096774,29.402685599629578L9.67741935483871,29.95391705069123L10.161290322580646,30.499923559088828L10.64516129032258,31.04077906269022L11.129032258064516,31.57655611085869L11.612903225806452,32.10732589689478L12.096774193548386,32.63315828957239L12.580645161290324,33.154121863799276L13.064516129032258,33.670283930429605L13.548387096774196,34.181710565256L14.03225806451613,34.68846663720724L14.516129032258066,35.19061583577715L14.999999999999998,35.68822069770836L15.483870967741936,36.18134263295556L15.967741935483872,36.67004194994938L16.451612903225804,37.15437788018434L16.93548387096774,37.63440860215053L17.419354838709676,38.1101912646303L17.903225806451612,38.58178200937901L18.387096774193548,39.04923599320885L18.87096774193548,39.51260740949431L19.35483870967742,39.9719495091164L19.838709677419356,40.427314620863L20.322580645161292,40.87875417130144L20.806451612903228,41.32631870413957L21.29032258064516,41.77005789909015L21.7741935483871,42.21002059025395L22.258064516129032,42.646254784034994L22.741935483870968,43.07880767660269L23.2258064516129,43.50772567091353L23.709677419354836,43.93305439330544L24.193548387096772,44.35483870967741L24.67741935483871,44.773122741266235L25.161290322580648,45.18794988003198L25.64516129032258,45.59936280366388L26.129032258064516,46.00740349021683L26.612903225806452,46.41211323238973L27.09677419354839,46.81353265145553L27.580645161290327,47.21170171085281L28.064516129032256,47.606659729448495L28.548387096774192,47.998445394481166L29.032258064516128,48.38709677419354L29.516129032258064,48.772651330163214L29.999999999999996,49.15514592933948L30.483870967741936,49.534616855794994L30.967741935483872,49.911099822199645L31.451612903225808,50.284629981024665L31.935483870967744,50.65524193548386L32.41935483870968,51.02296975021966L32.90322580645161,51.387846961740436L33.387096774193544,51.749906588616255L33.87096774193548,52.10918114143921L34.354838709677416,52.46570263255467L34.83870967741935,52.81950258557006L35.32258064516129,53.17061204464615L35.806451612903224,53.51906158357771L36.29032258064516,53.86488131466828L36.774193548387096,54.20810089740479L37.25806451612903,54.54874954693729L37.74193548387096,54.88685604236882L38.225806451612904,55.22244873486029L38.70967741935484,55.55555555555557L39.193548387096776,55.88620402333055L39.677419354838705,56.21442125237192L40.16129032258064,56.540233959588804L40.64516129032258,56.863668471862496L41.12903225806451,57.18475073313783L41.61290322580645,57.503506311360454L42.096774193548384,57.81996040526377L42.58064516129032,58.13413785100951L43.064516129032256,58.446063128685395L43.5483870967742,58.75576036866359L44.032258064516135,59.06325335782343L44.516129032258064,59.36856554564173L45,59.67172005015388L45.483870967741936,59.972739663789184L45.967741935483865,60.27164685908319L46.4516129032258,60.56846379427023L46.93548387096774,60.86321231875914L47.41935483870967,61.15591397849461L47.90322580645161,61.446590021207726L48.387096774193544,61.73526140155728L48.87096774193548,62.02194878616562L49.35483870967742,62.30667255855059L49.83870967741936,62.58945282395685L50.322580645161295,62.87030941408821L50.80645161290323,63.14926189174412L51.29032258064516,63.42632955536182L51.774193548387096,63.70153144346692L52.25806451612903,63.97488633903443L52.74193548387097,64.24641277376202L53.225806451612904,64.51612903225806L53.70967741935484,64.78405315614617L54.19354838709678,65.05020294808801L54.67741935483872,65.31459597572662L55.161290322580655,65.57724957555179L55.64516129032259,65.83818085668958L56.12903225806452,66.09740670461733L56.612903225806456,66.35494378480614L57.09677419354839,66.6108085462924L57.58064516129033,66.86501722518008L58.06451612903226,67.11758584807492L58.5483870967742,67.36853023545275L59.032258064516135,67.61786600496278L59.51612903225808,67.86560857466763L60.000000000000014,68.1117731662215L60.48387096774195,68.35637480798772L60.96774193548387,68.59942833809717L61.45161290322581,68.84094840744888L61.935483870967744,69.08094948265366L62.41935483870968,69.31944584892305L62.903225806451616,69.55645161290323L63.38709677419355,69.79198070545674L63.87096774193549,70.0260468843919L64.35483870967742,70.2586637371417L64.83870967741936,70.48984468339307L65.3225806451613,70.71960297766749L65.80645161290323,70.94795171185433L66.29032258064517,71.17490381769755L66.7741935483871,71.40047206923683L67.25806451612904,71.62466908520445L67.74193548387098,71.8475073313783L68.22580645161291,72.06899912289249L68.70967741935485,72.28915662650603L69.19354838709678,72.50799186283058L69.67741935483872,72.72551670851844L70.16129032258065,72.94174289841118L70.64516129032259,73.15668202764978L71.12903225806453,73.3703455537475L71.61290322580646,73.5827447986257L72.0967741935484,73.79389095061376L72.58064516129033,74.00379506641367L73.06451612903226,74.21246807302998L73.54838709677419,74.4199207696661L74.03225806451613,74.62616382958713L74.51612903225806,74.83120780195048L75,75.0350631136045L75.48387096774192,75.23774007085586L75.96774193548387,75.43924886120665L76.45161290322581,75.63959955506118L76.93548387096774,75.83880210740365L77.41935483870968,76.036866359447L77.90322580645162,76.23380204025365L78.38709677419355,76.42961876832844L78.87096774193549,76.62432605318469L79.35483870967742,76.81793329688354L79.83870967741937,77.01044979554747L80.3225806451613,77.20188474084814L80.80645161290322,77.39224722146923L81.29032258064517,77.58154622454497L81.7741935483871,77.76979063707431L82.25806451612904,77.95698924731182L82.74193548387098,78.14315074613529L83.22580645161291,78.32828372839066L83.70967741935485,78.51239669421487L84.19354838709678,78.69549805033675L84.67741935483872,78.87759611135661L85.16129032258064,79.05869910100476L85.64516129032258,79.23881515337962L86.12903225806451,79.41795231416549L86.61290322580645,79.59611854183058L87.0967741935484,79.77332170880558L87.58064516129032,79.94956960264325L88.06451612903227,80.12486992715921L88.54838709677419,80.29923030355444L89.03225806451613,80.47265827151975L89.51612903225806,80.64516129032259L90,80.81674673987646L90.48387096774194,80.98742192179344L90.96774193548387,81.15719406041988L91.45161290322582,81.32607030385564L91.93548387096774,81.49405772495756L92.4193548387097,81.66116332232664L92.90322580645162,81.82739402128018L93.38709677419355,81.99275667480838L93.87096774193549,82.15725806451613L94.35483870967742,82.32090490155007L94.83870967741936,82.48370382751128L95.3225806451613,82.64566141535384L95.80645161290323,82.80678417026937L96.29032258064517,82.96707853055808L96.77419354838709,83.12655086848635L97.25806451612904,83.28520749113109L97.74193548387096,83.44305464121132L98.2258064516129,83.60009849790691L98.70967741935485,83.75634517766497L99.19354838709677,83.91180073499388L99.67741935483872,84.06647116324535L100.16129032258064,84.22036239538474L100.64516129032259,84.37348030474955L101.1290322580645,84.52583070579675L101.61290322580646,84.6774193548387L102.09677419354841,84.82825195076823L102.58064516129032,84.97833413577274L103.06451612903228,85.12767149603778L103.54838709677419,85.2762695624401L104.03225806451611,85.42413381123058L104.51612903225806,85.57126966470682L105,85.71768249187603L105.48387096774194,85.86337760910816L105.96774193548387,86.00836028077924L106.45161290322581,86.15263571990558L106.93548387096774,86.29620908876853L107.41935483870968,86.43908549953022L107.90322580645162,86.58127001484027L108.38709677419357,86.72276764843386L108.87096774193549,86.86358336572096L109.35483870967744,87.00372208436724L109.83870967741936,87.14318867486655L110.32258064516131,87.2819879611051L110.80645161290322,87.4201247209177L111.29032258064518,87.55760368663594L111.77419354838709,87.69442954562868L112.25806451612904,87.83060694083474L112.74193548387096,87.96614047128804L113.22580645161291,88.10103469263544L113.70967741935483,88.23529411764704L114.19354838709678,88.36892321671968L114.6774193548387,88.50192641837273L115.16129032258065,88.63430810973772L115.64516129032259,88.76607263704037L116.12903225806453,88.89722430607654L116.61290322580646,89.02776738268093L117.09677419354838,89.15770609318997L117.58064516129033,89.28704462489756L118.06451612903226,89.41578712650512L118.5483870967742,89.54393770856507L119.03225806451611,89.6715004439183L119.51612903225808,89.79847936812578L119.99999999999999,89.92487847989395L120.48387096774194,90.0507017414946L120.96774193548386,90.1759530791789L121.45161290322581,90.3006363835857L121.93548387096774,90.42475551014451L122.41935483870968,90.54831427947279L122.90322580645162,90.67131647776809L123.38709677419355,90.79376585719464L123.87096774193549,90.915666136265L124.35483870967742,91.0370210002165L124.83870967741936,91.15783410138249L125.3225806451613,91.27810905955889L125.80645161290323,91.39784946236558L126.29032258064518,91.51705886560332L126.7741935483871,91.63574079360546L127.25806451612905,91.75389873958557L127.74193548387098,91.87153616597982L128.22580645161293,91.98865650478554L128.70967741935485,92.10526315789474L129.19354838709677,92.22135949742359L129.67741935483872,92.33694886603747L130.16129032258064,92.45203457727177L130.6451612903226,92.56661991584852L131.1290322580645,92.68070813798894L131.61290322580646,92.79430247172183L132.09677419354838,92.90740611718805L132.58064516129033,93.02002224694104L133.06451612903226,93.1321540062435L133.5483870967742,93.24380451336009L134.03225806451613,93.35497685984666L134.51612903225808,93.46567411083541L135,93.57589930531671L135.48387096774195,93.6856554564173L135.96774193548387,93.79494555167454L136.45161290322582,93.90377255330782L136.93548387096774,94.01213939848597L137.4193548387097,94.12004899959166L137.90322580645162,94.22750424448216L138.38709677419357,94.33450799674708L138.8709677419355,94.44106309596266L139.35483870967744,94.54717235794304L139.83870967741936,94.65283857498821L140.3225806451613,94.75806451612904L140.80645161290323,94.86285292736906L141.29032258064515,94.96720653192344L141.7741935483871,95.07112803045482L142.25806451612902,95.1746201013063L142.74193548387098,95.27768540073161L143.2258064516129,95.38032656312225L143.70967741935485,95.48254620123203L144.19354838709677,95.58434690639874L144.67741935483872,95.68573124876312L145.16129032258064,95.78670177748518L145.6451612903226,95.88726102095788L146.1290322580645,95.9874114870181L146.61290322580646,96.08715566315513L147.09677419354838,96.18649601671673L147.58064516129033,96.28543499511241L148.06451612903226,96.38397502601457L148.5483870967742,96.48211851755696L149.03225806451613,96.5798678585309L149.51612903225808,96.6772254185791L150,96.7741935483871L150.48387096774195,96.87077457987252L150.96774193548384,96.96697082637192L151.45161290322582,97.06278458282563L151.93548387096774,97.15821812596005L152.41935483870967,97.25327371446824L152.90322580645162,97.34795358918781L153.38709677419357,97.44225997327734L153.8709677419355,97.53619507239014L154.3548387096774,97.62976107484631L154.83870967741936,97.72296015180265L155.32258064516128,97.81579445742062L155.80645161290323,97.90826612903226L156.29032258064518,98.00037728730427L156.7741935483871,98.09213003640016L157.25806451612902,98.18352646414031L157.74193548387098,98.27456864216055L158.22580645161293,98.36525862606851L158.70967741935485,98.45559845559845L159.19354838709677,98.54559015476411L159.67741935483875,98.63523573200993L160.16129032258064,98.72453718036036L160.6451612903226,98.81349647756767L161.1290322580645,98.90211558625793L161.61290322580643,98.99039645407535L162.09677419354838,99.07834101382488L162.58064516129033,99.1659511836134L163.06451612903226,99.25322886698905L163.5483870967742,99.34017595307918L164.03225806451613,99.42679431672664L164.51612903225808,99.51308581862448L165,99.59905230544925L165.48387096774195,99.68469560999273L165.96774193548387,99.77001755129213L166.4516129032258,99.85501993475896L166.93548387096777,99.9397045523063L167.41935483870967,100.02407318247472L167.90322580645162,100.10812759055685L168.38709677419354,100.19186952872047L168.8709677419355,100.27530073613025L169.3548387096774,100.3584229390681L169.83870967741936,100.44123785105242L170.32258064516128,100.5237471729556L170.80645161290323,100.60595259312065L171.29032258064515,100.68785578747628L171.7741935483871,100.76945841965079L172.25806451612902,100.85076214108473L172.74193548387098,100.93176859114232L173.2258064516129,101.01247939722157L173.70967741935485,101.0928961748634L174.1935483870968,101.17302052785924L174.67741935483872,101.25285404835782L175.16129032258064,101.33239831697054L175.6451612903226,101.41165490287582L176.12903225806454,101.49062536392222L176.61290322580646,101.5693112467306L177.09677419354838,101.64771408679509L177.58064516129036,101.72583540858284L178.06451612903226,101.80367672563303L178.54838709677418,101.8812395406544L179.03225806451613,101.95852534562212L179.51612903225808,102.03553562187338L180,102.11227184020206L180.48387096774192,102.18873546095227L180.96774193548387,102.26492793411118L181.45161290322582,102.34085069940052L181.93548387096774,102.41650518636726L182.41935483870967,102.49189281447346L182.90322580645164,102.56701499318493L183.38709677419357,102.64187312205908L183.8709677419355,102.71646859083192L184.3548387096774,102.79080277950399L184.8387096774194,102.86487705842545L185.32258064516128,102.93869278838034L185.80645161290323,103.01225132066989L186.29032258064515,103.08555399719495L186.7741935483871,103.15860215053763L187.25806451612902,103.23139710404205L187.74193548387098,103.3039401718942L188.2258064516129,103.37623265920107L188.70967741935485,103.44827586206898L189.19354838709677,103.52007106768087L189.67741935483872,103.59161955437312L190.16129032258067,103.6629225917114L190.6451612903226,103.73398144056563L191.1290322580645,103.80479735318445L191.61290322580643,103.87537157326875L192.0967741935484,103.9457053360444L192.58064516129033,104.01579986833443L193.06451612903226,104.08565638863027L193.54838709677418,104.1552761071624L194.03225806451613,104.2246602259702L194.51612903225805,104.29380993897124L195,104.36272643202959L195.48387096774192,104.43141088302379L195.96774193548387,104.4998644619138L196.4516129032258,104.56808833080754L196.93548387096774,104.63608364402658L197.4193548387097,104.70385154817133L197.90322580645162,104.77139318218536L198.38709677419354,104.83870967741936L198.87096774193546,104.90580215769415L199.35483870967744,104.97267173936342L199.83870967741936,105.03931953137538L200.32258064516128,105.10574663533433L200.80645161290317,105.17195414556119L201.29032258064518,105.23794314915364L201.7741935483871,105.3037147260456L202.258064516129,105.36926994906622L202.74193548387092,105.43460988399809L203.22580645161287,105.49973558963512L203.70967741935482,105.56464811783961L204.19354838709674,105.62934851359898L204.67741935483866,105.69383781508182L205.1612903225806,105.75811705369338L205.64516129032256,105.82218725413061L206.12903225806448,105.88604943443653L206.61290322580643,105.94970460605427L207.09677419354836,106.01315377388036L207.5806451612903,106.07639793631769L208.06451612903223,106.13943808532778L208.54838709677418,106.2022752064828L209.0322580645161,106.2649102790167L209.51612903225805,106.32734427587636L210,106.38957816377172L210.48387096774192,106.4516129032258L210.96774193548384,106.51344944862413L211.4516129032258,106.57508874826362L211.93548387096774,106.63653174440108L212.41935483870967,106.6977793733012L212.9032258064516,106.75883256528417L213.38709677419357,106.81969224477277L213.8709677419355,106.88035933033892L214.3548387096774,106.94083473475004L214.83870967741933,107.00111936501476L215.3225806451613,107.06121412242825L215.80645161290323,107.12111990261717L216.29032258064515,107.18083759558414L216.77419354838707,107.24036808575184L217.25806451612897,107.29971225200666L217.74193548387098,107.35887096774195L218.2258064516129,107.41784510090082L218.7096774193548,107.4766355140187L219.1935483870967,107.5352430642653L219.67741935483872,107.59366860348628L220.1612903225806,107.65191297824455L220.64516129032253,107.70997702986118L221.12903225806448,107.76786159445581L221.61290322580643,107.82556750298686L222.09677419354836,107.88309558129131L222.58064516129028,107.94044665012407L223.06451612903223,107.99762152519696L223.54838709677418,108.0546210172175L224.0322580645161,108.1114459319271L224.51612903225805,108.1680970701391L224.99999999999997,108.22457522777641L225.48387096774192,108.28088119590873L225.96774193548384,108.33701576078951L226.4516129032258,108.39297970389254L226.93548387096772,108.4487738019482L227.41935483870967,108.50439882697947L227.90322580645162,108.55985554633742L228.38709677419354,108.61514472273657L228.87096774193546,108.67026711428989L229.35483870967738,108.72522347454333L229.83870967741936,108.78001455251032L230.32258064516128,108.83464109270561L230.8064516129032,108.88910383517918L231.29032258064512,108.94340351554955L231.7741935483871,108.99754086503688L232.25806451612902,109.05151661049591L232.74193548387095,109.10533147444835L233.22580645161287,109.15898617511522L233.70967741935485,109.21248142644873L234.19354838709677,109.26581793816408L234.6774193548387,109.31899641577061L235.16129032258058,109.37201756060317L235.6451612903226,109.42488206985277L236.1290322580645,109.4775906365972L236.6129032258064,109.53014394983134L237.09677419354836,109.58254269449715L237.58064516129033,109.63478755151344L238.06451612903223,109.68687919780533L238.54838709677415,109.73881830633354L239.0322580645161,109.79060554612337L239.51612903225805,109.84224158229338L239.99999999999997,109.8937270760839L240.48387096774192,109.9450626848852L240.96774193548384,109.99624906226558L241.45161290322577,110.04728685799897L241.93548387096772,110.09817671809256L242.41935483870967,110.14891928481397L242.9032258064516,110.19951519671827L243.3870967741935,110.24996508867477L243.8709677419355,110.30026959189365L244.3548387096774,110.35042933395219L244.83870967741933,110.40044493882093L245.32258064516125,110.45031702688944L245.80645161290323,110.50004621499215L246.29032258064515,110.54963311643363L246.77419354838707,110.59907834101384L247.258064516129,110.64838249505316L247.74193548387098,110.69754618141715L248.2258064516129,110.74656999954115L248.70967741935482,110.79545454545455L249.19354838709674,110.84420041180508L249.67741935483872,110.89280818788266L250.16129032258064,110.9412784596432L250.64516129032256,110.9896118097321L251.1290322580645,111.03780881750762L251.61290322580646,111.08587005906406L252.09677419354838,111.13379610725467L252.5806451612903,111.1815875317144L253.0645161290322,111.22924489888251L253.54838709677415,111.27676877202494L254.03225806451613,111.3241597112565L254.51612903225802,111.37141827356281L254.99999999999997,111.41854501282225L255.4838709677419,111.46554047982748L255.96774193548384,111.51240522230697L256.4516129032258,111.55913978494624L256.9354838709677,111.60574470940898L257.41935483870964,111.65222053435797L257.9032258064516,111.69856779547584L258.38709677419354,111.74478702548565L258.87096774193543,111.7908787541713L259.3548387096774,111.83684350839776L259.83870967741933,111.88268181213117L260.3225806451613,111.92839418645872L260.8064516129032,111.97398114960839L261.2903225806451,112.01944321696863L261.7741935483871,112.06478090110764L262.258064516129,112.1099947117927L262.741935483871,112.15508515600933L263.22580645161287,112.20005273798013L263.7096774193548,112.24489795918367L264.19354838709677,112.28962131837307L264.6774193548387,112.33422331159451L265.1612903225806,112.37870443220561L265.64516129032256,112.42306517089354L266.1290322580645,112.46730601569311L266.61290322580646,112.51142745200471L267.09677419354836,112.55542996261195L267.5806451612903,112.59931402769939L268.06451612903226,112.64308012486993L268.5483870967742,112.68672872916216L269.0322580645161,112.73026031306755L269.516129032258,112.77367534654749L270,112.8169742970502L270.48387096774195,112.86015762952755L270.96774193548384,112.90322580645162L271.45161290322574,112.94617928783128L271.93548387096774,112.98901853122855L272.41935483870964,113.03174399177485L272.9032258064516,113.07435612218706L273.3870967741935,113.11685537278359L273.8709677419355,113.15924219150025L274.3548387096774,113.20151702390592L274.83870967741933,113.24368031321815L275.3225806451612,113.28573250031876L275.80645161290323,113.3276740237691L276.2903225806451,113.36950531982535L276.7741935483871,113.41122682245364L277.258064516129,113.45283896334503L277.7419354838709,113.49434217193041L278.22580645161287,113.53573687539532L278.7096774193548,113.57702349869452L279.19354838709677,113.6182024645666L279.67741935483866,113.65927419354838L280.1612903225806,113.70023910398928L280.64516129032256,113.74109761206535L281.1290322580645,113.78185013179365L281.6129032258064,113.82249707504596L282.09677419354836,113.86303885156283L282.5806451612903,113.90347586896723L283.06451612903226,113.94380853277836L283.54838709677415,113.984037246425L284.03225806451616,114.0241624112592L284.51612903225805,114.06418442656937L285,114.10410368959377L285.4838709677419,114.1439205955335L285.9677419354839,114.18363553756558L286.4516129032258,114.22324890685587L286.93548387096774,114.26276109257199L287.41935483870964,114.30217248189598L287.90322580645164,114.34148346003698L288.38709677419354,114.38069441024379L288.87096774193543,114.41980571381728L289.3548387096774,114.45881775012282L289.83870967741933,114.49773089660248L290.3225806451613,114.53654552878726L290.8064516129032,114.57526202030913L291.2903225806451,114.61388074291301L291.7741935483871,114.6524020664687L292.258064516129,114.69082635898269L292.7419354838709,114.72915398660987L293.22580645161287,114.7673853136651L293.7096774193548,114.80552070263488L294.19354838709677,114.84356051418871L294.67741935483866,114.88150510719043L295.1612903225806,114.91935483870968L295.64516129032256,114.95711006403286L296.1290322580645,114.99477113667444L296.61290322580646,115.03233840838791L297.09677419354836,115.0698122291767L297.5806451612903,115.10719294730515L298.06451612903226,115.14448090930921L298.5483870967742,115.1816764600072L299.0322580645161,115.21877994251038L299.51612903225805,115.2557916982336L300,115.29271206690562L300.4838709677419,115.32954138657969L300.96774193548384,115.36627999364373L301.45161290322574,115.40292822283061L301.9354838709677,115.43948640722834L302.4193548387097,115.47595487829012L302.9032258064516,115.5123339658444L303.38709677419354,115.5486239981048L303.87096774193543,115.58482530167994L304.3548387096774,115.62093820158336L304.83870967741933,115.65696302124312L305.3225806451612,115.6929000825115L305.80645161290323,115.7287497056746L306.2903225806452,115.76451220946186L306.7741935483871,115.80018791105545L307.258064516129,115.83577712609971L307.7419354838709,115.87128016871046L308.22580645161287,115.90669735148418L308.7096774193548,115.94202898550725L309.1935483870967,115.977275380365L309.6774193548387,116.0124368441508L310.16129032258067,116.04751368347502L310.64516129032256,116.08250620347394L311.1290322580645,116.11741470781863L311.6129032258064,116.1522394987236L312.09677419354836,116.18698087695577L312.58064516129036,116.22163914184287L313.06451612903226,116.25621459128223L313.5483870967742,116.29070752174917L314.03225806451616,116.3251182283056L314.51612903225805,116.3594470046083L315,116.39369414291741L315.4838709677419,116.42785993410467L315.9677419354838,116.46194466766158L316.45161290322585,116.4959486317077L316.93548387096774,116.52987211299866L317.41935483870964,116.56371539693434L317.9032258064516,116.59747876756674L318.38709677419354,116.63116250760804L318.87096774193543,116.66476689843839L319.3548387096774,116.69829222011384L319.8387096774193,116.7317387513741L320.3225806451613,116.76510676965016L320.80645161290323,116.79839655107213L321.2903225806451,116.83160837047669L321.7741935483871,116.86474250141484L322.258064516129,116.89779921615917L322.7419354838709,116.9307787857116L323.22580645161287,116.9636814798105L323.7096774193548,116.9965075669383L324.19354838709677,117.02925731432859L324.6774193548387,117.06193098797348L325.1612903225806,117.0945288526308L325.64516129032256,117.1270511718312L326.1290322580645,117.1594982078853L326.6129032258064,117.19187022189074L327.0967741935484,117.2241674737391L327.5806451612903,117.256390222123L328.06451612903226,117.28853872454289L328.5483870967742,117.32061323731395L329.0322580645161,117.35261401557285L329.51612903225805,117.3845413132847L329.99999999999994,117.41639538324948L330.48387096774195,117.44817647710897L330.9677419354839,117.47988484535321L331.4516129032258,117.5115207373272L331.9354838709677,117.5430844012373L332.4193548387097,117.57457608415787L332.9032258064516,117.60599603203764L333.3870967741935,117.63734448970604L333.87096774193543,117.66862170087977L334.35483870967744,117.69982790816887L334.83870967741933,117.73096335308317L335.3225806451613,117.76202827603842L335.8064516129032,117.79302291636257L336.2903225806451,117.82394751230181L336.7741935483871,117.85480230102672L337.25806451612897,117.8855875186384L337.741935483871,117.91630340017437L338.2258064516129,117.94695017961465L338.7096774193548,117.97752808988764L339.19354838709677,118.00803736287608L339.67741935483866,118.03847822942282L340.1612903225806,118.06885091933678L340.64516129032256,118.09915566139858L341.12903225806446,118.12939268336638L341.61290322580646,118.15956221198158L342.09677419354836,118.18966447297443L342.5806451612903,118.21969969106976L343.06451612903226,118.24966808999247L343.54838709677415,118.27956989247312L344.0322580645161,118.30940532025349L344.51612903225805,118.33917459409199L345,118.36887793376917L345.48387096774195,118.39851555809307L345.96774193548384,118.42808768490465L346.4516129032258,118.45759453108312L346.93548387096774,118.48703631255114L347.41935483870964,118.51641324428024L347.9032258064516,118.54572554029596L348.3870967741936,118.5749734136831L348.8709677419355,118.60415707659077L349.35483870967744,118.63327674023769L349.83870967741933,118.66233261491715L350.3225806451613,118.69132491000212L350.80645161290323,118.7202538339503L351.2903225806451,118.74911959430906L351.774193548387,118.77792239772049L352.258064516129,118.80666244992621L352.741935483871,118.83533995577241L353.22580645161287,118.86395511921458L353.7096774193548,118.89250814332249L354.1935483870967,118.92099923028479L354.67741935483866,118.94942858141404L355.1612903225806,118.97779639715124L355.6451612903225,119.00610287707062L356.1290322580645,119.03434821988435L356.61290322580646,119.06253262344713L357.09677419354836,119.09065628476085L357.5806451612903,119.11871939997917L358.0645161290322,119.14672216441207L358.54838709677415,119.1746647725304L359.03225806451616,119.20254741797038L359.51612903225805,119.23037029353802L360,119.25813359121365L360.48387096774195,119.2858375021563L360.96774193548384,119.31348221670802L361.4516129032258,119.34106792439839L361.9354838709677,119.36859481394869L362.41935483870964,119.39606307327631L362.90322580645164,119.42347288949898L363.38709677419354,119.45082444893902L363.8709677419355,119.47811793712759L364.3548387096774,119.50535353880888L364.83870967741933,119.53253143794424L365.3225806451613,119.55965181771633L365.8064516129032,119.58671486053332L366.29032258064507,119.61372074803283L366.77419354838713,119.64066966108615L367.258064516129,119.66756177980217L367.7419354838709,119.69439728353142L368.22580645161287,119.72117635087005L368.7096774193548,119.74789915966386L369.1935483870967,119.77456588701216L369.67741935483866,119.80117670927166L370.16129032258056,119.82773180206047L370.64516129032256,119.85423134026185L371.1290322580645,119.88067549802811L371.6129032258064,119.90706444878444L372.09677419354836,119.9333983652326L372.5806451612903,119.95967741935485L373.0645161290322,119.9859017824175L373.5483870967742,120.01207162497485L374.0322580645161,120.03818711687268L374.51612903225805,120.06424842725204L375,120.0902557245529L375.4838709677419,120.11620917651773L375.96774193548384,120.14210895019515L376.45161290322574,120.16795521194348L376.9354838709677,120.19374812743433L377.4193548387097,120.21948786165613L377.9032258064516,120.24517457891766L378.38709677419354,120.27080844285146L378.8709677419355,120.29638961641747L379.3548387096774,120.32191826190635L379.83870967741933,120.34739454094293L380.3225806451612,120.37281861448969L380.80645161290323,120.39819064285007L381.2903225806452,120.42351078567188L381.7741935483871,120.44877920195064L382.258064516129,120.47399605003292L382.741935483871,120.49916148761962L383.22580645161287,120.52427567176927L383.7096774193548,120.54933875890133L384.1935483870967,120.57435090479937L384.6774193548387,120.59931226461438L385.16129032258067,120.62422299286789L385.64516129032256,120.64908324345524L386.12903225806446,120.6738931696487L386.61290322580646,120.69865292410059L387.09677419354836,120.72336265884653L387.58064516129025,120.74802252530843L388.06451612903226,120.77263267429761L388.54838709677426,120.79719325601793L389.03225806451616,120.8217044200688L389.5161290322581,120.84616631544822L390,120.87057909055578L390.4838709677419,120.89494289319572L390.96774193548384,120.91925787057988L391.45161290322574,120.94352416933063L391.93548387096774,120.96774193548387L392.41935483870964,120.99191131449196L392.9032258064516,121.01603245122658L393.3870967741935,121.04010548998167L393.8709677419355,121.06413057447628L394.3548387096774,121.08810784785749L394.8387096774194,121.11203745270313L395.3225806451613,121.13591953102477L395.80645161290323,121.15975422427036L396.2903225806451,121.18354167332716L396.7741935483871,121.20728201852444L397.25806451612897,121.23097539963626L397.741935483871,121.25462195588423L398.22580645161287,121.2782218259402L398.7096774193549,121.30177514792899L399.19354838709677,121.32528205943112L399.6774193548387,121.34874269748539L400.1612903225806,121.37215719859168L400.64516129032256,121.39552569871348L401.12903225806446,121.41884833328058L401.61290322580635,121.44212523719165L402.0967741935484,121.46535654481691L402.58064516129036,121.48854239000063L403.06451612903226,121.51168290606375L403.5483870967742,121.53477822580645L404.0322580645161,121.55782848151063L404.516129032258,121.58083380494246L404.99999999999994,121.60379432735496L405.48387096774184,121.6267101794904L405.9677419354839,121.64958149158281L406.45161290322585,121.67240839336048L406.93548387096774,121.69519101404838L407.41935483870964,121.7179294823706L407.9032258064516,121.74062392655279L408.3870967741935,121.76327447432458L408.87096774193543,121.78588125292193L409.3548387096773,121.80844438908954L409.8387096774194,121.83096400908327L410.3225806451613,121.85344023867239L410.80645161290323,121.87587320314198L411.2903225806451,121.89826302729529L411.7741935483871,121.92060983545599L412.25806451612897,121.9429137514705L412.741935483871,121.9651748987103L413.22580645161287,121.98739340007415L413.7096774193548,122.00956937799043L414.19354838709677,122.0317029544193L414.6774193548387,122.05379425085498L415.1612903225806,122.075843388328L415.64516129032256,122.09785048740736L416.12903225806446,122.11981566820276L416.61290322580646,122.14173905036678L417.09677419354836,122.16362075309702L417.58064516129025,122.1854608951383L418.06451612903226,122.20725959478484L418.5483870967742,122.22901696988228L419.0322580645161,122.25073313782991L419.51612903225805,122.27240821558276L420,122.29404231965364L420.4838709677419,122.31563556611533L420.96774193548384,122.33718807060256L421.45161290322574,122.35869994831413L421.93548387096774,122.38017131401494L422.4193548387097,122.40160228203806L422.9032258064516,122.42299296628669L423.3870967741935,122.44434348023626L423.8709677419355,122.46565393693639L424.3548387096774,122.4869244490129L424.83870967741933,122.50815512866981L425.3225806451612,122.52934608769124L425.80645161290323,122.55049743744348L426.2903225806451,122.57160928887684L426.77419354838713,122.59268175252768L427.258064516129,122.61371493852027L427.741935483871,122.63470895656874L428.22580645161287,122.65566391597899L428.7096774193548,122.67657992565056L429.1935483870967,122.69745709407853L429.67741935483866,122.71829552935543L430.1612903225806,122.73909533917308L430.6451612903226,122.75985663082437L431.1290322580645,122.78057951120527L431.61290322580646,122.80126408681653L432.09677419354836,122.82191046376553L432.5806451612903,122.84251874776811L433.0645161290322,122.86308904415044L433.54838709677415,122.88362145785065L434.03225806451616,122.90411609342078L434.5161290322581,122.92457305502846L435,122.94499244645873L435.48387096774195,122.96537437111571L435.96774193548384,122.98571893202448L436.4516129032258,123.00602623183269L436.9354838709677,123.02629637281233L437.4193548387096,123.04652945686148L437.90322580645164,123.06672558550596L438.3870967741936,123.08688485990112L438.8709677419355,123.10700738083335L439.35483870967744,123.12709324872202L439.83870967741933,123.14714256362089L440.3225806451612,123.16715542521993L440.8064516129032,123.18713193284697L441.29032258064507,123.20707218546923L441.7741935483871,123.22697628169507L442.2580645161291,123.24684431977559L442.741935483871,123.26667639760619L443.22580645161287,123.28647261272823L443.7096774193548,123.30623306233062L444.1935483870967,123.32595784325143L444.67741935483866,123.3456470519794L445.16129032258056,123.36530078465563L445.64516129032256,123.384919137075L446.1290322580645,123.40450220468787L446.61290322580646,123.42405008260152L447.09677419354836,123.44356286558175L447.5806451612903,123.46304064805439L448.0645161290322,123.48248352410684L448.5483870967742,123.50189158748952L449.0322580645161,123.52126493161752L449.51612903225805,123.54060364957192L450,123.55990783410138L450.48387096774195,123.57917757762367L450.96774193548384,123.59841297222701L451.4516129032258,123.61761410967168L451.9354838709677,123.63678108139135L452.4193548387097,123.65591397849462L452.9032258064516,123.67501289176646L453.3870967741935,123.69407791166958L453.87096774193543,123.71310912834592L454.35483870967744,123.73210663161805L454.83870967741933,123.75107051099059L455.32258064516134,123.77000085565157L455.80645161290323,123.78889775447395L456.2903225806451,123.80776129601685L456.7741935483871,123.82659156852705L457.25806451612897,123.84538865994031L457.7419354838709,123.86415265788278L458.2258064516129,123.88288364967231L458.7096774193548,123.90158172231986L459.1935483870967,123.9202469625308L459.6774193548387,123.93887945670627L460.1612903225806,123.95747929094456L460.64516129032256,123.97604655104232L461.12903225806446,123.99458132249597L461.6129032258064,124.01308369050304L462.09677419354836,124.03155373996339L462.58064516129036,124.04999155548049L463.06451612903226,124.06839722136289L463.5483870967742,124.08677082162527L464.0322580645161,124.1051124399899L464.51612903225805,124.1234221598878L464.99999999999994,124.14170006446008L465.4838709677419,124.15994623655914L465.9677419354838,124.17816075874997L466.45161290322585,124.19634371331135L466.93548387096774,124.21449518223713L467.4193548387097,124.23261524723742L467.9032258064516,124.25070398973988L468.38709677419354,124.26876149089085L468.87096774193543,124.28678783155668L469.3548387096774,124.30478309232481L469.8387096774193,124.32274735350504L470.32258064516134,124.34068069513076L470.80645161290323,124.35858319696004L471.2903225806452,124.37645493847688L471.7741935483871,124.39429599889243L472.258064516129,124.41210645714602L472.7419354838709,124.42988639190646L473.2258064516128,124.44763588157313L473.7096774193548,124.46535500427716L474.1935483870968,124.48304383788255L474.6774193548387,124.50070245998732L475.16129032258067,124.5183309479247L475.64516129032256,124.53592937876414L476.12903225806446,124.55349782931253L476.6129032258064,124.5710363761153L477.0967741935483,124.58854509545753L477.5806451612903,124.60602406336503L478.0645161290322,124.62347335560546L478.5483870967742,124.6408930476894L479.0322580645161,124.65828321487152L479.51612903225805,124.67564393215153L479.99999999999994,124.69297527427543L480.48387096774195,124.71027731573638L480.96774193548384,124.72755013077594L481.4516129032258,124.74479379338506L481.9354838709677,124.76200837730512L482.4193548387097,124.77919395602902L482.9032258064516,124.79635060280222L483.38709677419354,124.81347839062373L483.87096774193543,124.83057739224722L484.35483870967744,124.847647680182L484.83870967741933,124.86468932669409L485.3225806451613,124.88170240380715L485.8064516129032,124.8986869833036L486.2903225806452,124.9156431367256L486.7741935483871,124.93257093537599L487.258064516129,124.94947045031935L487.741935483871,124.966341752383L488.2258064516129,124.98318491215798L488.7096774193548,125"
          stroke="lightblue" stroke-width="3" fill="none"/>
</svg>