<?xml version="1.0" standalone="no"?>
<svg xmlns="http://www.w3.org/2000/svg" id="svg_17" width="150" height="150" style="background-color: rgb(58, 58, 58);">
    <g transform="translate( 4.838709677419355, 0)" class="axis" fill="none" font-size="10" font-family="sans-serif"
       text-anchor="end">
        <path class="domain" stroke="#000" d="M0,150.5H0.5V0.5H0" style="stroke: orange; stroke-width: 0.5;"/>
    </g>
    <g transform="translate( 0,145.16129032258064)" class="axis" fill="none" font-size="10" font-family="sans-serif"
       text-anchor="middle">
        <path class="domain" stroke="#000" d="M0.5,0V0.5H150.5V0" style="stroke: orange; stroke-width: 0.5;"/>
    </g>
    <path d="M4.838709677419355,121.07077337038841L14.516129032258064,72.88973946600396L24.193548387096772,36.75396403771559L33.87096774193548,36.75396403771559L43.5483870967742,63.85579560893184L53.225806451612904,96.37799349439139L62.903225806451616,120.76964190848601L72.58064516129032,134.7077267165401L82.25806451612902,141.24120397031544L91.93548387096774,143.85459487182558L101.61290322580645,144.76928168735412L111.29032258064517,145.05437887660977L120.96774193548386,145.13456246108794L130.6451612903226,145.15512235454386L140.32258064516128,145.15996861514418L150,145.16102598109336L159.6774193548387,145.16124075855177L169.35483870967744,145.16128157598732L179.03225806451613,145.16128886481508L188.70967741935485,145.16129009240714L198.38709677419354,145.16129028805463L208.06451612903228,145.16129031764837L217.74193548387098,145.16129032190807L227.41935483870967,145.1612903224929L237.09677419354838,145.16129032256967L246.7741935483871,145.16129032257933L256.4516129032258,145.1612903225805L266.1290322580645,145.16129032258064L275.80645161290323,145.16129032258064L285.48387096774195,145.16129032258064L295.16129032258067,145.16129032258064"
          stroke="lightblue" stroke-width="3" fill="none"/>
    <path d="M4.838709677419355,121.07077337038841L14.516129032258064,72.88973946600396L24.193548387096772,36.75396403771559L33.87096774193548,36.75396403771559L43.5483870967742,63.85579560893184L53.225806451612904,96.37799349439139L62.903225806451616,120.76964190848601L72.58064516129032,134.7077267165401L82.25806451612902,141.24120397031544L91.93548387096774,143.85459487182558L101.61290322580645,144.76928168735412L111.29032258064517,145.05437887660977L120.96774193548386,145.13456246108794L130.6451612903226,145.15512235454386L140.32258064516128,145.15996861514418L150,145.16102598109336L159.6774193548387,145.16124075855177L169.35483870967744,145.16128157598732L179.03225806451613,145.16128886481508L188.70967741935485,145.16129009240714L198.38709677419354,145.16129028805463L208.06451612903228,145.16129031764837L217.74193548387098,145.16129032190807L227.41935483870967,145.1612903224929L237.09677419354838,145.16129032256967L246.7741935483871,145.16129032257933L256.4516129032258,145.1612903225805L266.1290322580645,145.16129032258064L275.80645161290323,145.16129032258064L285.48387096774195,145.16129032258064L295.16129032258067,145.16129032258064L295.16129032258067,145.16129032258064L285.48387096774195,145.16129032258064L275.80645161290323,145.16129032258064L266.1290322580645,145.16129032258064L256.4516129032258,145.16129032258064L246.7741935483871,145.16129032258064L237.09677419354838,145.16129032258064L227.41935483870967,145.16129032258064L217.74193548387098,145.16129032258064L208.06451612903228,145.16129032258064L198.38709677419354,145.16129032258064L188.70967741935485,145.16129032258064L179.03225806451613,145.16129032258064L169.35483870967744,145.16129032258064L159.6774193548387,145.16129032258064L150,145.16129032258064L140.32258064516128,145.16129032258064L130.6451612903226,145.16129032258064L120.96774193548386,145.16129032258064L111.29032258064517,145.16129032258064L101.61290322580645,145.16129032258064L91.93548387096774,145.16129032258064L82.25806451612902,145.16129032258064L72.58064516129032,145.16129032258064L62.903225806451616,145.16129032258064L53.225806451612904,145.16129032258064L43.5483870967742,145.16129032258064L33.87096774193548,145.16129032258064L24.193548387096772,145.16129032258064L14.516129032258064,145.16129032258064L4.838709677419355,145.16129032258064Z"
          stroke-width="0" fill-opacity="0.5" fill="lightblue"/>
</svg>