<?xml version="1.0" standalone="no"?>
<svg xmlns="http://www.w3.org/2000/svg" id="svg_13" width="150" height="150" style="background-color: rgb(58, 58, 58);">
    <g transform="translate( 4.838709677419355, 0)" class="axis" fill="none" font-size="10" font-family="sans-serif"
       text-anchor="end">
        <path class="domain" stroke="#000" d="M0,150.5H0.5V0.5H0" style="stroke: orange; stroke-width: 0.5;"/>
    </g>
    <g transform="translate( 0,145.16129032258064)" class="axis" fill="none" font-size="10" font-family="sans-serif"
       text-anchor="middle">
        <path class="domain" stroke="#000" d="M0.5,0V0.5H150.5V0" style="stroke: orange; stroke-width: 0.5;"/>
    </g>
    <path d="M4.838709677419355,36.29032258064517L5.32258064516129,37.01491935483868L5.806451612903226,37.737096774193546L6.290322580645162,38.45685483870966L6.774193548387098,39.174193548387095L7.258064516129033,39.889112903225794L7.741935483870968,40.60161290322581L8.225806451612904,41.3116935483871L8.709677419354838,42.01935483870969L9.193548387096774,42.72459677419353L9.67741935483871,43.42741935483872L10.161290322580646,44.12782258064516L10.64516129032258,44.82580645161292L11.129032258064516,45.52137096774193L11.612903225806452,46.21451612903226L12.096774193548386,46.90524193548386L12.580645161290324,47.593548387096774L13.064516129032258,48.279435483870955L13.548387096774196,48.96290322580647L14.03225806451613,49.64395161290322L14.516129032258066,50.322580645161324L14.999999999999998,50.998790322580646L15.483870967741936,51.672580645161304L15.967741935483872,52.343951612903226L16.451612903225804,53.01290322580648L16.93548387096774,53.679435483870975L17.419354838709676,54.34354838709676L17.903225806451612,55.005241935483866L18.387096774193548,55.664516129032265L18.87096774193548,56.32137096774194L19.35483870967742,56.9758064516129L19.838709677419356,57.62782258064516L20.322580645161292,58.2774193548387L20.806451612903228,58.924596774193546L21.29032258064516,59.56935483870967L21.7741935483871,60.21169354838709L22.258064516129032,60.8516129032258L22.741935483870968,61.489112903225816L23.2258064516129,62.12419354838708L23.709677419354836,62.756854838709685L24.193548387096772,63.38709677419354L24.67741935483871,64.01491935483871L25.161290322580648,64.64032258064515L25.64516129032258,65.26330645161292L26.129032258064516,65.88387096774194L26.612903225806452,66.50201612903226L27.09677419354839,67.11774193548386L27.580645161290327,67.73104838709679L28.064516129032256,68.34193548387096L28.548387096774192,68.95040322580647L29.032258064516128,69.55645161290323L29.516129032258064,70.16008064516129L29.999999999999996,70.76129032258063L30.483870967741936,71.3600806451613L30.967741935483872,71.95645161290324L31.451612903225808,72.55040322580643L31.935483870967744,73.14193548387097L32.41935483870968,73.73104838709679L32.90322580645161,74.31774193548387L33.387096774193544,74.90201612903225L33.87096774193548,75.48387096774194L34.354838709677416,76.0633064516129L34.83870967741935,76.64032258064516L35.32258064516129,77.21491935483871L35.806451612903224,77.78709677419356L36.29032258064516,78.35685483870967L36.774193548387096,78.92419354838711L37.25806451612903,79.4891129032258L37.74193548387096,80.0516129032258L38.225806451612904,80.6116935483871L38.70967741935484,81.1693548387097L39.193548387096776,81.72459677419354L39.677419354838705,82.27741935483868L40.16129032258064,82.82782258064516L40.64516129032258,83.37580645161292L41.12903225806451,83.92137096774194L41.61290322580645,84.46451612903225L42.096774193548384,85.00524193548387L42.58064516129032,85.54354838709678L43.064516129032256,86.07943548387095L43.5483870967742,86.61290322580643L44.032258064516135,87.14395161290322L44.516129032258064,87.6725806451613L45,88.19879032258063L45.483870967741936,88.72258064516129L45.967741935483865,89.24395161290323L46.4516129032258,89.76290322580645L46.93548387096774,90.27943548387097L47.41935483870967,90.79354838709676L47.90322580645161,91.30524193548388L48.387096774193544,91.81451612903226L48.87096774193548,92.32137096774194L49.35483870967742,92.82580645161289L49.83870967741936,93.32782258064518L50.322580645161295,93.82741935483871L50.80645161290323,94.32459677419355L51.29032258064516,94.81935483870967L51.774193548387096,95.3116935483871L52.25806451612903,95.8016129032258L52.74193548387097,96.28911290322581L53.225806451612904,96.7741935483871L53.70967741935484,97.25685483870967L54.19354838709678,97.73709677419355L54.67741935483872,98.21491935483871L55.161290322580655,98.69032258064516L55.64516129032259,99.16330645161291L56.12903225806452,99.63387096774194L56.612903225806456,100.10201612903225L57.09677419354839,100.56774193548387L57.58064516129033,101.03104838709677L58.06451612903226,101.49193548387098L58.5483870967742,101.95040322580645L59.032258064516135,102.40645161290323L59.51612903225808,102.8600806451613L60.000000000000014,103.31129032258065L60.48387096774195,103.7600806451613L60.96774193548387,104.20645161290324L61.45161290322581,104.65040322580646L61.935483870967744,105.09193548387097L62.41935483870968,105.53104838709677L62.903225806451616,105.96774193548387L63.38709677419355,106.40201612903226L63.87096774193549,106.83387096774194L64.35483870967742,107.26330645161289L64.83870967741936,107.69032258064516L65.3225806451613,108.11491935483872L65.80645161290323,108.53709677419354L66.29032258064517,108.95685483870967L66.7741935483871,109.3741935483871L67.25806451612904,109.78911290322581L67.74193548387098,110.20161290322582L68.22580645161291,110.61169354838711L68.70967741935485,111.01935483870969L69.19354838709678,111.42459677419355L69.67741935483872,111.82741935483872L70.16129032258065,112.22782258064517L70.64516129032259,112.6258064516129L71.12903225806453,113.02137096774194L71.61290322580646,113.41451612903226L72.0967741935484,113.80524193548388L72.58064516129033,114.19354838709678L73.06451612903226,114.57943548387097L73.54838709677419,114.96290322580646L74.03225806451613,115.34395161290323L74.51612903225806,115.72258064516129L75,116.09879032258064L75.48387096774192,116.47258064516129L75.96774193548387,116.84395161290323L76.45161290322581,117.21290322580646L76.93548387096774,117.57943548387097L77.41935483870968,117.94354838709677L77.90322580645162,118.30524193548388L78.38709677419355,118.66451612903226L78.87096774193549,119.02137096774194L79.35483870967742,119.3758064516129L79.83870967741937,119.72782258064515L80.3225806451613,120.07741935483871L80.80645161290322,120.42459677419356L81.29032258064517,120.76935483870969L81.7741935483871,121.11169354838711L82.25806451612904,121.45161290322581L82.74193548387098,121.78911290322581L83.22580645161291,122.1241935483871L83.70967741935485,122.45685483870967L84.19354838709678,122.78709677419356L84.67741935483872,123.11491935483872L85.16129032258064,123.44032258064516L85.64516129032258,123.7633064516129L86.12903225806451,124.08387096774193L86.61290322580645,124.40201612903225L87.0967741935484,124.71774193548387L87.58064516129032,125.03104838709677L88.06451612903227,125.34193548387097L88.54838709677419,125.65040322580646L89.03225806451613,125.95645161290322L89.51612903225806,126.2600806451613L90,126.56129032258065L90.48387096774194,126.86008064516129L90.96774193548387,127.15645161290323L91.45161290322582,127.45040322580645L91.93548387096774,127.74193548387098L92.4193548387097,128.03104838709677L92.90322580645162,128.31774193548387L93.38709677419355,128.60201612903225L93.87096774193549,128.88387096774193L94.35483870967742,129.1633064516129L94.83870967741936,129.44032258064516L95.3225806451613,129.7149193548387L95.80645161290323,129.98709677419356L96.29032258064517,130.25685483870967L96.77419354838709,130.5241935483871L97.25806451612904,130.7891129032258L97.74193548387096,131.05161290322582L98.2258064516129,131.3116935483871L98.70967741935485,131.56935483870967L99.19354838709677,131.82459677419354L99.67741935483872,132.0774193548387L100.16129032258064,132.32782258064515L100.64516129032259,132.5758064516129L101.1290322580645,132.82137096774193L101.61290322580646,133.06451612903226L102.09677419354841,133.30524193548388L102.58064516129032,133.5435483870968L103.06451612903228,133.77943548387097L103.54838709677419,134.01290322580644L104.03225806451611,134.24395161290323L104.51612903225806,134.4725806451613L105,134.69879032258063L105.48387096774194,134.9225806451613L105.96774193548387,135.1439516129032L106.45161290322581,135.36290322580646L106.93548387096774,135.57943548387095L107.41935483870968,135.7935483870968L107.90322580645162,136.00524193548387L108.38709677419357,136.21451612903226L108.87096774193549,136.42137096774192L109.35483870967744,136.6258064516129L109.83870967741936,136.82782258064515L110.32258064516131,137.0274193548387L110.80645161290322,137.22459677419354L111.29032258064518,137.4193548387097L111.77419354838709,137.6116935483871L112.25806451612904,137.80161290322582L112.74193548387096,137.98911290322582L113.22580645161291,138.1741935483871L113.70967741935483,138.35685483870967L114.19354838709678,138.53709677419354L114.6774193548387,138.7149193548387L115.16129032258065,138.89032258064518L115.64516129032259,139.0633064516129L116.12903225806453,139.23387096774195L116.61290322580646,139.40201612903226L117.09677419354838,139.56774193548387L117.58064516129033,139.73104838709676L118.06451612903226,139.89193548387095L118.5483870967742,140.05040322580646L119.03225806451611,140.2064516129032L119.51612903225808,140.3600806451613L119.99999999999999,140.51129032258063L120.48387096774194,140.6600806451613L120.96774193548386,140.80645161290323L121.45161290322581,140.95040322580644L121.93548387096774,141.09193548387097L122.41935483870968,141.23104838709676L122.90322580645162,141.36774193548388L123.38709677419355,141.50201612903226L123.87096774193549,141.63387096774193L124.35483870967742,141.7633064516129L124.83870967741936,141.89032258064515L125.3225806451613,142.01491935483872L125.80645161290323,142.13709677419354L126.29032258064518,142.25685483870967L126.7741935483871,142.3741935483871L127.25806451612905,142.48911290322582L127.74193548387098,142.6016129032258L128.22580645161293,142.7116935483871L128.70967741935485,142.81935483870967L129.19354838709677,142.92459677419356L129.67741935483872,143.0274193548387L130.16129032258064,143.12782258064516L130.6451612903226,143.2258064516129L131.1290322580645,143.32137096774193L131.61290322580646,143.41451612903225L132.09677419354838,143.50524193548387L132.58064516129033,143.59354838709677L133.06451612903226,143.67943548387098L133.5483870967742,143.76290322580644L134.03225806451613,143.84395161290323L134.51612903225808,143.9225806451613L135,143.99879032258065L135.48387096774195,144.07258064516128L135.96774193548387,144.14395161290324L136.45161290322582,144.21290322580646L136.93548387096774,144.27943548387097L137.4193548387097,144.34354838709677L137.90322580645162,144.40524193548387L138.38709677419357,144.46451612903226L138.8709677419355,144.52137096774194L139.35483870967744,144.5758064516129L139.83870967741936,144.62782258064516L140.3225806451613,144.67741935483872L140.80645161290323,144.72459677419354L141.29032258064515,144.7693548387097L141.7741935483871,144.8116935483871L142.25806451612902,144.8516129032258L142.74193548387098,144.8891129032258L143.2258064516129,144.9241935483871L143.70967741935485,144.9568548387097L144.19354838709677,144.98709677419356L144.67741935483872,145.0149193548387L145.16129032258064,145.04032258064515L145.6451612903226,145.0633064516129L146.1290322580645,145.08387096774194L146.61290322580646,145.10201612903225L147.09677419354838,145.11774193548388L147.58064516129033,145.13104838709677L148.06451612903226,145.14193548387098L148.5483870967742,145.15040322580646L149.03225806451613,145.15645161290323L149.51612903225808,145.1600806451613L150,145.16129032258064L150.48387096774195,145.1600806451613L150.96774193548384,145.15645161290323L151.45161290322582,145.15040322580646L151.93548387096774,145.14193548387098L152.41935483870967,145.13104838709677L152.90322580645162,145.11774193548388L153.38709677419357,145.10201612903225L153.8709677419355,145.08387096774194L154.3548387096774,145.0633064516129L154.83870967741936,145.04032258064515L155.32258064516128,145.0149193548387L155.80645161290323,144.98709677419356L156.29032258064518,144.9568548387097L156.7741935483871,144.9241935483871L157.25806451612902,144.8891129032258L157.74193548387098,144.8516129032258L158.22580645161293,144.8116935483871L158.70967741935485,144.7693548387097L159.19354838709677,144.72459677419354L159.67741935483875,144.67741935483872L160.16129032258064,144.62782258064516L160.6451612903226,144.5758064516129L161.1290322580645,144.52137096774194L161.61290322580643,144.46451612903226L162.09677419354838,144.40524193548387L162.58064516129033,144.34354838709677L163.06451612903226,144.27943548387097L163.5483870967742,144.21290322580646L164.03225806451613,144.14395161290324L164.51612903225808,144.07258064516128L165,143.99879032258065L165.48387096774195,143.92258064516128L165.96774193548387,143.84395161290323L166.4516129032258,143.76290322580644L166.93548387096777,143.67943548387098L167.41935483870967,143.59354838709677L167.90322580645162,143.50524193548387L168.38709677419354,143.41451612903225L168.8709677419355,143.32137096774193L169.3548387096774,143.2258064516129L169.83870967741936,143.12782258064516L170.32258064516128,143.0274193548387L170.80645161290323,142.92459677419356L171.29032258064515,142.81935483870967L171.7741935483871,142.7116935483871L172.25806451612902,142.6016129032258L172.74193548387098,142.48911290322582L173.2258064516129,142.3741935483871L173.70967741935485,142.25685483870967L174.1935483870968,142.13709677419354L174.67741935483872,142.0149193548387L175.16129032258064,141.89032258064515L175.6451612903226,141.7633064516129L176.12903225806454,141.63387096774193L176.61290322580646,141.50201612903226L177.09677419354838,141.36774193548388L177.58064516129036,141.23104838709676L178.06451612903226,141.09193548387097L178.54838709677418,140.95040322580644L179.03225806451613,140.80645161290323L179.51612903225808,140.6600806451613L180,140.51129032258063L180.48387096774192,140.3600806451613L180.96774193548387,140.2064516129032L181.45161290322582,140.05040322580646L181.93548387096774,139.89193548387095L182.41935483870967,139.73104838709676L182.90322580645164,139.56774193548387L183.38709677419357,139.40201612903226L183.8709677419355,139.23387096774192L184.3548387096774,139.0633064516129L184.8387096774194,138.89032258064515L185.32258064516128,138.7149193548387L185.80645161290323,138.53709677419354L186.29032258064515,138.35685483870967L186.7741935483871,138.17419354838708L187.25806451612902,137.98911290322582L187.74193548387098,137.80161290322582L188.2258064516129,137.6116935483871L188.70967741935485,137.41935483870967L189.19354838709677,137.22459677419354L189.67741935483872,137.0274193548387L190.16129032258067,136.82782258064515L190.6451612903226,136.6258064516129L191.1290322580645,136.42137096774192L191.61290322580643,136.21451612903226L192.0967741935484,136.00524193548387L192.58064516129033,135.7935483870968L193.06451612903226,135.57943548387095L193.54838709677418,135.36290322580646L194.03225806451613,135.1439516129032L194.51612903225805,134.9225806451613L195,134.69879032258063L195.48387096774192,134.4725806451613L195.96774193548387,134.24395161290323L196.4516129032258,134.01290322580644L196.93548387096774,133.77943548387097L197.4193548387097,133.5435483870968L197.90322580645162,133.30524193548388L198.38709677419354,133.06451612903226L198.87096774193546,132.82137096774193L199.35483870967744,132.5758064516129L199.83870967741936,132.32782258064515L200.32258064516128,132.0774193548387L200.80645161290317,131.82459677419357L201.29032258064518,131.56935483870967L201.7741935483871,131.3116935483871L202.258064516129,131.05161290322582L202.74193548387092,130.7891129032258L203.22580645161287,130.5241935483871L203.70967741935482,130.25685483870967L204.19354838709674,129.98709677419356L204.67741935483866,129.7149193548387L205.1612903225806,129.44032258064516L205.64516129032256,129.1633064516129L206.12903225806448,128.88387096774193L206.61290322580643,128.60201612903225L207.09677419354836,128.31774193548387L207.5806451612903,128.03104838709675L208.06451612903223,127.74193548387096L208.54838709677418,127.45040322580645L209.0322580645161,127.15645161290323L209.51612903225805,126.86008064516128L210,126.56129032258063L210.48387096774192,126.2600806451613L210.96774193548384,125.95645161290324L211.4516129032258,125.65040322580644L211.93548387096774,125.34193548387096L212.41935483870967,125.03104838709677L212.9032258064516,124.71774193548387L213.38709677419357,124.40201612903225L213.8709677419355,124.08387096774193L214.3548387096774,123.7633064516129L214.83870967741933,123.44032258064516L215.3225806451613,123.11491935483869L215.80645161290323,122.78709677419354L216.29032258064515,122.45685483870967L216.77419354838707,122.1241935483871L217.25806451612897,121.78911290322581L217.74193548387098,121.4516129032258L218.2258064516129,121.1116935483871L218.7096774193548,120.76935483870969L219.1935483870967,120.42459677419356L219.67741935483872,120.0774193548387L220.1612903225806,119.72782258064515L220.64516129032253,119.3758064516129L221.12903225806448,119.02137096774194L221.61290322580643,118.66451612903225L222.09677419354836,118.30524193548386L222.58064516129028,117.94354838709677L223.06451612903223,117.57943548387098L223.54838709677418,117.21290322580643L224.0322580645161,116.84395161290323L224.51612903225805,116.47258064516129L224.99999999999997,116.09879032258065L225.48387096774192,115.72258064516127L225.96774193548384,115.34395161290323L226.4516129032258,114.96290322580646L226.93548387096772,114.57943548387098L227.41935483870967,114.19354838709675L227.90322580645162,113.80524193548385L228.38709677419354,113.41451612903225L228.87096774193546,113.02137096774194L229.35483870967738,112.62580645161292L229.83870967741936,112.22782258064515L230.32258064516128,111.82741935483871L230.8064516129032,111.42459677419355L231.29032258064512,111.01935483870969L231.7741935483871,110.61169354838708L232.25806451612902,110.2016129032258L232.74193548387095,109.78911290322581L233.22580645161287,109.3741935483871L233.70967741935485,108.95685483870966L234.19354838709677,108.53709677419354L234.6774193548387,108.11491935483872L235.16129032258058,107.69032258064516L235.6451612903226,107.26330645161289L236.1290322580645,106.83387096774192L236.6129032258064,106.40201612903226L237.09677419354836,105.96774193548389L237.58064516129033,105.53104838709675L238.06451612903223,105.09193548387096L238.54838709677415,104.65040322580646L239.0322580645161,104.20645161290324L239.51612903225805,103.76008064516128L239.99999999999997,103.31129032258063L240.48387096774192,102.86008064516129L240.96774193548384,102.40645161290323L241.45161290322577,101.95040322580647L241.93548387096772,101.49193548387095L242.41935483870967,101.03104838709677L242.9032258064516,100.56774193548387L243.3870967741935,100.10201612903226L243.8709677419355,99.63387096774191L244.3548387096774,99.1633064516129L244.83870967741933,98.69032258064516L245.32258064516125,98.21491935483873L245.80645161290323,97.73709677419353L246.29032258064515,97.25685483870967L246.77419354838707,96.7741935483871L247.258064516129,96.28911290322581L247.74193548387098,95.80161290322579L248.2258064516129,95.3116935483871L248.70967741935482,94.81935483870967L249.19354838709674,94.32459677419355L249.67741935483872,93.82741935483867L250.16129032258064,93.32782258064515L250.64516129032256,92.82580645161289L251.1290322580645,92.32137096774194L251.61290322580646,91.81451612903223L252.09677419354838,91.30524193548385L252.5806451612903,90.79354838709676L253.0645161290322,90.27943548387097L253.54838709677415,89.76290322580647L254.03225806451613,89.2439516129032L254.51612903225802,88.72258064516129L254.99999999999997,88.19879032258063L255.4838709677419,87.6725806451613L255.96774193548384,87.14395161290321L256.4516129032258,86.61290322580643L256.9354838709677,86.07943548387095L257.41935483870964,85.54354838709678L257.9032258064516,85.00524193548384L258.38709677419354,84.46451612903225L258.87096774193543,83.92137096774194L259.3548387096774,83.37580645161292L259.83870967741933,82.82782258064513L260.3225806451613,82.27741935483868L260.8064516129032,81.72459677419354L261.2903225806451,81.1693548387097L261.7741935483871,80.61169354838705L262.258064516129,80.05161290322579L262.741935483871,79.4891129032258L263.22580645161287,78.92419354838711L263.7096774193548,78.35685483870965L264.19354838709677,77.78709677419353L264.6774193548387,77.21491935483871L265.1612903225806,76.64032258064516L265.64516129032256,76.06330645161292L266.1290322580645,75.48387096774191L266.61290322580646,74.90201612903225L267.09677419354836,74.31774193548387L267.5806451612903,73.73104838709679L268.06451612903226,73.14193548387095L268.5483870967742,72.55040322580643L269.0322580645161,71.95645161290324L269.516129032258,71.3600806451613L270,70.76129032258062L270.48387096774195,70.16008064516129L270.96774193548384,69.55645161290323L271.45161290322574,68.95040322580647L271.93548387096774,68.34193548387094L272.41935483870964,67.73104838709675L272.9032258064516,67.11774193548386L273.3870967741935,66.50201612903226L273.8709677419355,65.8838709677419L274.3548387096774,65.26330645161288L274.83870967741933,64.64032258064515L275.3225806451612,64.01491935483871L275.80645161290323,63.38709677419352L276.2903225806451,62.75685483870966L276.7741935483871,62.12419354838708L277.258064516129,61.489112903225816L277.7419354838709,60.85161290322583L278.22580645161287,60.211693548387075L278.7096774193548,59.56935483870967L279.19354838709677,58.924596774193546L279.67741935483866,58.27741935483873L280.1612903225806,57.62782258064513L280.64516129032256,56.9758064516129L281.1290322580645,56.32137096774194L281.6129032258064,55.664516129032265L282.09677419354836,55.00524193548384L282.5806451612903,54.34354838709676L283.06451612903226,53.679435483870975L283.54838709677415,53.01290322580648L284.03225806451616,52.3439516129032L284.51612903225805,51.67258064516129L285,50.998790322580646L285.4838709677419,50.322580645161324L285.9677419354839,49.643951612903194L286.4516129032258,48.96290322580644L286.93548387096774,48.279435483870955L287.41935483870964,47.593548387096774L287.90322580645164,46.90524193548384L288.38709677419354,46.21451612903223L288.87096774193543,45.52137096774193L289.3548387096774,44.82580645161292L289.83870967741933,44.12782258064519L290.3225806451613,43.427419354838676L290.8064516129032,42.72459677419353L291.2903225806451,42.01935483870969L291.7741935483871,41.311693548387126L292.258064516129,40.60161290322577L292.7419354838709,39.889112903225794L293.22580645161287,39.174193548387095L293.7096774193548,38.4568548387097L294.19354838709677,37.73709677419352L294.67741935483866,37.01491935483868L295.1612903225806,36.29032258064517L295.64516129032256,35.56330645161292L296.1290322580645,34.83387096774189L296.61290322580646,34.10201612903225L297.09677419354836,33.36774193548386L297.5806451612903,32.63104838709678L298.06451612903226,31.891935483870924L298.5483870967742,31.150403225806443L299.0322580645161,30.406451612903226L299.51612903225805,29.6600806451613L300,28.911290322580612L300.4838709677419,28.16008064516126L300.96774193548384,27.40645161290321L301.45161290322574,26.650403225806457L301.9354838709677,25.891935483870924L302.4193548387097,25.131048387096726L302.9032258064516,24.36774193548385L303.38709677419354,23.60201612903225L303.87096774193543,22.83387096774196L304.3548387096774,22.063306451612874L304.83870967741933,21.290322580645125L305.3225806451612,20.514919354838696L305.80645161290323,19.73709677419359L306.2903225806452,18.95685483870963L306.7741935483871,18.17419354838708L307.258064516129,17.389112903225822L307.7419354838709,16.601612903225828L308.22580645161287,15.81169354838704L308.7096774193548,15.01935483870966L309.1935483870967,14.224596774193543L309.6774193548387,13.427419354838719L310.16129032258067,12.62782258064513L310.64516129032256,11.825806451612891L311.1290322580645,11.021370967741944L311.6129032258064,10.214516129032262L312.09677419354836,9.405241935483815L312.58064516129036,8.593548387096746L313.06451612903226,7.779435483870941L313.5483870967742,6.962903225806485L314.03225806451616,6.14395161290318L314.51612903225805,5.322580645161253L315,4.498790322580618L315.4838709677419,3.672580645161304L315.9677419354838,2.843951612903254L316.45161290322585,2.0129032258064115L316.93548387096774,1.1794354838709467L317.41935483870964,0.3435483870967744L317.9032258064516,-0.4947580645161054L318.38709677419354,-1.3354838709677779L318.87096774193543,-2.178629032258101L319.3548387096774,-3.024193548387103L319.8387096774193,-3.8721774193548413L320.3225806451613,-4.722580645161344L320.80645161290323,-5.575403225806468L321.2903225806451,-6.430645161290357L321.7741935483871,-7.288306451612897L322.258064516129,-8.148387096774258L322.7419354838709,-9.010887096774212L323.22580645161287,-9.875806451612902L323.7096774193548,-10.743145161290329L324.19354838709677,-11.61290322580652L324.6774193548387,-12.485080645161304L325.1612903225806,-13.359677419354824L325.64516129032256,-14.23669354838708L326.1290322580645,-15.11612903225813L326.6129032258064,-15.997983870967772L327.0967741935484,-16.88225806451615L327.5806451612903,-17.76895161290321L328.06451612903226,-18.658064516129002L328.5483870967742,-19.54959677419356L329.0322580645161,-20.443548387096797L329.51612903225805,-21.339919354838685L329.99999999999994,-22.238709677419337L330.48387096774195,-23.139919354838753L330.9677419354839,-24.04354838709679L331.4516129032258,-24.949596774193537L331.9354838709677,-25.85806451612902L332.4193548387097,-26.768951612903237L332.9032258064516,-27.682258064516162L333.3870967741935,-28.597983870967767L333.87096774193543,-29.51612903225808L334.35483870967744,-30.436693548387126L334.83870967741933,-31.359677419354853L335.3225806451613,-32.28508064516129L335.8064516129032,-33.21290322580643L336.2903225806451,-34.14314516129039L336.7741935483871,-35.07580645161292L337.25806451612897,-36.01088709677421L337.741935483871,-36.948387096774184L338.2258064516129,-37.888306451612976L338.7096774193548,-38.830645161290334L339.19354838709677,-39.77540322580646L339.67741935483866,-40.72258064516129L340.1612903225806,-41.672177419354796L340.64516129032256,-42.624193548387154L341.12903225806446,-43.57862903225808L341.61290322580646,-44.53548387096771L342.09677419354836,-45.494758064516105L342.5806451612903,-46.456451612903265L343.06451612903226,-47.42056451612902L343.54838709677415,-48.38709677419354L344.0322580645161,-49.356048387096735L344.51612903225805,-50.327419354838725L345,-51.301209677419365L345.48387096774195,-52.277419354838685L345.96774193548384,-53.25604838709677L346.4516129032258,-54.23709677419356L346.93548387096774,-55.22056451612903L347.41935483870964,-56.20645161290318L347.9032258064516,-57.194758064516094L348.3870967741936,-58.18548387096777L348.8709677419355,-59.17862903225807L349.35483870967744,-60.17419354838708L349.83870967741933,-61.172177419354824L350.3225806451613,-62.172580645161304L350.80645161290323,-63.17540322580649L351.2903225806451,-64.18064516129033L351.774193548387,-65.18830645161287L352.258064516129,-66.19838709677413L352.741935483871,-67.21088709677423L353.22580645161287,-68.2258064516129L353.7096774193548,-69.2431451612903L354.1935483870967,-70.26290322580641L354.67741935483866,-71.28508064516132L355.1612903225806,-72.30967741935484L355.6451612903225,-73.33669354838707L356.1290322580645,-74.36612903225802L356.61290322580646,-75.39798387096778L357.09677419354836,-76.4322580645161L357.5806451612903,-77.4689516129032L358.0645161290322,-78.508064516129L358.54838709677415,-79.54959677419359L359.03225806451616,-80.59354838709677L359.51612903225805,-81.6399193548387L360,-82.68870967741933L360.48387096774195,-83.73991935483872L360.96774193548384,-84.79354838709676L361.4516129032258,-85.84959677419357L361.9354838709677,-86.908064516129L362.41935483870964,-87.96895161290325L362.90322580645164,-89.03225806451616L363.38709677419354,-90.09798387096771L363.8709677419355,-91.16612903225803L364.3548387096774,-92.23669354838702L364.83870967741933,-93.30967741935484L365.3225806451613,-94.38508064516128L365.8064516129032,-95.46290322580643L366.29032258064507,-96.54314516129025L366.77419354838713,-97.62580645161293L367.258064516129,-98.71088709677423L367.7419354838709,-99.79838709677415L368.22580645161287,-100.88830645161289L368.7096774193548,-101.9806451612904L369.1935483870967,-103.07540322580644L369.67741935483866,-104.17258064516125L370.16129032258056,-105.27217741935479L370.64516129032256,-106.3741935483871L371.1290322580645,-107.47862903225803L371.6129032258064,-108.58548387096772L372.09677419354836,-109.69475806451607L372.5806451612903,-110.80645161290323L373.0645161290322,-111.92056451612905L373.5483870967742,-113.03709677419351L374.0322580645161,-114.15604838709675L374.51612903225805,-115.27741935483874L375,-116.40120967741939L375.4838709677419,-117.52741935483874L375.96774193548384,-118.65604838709675L376.45161290322574,-119.78709677419346L376.9354838709677,-120.92056451612905L377.4193548387097,-122.05645161290323L377.9032258064516,-123.19475806451612L378.38709677419354,-124.33548387096766L378.8709677419355,-125.47862903225808L379.3548387096774,-126.6241935483871L379.83870967741933,-127.77217741935482L380.3225806451612,-128.92258064516125L380.80645161290323,-130.0754032258065L381.2903225806452,-131.23064516129034L381.7741935483871,-132.38830645161283L382.258064516129,-133.54838709677415L382.741935483871,-134.71088709677423L383.22580645161287,-135.8758064516129L383.7096774193548,-137.04314516129028L384.1935483870967,-138.21290322580643L384.6774193548387,-139.38508064516134L385.16129032258067,-140.55967741935484L385.64516129032256,-141.7366935483871L386.12903225806446,-142.91612903225803L386.61290322580646,-144.09798387096777L387.09677419354836,-145.28225806451616L387.58064516129025,-146.4689516129032L388.06451612903226,-147.658064516129L388.54838709677426,-148.84959677419363L389.03225806451616,-150.0435483870968L389.5161290322581,-151.23991935483872L390,-152.43870967741935L390.4838709677419,-153.63991935483864L390.96774193548384,-154.8435483870968L391.45161290322574,-156.0495967741935L391.93548387096774,-157.25806451612902L392.41935483870964,-158.4689516129032L392.9032258064516,-159.68225806451602L393.3870967741935,-160.89798387096766L393.8709677419355,-162.11612903225813L394.3548387096774,-163.33669354838713L394.8387096774194,-164.55967741935484L395.3225806451613,-165.78508064516132L395.80645161290323,-167.01290322580644L396.2903225806451,-168.24314516129027L396.7741935483871,-169.47580645161287L397.25806451612897,-170.71088709677412L397.741935483871,-171.94838709677435L398.22580645161287,-173.18830645161296L398.7096774193549,-174.43064516129039L399.19354838709677,-175.67540322580646L399.6774193548387,-176.92258064516125L400.1612903225806,-178.1721774193548L400.64516129032256,-179.42419354838705L401.12903225806446,-180.67862903225802L401.61290322580635,-181.93548387096763L402.0967741935484,-183.19475806451618L402.58064516129036,-184.45645161290332L403.06451612903226,-185.72056451612906L403.5483870967742,-186.98709677419356L404.0322580645161,-188.25604838709677L404.516129032258,-189.52741935483863L404.99999999999994,-190.80120967741925L405.48387096774184,-192.07741935483858L405.9677419354839,-193.35604838709685L406.45161290322585,-194.6370967741936L406.93548387096774,-195.92056451612905L407.41935483870964,-197.20645161290327L407.9032258064516,-198.49475806451613L408.3870967741935,-199.7854838709677L408.87096774193543,-201.078629032258L409.3548387096773,-202.37419354838698L409.8387096774194,-203.67217741935497L410.3225806451613,-204.97258064516137L410.80645161290323,-206.27540322580649L411.2903225806451,-207.5806451612903L411.7741935483871,-208.88830645161283L412.25806451612897,-210.19838709677418L412.741935483871,-211.51088709677413L413.22580645161287,-212.82580645161278L413.7096774193548,-214.1431451612902L414.19354838709677,-215.46290322580654L414.6774193548387,-216.78508064516137L415.1612903225806,-218.10967741935485L415.64516129032256,-219.4366935483871L416.12903225806446,-220.76612903225805L416.61290322580646,-222.0979838709677L417.09677419354836,-223.43225806451602L417.58064516129025,-224.7689516129031L418.06451612903226,-226.10806451612916L418.5483870967742,-227.44959677419365L419.0322580645161,-228.7935483870968L419.51612903225805,-230.1399193548387L420,-231.48870967741937L420.4838709677419,-232.83991935483863L420.96774193548384,-234.19354838709666L421.45161290322574,-235.54959677419345L421.93548387096774,-236.90806451612917L422.4193548387097,-238.26895161290332L422.9032258064516,-239.63225806451624L423.3870967741935,-240.9979838709678L423.8709677419355,-242.36612903225807L424.3548387096774,-243.73669354838705L424.83870967741933,-245.1096774193548L425.3225806451612,-246.4850806451612L425.80645161290323,-247.86290322580652L426.2903225806451,-249.24314516129039L426.77419354838713,-250.62580645161296L427.258064516129,-252.01088709677418L427.741935483871,-253.39838709677417L428.22580645161287,-254.78830645161287L428.7096774193548,-256.1806451612903L429.1935483870967,-257.5754032258064L429.67741935483866,-258.97258064516114L430.1612903225806,-260.3721774193549L430.6451612903226,-261.77419354838713L431.1290322580645,-263.1786290322581L431.61290322580646,-264.5854838709678L432.09677419354836,-265.99475806451613L432.5806451612903,-267.4064516129032L433.0645161290322,-268.82056451612897L433.54838709677415,-270.2370967741934L434.03225806451616,-271.6560483870969L434.5161290322581,-273.0774193548388L435,-274.50120967741935L435.48387096774195,-275.92741935483866L435.96774193548384,-277.35604838709673L436.4516129032258,-278.7870967741935L436.9354838709677,-280.22056451612895L437.4193548387096,-281.65645161290314L437.90322580645164,-283.09475806451627L438.3870967741936,-284.5354838709679L438.8709677419355,-285.97862903225814L439.35483870967744,-287.4241935483871L439.83870967741933,-288.87217741935484L440.3225806451612,-290.3225806451612L440.8064516129032,-291.77540322580643L441.29032258064507,-293.2306451612902L441.7741935483871,-294.6883064516128L442.2580645161291,-296.1483870967743L442.741935483871,-297.61088709677426L443.22580645161287,-299.07580645161295L443.7096774193548,-300.54314516129034L444.1935483870967,-302.0129032258064L444.67741935483866,-303.4850806451612L445.16129032258056,-304.9596774193547L445.64516129032256,-306.4366935483869L446.1290322580645,-307.9161290322582L446.61290322580646,-309.39798387096783L447.09677419354836,-310.8822580645162L447.5806451612903,-312.36895161290323L448.0645161290322,-313.858064516129L448.5483870967742,-315.3495967741935L449.0322580645161,-316.84354838709675L449.51612903225805,-318.33991935483857L450,-319.8387096774195L450.48387096774195,-321.33991935483886L450.96774193548384,-322.84354838709686L451.4516129032258,-324.34959677419357L451.9354838709677,-325.85806451612905L452.4193548387097,-327.3689516129032L452.9032258064516,-328.88225806451607L453.3870967741935,-330.3979838709676L453.87096774193543,-331.9161290322579L454.35483870967744,-333.4366935483872L454.83870967741933,-334.95967741935493L455.32258064516134,-336.48508064516136L455.80645161290323,-338.0129032258065L456.2903225806451,-339.5431451612902L456.7741935483871,-341.07580645161283L457.25806451612897,-342.61088709677415L457.7419354838709,-344.148387096774L458.2258064516129,-345.688306451613L458.7096774193548,-347.2306451612904L459.1935483870967,-348.7754032258065L459.6774193548387,-350.32258064516134L460.1612903225806,-351.87217741935484L460.64516129032256,-353.42419354838705L461.12903225806446,-354.978629032258L461.6129032258064,-356.53548387096754L462.09677419354836,-358.09475806451627L462.58064516129036,-359.6564516129033L463.06451612903226,-361.2205645161291L463.5483870967742,-362.7870967741936L464.0322580645161,-364.35604838709673L464.51612903225805,-365.92741935483866L464.99999999999994,-367.5012096774193L465.4838709677419,-369.07741935483864L465.9677419354838,-370.6560483870967L466.45161290322585,-372.2370967741937L466.93548387096774,-373.82056451612914L467.4193548387097,-375.4064516129033L467.9032258064516,-376.9947580645161L468.38709677419354,-378.58548387096766L468.87096774193543,-380.1786290322581L469.3548387096774,-381.77419354838696L469.8387096774193,-383.37217741935467L470.32258064516134,-384.97258064516143L470.80645161290323,-386.57540322580655L471.2903225806452,-388.1806451612904L471.7741935483871,-389.7883064516129L472.258064516129,-391.3983870967742L472.7419354838709,-393.01088709677424L473.2258064516128,-394.6258064516128L473.7096774193548,-396.2431451612903L474.1935483870968,-397.8629032258066L474.6774193548387,-399.48508064516136L475.16129032258067,-401.10967741935497L475.64516129032256,-402.73669354838705L476.12903225806446,-404.3661290322581L476.6129032258064,-405.9979838709677L477.0967741935483,-407.632258064516L477.5806451612903,-409.26895161290315L478.0645161290322,-410.9080645161289L478.5483870967742,-412.5495967741937L479.0322580645161,-414.1935483870968L479.51612903225805,-415.8399193548388L479.99999999999994,-417.48870967741937L480.48387096774195,-419.13991935483864L480.96774193548384,-420.79354838709673L481.4516129032258,-422.4495967741934L481.9354838709677,-424.10806451612893L482.4193548387097,-425.7689516129034L482.9032258064516,-427.4322580645162L483.38709677419354,-429.0979838709678L483.87096774193543,-430.76612903225805L484.35483870967744,-432.4366935483871L484.83870967741933,-434.10967741935485L485.3225806451613,-435.7850806451612L485.8064516129032,-437.4629032258064L486.2903225806452,-439.1431451612905L486.7741935483871,-440.82580645161306L487.258064516129,-442.51088709677424L487.741935483871,-444.19838709677424L488.2258064516129,-445.88830645161295L488.7096774193548,-447.58064516129025"
          stroke="lightblue" stroke-width="3" fill="none"/>
</svg>