<?xml version="1.0" standalone="no"?>
<svg xmlns="http://www.w3.org/2000/svg" id="svg_1" width="150" height="150" style="background-color: rgb(58, 58, 58);">
    <g transform="translate( 75, 0)" class="axis" fill="none" font-size="10" font-family="sans-serif" text-anchor="end">
        <path class="domain" stroke="#000" d="M0,150.5H0.5V0.5H0" style="stroke: orange; stroke-width: 0.5;"/>
    </g>
    <g transform="translate( 0,75)" class="axis" fill="none" font-size="10" font-family="sans-serif"
       text-anchor="middle">
        <path class="domain" stroke="#000" d="M0.5,0V0.5H150.5V0" style="stroke: orange; stroke-width: 0.5;"/>
    </g>
    <path d="M0,75L0.0749999999999984,75L0.1499999999999968,75L0.2249999999999952,75L0.2999999999999936,75L0.374999999999992,75L0.45000000000000373,75L0.5250000000000021,75L0.6000000000000005,75L0.6749999999999989,75L0.7499999999999973,75L0.8249999999999957,75L0.8999999999999941,75L0.9749999999999925,75L1.0500000000000043,75L1.1250000000000027,75L1.200000000000001,75L1.2749999999999995,75L1.3499999999999979,75L1.4249999999999963,75L1.4999999999999947,75L1.574999999999993,75L1.6500000000000048,75L1.7250000000000032,75L1.8000000000000016,75L1.875,75L1.9499999999999984,75L2.024999999999997,75L2.099999999999995,75L2.1749999999999936,75L2.249999999999992,75L2.3250000000000037,75L2.400000000000002,75L2.4750000000000005,75L2.549999999999999,75L2.6249999999999973,75L2.6999999999999957,75L2.774999999999994,75L2.8499999999999925,75L2.9250000000000043,75L3.0000000000000027,75L3.075000000000001,75L3.1499999999999995,75L3.224999999999998,75L3.2999999999999963,75L3.3749999999999947,75L3.449999999999993,75L3.525000000000005,75L3.600000000000003,75L3.6750000000000016,75L3.75,75L3.8249999999999984,75L3.899999999999997,75L3.974999999999995,75L4.049999999999994,75L4.124999999999992,75L4.200000000000004,75L4.275000000000002,75L4.3500000000000005,75L4.424999999999999,75L4.499999999999997,75L4.574999999999996,75L4.649999999999994,75L4.7249999999999925,75L4.800000000000004,75L4.875000000000003,75L4.950000000000001,75L5.0249999999999995,75L5.099999999999998,75L5.174999999999996,75L5.249999999999995,75L5.324999999999993,75L5.400000000000005,75L5.475000000000003,75L5.550000000000002,75L5.625,75L5.699999999999998,75L5.774999999999997,75L5.849999999999995,75L5.924999999999994,75L5.999999999999992,75L6.075000000000004,75L6.150000000000002,75L6.2250000000000005,75L6.299999999999999,75L6.374999999999997,75L6.449999999999996,75L6.524999999999994,75L6.5999999999999925,75L6.675000000000004,75L6.750000000000003,75L6.825000000000001,75L6.8999999999999995,75L6.974999999999998,75L7.049999999999996,75L7.124999999999995,75L7.199999999999993,75L7.275000000000005,75L7.350000000000003,75L7.425000000000002,75L7.5,75L7.574999999999998,75L7.649999999999997,75L7.724999999999995,75L7.799999999999994,75L7.874999999999992,75L7.950000000000004,75L8.025000000000002,75L8.100000000000001,75L8.174999999999999,75L8.249999999999996,75L8.324999999999996,75L8.399999999999993,75L8.474999999999993,75L8.550000000000004,75L8.625000000000002,75L8.700000000000001,75L8.774999999999999,75L8.849999999999998,75L8.924999999999997,75L8.999999999999995,75L9.074999999999994,75L9.150000000000006,75L9.225000000000003,75L9.300000000000002,75L9.375,75L9.449999999999998,75L9.524999999999997,75L9.599999999999996,75L9.674999999999994,75L9.749999999999993,75L9.825000000000005,75L9.900000000000002,75L9.975000000000001,75L10.049999999999999,75L10.124999999999996,75L10.199999999999996,75L10.274999999999995,75L10.349999999999993,75L10.425000000000004,75L10.500000000000004,75L10.575000000000001,75L10.649999999999999,75L10.724999999999998,75L10.799999999999997,75L10.874999999999995,75L10.949999999999992,75L11.025000000000006,75L11.100000000000003,75L11.175,75L11.25,75L11.324999999999998,75L11.399999999999997,75L11.474999999999996,75L11.549999999999994,75L11.625000000000005,75L11.700000000000005,75L11.775000000000002,75L11.85,75L11.924999999999999,75L11.999999999999998,75L12.074999999999996,75L12.149999999999995,75L12.224999999999993,75L12.300000000000004,75L12.375000000000004,75L12.450000000000001,75L12.524999999999999,75L12.599999999999998,75L12.674999999999997,75L12.749999999999995,75L12.824999999999992,75L12.900000000000006,75L12.975000000000003,75L13.05,75L13.125,75L13.2,75L13.274999999999997,75L13.349999999999994,75L13.424999999999994,75L13.500000000000005,75L13.575000000000003,75L13.650000000000002,75L13.725,75L13.799999999999999,75L13.874999999999998,75L13.949999999999996,75L14.024999999999993,75L14.099999999999993,75L14.175000000000004,75L14.250000000000002,75L14.325000000000001,75L14.4,75L14.474999999999998,75L14.549999999999997,75L14.624999999999995,75L14.699999999999992,75L14.775000000000006,75L14.850000000000003,75L14.925,75L15,75L15.075,75L15.149999999999997,75L15.225000000000001,75L15.3,75L15.374999999999998,75L15.449999999999998,75L15.524999999999995,75L15.600000000000001,75L15.674999999999999,75L15.749999999999996,75L15.824999999999996,75L15.900000000000002,75L15.975,75L16.049999999999997,75L16.124999999999996,75L16.200000000000003,75L16.275,75L16.349999999999998,75L16.424999999999997,75L16.500000000000004,75L16.575,75L16.65,75L16.724999999999998,75L16.8,75L16.875,75L16.95,75L17.024999999999995,75L17.1,75L17.175,75L17.25,75L17.324999999999996,75L17.400000000000002,75L17.475,75L17.549999999999997,75L17.624999999999996,75L17.699999999999996,75L17.775000000000002,75L17.849999999999998,75L17.924999999999997,75L17.999999999999996,75L18.075000000000003,75L18.15,75L18.224999999999998,75L18.299999999999997,75L18.375,75L18.45,75L18.525,75L18.599999999999994,75L18.675,75L18.75,75L18.825,75L18.899999999999995,75L18.975,75L19.05,75L19.125,75L19.199999999999996,75L19.275000000000002,75L19.35,75L19.425,75L19.499999999999996,75L19.574999999999996,75L19.650000000000002,75L19.725,75L19.799999999999997,75L19.874999999999996,75L19.950000000000003,75L20.025000000000002,75L20.099999999999998,75L20.174999999999997,75L20.25,75L20.325000000000003,75L20.4,75L20.474999999999998,75L20.55,75L20.625,75L20.7,75L20.775,75L20.85,75L20.925,75L20.999999999999996,75L21.075,75L21.150000000000002,75L21.225,75L21.299999999999997,75L21.374999999999996,75L21.449999999999996,75L21.525000000000002,75L21.599999999999998,75L21.674999999999997,75L21.749999999999993,75L21.825000000000003,75L21.9,75L21.974999999999998,75L22.049999999999994,75L22.125000000000004,75L22.2,75L22.275,75L22.349999999999994,75L22.425000000000004,75L22.5,75L22.575,75L22.649999999999995,75L22.725000000000005,75L22.8,75L22.875,75L22.949999999999996,75L23.025000000000002,75L23.1,75L23.175,75L23.249999999999996,75L23.324999999999996,75L23.4,75L23.475,75L23.549999999999997,75L23.624999999999996,75L23.7,75L23.775,75L23.849999999999998,75L23.924999999999997,75L24,75L24.075,75L24.149999999999995,75L24.224999999999998,75L24.3,75L24.375,75L24.449999999999996,75L24.525,75L24.6,75L24.675,75L24.749999999999996,75L24.824999999999996,75L24.900000000000002,75L24.975,75L25.049999999999997,75L25.124999999999996,75L25.199999999999996,75L25.275000000000002,75L25.349999999999998,75L25.424999999999997,75L25.499999999999996,75L25.575000000000003,75L25.65,75L25.724999999999998,75L25.799999999999997,75L25.875000000000004,75L25.95,75L26.025,75L26.099999999999998,75L26.175,75L26.25,75L26.325,75L26.4,75L26.475,75L26.549999999999997,75L26.625,75L26.7,75L26.775000000000002,75L26.849999999999998,75L26.924999999999997,75L27,75L27.074999999999996,75L27.15,75L27.224999999999998,75L27.3,75L27.374999999999996,75L27.45,75L27.525,75L27.599999999999998,75L27.674999999999997,75L27.75,75L27.825,75L27.9,75L27.974999999999994,75L28.05,75L28.125,75L28.2,75L28.274999999999995,75L28.35,75L28.425,75L28.5,75L28.574999999999996,75L28.650000000000002,75L28.725,75L28.8,75L28.874999999999996,75L28.949999999999996,75L29.025000000000002,75L29.1,75L29.174999999999997,75L29.249999999999996,75L29.325000000000003,75L29.400000000000002,75L29.474999999999998,75L29.549999999999997,75L29.625,75L29.700000000000003,75L29.775,75L29.849999999999998,75L29.925,75L30,75L30.075,75L30.15,75L30.225,75L30.3,75L30.374999999999996,75L30.45,75L30.525000000000002,75L30.6,75L30.674999999999997,75L30.749999999999996,75L30.825000000000003,75L30.900000000000002,75L30.974999999999998,75L31.049999999999997,75L31.124999999999993,75L31.200000000000003,75L31.275,75L31.349999999999998,75L31.424999999999994,75L31.500000000000004,75L31.575,75L31.65,75L31.724999999999994,75L31.800000000000004,75L31.875,75L31.95,75L32.025,75L32.1,75L32.175,75L32.25,75L32.324999999999996,75L32.400000000000006,75L32.475,75L32.55,75L32.62499999999999,75L32.7,75L32.775,75L32.85,75L32.925,75L32.99999999999999,75L33.075,75L33.15,75L33.224999999999994,75L33.3,75L33.375,75L33.45,75L33.525,75L33.599999999999994,75L33.675000000000004,75L33.75,75L33.824999999999996,75L33.9,75L33.975,75L34.050000000000004,75L34.125,75L34.199999999999996,75L34.275,75L34.35,75L34.425,75L34.5,75L34.575,75L34.65,75L34.724999999999994,75L34.8,75L34.875,75L34.95,75L35.025,75L35.099999999999994,75L35.175,75L35.25,75L35.324999999999996,75L35.4,75L35.475,75L35.550000000000004,75L35.625,75L35.699999999999996,75L35.775,75L35.85,75L35.925,75L36,75L36.074999999999996,75L36.150000000000006,75L36.225,75L36.3,75L36.375,75L36.45,75L36.525,75L36.6,75L36.675,75L36.74999999999999,75L36.825,75L36.9,75L36.975,75L37.05,75L37.125,75L37.2,75L37.275,75L37.349999999999994,75L37.425,75L37.5,75L37.575,75L37.65,75L37.725,75L37.8,75L37.875,75L37.95,75L38.025,75L38.1,75L38.175,75L38.25,75L38.325,75L38.4,75L38.475,75L38.550000000000004,75L38.62499999999999,75L38.7,75L38.775,75L38.85,75L38.92499999999999,75L39,75L39.075,75L39.15,75L39.224999999999994,75L39.300000000000004,75L39.375,75L39.45,75L39.52499999999999,75L39.6,75L39.675000000000004,75L39.75,75L39.824999999999996,75L39.900000000000006,75L39.975,75L40.050000000000004,75L40.12499999999999,75L40.2,75L40.275000000000006,75L40.35,75L40.425,75L40.49999999999999,75L40.575,75L40.650000000000006,75L40.724999999999994,75L40.8,75L40.875,75L40.95,75L41.02499999999999,75L41.099999999999994,75L41.175000000000004,75L41.25,75L41.324999999999996,75L41.4,75L41.475,75L41.550000000000004,75L41.62499999999999,75L41.699999999999996,75L41.775000000000006,75L41.85,75L41.925,75L41.99999999999999,75L42.075,75L42.150000000000006,75L42.224999999999994,75L42.3,75L42.37499999999999,75L42.45,75L42.525,75L42.599999999999994,75L42.675,75L42.75000000000001,75L42.824999999999996,75L42.9,75L42.974999999999994,75L43.050000000000004,75L43.125,75L43.199999999999996,75L43.275,75L43.35000000000001,75L43.425,75L43.5,75L43.574999999999996,75L43.650000000000006,75L43.724999999999994,75L43.8,75L43.875,75L43.95,75L44.025,75L44.099999999999994,75L44.175,75L44.25000000000001,75L44.324999999999996,75L44.4,75L44.474999999999994,75L44.55,75L44.625,75L44.699999999999996,75L44.775,75L44.85,75L44.925,75L45,75L45.074999999999996,75L45.15,75L45.225,75L45.3,75L45.375,75L45.45000000000001,75L45.525,75L45.6,75L45.675,75L45.75,75L45.824999999999996,75L45.9,75L45.975,75L46.050000000000004,75L46.125,75L46.2,75L46.275,75L46.35,75L46.425,75L46.49999999999999,75L46.575,75L46.65,75L46.725,75L46.8,75L46.875,75L46.95,75L47.025,75L47.099999999999994,75L47.175,75L47.25,75L47.325,75L47.4,75L47.475,75L47.55,75L47.625,75L47.699999999999996,75L47.775,75L47.85,75L47.925000000000004,75L48,75L48.075,75L48.15,75L48.225,75L48.29999999999999,75L48.37499999999999,75L48.45,75L48.525,75L48.6,75L48.675000000000004,75L48.75,75L48.825,75L48.89999999999999,75L48.974999999999994,75L49.050000000000004,75L49.125,75L49.2,75L49.275000000000006,75L49.35,75L49.425000000000004,75L49.49999999999999,75L49.574999999999996,75L49.650000000000006,75L49.725,75L49.800000000000004,75L49.875,75L49.95,75L50.025000000000006,75L50.099999999999994,75L50.175,75L50.24999999999999,75L50.325,75L50.39999999999999,75L50.475,75L50.550000000000004,75L50.625,75L50.699999999999996,75L50.775,75L50.849999999999994,75L50.925000000000004,75L50.99999999999999,75L51.075,75L51.150000000000006,75L51.225,75L51.3,75L51.37499999999999,75L51.449999999999996,75L51.525000000000006,75L51.599999999999994,75L51.675000000000004,75L51.75000000000001,75L51.825,75L51.9,75L51.974999999999994,75L52.05,75L52.12499999999999,75L52.199999999999996,75L52.275,75L52.35,75L52.425000000000004,75L52.5,75L52.574999999999996,75L52.65,75L52.724999999999994,75L52.8,75L52.875,75L52.95,75L53.025000000000006,75L53.099999999999994,75L53.175,75L53.25,75L53.324999999999996,75L53.4,75L53.474999999999994,75L53.550000000000004,75L53.62500000000001,75L53.699999999999996,75L53.775,75L53.849999999999994,75L53.925,75L54,75L54.074999999999996,75L54.15,75L54.22500000000001,75L54.3,75L54.375,75L54.449999999999996,75L54.525,75L54.6,75L54.675,75L54.75,75L54.82500000000001,75L54.9,75L54.975,75L55.05,75L55.125,75L55.199999999999996,75L55.275,75L55.35,75L55.425000000000004,75L55.5,75L55.575,75L55.65,75L55.725,75L55.8,75L55.87499999999999,75L55.95,75L56.025,75L56.1,75L56.175,75L56.25,75L56.325,75L56.4,75L56.474999999999994,75L56.55,75L56.625,75L56.7,75L56.775,75L56.85,75L56.925,75L57,75L57.074999999999996,75L57.15,75L57.225,75L57.300000000000004,75L57.375,75L57.45,75L57.525,75L57.6,75L57.67499999999999,75L57.74999999999999,75L57.825,75L57.9,75L57.975,75L58.050000000000004,75L58.125,75L58.2,75L58.27499999999999,75L58.349999999999994,75L58.425000000000004,75L58.5,75L58.575,75L58.650000000000006,75L58.725,75L58.800000000000004,75L58.87499999999999,75L58.949999999999996,75L59.025000000000006,75L59.1,75L59.175000000000004,75L59.25,75L59.325,75L59.400000000000006,75L59.474999999999994,75L59.55,75L59.625,75L59.7,75L59.77499999999999,75L59.85,75L59.925000000000004,75L60,75L60.074999999999996,75L60.15,75L60.224999999999994,75L60.3,75L60.37500000000001,75L60.45,75L60.525000000000006,75L60.6,75L60.675,75L60.74999999999999,75L60.824999999999996,75L60.9,75L60.974999999999994,75L61.050000000000004,75L61.12500000000001,75L61.2,75L61.275,75L61.349999999999994,75L61.425,75L61.49999999999999,75L61.575,75L61.650000000000006,75L61.725,75L61.800000000000004,75L61.875,75L61.949999999999996,75L62.025,75L62.099999999999994,75L62.175,75L62.25000000000001,75L62.325,75L62.400000000000006,75L62.474999999999994,75L62.55,75L62.625,75L62.699999999999996,75L62.775,75L62.84999999999999,75L62.925000000000004,75L63.00000000000001,75L63.074999999999996,75L63.15,75L63.224999999999994,75L63.3,75L63.375,75L63.45,75L63.525000000000006,75L63.60000000000001,75L63.675,75L63.75,75L63.824999999999996,75L63.9,75L63.975,75L64.05,75L64.125,75L64.2,75L64.275,75L64.35,75L64.425,75L64.5,75L64.575,75L64.64999999999999,75L64.725,75L64.80000000000001,75L64.875,75L64.95,75L65.025,75L65.1,75L65.175,75L65.24999999999999,75L65.325,75L65.4,75L65.475,75L65.55,75L65.625,75L65.7,75L65.775,75L65.85,75L65.925,75L66.00000000000001,75L66.075,75L66.15,75L66.225,75L66.3,75L66.375,75L66.44999999999999,75L66.52499999999999,75L66.6,75L66.675,75L66.75,75L66.825,75L66.9,75L66.975,75L67.05,75L67.125,75L67.2,75L67.275,75L67.35000000000001,75L67.425,75L67.5,75L67.575,75L67.64999999999999,75L67.725,75L67.8,75L67.875,75L67.95,75L68.025,75L68.10000000000001,75L68.175,75L68.25,75L68.32499999999999,75L68.39999999999999,75L68.47500000000001,75L68.55,75L68.625,75L68.7,75L68.775,75L68.85,75L68.925,75L69,75L69.075,75L69.15,75L69.22500000000001,75L69.3,75L69.375,75L69.44999999999999,75L69.52499999999999,75L69.6,75L69.675,75L69.75,75L69.825,75L69.9,75L69.97500000000001,75L70.05,75L70.125,75L70.19999999999999,75L70.27499999999999,75L70.35000000000001,75L70.42500000000001,75L70.5,75L70.575,75L70.64999999999999,75L70.725,75L70.8,75L70.875,75L70.95,75L71.025,75L71.10000000000001,75L71.17500000000001,75L71.25,75L71.325,75L71.39999999999999,75L71.475,75L71.55,75L71.625,75L71.7,75L71.775,75L71.85,75L71.925,75L72,75L72.075,75L72.14999999999999,75L72.22500000000001,75L72.30000000000001,75L72.375,75L72.45,75L72.52499999999999,75L72.6,75L72.675,75L72.75,75L72.825,75L72.9,75L72.97500000000001,75L73.05,75L73.125,75L73.2,75L73.27499999999999,75L73.35,75L73.425,75L73.5,75L73.575,75L73.65,75L73.725,75L73.8,75L73.875,75L73.95,75L74.02499999999999,75L74.10000000000001,75L74.17500000000001,75L74.25,75L74.325,75L74.4,75L74.475,75L74.55,75L74.62499999999999,75L74.7,75L74.775,75L74.85,75L74.925,75L75,75L75.07499999999999,74.92500000000001L75.15,74.85L75.225,74.775L75.3,74.7L75.37500000000001,74.62499999999999L75.45,74.55L75.525,74.475L75.6,74.4L75.675,74.325L75.75,74.25L75.82499999999999,74.17500000000001L75.9,74.1L75.97500000000001,74.02499999999999L76.05,73.95L76.12500000000001,73.87499999999999L76.2,73.8L76.27499999999999,73.72500000000001L76.35,73.65L76.425,73.575L76.5,73.5L76.575,73.425L76.65,73.35L76.72500000000001,73.27499999999999L76.8,73.2L76.875,73.125L76.95,73.05L77.02499999999999,72.97500000000001L77.10000000000001,72.89999999999999L77.175,72.825L77.25,72.75L77.32500000000002,72.67499999999998L77.4,72.6L77.475,72.525L77.55,72.45L77.625,72.375L77.7,72.3L77.77499999999999,72.22500000000001L77.85000000000001,72.14999999999999L77.92500000000001,72.07499999999999L78,72L78.07499999999999,71.92500000000001L78.15,71.85L78.225,71.775L78.3,71.7L78.375,71.625L78.45,71.55L78.525,71.475L78.60000000000001,71.39999999999999L78.675,71.325L78.75,71.25L78.82499999999999,71.17500000000001L78.9,71.1L78.975,71.025L79.04999999999998,70.95000000000002L79.12500000000001,70.87499999999999L79.2,70.8L79.27499999999999,70.72500000000001L79.35000000000001,70.64999999999999L79.425,70.575L79.5,70.5L79.57499999999999,70.42500000000001L79.64999999999999,70.35000000000001L79.72500000000001,70.27499999999999L79.80000000000001,70.19999999999999L79.875,70.125L79.95,70.05L80.02499999999999,69.97500000000001L80.10000000000001,69.89999999999999L80.175,69.825L80.24999999999999,69.75000000000001L80.32500000000002,69.67499999999998L80.4,69.6L80.475,69.525L80.55000000000001,69.44999999999999L80.625,69.375L80.7,69.3L80.77499999999999,69.22500000000001L80.85,69.15L80.925,69.075L81,69L81.075,68.925L81.15,68.85L81.225,68.775L81.30000000000001,68.69999999999999L81.375,68.625L81.44999999999999,68.55000000000001L81.52499999999999,68.47500000000001L81.60000000000001,68.39999999999999L81.675,68.325L81.75,68.25L81.825,68.175L81.9,68.1L81.975,68.025L82.04999999999998,67.95000000000002L82.125,67.875L82.2,67.8L82.27499999999999,67.72500000000001L82.35000000000001,67.64999999999999L82.425,67.575L82.5,67.5L82.575,67.425L82.64999999999999,67.35000000000001L82.725,67.275L82.8,67.2L82.875,67.125L82.95,67.05L83.025,66.975L83.10000000000001,66.89999999999999L83.175,66.825L83.24999999999999,66.75000000000001L83.325,66.675L83.4,66.6L83.475,66.525L83.55000000000001,66.44999999999999L83.625,66.375L83.7,66.3L83.775,66.225L83.85,66.15L83.925,66.075L83.99999999999999,66.00000000000001L84.075,65.925L84.15,65.85L84.225,65.775L84.30000000000001,65.69999999999999L84.375,65.625L84.44999999999999,65.55000000000001L84.525,65.475L84.6,65.4L84.675,65.325L84.75000000000001,65.24999999999999L84.825,65.175L84.9,65.1L84.975,65.025L85.05,64.95L85.125,64.875L85.19999999999999,64.80000000000001L85.275,64.725L85.35000000000001,64.64999999999999L85.425,64.575L85.50000000000001,64.49999999999999L85.575,64.425L85.64999999999999,64.35000000000001L85.725,64.275L85.8,64.2L85.875,64.125L85.95,64.05L86.025,63.974999999999994L86.10000000000001,63.89999999999999L86.175,63.825L86.25,63.75L86.325,63.675L86.39999999999999,63.60000000000001L86.47500000000001,63.52499999999999L86.55,63.45L86.625,63.375L86.70000000000002,63.29999999999998L86.775,63.224999999999994L86.85,63.150000000000006L86.925,63.075L87,63L87.075,62.925L87.15,62.849999999999994L87.22500000000001,62.77499999999999L87.30000000000001,62.69999999999999L87.375,62.625L87.44999999999999,62.55000000000001L87.525,62.474999999999994L87.6,62.400000000000006L87.675,62.325L87.75,62.25L87.825,62.175L87.9,62.099999999999994L87.97500000000001,62.02499999999999L88.05,61.95L88.125,61.875L88.19999999999999,61.80000000000001L88.275,61.724999999999994L88.35,61.650000000000006L88.42499999999998,61.57500000000002L88.50000000000001,61.499999999999986L88.575,61.425L88.64999999999999,61.35000000000001L88.72500000000001,61.27499999999999L88.8,61.2L88.875,61.125L88.94999999999999,61.05000000000001L89.025,60.974999999999994L89.10000000000001,60.89999999999999L89.17500000000001,60.82499999999999L89.25,60.75L89.325,60.675L89.39999999999999,60.60000000000001L89.47500000000001,60.52499999999999L89.55,60.45L89.62499999999999,60.375000000000014L89.70000000000002,60.29999999999998L89.775,60.224999999999994L89.85,60.150000000000006L89.92500000000001,60.07499999999999L90,60L90.075,59.925L90.14999999999999,59.85000000000001L90.22500000000001,59.77499999999999L90.3,59.7L90.375,59.625L90.45,59.55L90.525,59.474999999999994L90.6,59.400000000000006L90.67500000000001,59.32499999999999L90.75,59.25L90.82499999999999,59.17500000000001L90.90000000000002,59.09999999999998L90.975,59.025000000000006L91.05,58.95L91.125,58.875L91.2,58.8L91.275,58.724999999999994L91.35,58.650000000000006L91.42499999999998,58.57500000000002L91.5,58.5L91.575,58.425L91.64999999999999,58.35000000000001L91.72500000000001,58.27499999999999L91.8,58.2L91.875,58.125L91.95,58.05L92.02499999999999,57.97500000000001L92.10000000000001,57.89999999999999L92.175,57.825L92.25,57.75L92.325,57.675L92.4,57.599999999999994L92.47500000000001,57.52499999999999L92.55,57.45L92.62499999999999,57.375000000000014L92.7,57.3L92.775,57.224999999999994L92.85,57.150000000000006L92.92500000000001,57.07499999999999L93,57L93.075,56.925L93.15,56.849999999999994L93.225,56.775000000000006L93.3,56.7L93.37499999999999,56.625000000000014L93.45,56.55L93.525,56.474999999999994L93.6,56.400000000000006L93.67500000000001,56.32499999999999L93.75,56.25L93.82499999999999,56.17500000000001L93.9,56.099999999999994L93.97500000000001,56.02499999999999L94.05,55.95L94.12500000000001,55.874999999999986L94.2,55.8L94.275,55.724999999999994L94.35,55.650000000000006L94.425,55.575L94.5,55.5L94.57499999999999,55.42500000000001L94.65,55.349999999999994L94.725,55.275000000000006L94.8,55.2L94.87500000000001,55.124999999999986L94.95,55.05L95.02499999999999,54.97500000000001L95.1,54.900000000000006L95.175,54.825L95.25,54.75L95.325,54.675L95.4,54.599999999999994L95.47500000000001,54.52499999999999L95.55,54.45L95.625,54.375L95.7,54.3L95.77499999999999,54.22500000000001L95.85000000000001,54.14999999999999L95.925,54.075L96,54L96.07500000000002,53.92499999999998L96.15,53.849999999999994L96.225,53.775000000000006L96.3,53.7L96.375,53.625L96.45,53.55L96.525,53.474999999999994L96.59999999999998,53.40000000000002L96.67500000000001,53.32499999999999L96.75,53.25L96.82499999999999,53.17500000000001L96.9,53.099999999999994L96.975,53.025000000000006L97.05,52.95L97.125,52.875L97.2,52.8L97.275,52.724999999999994L97.35000000000001,52.64999999999999L97.425,52.575L97.5,52.5L97.57499999999999,52.42500000000001L97.65,52.349999999999994L97.72500000000001,52.27499999999999L97.79999999999998,52.20000000000002L97.87500000000001,52.124999999999986L97.95,52.05L98.02499999999999,51.97500000000001L98.10000000000001,51.89999999999999L98.175,51.825L98.25,51.75L98.32499999999999,51.67500000000001L98.4,51.599999999999994L98.475,51.525000000000006L98.55000000000001,51.44999999999999L98.625,51.375L98.7,51.3L98.77499999999999,51.22500000000001L98.85000000000001,51.14999999999999L98.925,51.075L98.99999999999999,51.000000000000014L99.07500000000002,50.92499999999998L99.15,50.849999999999994L99.225,50.775000000000006L99.30000000000001,50.69999999999999L99.375,50.625L99.45,50.55L99.52499999999999,50.47500000000001L99.60000000000001,50.39999999999999L99.675,50.325L99.75,50.25L99.825,50.175L99.9,50.099999999999994L99.975,50.025000000000006L100.05000000000001,49.94999999999999L100.125,49.875L100.19999999999999,49.80000000000001L100.27500000000002,49.72499999999998L100.35,49.650000000000006L100.425,49.575L100.5,49.5L100.575,49.425L100.65,49.349999999999994L100.725,49.275000000000006L100.79999999999998,49.20000000000002L100.875,49.125L100.95,49.05L101.02499999999999,48.97500000000001L101.10000000000001,48.89999999999999L101.175,48.825L101.25,48.75L101.325,48.675L101.39999999999999,48.60000000000001L101.47500000000001,48.52499999999999L101.55,48.45L101.625,48.375L101.7,48.3L101.775,48.224999999999994L101.85000000000001,48.14999999999999L101.925,48.075L101.99999999999999,48.000000000000014L102.075,47.925L102.15,47.849999999999994L102.225,47.775000000000006L102.30000000000001,47.69999999999999L102.375,47.625L102.45,47.55L102.525,47.474999999999994L102.6,47.400000000000006L102.675,47.325L102.74999999999999,47.250000000000014L102.825,47.175L102.9,47.099999999999994L102.975,47.025000000000006L103.05000000000001,46.94999999999999L103.125,46.875L103.19999999999999,46.80000000000001L103.275,46.724999999999994L103.35000000000001,46.64999999999999L103.425,46.575L103.50000000000001,46.499999999999986L103.575,46.425L103.65,46.349999999999994L103.725,46.275000000000006L103.8,46.2L103.875,46.125L103.94999999999999,46.05000000000001L104.025,45.974999999999994L104.1,45.900000000000006L104.175,45.825L104.25000000000001,45.749999999999986L104.325,45.675L104.39999999999999,45.60000000000001L104.475,45.525000000000006L104.55,45.45L104.625,45.375L104.7,45.3L104.775,45.224999999999994L104.85000000000001,45.14999999999999L104.925,45.075L105,45L105.075,44.925L105.14999999999999,44.85000000000001L105.22500000000001,44.77499999999999L105.3,44.7L105.375,44.625L105.45000000000002,44.54999999999998L105.525,44.474999999999994L105.6,44.400000000000006L105.675,44.325L105.75,44.25L105.825,44.175L105.9,44.099999999999994L105.97499999999998,44.02500000000002L106.05000000000001,43.94999999999999L106.125,43.875L106.19999999999999,43.80000000000001L106.275,43.724999999999994L106.35,43.650000000000006L106.425,43.575L106.5,43.5L106.575,43.425L106.64999999999999,43.35000000000001L106.72500000000001,43.27499999999999L106.8,43.2L106.875,43.125L106.94999999999999,43.05000000000001L107.025,42.974999999999994L107.10000000000001,42.89999999999999L107.17499999999998,42.82500000000002L107.25000000000001,42.749999999999986L107.325,42.675L107.39999999999999,42.60000000000001L107.47500000000001,42.52499999999999L107.55,42.45L107.625,42.375L107.69999999999999,42.30000000000001L107.775,42.224999999999994L107.85,42.150000000000006L107.92500000000001,42.07499999999999L108,42L108.075,41.925L108.14999999999999,41.85000000000001L108.22500000000001,41.77499999999999L108.30000000000001,41.69999999999999L108.37499999999999,41.625000000000014L108.45000000000002,41.54999999999998L108.52499999999999,41.47500000000001L108.6,41.400000000000006L108.67500000000001,41.32499999999999L108.75,41.25L108.825,41.175L108.89999999999999,41.10000000000001L108.97500000000001,41.02499999999999L109.05,40.95L109.125,40.875L109.2,40.8L109.275,40.724999999999994L109.35,40.650000000000006L109.42500000000001,40.57499999999999L109.50000000000001,40.499999999999986L109.57499999999999,40.42500000000001L109.65000000000002,40.34999999999998L109.725,40.275000000000006L109.8,40.2L109.875,40.125L109.95,40.05L110.025,39.974999999999994L110.1,39.900000000000006L110.17500000000001,39.82499999999999L110.25,39.75L110.325,39.675L110.39999999999999,39.60000000000001L110.47500000000001,39.52499999999999L110.55,39.45L110.625,39.375L110.7,39.3L110.77499999999999,39.22500000000001L110.85000000000001,39.14999999999999L110.925,39.075L111,39L111.075,38.925L111.15,38.849999999999994L111.22500000000001,38.77499999999999L111.3,38.7L111.37500000000001,38.624999999999986L111.45,38.55L111.525,38.474999999999994L111.6,38.400000000000006L111.67500000000001,38.32499999999999L111.75,38.25L111.825,38.175L111.9,38.099999999999994L111.975,38.025000000000006L112.05000000000001,37.94999999999999L112.12499999999999,37.875000000000014L112.2,37.8L112.27499999999999,37.72500000000001L112.35,37.650000000000006L112.42500000000001,37.57499999999999L112.5,37.5L112.57499999999999,37.42500000000001L112.65,37.349999999999994L112.72500000000001,37.27499999999999L112.8,37.2L112.87500000000001,37.124999999999986L112.95,37.05L113.025,36.974999999999994L113.1,36.900000000000006L113.175,36.825L113.25000000000001,36.749999999999986L113.32499999999999,36.67500000000001L113.4,36.599999999999994L113.475,36.525000000000006L113.55,36.45L113.62500000000001,36.374999999999986L113.7,36.3L113.77499999999999,36.22500000000001L113.85,36.150000000000006L113.92500000000001,36.07499999999999L114,36L114.075,35.925L114.14999999999999,35.85000000000001L114.22500000000001,35.77499999999999L114.3,35.7L114.375,35.625L114.45,35.55L114.52499999999999,35.47500000000001L114.60000000000001,35.39999999999999L114.675,35.325L114.75,35.25L114.82500000000002,35.17499999999998L114.9,35.099999999999994L114.975,35.025000000000006L115.05,34.95L115.12500000000001,34.874999999999986L115.2,34.8L115.275,34.724999999999994L115.34999999999998,34.65000000000002L115.42500000000001,34.57499999999999L115.5,34.5L115.57499999999999,34.42500000000001L115.65,34.349999999999994L115.725,34.275000000000006L115.8,34.2L115.875,34.125L115.95,34.05L116.02499999999999,33.97500000000001L116.10000000000001,33.89999999999999L116.175,33.825L116.25,33.75L116.32499999999999,33.67500000000001L116.4,33.599999999999994L116.47500000000001,33.52499999999999L116.54999999999998,33.45000000000002L116.62500000000001,33.374999999999986L116.7,33.3L116.77499999999999,33.22500000000001L116.85000000000001,33.14999999999999L116.925,33.075L117,33L117.07499999999999,32.92500000000001L117.15,32.849999999999994L117.225,32.775000000000006L117.30000000000001,32.69999999999999L117.375,32.625L117.45,32.55L117.52499999999999,32.47500000000001L117.60000000000001,32.39999999999999L117.67500000000001,32.32499999999999L117.74999999999999,32.250000000000014L117.82500000000002,32.17499999999998L117.89999999999999,32.10000000000001L117.975,32.025000000000006L118.05000000000001,31.94999999999999L118.125,31.875L118.2,31.799999999999997L118.27499999999999,31.72500000000001L118.35000000000001,31.64999999999999L118.425,31.575000000000003L118.5,31.5L118.575,31.424999999999997L118.65,31.349999999999994L118.725,31.275000000000006L118.80000000000001,31.19999999999999L118.87500000000001,31.124999999999986L118.94999999999999,31.05000000000001L119.02500000000002,30.97499999999998L119.1,30.900000000000006L119.175,30.825000000000003L119.25,30.75L119.325,30.674999999999997L119.4,30.599999999999994L119.475,30.525000000000006L119.55000000000001,30.44999999999999L119.625,30.375L119.7,30.299999999999997L119.77499999999999,30.22500000000001L119.85000000000001,30.14999999999999L119.925,30.075000000000003L120,30L120.07499999999999,29.92500000000001L120.14999999999999,29.85000000000001L120.22500000000001,29.77499999999999L120.3,29.700000000000003L120.375,29.625L120.45000000000002,29.549999999999983L120.525,29.474999999999994L120.6,29.400000000000006L120.675,29.325000000000003L120.75000000000001,29.249999999999986L120.825,29.174999999999997L120.9,29.099999999999994L120.975,29.025000000000006L121.05000000000001,28.94999999999999L121.12499999999999,28.875000000000014L121.2,28.799999999999997L121.27500000000002,28.72499999999998L121.35,28.650000000000006L121.42500000000001,28.57499999999999L121.49999999999999,28.500000000000014L121.575,28.424999999999997L121.64999999999999,28.35000000000001L121.725,28.275000000000006L121.80000000000001,28.19999999999999L121.875,28.125L121.94999999999999,28.05000000000001L122.025,27.974999999999994L122.10000000000001,27.89999999999999L122.175,27.825000000000003L122.25000000000001,27.749999999999986L122.32500000000002,27.674999999999983L122.4,27.599999999999994L122.47499999999998,27.52500000000002L122.55,27.450000000000003L122.62500000000001,27.374999999999986L122.69999999999999,27.30000000000001L122.775,27.224999999999994L122.85,27.150000000000006L122.925,27.075000000000003L122.99999999999999,27.000000000000014L123.075,26.924999999999997L123.15,26.849999999999994L123.225,26.775000000000006L123.30000000000001,26.69999999999999L123.375,26.625L123.45,26.549999999999997L123.52499999999999,26.47500000000001L123.60000000000001,26.39999999999999L123.67500000000001,26.32499999999999L123.75,26.25L123.82499999999999,26.17500000000001L123.89999999999999,26.10000000000001L123.97500000000001,26.02499999999999L124.05,25.950000000000003L124.125,25.875L124.20000000000002,25.799999999999983L124.275,25.724999999999994L124.35,25.650000000000006L124.425,25.575000000000003L124.50000000000001,25.499999999999986L124.575,25.424999999999997L124.65,25.349999999999994L124.72499999999998,25.27500000000002L124.80000000000001,25.19999999999999L124.87499999999999,25.125000000000014L124.94999999999999,25.05000000000001L125.02500000000002,24.97499999999998L125.1,24.900000000000006L125.175,24.825000000000003L125.25,24.75L125.325,24.674999999999997L125.39999999999999,24.60000000000001L125.47500000000001,24.52499999999999L125.55000000000001,24.44999999999999L125.625,24.375L125.69999999999997,24.300000000000026L125.775,24.224999999999994L125.85000000000001,24.14999999999999L125.92499999999998,24.075000000000017L126.00000000000001,23.999999999999986L126.07500000000002,23.924999999999983L126.14999999999999,23.85000000000001L126.225,23.775000000000006L126.3,23.700000000000003L126.375,23.625L126.44999999999999,23.55000000000001L126.525,23.474999999999994L126.6,23.400000000000006L126.67500000000001,23.32499999999999L126.75,23.25L126.825,23.174999999999997L126.9,23.099999999999994L126.97500000000001,23.02499999999999L127.05000000000001,22.94999999999999L127.12499999999999,22.875000000000014L127.20000000000002,22.799999999999983L127.27499999999999,22.72500000000001L127.35,22.650000000000006L127.42500000000003,22.574999999999974L127.5,22.5L127.57499999999999,22.42500000000001L127.64999999999999,22.35000000000001L127.72500000000001,22.27499999999999L127.8,22.200000000000003L127.875,22.125L127.95000000000002,22.049999999999983L128.025,21.974999999999994L128.1,21.900000000000006L128.175,21.82499999999999L128.25,21.75L128.325,21.67500000000001L128.4,21.599999999999994L128.475,21.525000000000006L128.55,21.44999999999999L128.625,21.375L128.7,21.30000000000001L128.775,21.224999999999994L128.85,21.150000000000006L128.925,21.07499999999999L129,21L129.07500000000002,20.924999999999983L129.15,20.849999999999994L129.225,20.775000000000006L129.3,20.69999999999999L129.375,20.625L129.45,20.55000000000001L129.52499999999998,20.475000000000023L129.60000000000002,20.399999999999977L129.67499999999998,20.325000000000017L129.75,20.25L129.82500000000002,20.174999999999983L129.9,20.099999999999994L129.975,20.025000000000006L130.05,19.94999999999999L130.125,19.875L130.2,19.80000000000001L130.275,19.724999999999994L130.35,19.650000000000006L130.425,19.57499999999999L130.49999999999997,19.50000000000003L130.57500000000002,19.424999999999983L130.65,19.349999999999994L130.725,19.275000000000006L130.8,19.19999999999999L130.875,19.125L130.95,19.05000000000001L131.02499999999998,18.975000000000023L131.1,18.900000000000006L131.175,18.82499999999999L131.25,18.75L131.325,18.67500000000001L131.4,18.599999999999994L131.47500000000002,18.524999999999977L131.55,18.44999999999999L131.625,18.375L131.70000000000002,18.299999999999983L131.775,18.224999999999994L131.85,18.150000000000006L131.92499999999998,18.075000000000017L132.00000000000003,17.99999999999997L132.075,17.92500000000001L132.15,17.849999999999994L132.225,17.775000000000006L132.3,17.69999999999999L132.375,17.625L132.45,17.55000000000001L132.525,17.474999999999994L132.6,17.400000000000006L132.675,17.32499999999999L132.75,17.25L132.82500000000002,17.174999999999983L132.89999999999998,17.100000000000023L132.97500000000002,17.024999999999977L133.05,16.94999999999999L133.125,16.875L133.2,16.80000000000001L133.275,16.724999999999994L133.35,16.650000000000006L133.42499999999998,16.575000000000017L133.5,16.5L133.57500000000002,16.424999999999983L133.65,16.349999999999994L133.725,16.275000000000006L133.8,16.19999999999999L133.875,16.125L133.95,16.05000000000001L134.025,15.974999999999994L134.1,15.900000000000006L134.175,15.824999999999989L134.25,15.75L134.325,15.675000000000011L134.4,15.599999999999994L134.475,15.525000000000006L134.55,15.449999999999989L134.625,15.375L134.70000000000002,15.299999999999983L134.775,15.224999999999994L134.85,15.150000000000006L134.925,15.074999999999989L135,15L135.075,14.925000000000011L135.15,14.849999999999994L135.22500000000002,14.774999999999977L135.29999999999998,14.700000000000017L135.375,14.625L135.45000000000002,14.549999999999983L135.525,14.474999999999994L135.6,14.400000000000006L135.67499999999998,14.325000000000017L135.75,14.25L135.825,14.175000000000011L135.9,14.099999999999994L135.97500000000002,14.024999999999977L136.05,13.949999999999989L136.125,13.875L136.20000000000002,13.799999999999983L136.275,13.724999999999994L136.35,13.650000000000006L136.42499999999998,13.575000000000017L136.5,13.5L136.57500000000002,13.424999999999983L136.64999999999998,13.350000000000023L136.725,13.275000000000006L136.8,13.199999999999989L136.875,13.125L136.95,13.050000000000011L137.025,12.974999999999994L137.1,12.900000000000006L137.17499999999998,12.825000000000017L137.25,12.75L137.32500000000002,12.674999999999983L137.4,12.599999999999994L137.475,12.525000000000006L137.55,12.449999999999989L137.625,12.375L137.7,12.300000000000011L137.775,12.224999999999994L137.85000000000002,12.149999999999977L137.925,12.074999999999989L138,12L138.075,11.925000000000011L138.15,11.849999999999994L138.225,11.775000000000006L138.29999999999998,11.700000000000017L138.375,11.625L138.45000000000002,11.549999999999983L138.525,11.474999999999994L138.6,11.400000000000006L138.675,11.324999999999989L138.75,11.25L138.825,11.175000000000011L138.89999999999998,11.100000000000023L138.97500000000002,11.024999999999977L139.04999999999998,10.950000000000017L139.125,10.875L139.20000000000002,10.799999999999983L139.275,10.724999999999994L139.35,10.650000000000006L139.425,10.574999999999989L139.5,10.5L139.575,10.425000000000011L139.65,10.349999999999994L139.72500000000002,10.274999999999977L139.8,10.199999999999989L139.87499999999997,10.125000000000028L139.95000000000002,10.049999999999983L140.025,9.974999999999994L140.1,9.900000000000006L140.17499999999998,9.825000000000017L140.25000000000003,9.749999999999972L140.325,9.675000000000011L140.39999999999998,9.600000000000023L140.475,9.525000000000006L140.55,9.449999999999989L140.625,9.375L140.7,9.300000000000011L140.775,9.224999999999994L140.85000000000002,9.149999999999977L140.925,9.074999999999989L141,9L141.07500000000002,8.924999999999983L141.15,8.849999999999994L141.225,8.775000000000006L141.29999999999998,8.700000000000017L141.37500000000003,8.624999999999972L141.45,8.550000000000011L141.525,8.474999999999994L141.60000000000002,8.399999999999977L141.675,8.324999999999989L141.75,8.25L141.825,8.175000000000011L141.9,8.099999999999994L141.975,8.025000000000006L142.04999999999998,7.950000000000017L142.12500000000003,7.874999999999972L142.20000000000002,7.799999999999983L142.27499999999998,7.725000000000023L142.35000000000002,7.649999999999977L142.425,7.574999999999989L142.5,7.5L142.575,7.425000000000011L142.65,7.349999999999994L142.725,7.275000000000006L142.79999999999998,7.200000000000017L142.875,7.125L142.95000000000002,7.049999999999983L143.025,6.974999999999994L143.1,6.900000000000006L143.175,6.824999999999989L143.25,6.75L143.325,6.675000000000011L143.4,6.599999999999994L143.47500000000002,6.524999999999977L143.55,6.449999999999989L143.625,6.375L143.7,6.300000000000011L143.775,6.224999999999994L143.85,6.150000000000006L143.92499999999998,6.075000000000017L144.00000000000003,5.999999999999972L144.07500000000002,5.924999999999983L144.15,5.849999999999994L144.225,5.775000000000006L144.3,5.699999999999989L144.375,5.625L144.45,5.550000000000011L144.525,5.474999999999994L144.60000000000002,5.399999999999977L144.67499999999998,5.325000000000017L144.75,5.25L144.82500000000002,5.174999999999983L144.9,5.099999999999994L144.975,5.025000000000006L145.04999999999998,4.950000000000017L145.125,4.875L145.2,4.800000000000011L145.275,4.724999999999994L145.35000000000002,4.649999999999977L145.425,4.574999999999989L145.5,4.5L145.57500000000002,4.424999999999983L145.65,4.349999999999994L145.725,4.275000000000006L145.79999999999998,4.200000000000017L145.87500000000003,4.124999999999972L145.95000000000002,4.049999999999983L146.02499999999998,3.9750000000000227L146.1,3.9000000000000057L146.175,3.8249999999999886L146.25,3.75L146.325,3.6750000000000114L146.4,3.5999999999999943L146.475,3.5250000000000057L146.54999999999998,3.450000000000017L146.625,3.375L146.70000000000002,3.299999999999983L146.775,3.2249999999999943L146.85,3.1500000000000057L146.925,3.0749999999999886L147,3L147.075,2.9250000000000114L147.15,2.8499999999999943L147.22500000000002,2.7749999999999773L147.3,2.6999999999999886L147.375,2.625L147.45,2.5500000000000114L147.525,2.4749999999999943L147.6,2.4000000000000057L147.67499999999998,2.325000000000017L147.75000000000003,2.2499999999999716L147.82500000000002,2.174999999999983L147.9,2.0999999999999943L147.975,2.0250000000000057L148.05,1.9499999999999886L148.125,1.875L148.2,1.8000000000000114L148.27499999999998,1.7250000000000227L148.35000000000002,1.6499999999999773L148.42499999999998,1.575000000000017L148.5,1.5L148.57500000000002,1.424999999999983L148.65,1.3499999999999943L148.725,1.2750000000000057L148.8,1.1999999999999886L148.875,1.125L148.95,1.0500000000000114L149.025,0.9749999999999943L149.10000000000002,0.8999999999999773L149.175,0.8249999999999886L149.24999999999997,0.7500000000000284L149.32500000000002,0.674999999999983L149.4,0.5999999999999943L149.475,0.5250000000000057L149.54999999999998,0.45000000000001705L149.62500000000003,0.3749999999999716L149.7,0.30000000000001137L149.77499999999998,0.22500000000002274L149.85,0.15000000000000568L149.925,0.07499999999998863L150,0"
          stroke="lightblue" stroke-width="3" fill="none"/>
</svg>