<?xml version="1.0" standalone="no"?>
<svg xmlns="http://www.w3.org/2000/svg" id="svg_6" width="150" height="150" style="background-color: rgb(58, 58, 58);">
    <g transform="translate( 75, 0)" class="axis" fill="none" font-size="10" font-family="sans-serif" text-anchor="end">
        <path class="domain" stroke="#000" d="M0,150.5H0.5V0.5H0" style="stroke: orange; stroke-width: 0.5;"/>
    </g>
    <g transform="translate( 0,112.5)" class="axis" fill="none" font-size="10" font-family="sans-serif"
       text-anchor="middle">
        <path class="domain" stroke="#000" d="M0.5,0V0.5H150.5V0" style="stroke: orange; stroke-width: 0.5;"/>
    </g>
    <path d="M-75,112.49659515984732L-74.85,112.49656094220398L-74.7,112.4965263806993L-74.55000000000001,112.49649147187807L-74.40000000000002,112.49645621225034L-74.25000000000001,112.49642059829111L-74.1,112.49638462643999L-73.95,112.49634829310077L-73.8,112.49631159464116L-73.65,112.49627452739236L-73.5,112.49623708764872L-73.35000000000001,112.49619927166734L-73.20000000000002,112.49616107566774L-73.05000000000001,112.49612249583146L-72.89999999999999,112.49608352830168L-72.75,112.4960441691828L-72.6,112.49600441454015L-72.45,112.49596426039949L-72.30000000000001,112.49592370274665L-72.15,112.49588273752715L-72.00000000000001,112.49584136064578L-71.85000000000001,112.4957995679662L-71.69999999999999,112.49575735531047L-71.55,112.49571471845876L-71.39999999999999,112.49567165314878L-71.25,112.49562815507542L-71.10000000000001,112.49558421989039L-70.95,112.49553984320166L-70.80000000000001,112.49549502057312L-70.65,112.49544974752405L-70.50000000000001,112.49540401952875L-70.35,112.49535783201608L-70.19999999999999,112.49531118036893L-70.05,112.49526405992387L-69.9,112.49521646597057L-69.75,112.49516839375138L-69.60000000000001,112.49511983846097L-69.45000000000002,112.49507079524555L-69.30000000000001,112.49502125920276L-69.14999999999999,112.49497122538088L-69,112.49492068877852L-68.85,112.49486964434399L-68.7,112.4948180869749L-68.55,112.49476601151761L-68.4,112.49471341276667L-68.25000000000001,112.49466028546439L-68.10000000000001,112.49460662430027L-67.94999999999999,112.49455242391045L-67.8,112.49449767887717L-67.64999999999999,112.49444238372828L-67.5,112.4943865329367L-67.35000000000001,112.49433012091978L-67.2,112.49427314203881L-67.05000000000001,112.49421559059846L-66.9,112.49415746084617L-66.75000000000001,112.49409874697164L-66.6,112.4940394431062L-66.44999999999999,112.49397954332221L-66.3,112.49391904163252L-66.15,112.49385793198982L-66.00000000000001,112.49379620828611L-65.85000000000001,112.49373386435202L-65.7,112.49367089395619L-65.55000000000001,112.4936072908047L-65.39999999999999,112.49354304854043L-65.24999999999999,112.4934781607424L-65.1,112.49341262092514L-64.95,112.49334642253807L-64.80000000000001,112.49327955896479L-64.65,112.49321202352243L-64.50000000000001,112.49314380946109L-64.35000000000001,112.49307490996301L-64.19999999999999,112.49300531814197L-64.05,112.49293502704262L-63.9,112.49286402963972L-63.75,112.49279231883753L-63.60000000000001,112.49271988746904L-63.45,112.4926467282952L-63.300000000000004,112.49257283400433L-63.15000000000001,112.49249819721135L-63.000000000000014,112.49242281045692L-62.84999999999999,112.49234666620687L-62.699999999999996,112.49226975685136L-62.55,112.4921920747041L-62.400000000000006,112.49211361200167L-62.25000000000001,112.49203436090264L-62.10000000000001,112.49195431348684L-61.95000000000001,112.49187346175462L-61.80000000000001,112.49179179762595L-61.64999999999999,112.49170931293972L-61.49999999999999,112.49162599945278L-61.349999999999994,112.4915418488393L-61.2,112.49145685268981L-61.050000000000004,112.4913710025104L-60.900000000000006,112.49128428972189L-60.750000000000014,112.49119670565892L-60.600000000000016,112.49110824156917L-60.44999999999999,112.49101888861239L-60.3,112.49092863785962L-60.15,112.49083748029224L-60,112.49074540680104L-59.85,112.49065240818537L-59.7,112.49055847515224L-59.55000000000001,112.4904635983153L-59.40000000000001,112.49036776819402L-59.25000000000002,112.49027097521261L-59.099999999999994,112.49017320969924L-58.949999999999996,112.49007446188487L-58.800000000000004,112.48997472190248L-58.650000000000006,112.48987397978593L-58.5,112.48977222546904L-58.35000000000001,112.48966944878458L-58.20000000000001,112.48956563946325L-58.05000000000002,112.48946078713266L-57.89999999999999,112.48935488131627L-57.74999999999999,112.4892479114324L-57.6,112.48913986679312L-57.45,112.48903073660321L-57.300000000000004,112.48892050995909L-57.150000000000006,112.4888091758477L-57.00000000000001,112.48869672314552L-56.850000000000016,112.48858314061724L-56.69999999999999,112.48846841691486L-56.54999999999999,112.48835254057644L-56.4,112.48823550002498L-56.25,112.4881172835673L-56.1,112.48799787939285L-55.95000000000001,112.48787727557249L-55.80000000000001,112.4877554600574L-55.65000000000001,112.48763242067778L-55.500000000000014,112.4875081451417L-55.349999999999994,112.48738262103387L-55.199999999999996,112.48725583581438L-55.05,112.48712777681746L-54.9,112.48699843125023L-54.75000000000001,112.4868677861914L-54.60000000000001,112.48673582859L-54.45000000000002,112.4866025452641L-54.30000000000001,112.4864679228995L-54.14999999999999,112.4863319480483L-54,112.48619460712774L-53.849999999999994,112.48605588641868L-53.699999999999996,112.48591577206432L-53.550000000000004,112.48577425006883L-53.400000000000006,112.4856313062959L-53.250000000000014,112.48548692646739L-53.100000000000016,112.4853410961619L-52.94999999999999,112.48519380081325L-52.8,112.48504502570917L-52.65,112.48489475598971L-52.5,112.48474297664586L-52.35,112.48458967251798L-52.2,112.48443482829433L-52.05000000000001,112.48427842850953L-51.90000000000001,112.48412045754307L-51.749999999999986,112.48396089961766L-51.599999999999994,112.48379973879776L-51.449999999999996,112.48363695898792L-51.3,112.48347254393124L-51.150000000000006,112.48330647720768L-51.00000000000001,112.48313874223251L-50.85000000000001,112.4829693222546L-50.70000000000001,112.48279820035475L-50.55000000000001,112.4826253594441L-50.39999999999999,112.48245078226228L-50.24999999999999,112.48227445137583L-50.099999999999994,112.48209634917637L-49.95,112.48191645787895L-49.800000000000004,112.48173475952012L-49.65000000000001,112.48155123595635L-49.500000000000014,112.48136586886204L-49.35000000000001,112.48117863972787L-49.199999999999996,112.48098952985877L-49.05,112.48079852037222L-48.89999999999999,112.48060559219631L-48.75,112.48041072606782L-48.6,112.48021390253038L-48.45000000000001,112.48001510193245L-48.30000000000001,112.47981430442542L-48.15000000000001,112.47961148996166L-47.99999999999999,112.4794066382924L-47.849999999999994,112.47919972896594L-47.699999999999996,112.47899074132539L-47.55,112.47877965450675L-47.4,112.47856644743686L-47.25000000000001,112.47835109883115L-47.10000000000001,112.4781335871917L-46.95000000000001,112.47791389080501L-46.80000000000002,112.47769198773989L-46.64999999999999,112.47746785584522L-46.49999999999999,112.47724147274783L-46.35,112.47701281585022L-46.2,112.47678186232834L-46.050000000000004,112.47654858912932L-45.900000000000006,112.47631297296917L-45.75000000000001,112.47607499033049L-45.600000000000016,112.47583461746015L-45.44999999999999,112.47559183036688L-45.29999999999999,112.47534660481892L-45.15,112.47509891634161L-45,112.47484874021501L-44.85000000000001,112.47459605147137L-44.7,112.47434082489264L-44.55,112.4740830350081L-44.4,112.47382265609176L-44.25000000000001,112.47355966215966L-44.10000000000001,112.47329402696758L-43.95,112.47302572400821L-43.8,112.47275472650864L-43.650000000000006,112.47248100742765L-43.50000000000001,112.47220453945302L-43.35000000000001,112.4719252949989L-43.199999999999996,112.47164324620297L-43.050000000000004,112.47135836492379L-42.900000000000006,112.4710706227379L-42.75000000000001,112.47077999093709L-42.599999999999994,112.47048644052552L-42.45,112.47018994221683L-42.300000000000004,112.46989046643128L-42.150000000000006,112.46958798329283L-41.99999999999999,112.46928246262604L-41.85,112.46897387395333L-41.7,112.46866218649174L-41.550000000000004,112.46834736915L-41.4,112.46802939052537L-41.25,112.46770821890067L-41.1,112.46738382224092L-40.95,112.46705616819044L-40.8,112.46672522406942L-40.650000000000006,112.4663909568708L-40.5,112.46605333325697L-40.35,112.46571231955646L-40.199999999999996,112.4653678817607L-40.050000000000004,112.46501998552048L-39.900000000000006,112.46466859614279L-39.75,112.46431367858712L-39.60000000000001,112.46395519746224L-39.45,112.4635931170225L-39.300000000000004,112.46322740116449L-39.15,112.46285801342331L-39.00000000000001,112.46248491696903L-38.85,112.46210807460307L-38.7,112.46172744875449L-38.550000000000004,112.4613430014763L-38.400000000000006,112.46095469444168L-38.25,112.46056248894024L-38.1,112.4601663458742L-37.95,112.45976622575444L-37.80000000000001,112.45936208869671L-37.65,112.45895389441763L-37.5,112.45854160223072L-37.35,112.45812517104245L-37.20000000000001,112.45770455934809L-37.05,112.45727972522761L-36.9,112.45685062634169L-36.75,112.45641721992737L-36.60000000000001,112.45597946279395L-36.449999999999996,112.45553731131861L-36.3,112.4550907214423L-36.150000000000006,112.4546396486652L-36.00000000000001,112.45418404804242L-35.85000000000001,112.45372387417962L-35.699999999999996,112.4532590812284L-35.550000000000004,112.45278962288195L-35.400000000000006,112.45231545237036L-35.25000000000001,112.45183652245605L-35.099999999999994,112.45135278542915L-34.95,112.45086419310276L-34.800000000000004,112.45037069680822L-34.650000000000006,112.44987224739035L-34.5,112.44936879520253L-34.35,112.44886029010195L-34.2,112.4483466814445L-34.050000000000004,112.44782791807998L-33.9,112.44730394834687L-33.75,112.44677472006745L-33.6,112.44624018054252L-33.45,112.44570027654628L-33.3,112.44515495432105L-33.15,112.44460415957212L-33.00000000000001,112.44404783746225L-32.85,112.44348593260636L-32.699999999999996,112.44291838906611L-32.55,112.44234515034438L-32.400000000000006,112.44176615937968L-32.25000000000001,112.44118135854067L-32.10000000000001,112.44059068962036L-31.95,112.4399940938305L-31.800000000000004,112.43939151179579L-31.650000000000002,112.43878288354799L-31.500000000000007,112.43816814852013L-31.349999999999998,112.43754724554054L-31.200000000000003,112.43692011282684L-31.050000000000004,112.43628668797987L-30.900000000000006,112.43564690797763L-30.749999999999996,112.43500070916906L-30.6,112.4343480272678L-30.450000000000003,112.43368879734595L-30.300000000000008,112.43302295382765L-30.15,112.43235043048264L-30,112.43167116041995L-29.85,112.4309850760811L-29.700000000000006,112.43029210923369L-29.549999999999997,112.42959219096466L-29.400000000000002,112.42888525167348L-29.25,112.42817122106547L-29.100000000000005,112.42745002814492L-28.949999999999996,112.426721601208L-28.8,112.42598586783592L-28.650000000000002,112.42524275488783L-28.500000000000004,112.42449218849359L-28.35000000000001,112.42373409404661L-28.2,112.42296839619664L-28.05,112.4221950188423L-27.900000000000006,112.42141388512371L-27.750000000000007,112.42062491741504L-27.599999999999998,112.41982803731685L-27.45,112.4190231656485L-27.300000000000004,112.41821022244042L-27.150000000000006,112.41738912692637L-27,112.41655979753548L-26.849999999999998,112.41572215188438L-26.700000000000003,112.41487610676914L-26.550000000000008,112.41402157815725L-26.4,112.41315848117927L-26.25,112.41228673012083L-26.1,112.41140623841406L-25.950000000000006,112.4105169186293L-25.799999999999997,112.40961868246657L-25.65,112.40871144074703L-25.500000000000004,112.4077951034042L-25.350000000000005,112.40686957947538L-25.199999999999996,112.40593477709274L-25.049999999999997,112.40499060347435L-24.900000000000002,112.40403696491526L-24.750000000000007,112.40307376677845L-24.60000000000001,112.4021009134855L-24.449999999999996,112.40111830850745L-24.3,112.40012585435547L-24.150000000000006,112.3991234525713L-24.000000000000007,112.39811100371783L-23.849999999999998,112.39708840736941L-23.7,112.39605556210215L-23.550000000000004,112.39501236548412L-23.40000000000001,112.39395871406545L-23.249999999999996,112.39289450336831L-23.1,112.3918196278768L-22.950000000000003,112.39073398102686L-22.800000000000008,112.38963745519578L-22.649999999999995,112.38852994169207L-22.5,112.38741133074473L-22.35,112.38628151149283L-22.200000000000006,112.38514037197476L-22.049999999999994,112.38398779911739L-21.9,112.38282367872533L-21.750000000000004,112.38164789546971L-21.600000000000005,112.38046033287728L-21.449999999999996,112.37926087331907L-21.299999999999997,112.37804939799916L-21.150000000000002,112.37682578694321L-21.000000000000007,112.37558991898692L-20.85000000000001,112.37434167176443L-20.7,112.37308092169653L-20.55,112.3718075439788L-20.400000000000006,112.37052141256972L-20.25000000000001,112.3692224001784L-20.099999999999998,112.36791037825253L-19.950000000000003,112.36658521696606L-19.800000000000004,112.36524678520661L-19.65000000000001,112.36389495056314L-19.499999999999996,112.36252957931305L-19.35,112.36115053640955L-19.200000000000003,112.3597576854687L-19.050000000000008,112.35835088875633L-18.899999999999995,112.35693000717497L-18.75,112.35549490025045L-18.600000000000005,112.35404542611857L-18.450000000000006,112.35258144151163L-18.299999999999997,112.35110280174462L-18.15,112.34960936070146L-18.000000000000004,112.34810097082126L-17.850000000000005,112.34657748308402L-17.699999999999996,112.34503874699658L-17.549999999999997,112.34348461057834L-17.400000000000002,112.34191492034677L-17.250000000000004,112.34032952130269L-17.10000000000001,112.33872825691581L-16.95,112.33711096910972L-16.8,112.33547749824685L-16.650000000000006,112.33382768311346L-16.500000000000007,112.33216136090428L-16.349999999999998,112.33047836720712L-16.200000000000003,112.32877853598727L-16.050000000000004,112.32706169957189L-15.900000000000007,112.32532768863399L-15.749999999999996,112.32357633217663L-15.600000000000001,112.32180745751663L-15.450000000000003,112.32002089026827L-15.300000000000008,112.31821645432694L-15.149999999999997,112.31639397185248L-15,112.31455326325239L-14.850000000000003,112.31269414716498L-14.700000000000006,112.31081644044227L-14.549999999999997,112.3089199581328L-14.4,112.30700451346422L-14.250000000000002,112.30506991782575L-14.100000000000007,112.30311598075048L-13.949999999999996,112.30114250989755L-13.799999999999999,112.29914931103403L-13.650000000000002,112.2971361880168L-13.500000000000005,112.29510294277418L-13.349999999999994,112.29304937528738L-13.2,112.29097528357184L-13.05,112.28888046365827L-12.900000000000006,112.28676470957379L-12.750000000000007,112.28462781332247L-12.599999999999998,112.28246956486618L-12.450000000000001,112.28028975210489L-12.300000000000004,112.27808816085695L-12.150000000000007,112.2758645748392L-11.999999999999998,112.27361877564687L-11.85,112.27135054273322L-11.700000000000005,112.2690596533892L-11.550000000000006,112.26674588272272L-11.399999999999997,112.2644090036378L-11.25,112.26204878681361L-11.100000000000003,112.25966500068324L-10.950000000000006,112.25725741141224L-10.799999999999997,112.2548257828771L-10.649999999999999,112.25236987664343L-10.500000000000004,112.249889451944L-10.350000000000005,112.24738426565648L-10.199999999999996,112.2448540722812L-10.049999999999999,112.24229862391846L-9.900000000000002,112.2397176702458L-9.750000000000005,112.23711095849502L-9.599999999999996,112.23447823342902L-9.449999999999998,112.23181923731832L-9.300000000000002,112.22913370991763L-9.150000000000006,112.22642138844188L-9.000000000000007,112.2236820075423L-8.849999999999998,112.22091529928218L-8.700000000000001,112.21812099311244L-8.550000000000004,112.21529881584695L-8.400000000000007,112.21244849163769L-8.249999999999996,112.20956974194968L-8.100000000000001,112.2066622855356L-7.950000000000004,112.2037258384104L-7.800000000000007,112.20076011382544L-7.649999999999997,112.19776482224253L-7.5,112.19473967130779L-7.350000000000003,112.19168436582521L-7.200000000000006,112.18859860772996L-7.049999999999996,112.18548209606155L-6.8999999999999995,112.18233452693674L-6.750000000000003,112.17915559352213L-6.600000000000006,112.17594498600661L-6.449999999999996,112.17270239157355L-6.299999999999999,112.1694274943728L-6.150000000000002,112.16611997549224L-6.000000000000005,112.1627795129294L-5.849999999999995,112.15940578156268L-5.699999999999998,112.15599845312221L-5.550000000000002,112.15255719616064L-5.400000000000005,112.14908167602368L-5.250000000000008,112.14557155482034L-5.099999999999998,112.14202649139276L-4.950000000000001,112.13844614128612L-4.800000000000004,112.1348301567181L-4.6500000000000075,112.13117818654797L-4.499999999999997,112.12748987624573L-4.3500000000000005,112.1237648678607L-4.200000000000004,112.12000279999003L-4.050000000000007,112.11620330774689L-3.899999999999997,112.11236602272837L-3.75,112.10849057298311L-3.600000000000003,112.10457658297885L-3.4500000000000064,112.10062367356934L-3.2999999999999963,112.09663146196135L-3.1499999999999995,112.09259956168125L-3.0000000000000027,112.08852758254122L-2.850000000000006,112.08441513060545L-2.6999999999999957,112.08026180815577L-2.549999999999999,112.07606721365721L-2.400000000000002,112.07183094172325L-2.2500000000000053,112.06755258308064L-2.099999999999995,112.06323172453413L-1.9499999999999984,112.0588679489309L-1.8000000000000016,112.05446083512447L-1.6500000000000048,112.0500099579387L-1.500000000000008,112.04551488813121L-1.3499999999999979,112.0409751923565L-1.200000000000001,112.03639043312917L-1.0500000000000043,112.03176016878626L-0.9000000000000075,112.02708395344982L-0.7499999999999973,112.02236133698884L-0.6000000000000005,112.01759186498111L-0.45000000000000373,112.01277507867462L-0.30000000000000693,112.00791051494879L-0.1499999999999968,112.00299770627528L0,111.99803618067864L0.1499999999999968,111.9930254616965L0.2999999999999936,111.98796506833963L0.45000000000000373,111.98285451505154L0.6000000000000005,111.97769331166785L0.7499999999999973,111.97248096337538L0.8999999999999941,111.96721697067085L1.0500000000000043,111.96190082931939L1.200000000000001,111.95653203031264L1.3499999999999979,111.95111005982653L1.4999999999999947,111.94563439917886L1.6500000000000048,111.94010452478642L1.8000000000000016,111.93451990812198L1.9499999999999984,111.92888001567081L2.099999999999995,111.92318430888687L2.249999999999992,111.91743224414887L2.400000000000002,111.91162327271583L2.549999999999999,111.90575684068237L2.6999999999999957,111.89983238893379L2.8499999999999925,111.89384935310059L3.0000000000000027,111.887807163513L3.1499999999999995,111.88170524515488L3.2999999999999963,111.87554301761747L3.449999999999993,111.86931989505277L3.600000000000003,111.86303528612666L3.75,111.8566885939716L3.899999999999997,111.85027921613901L4.049999999999994,111.84380654455147L4.200000000000004,111.83726996545442L4.3500000000000005,111.83066885936765L4.499999999999997,111.82400260103641L4.649999999999994,111.81727055938224L4.800000000000004,111.81047209745338L4.950000000000001,111.80360657237509L5.099999999999998,111.79667333529923L5.249999999999995,111.78967173135405L5.400000000000005,111.78260109959312L5.550000000000002,111.7754607729444L5.699999999999998,111.76825007815864L5.849999999999995,111.76096833575765L5.999999999999992,111.75361485998218L6.150000000000002,111.74618895873945L6.299999999999999,111.73868993355055L6.449999999999996,111.7311170794971L6.5999999999999925,111.72346968516811L6.750000000000003,111.71574703260615L6.8999999999999995,111.70794839725326L7.049999999999996,111.70007304789675L7.199999999999993,111.6921202466144L7.350000000000003,111.68408924871946L7.5,111.67597930270551L7.649999999999997,111.66778965019068L7.799999999999994,111.65951952586178L7.950000000000004,111.65116815741808L8.100000000000001,111.64273476551469L8.249999999999996,111.63421856370583L8.399999999999993,111.62561875838752L8.550000000000004,111.6169345487402L8.700000000000001,111.60816512667097L8.849999999999998,111.59930967675544L8.999999999999995,111.59036737617943L9.150000000000006,111.58133739468026L9.300000000000002,111.57221889448782L9.449999999999998,111.56301103026527L9.599999999999996,111.55371294904961L9.749999999999993,111.54432379019164L9.900000000000002,111.53484268529607L10.049999999999999,111.52526875816099L10.199999999999996,111.51560112471729L10.349999999999993,111.5058388929676L10.500000000000004,111.49598116292515L10.649999999999999,111.48602702655228L10.799999999999997,111.4759755676987L10.949999999999992,111.4658258620394L11.100000000000003,111.45557697701247L11.25,111.4452279717566L11.399999999999997,111.43477789704818L11.549999999999994,111.42422579523839L11.700000000000005,111.41357070018998L11.85,111.40281163721369L11.999999999999998,111.39194762300451L12.149999999999995,111.38097766557794L12.300000000000004,111.36990076420554L12.450000000000001,111.35871590935078L12.599999999999998,111.34742208260434L12.749999999999995,111.33601825661933L12.900000000000006,111.32450339504635L13.05,111.31287645246826L13.2,111.3011363743348L13.349999999999994,111.28928209689711L13.500000000000005,111.27731254714193L13.650000000000002,111.26522664272576L13.799999999999999,111.25302329190887L13.949999999999996,111.24070139348896L14.099999999999993,111.22825983673494L14.250000000000002,111.21569750132042L14.4,111.2030132572571L14.549999999999997,111.19020596482801L14.699999999999992,111.1772744745208L14.850000000000003,111.16421762696059L15,111.15103425284313L15.149999999999997,111.13772317286757L15.3,111.12428319766926L15.449999999999998,111.11071312775255L15.600000000000001,111.0970117534234L15.749999999999996,111.08317785472207L15.900000000000002,111.06921020135565L16.049999999999997,111.05510755263063L16.200000000000003,111.04086865738552L16.349999999999998,111.02649225392335L16.500000000000004,111.01197706994418L16.65,110.99732182247777L16.8,110.98252521781609L16.95,110.96758595144604L17.1,110.95250270798203L17.25,110.93727416109897L17.400000000000002,110.92189897346488L17.549999999999997,110.90637579667398L17.699999999999996,110.89070327117975L17.849999999999998,110.87488002622797L17.999999999999996,110.85890467979021L18.15,110.84277583849723L18.299999999999997,110.82649209757258L18.45,110.81005204076645L18.599999999999994,110.7934542402897L18.75,110.77669725674808L18.899999999999995,110.7597796390767L19.05,110.74269992447472L19.199999999999996,110.7254566383404L19.35,110.70804829420629L19.499999999999996,110.69047339367481L19.650000000000002,110.67273042635416L19.799999999999997,110.65481786979453L19.950000000000003,110.63673418942471L20.099999999999998,110.61847783848901L20.25,110.60004725798461L20.4,110.58144087659943L20.55,110.56265711065019L20.7,110.54369436402128L20.85,110.52455102810373L20.999999999999996,110.50522548173507L21.150000000000002,110.48571609113927L21.299999999999997,110.46602120986778L21.449999999999996,110.44613917874057L21.599999999999998,110.42606832578826L21.749999999999993,110.40580696619452L21.9,110.3853534022393L22.049999999999994,110.36470592324271L22.2,110.3438628055095L22.349999999999994,110.32282231227444L22.5,110.30158269364827L22.649999999999995,110.28014218656456L22.8,110.25849901472728L22.949999999999996,110.23665138855931L23.1,110.21459750515169L23.249999999999996,110.19233554821389L23.4,110.16986368802495L23.549999999999997,110.14718008138546L23.7,110.12428287157077L23.849999999999998,110.10117018828501L24,110.0778401476162L24.149999999999995,110.05429085199258L24.3,110.03052039013977L24.449999999999996,110.00652683703944L24.6,109.98230825388882L24.749999999999996,109.95786268806164L24.900000000000002,109.9331881730703L25.049999999999997,109.90828272852926L25.199999999999996,109.88314436011974L25.349999999999998,109.85777105955589L25.499999999999996,109.83216080455229L25.65,109.80631155879288L25.799999999999997,109.78022127190138L25.95,109.75388787941327L26.099999999999998,109.72730930274923L26.25,109.70048344919029L26.4,109.67340821185456L26.549999999999997,109.6460814696756L26.7,109.6185010873826L26.849999999999998,109.5906649154823L27,109.56257079024267L27.15,109.53421653367852L27.3,109.50559995353896L27.45,109.47671884329681L27.599999999999998,109.44757098214001L27.75,109.41815413496514L27.9,109.3884660523728L28.05,109.35850447066555L28.2,109.32826711184745L28.35,109.29775168362646L28.5,109.26695587941853L28.650000000000002,109.23587737835459L28.8,109.2045138452894L28.949999999999996,109.17286293081327L29.1,109.14092227126599L29.249999999999996,109.10868948875344L29.400000000000002,109.07616219116673L29.549999999999997,109.04333797220403L29.700000000000003,109.01021441139514L29.849999999999998,108.97678907412873L30,108.94305951168249L30.15,108.9090232612561L30.3,108.8746778460071L30.45,108.84002077509001L30.6,108.805049543698L30.749999999999996,108.76976163310825L30.900000000000002,108.73415451073001L31.049999999999997,108.6982256301562L31.200000000000003,108.66197243121813L31.349999999999998,108.62539234004363L31.500000000000004,108.58848276911868L31.65,108.55124111735228L31.800000000000004,108.51366477014523L31.95,108.47575109946212L32.1,108.43749746390729L32.25,108.39890120880443L32.400000000000006,108.35995966627993L32.55,108.32067015535009L32.7,108.28102998201244L32.85,108.24103643934086L32.99999999999999,108.20068680758484L33.15,108.15997835427291L33.3,108.11890833432028L33.45,108.07747399014062L33.599999999999994,108.03567255176239L33.75,107.99350123694943L33.9,107.95095725132609L34.050000000000004,107.9080377885069L34.199999999999996,107.86474003023085L34.35,107.82106114650043L34.5,107.77699829572526L34.65,107.73254862487086L34.8,107.68770926961196L34.95,107.64247735449109L35.099999999999994,107.59684999308206L35.25,107.5508242881586L35.4,107.5043973318682L35.550000000000004,107.45756620591123L35.699999999999996,107.41032798172542L35.85,107.36267972067554L36,107.31461847424899L36.150000000000006,107.26614128425649L36.3,107.21724518303873L36.45,107.16792719367845L36.6,107.11818433021865L36.74999999999999,107.06801359788618L36.9,107.01741199332164L37.05,106.96637650481512L37.2,106.9149041125479L37.349999999999994,106.8629917888405L37.5,106.81063649840672L37.65,106.75783519861409L37.8,106.70458483975051L37.95,106.65088236529752L38.1,106.59672471220985L38.25,106.54210881120163L38.4,106.48703158703907L38.550000000000004,106.4314899588401L38.7,106.3754808403804L38.85,106.31900114040654L39,106.26204776295583L39.15,106.20461760768313L39.300000000000004,106.14670757019482L39.45,106.08831454238951L39.6,106.02943541280625L39.75,105.97006706697965L39.900000000000006,105.91020638780242L40.050000000000004,105.849850255895L40.2,105.7889955499829L40.35,105.72763914728101L40.49999999999999,105.66577792388578L40.650000000000006,105.60340875517467L40.8,105.54052851621323L40.95,105.47713408216981L41.099999999999994,105.41322232873804L41.25,105.34879013256679L41.4,105.28383437169803L41.550000000000004,105.21835192601259L41.699999999999996,105.15233967768346L41.85,105.08579451163729L41.99999999999999,105.01871331602361L42.150000000000006,104.95109298269199L42.3,104.88293040767725L42.45,104.8142224916927L42.599999999999994,104.74496614063128L42.75000000000001,104.6751582660749L42.9,104.60479578581177L43.050000000000004,104.53387562436183L43.199999999999996,104.46239471351039L43.35000000000001,104.39034999284974L43.5,104.31773841032903L43.650000000000006,104.24455692281228L43.8,104.17080249664444L43.95,104.09647210822573L44.099999999999994,104.02156274459408L44.25000000000001,103.94607140401568L44.4,103.86999509658376L44.55,103.79333084482539L44.699999999999996,103.71607568431646L44.85,103.63822666430478L45,103.55978084834118L45.15,103.48073531491869L45.3,103.40108715811974L45.45000000000001,103.32083348827133L45.6,103.2399714326082L45.75,103.15849813594376L45.9,103.07641076134908L46.050000000000004,102.99370649083944L46.2,102.9103825260689L46.35,102.82643608903233L46.49999999999999,102.74186442277517L46.65,102.65666479211075L46.8,102.57083448434508L46.95,102.48437081000907L47.099999999999994,102.39727110359789L47.25,102.30953272431793L47.4,102.22115305684054L47.55,102.13212951206295L47.699999999999996,102.04245952787625L47.85,101.95214056993994L48,101.86117013246341L48.15,101.76954573899394L48.29999999999999,101.6772649432111L48.45,101.5843253297276L48.6,101.49072451489631L48.75,101.39646014762329L48.89999999999999,101.30152991018673L49.050000000000004,101.2059315190617L49.2,101.10966272575055L49.35,101.01272131761853L49.49999999999999,100.91510511873489L49.650000000000006,100.81681199071895L49.800000000000004,100.71783983359104L49.95,100.61818658662831L50.099999999999994,100.51785022922482L50.24999999999999,100.41682878175611L50.39999999999999,100.3151203064478L50.550000000000004,100.21272290824808L50.699999999999996,100.1096347357039L50.849999999999994,100.00585398184053L50.99999999999999,99.90137888504434L51.150000000000006,99.7962077299486L51.3,99.69033884832191L51.449999999999996,99.58377061995918L51.599999999999994,99.47650147357461L51.75000000000001,99.36852988769701L51.9,99.25985439156625L52.05,99.15047356603151L52.199999999999996,99.04038604445049L52.35,98.92959051358935L52.5,98.81808571452328L52.65,98.70587044353718L52.8,98.59294355302633L52.95,98.47930395239652L53.099999999999994,98.36495060896354L53.25,98.24988254885153L53.4,98.13409885788994L53.550000000000004,98.01759868250878L53.699999999999996,97.90038123063167L53.849999999999994,97.78244577256656L54,97.66379164189364L54.15,97.54441823634987L54.3,97.4243250187103L54.449999999999996,97.30351151766521L54.6,97.18197732869312L54.75,97.05972211492895L54.9,96.93674560802732L55.05,96.81304760902026L55.199999999999996,96.68862798916896L55.35,96.56348669080955L55.5,96.4376237281919L55.65,96.31103918831141L55.8,96.18373323173344L55.95,96.05570609340963L56.1,95.92695808348591L56.25,95.79748958810184L56.4,95.66730107018051L56.55,95.53639307020904L56.7,95.40476620700878L56.85,95.27242117849514L57,95.13935876242633L57.15,95.00557981714071L57.300000000000004,94.87108528228235L57.45,94.73587617951415L57.6,94.59995361321828L57.74999999999999,94.46331877118334L57.9,94.32597292527785L58.050000000000004,94.18791743210977L58.2,94.0491537336711L58.349999999999994,93.90968335796777L58.5,93.76950791963382L58.650000000000006,93.62862912052982L58.800000000000004,93.48704875032467L58.949999999999996,93.34476868706071L59.1,93.20179089770144L59.25,93.05811743866155L59.400000000000006,92.91375045631868L59.55,92.76869218750652L59.7,92.62294495998891L59.85,92.47651119291432L60,92.32939339725036L60.15,92.18159417619799L60.3,92.0331162255847L60.45,91.88396233423674L60.6,91.73413538432924L60.74999999999999,91.58363835171474L60.9,91.43247430622878L61.050000000000004,91.28064641197294L61.2,91.12815792757422L61.349999999999994,90.97501220642113L61.49999999999999,90.82121269687529L61.650000000000006,90.66676294245899L61.800000000000004,90.51166658201757L61.949999999999996,90.35592734985683L62.099999999999994,90.19954907585486L62.25000000000001,90.04253568554796L62.400000000000006,89.8848912001904L62.55,89.72661973678755L62.699999999999996,89.56772550810228L62.84999999999999,89.40821282263411L63.00000000000001,89.24808608457093L63.15,89.08734979371303L63.3,88.92600854536903L63.45,88.76406703022366L63.60000000000001,88.60153003417693L63.75,88.43840243815448L63.9,88.27468921788923L64.05,88.11039544367351L64.2,87.94552628008203L64.35,87.78008698566515L64.5,87.61408291261246L64.64999999999999,87.44751950638653L64.80000000000001,87.28040230532645L64.95,87.11273694022142L65.1,86.9445291338539L65.24999999999999,86.77578470051242L65.4,86.60650954547393L65.55,86.43670966445583L65.7,86.26639114303703L65.85,86.09556015604878L66.00000000000001,85.92422296693465L66.15,85.75238592708014L66.3,85.5800554751113L66.44999999999999,85.40723813616314L66.6,85.23394052111747L66.75,85.06016932581005L66.9,84.88593133020763L67.05,84.71123339755462L67.2,84.53608247348967L67.35000000000001,84.3604855851322L67.5,84.18444984013908L67.64999999999999,84.00798242573175L67.8,83.83109060769367L67.95,83.65378172933866L68.10000000000001,83.47606321045015L68.25,83.29794254619165L68.39999999999999,83.11942730598858L68.55,82.94052513238204L68.7,82.76124373985448L68.85,82.58159091362774L69,82.40157450843391L69.15,82.22120244725909L69.3,82.0404827200607L69.44999999999999,81.8594233824585L69.6,81.67803255439989L69.75,81.49631841879976L69.9,81.31428922015556L70.05,81.13195326313772L70.19999999999999,80.9493189111562L70.35000000000001,80.76639458490347L70.5,80.58318876087442L70.64999999999999,80.39970996986389L70.8,80.21596679544218L70.95,80.03196787240907L71.10000000000001,79.84772188522719L71.25,79.66323756643486L71.39999999999999,79.47852369503947L71.55,79.29358909489169L71.7,79.10844263304111L71.85,78.9230932180744L72,78.73754979843584L72.14999999999999,78.5518213607317L72.30000000000001,78.3659169280185L72.45,78.17984555807632L72.6,77.99361634166743L72.75,77.80723840078122L72.9,77.62072088686608L73.05,77.4340729790489L73.2,77.24730388234288L73.35,77.06042282584453L73.5,76.8734390609205L73.65,76.686361859385L73.8,76.49920051166863L73.95,76.31196432497924L74.10000000000001,76.12466262145576L74.25,75.93730473631578L74.4,75.74990001599741L74.55,75.56245781629653L74.7,75.37498750049998L74.85,75.18749843751561L75,75L75.15,74.81250156248439L75.3,74.62501249950002L75.45,74.43754218370347L75.6,74.25009998400259L75.75,74.06269526368422L75.9,73.87533737854424L76.05,73.68803567502077L76.2,73.50079948833135L76.35,73.31363814061498L76.5,73.1265609390795L76.65,72.93957717415546L76.8,72.75269611765712L76.95,72.5659270209511L77.10000000000001,72.37927911313392L77.25,72.19276159921878L77.4,72.00638365833257L77.55,71.82015444192368L77.7,71.6340830719815L77.85000000000001,71.4481786392683L78,71.26245020156415L78.15,71.0769067819256L78.3,70.89155736695889L78.45,70.70641090510834L78.60000000000001,70.52147630496054L78.75,70.33676243356514L78.9,70.15227811477281L79.04999999999998,69.96803212759093L79.2,69.7840332045578L79.35000000000001,69.60029003013611L79.5,69.41681123912556L79.64999999999999,69.23360541509653L79.80000000000001,69.0506810888438L79.95,68.86804673686228L80.10000000000001,68.68571077984446L80.24999999999999,68.50368158120025L80.4,68.32196744560011L80.55000000000001,68.1405766175415L80.7,67.9595172799393L80.85,67.77879755274091L81,67.5984254915661L81.15,67.41840908637226L81.30000000000001,67.23875626014554L81.44999999999999,67.05947486761796L81.60000000000001,66.8805726940114L81.75,66.70205745380834L81.9,66.52393678954985L82.04999999999998,66.34621827066134L82.2,66.16890939230632L82.35000000000001,65.99201757426823L82.5,65.81555015986092L82.64999999999999,65.6395144148678L82.8,65.46391752651033L82.95,65.28876660244538L83.10000000000001,65.11406866979237L83.24999999999999,64.93983067418995L83.4,64.76605947888253L83.55000000000001,64.59276186383686L83.7,64.4199445248887L83.85,64.24761407291987L83.99999999999999,64.07577703306535L84.15,63.904439843951224L84.30000000000001,63.733608856962974L84.44999999999999,63.56329033554417L84.6,63.39349045452606L84.75000000000001,63.2242152994876L84.9,63.055470866146095L85.05,62.887263059778576L85.19999999999999,62.71959769467354L85.35000000000001,62.55248049361349L85.50000000000001,62.38591708738754L85.64999999999999,62.21991301433485L85.8,62.054473719917965L85.95,61.889604556326475L86.10000000000001,61.72531078211078L86.25,61.56159756184553L86.39999999999999,61.39846996582308L86.55,61.23593296977633L86.70000000000002,61.07399145463097L86.85,60.91265020628698L87,60.75191391542906L87.15,60.59178717736589L87.30000000000001,60.432274491897715L87.44999999999999,60.273380263212445L87.6,60.115108799809605L87.75,59.957464314452025L87.9,59.80045092414514L88.05,59.64407265014317L88.19999999999999,59.48833341798242L88.35,59.33323705754101L88.50000000000001,59.17878730312471L88.64999999999999,59.02498779357889L88.8,58.87184207242578L88.94999999999999,58.719353588027076L89.10000000000001,58.5675256937712L89.25,58.416361648285275L89.39999999999999,58.26586461567075L89.55,58.11603766576326L89.70000000000002,57.966883774415265L89.85,57.81840582380201L90,57.67060660274964L90.14999999999999,57.523488807085684L90.3,57.377055040011086L90.45,57.2313078124935L90.6,57.08624954368133L90.75,56.941882561338446L90.90000000000002,56.79820910229857L91.05,56.65523131293929L91.2,56.512951249675325L91.35,56.37137087947018L91.5,56.230492080366176L91.64999999999999,56.09031664203225L91.8,55.95084626632888L91.95,55.812082567890215L92.10000000000001,55.67402707472212L92.25,55.536681228816676L92.4,55.400046386781725L92.55,55.26412382048585L92.7,55.12891471771765L92.85,54.99442018285929L93,54.86064123757369L93.15,54.727578821504835L93.3,54.59523379299121L93.45,54.463606929790956L93.6,54.3326989298195L93.75,54.202510411898174L93.9,54.073041916514086L94.05,53.944293906590374L94.2,53.81626676826656L94.35,53.688960811688574L94.5,53.562376271808105L94.65,53.43651330919043L94.8,53.311372010831036L94.95,53.186952390979755L95.1,53.06325439197268L95.25,52.94027788507104L95.4,52.81802267130689L95.55,52.696488482334786L95.7,52.575674981289694L95.85000000000001,52.455581763650144L96,52.33620835810636L96.15,52.21755422743344L96.3,52.09961876936835L96.45,51.982401317491224L96.59999999999998,51.86590114211006L96.75,51.75011745114847L96.9,51.635049391036446L97.05,51.52069604760348L97.2,51.407056446973655L97.35000000000001,51.29412955646282L97.5,51.18191428547672L97.65,51.070409486410654L97.79999999999998,50.959613955549514L97.95,50.84952643396849L98.10000000000001,50.74014560843375L98.25,50.63147011230299L98.4,50.52349852642537L98.55000000000001,50.41622938004083L98.7,50.309661151678085L98.85000000000001,50.203792270051395L98.99999999999999,50.09862111495566L99.15,49.99414601815947L99.30000000000001,49.89036526429609L99.45,49.78727709175192L99.60000000000001,49.684879693552205L99.75,49.583171218243905L99.9,49.48214977077518L100.05000000000001,49.38181341337169L100.19999999999999,49.28216016640896L100.35,49.183188009281054L100.5,49.0848948812651L100.65,48.98727868238146L100.79999999999998,48.89033727424945L100.95,48.79406848093831L101.10000000000001,48.698470089813284L101.25,48.6035398523767L101.39999999999999,48.50927548510367L101.55,48.415674670272395L101.7,48.3227350567889L101.85000000000001,48.23045426100606L101.99999999999999,48.138829867536586L102.15,48.04785943006006L102.30000000000001,47.95754047212375L102.45,47.867870487937054L102.6,47.77884694315948L102.74999999999999,47.69046727568205L102.9,47.6027288964021L103.05000000000001,47.51562918999093L103.19999999999999,47.429165515654915L103.35000000000001,47.343335207889254L103.50000000000001,47.258135577224834L103.65,47.17356391096767L103.8,47.089617473931085L103.94999999999999,47.00629350916057L104.1,46.92358923865092L104.25000000000001,46.84150186405624L104.39999999999999,46.7600285673918L104.55,46.67916651172867L104.7,46.598912841880264L104.85000000000001,46.519264685081325L105,46.44021915165882L105.14999999999999,46.361773335695204L105.3,46.28392431568355L105.45000000000002,46.206669155174595L105.6,46.130004903416236L105.75,46.05392859598432L105.9,45.97843725540592L106.05000000000001,45.903527891774274L106.19999999999999,45.82919750335557L106.35,45.755443077187735L106.5,45.68226158967097L106.64999999999999,45.60965000715025L106.8,45.53760528648961L106.94999999999999,45.466124375638174L107.10000000000001,45.395204214188226L107.25000000000001,45.3248417339251L107.39999999999999,45.25503385936872L107.55,45.1857775083073L107.69999999999999,45.11706959232275L107.85,45.04890701730801L108,44.98128668397638L108.14999999999999,44.9142054883627L108.30000000000001,44.84766032231654L108.45000000000002,44.78164807398743L108.6,44.71616562830195L108.75,44.651209867433224L108.89999999999999,44.58677767126194L109.05,44.522865917830174L109.2,44.45947148378677L109.35,44.39659124482533L109.50000000000001,44.3342220761142L109.65000000000002,44.27236085271899L109.8,44.2110044500171L109.95,44.15014974410499L110.1,44.089793612197596L110.25,44.02993293302035L110.39999999999999,43.97056458719375L110.55,43.911685457610474L110.7,43.853292429805194L110.85000000000001,43.79538239231685L111,43.73795223704417L111.15,43.68099885959346L111.3,43.624519159619595L111.45,43.56851004115991L111.6,43.512968412960916L111.75,43.457891188798385L111.9,43.40327528779014L112.05000000000001,43.349117634702495L112.2,43.29541516024949L112.35,43.24216480138591L112.5,43.18936350159326L112.65,43.1370082111595L112.8,43.0850958874521L112.95,43.0336234951849L113.1,42.982588006678355L113.25000000000001,42.931986402113836L113.4,42.88181566978136L113.55,42.83207280632155L113.7,42.78275481696127L113.85,42.73385871574351L114,42.685381525751L114.14999999999999,42.63732027932444L114.3,42.589672018274584L114.45,42.54243379408874L114.60000000000001,42.495602668131795L114.75,42.449175711841406L114.9,42.403150006917954L115.05,42.35752264550892L115.2,42.31229073038804L115.34999999999998,42.26745137512914L115.5,42.223001704274736L115.65,42.17893885349959L115.8,42.13525996976914L115.95,42.0919622114931L116.10000000000001,42.04904274867391L116.25,42.00649876305057L116.4,41.964327448237626L116.54999999999998,41.92252600985938L116.7,41.88109166567973L116.85000000000001,41.84002164572708L117,41.799313192415156L117.15,41.75896356065914L117.30000000000001,41.71897001798756L117.45,41.679329844649914L117.60000000000001,41.64004033372008L117.74999999999999,41.60109879119554L117.89999999999999,41.56250253609271L118.05000000000001,41.5242489005379L118.2,41.486335229854774L118.35000000000001,41.448758882647724L118.5,41.41151723088133L118.65,41.374607659956354L118.80000000000001,41.33802756878187L118.94999999999999,41.3017743698438L119.1,41.26584548926998L119.25,41.23023836689174L119.4,41.194950456301996L119.55000000000001,41.15997922491L119.7,41.12532215399288L119.85000000000001,41.09097673874392L120,41.05694048831751L120.14999999999999,41.02321092587127L120.3,40.989785588604875L120.45000000000002,40.95666202779597L120.6,40.923837808833284L120.75000000000001,40.89131051124656L120.9,40.85907772873402L121.05000000000001,40.82713706918672L121.2,40.79548615471059L121.35,40.7641226216454L121.49999999999999,40.73304412058147L121.64999999999999,40.702248316373556L121.80000000000001,40.67173288815252L121.94999999999999,40.64149552933446L122.10000000000001,40.611533947627194L122.25000000000001,40.581845865034865L122.4,40.55242901785998L122.55,40.52328115670319L122.69999999999999,40.494400046461024L122.85,40.46578346632147L122.99999999999999,40.437429209757326L123.15,40.40933508451771L123.30000000000001,40.3814989126174L123.45,40.35391853032441L123.60000000000001,40.32659178814545L123.75,40.29951655080971L123.89999999999999,40.27269069725078L124.05,40.24611212058673L124.20000000000002,40.21977872809862L124.35,40.19368844120713L124.50000000000001,40.16783919544771L124.65,40.14222894044413L124.80000000000001,40.11685563988027L124.94999999999999,40.09171727147073L125.1,40.066811826929694L125.25,40.04213731193835L125.39999999999999,40.0176917461112L125.55000000000001,39.993473162960555L125.69999999999997,39.969479609860215L125.85000000000001,39.945709148007424L126.00000000000001,39.9221598523838L126.14999999999999,39.898829811714975L126.3,39.87571712842923L126.44999999999999,39.85281991861453L126.6,39.83013631197505L126.75,39.807664451786096L126.9,39.78540249484831L127.05000000000001,39.763348611440705L127.20000000000002,39.74150098527271L127.35,39.71985781343544L127.5,39.698417306351715L127.64999999999999,39.67717768772556L127.8,39.6561371944905L127.95000000000002,39.63529407675729L128.1,39.6146465977607L128.25,39.59419303380547L128.4,39.573931674211735L128.55,39.553860821259434L128.7,39.53397879013224L128.85,39.51428390886072L129,39.49477451826495L129.15,39.47544897189624L129.3,39.45630563597872L129.45,39.43734288934979L129.60000000000002,39.41855912340057L129.75,39.39995274201536L129.9,39.381522161511L130.05,39.36326581057527L130.2,39.34518213020546L130.35,39.327269573645836L130.49999999999997,39.30952660632519L130.65,39.29195170579372L130.8,39.274543361659596L130.95,39.25730007552528L131.1,39.24022036092332L131.25,39.223302743251935L131.4,39.20654575971031L131.55,39.18994795923355L131.70000000000002,39.17350790242743L131.85,39.15722416150277L132.00000000000003,39.141095320209786L132.15,39.125119973772044L132.3,39.10929672882027L132.45,39.093624203326016L132.6,39.07810102653512L132.75,39.062725838901045L132.89999999999998,39.04749729201795L133.05,39.032414048553974L133.2,39.017474782183896L133.35,39.00267817752223L133.5,38.988022930055806L133.65,38.97350774607666L133.8,38.959131342614484L133.95,38.94489244736937L134.1,38.930789798644355L134.25,38.91682214527793L134.4,38.9029882465766L134.55,38.88928687224745L134.70000000000002,38.87571680233074L134.85,38.86227682713245L135,38.84896574715687L135.15,38.83578237303941L135.29999999999998,38.8227255254792L135.45000000000002,38.809794035171976L135.6,38.79698674274292L135.75,38.78430249867958L135.9,38.77174016326505L136.05,38.75929860651104L136.20000000000002,38.746976708091125L136.35,38.73477335727421L136.5,38.72268745285807L136.64999999999998,38.7107179031029L136.8,38.6988636256652L136.95,38.68712354753174L137.1,38.67549660495365L137.25,38.66398174338066L137.4,38.65257791739566L137.55,38.64128409064922L137.7,38.630099235794475L137.85000000000002,38.619022334422084L138,38.608052376995474L138.15,38.597188362786326L138.29999999999998,38.58642929981002L138.45000000000002,38.575774204761615L138.6,38.56522210295185L138.75,38.554772028243406L138.89999999999998,38.54442302298753L139.04999999999998,38.53417413796059L139.20000000000002,38.52402443230133L139.35,38.51397297344772L139.5,38.50401883707487L139.65,38.4941611070324L139.8,38.48439887528271L139.95000000000002,38.474731241838995L140.1,38.465157314703944L140.25000000000003,38.455676209808374L140.39999999999998,38.44628705095039L140.55,38.43698896973471L140.7,38.42778110551218L140.85000000000002,38.418662605319724L141,38.40963262382057L141.15,38.400690323244575L141.29999999999998,38.39183487332902L141.45,38.38306545125978L141.60000000000002,38.37438124161248L141.75,38.36578143629417L141.9,38.35726523448531L142.04999999999998,38.34883184258193L142.20000000000002,38.34048047413822L142.35000000000002,38.332210349809316L142.5,38.324020697294486L142.65,38.315910751280555L142.79999999999998,38.30787975338562L142.95000000000002,38.29992695210325L143.1,38.29205160274674L143.25,38.28425296739387L143.4,38.27653031483189L143.55,38.26888292050292L143.7,38.261310066449454L143.85,38.25381104126052L144.00000000000003,38.24638514001782L144.15,38.23903166424233L144.3,38.231749921841356L144.45,38.22453922705559L144.60000000000002,38.21739890040688L144.75,38.21032826864595L144.9,38.203326664700754L145.04999999999998,38.19639342762491L145.2,38.18952790254659L145.35000000000002,38.18272944061776L145.5,38.1759973989636L145.65,38.16933114063234L145.79999999999998,38.16273003454559L145.95000000000002,38.15619345544853L146.1,38.149720783860985L146.25,38.1433114060284L146.4,38.136964713873326L146.54999999999998,38.13068010494722L146.70000000000002,38.124456982382526L146.85,38.118294754845124L147,38.112192836487L147.15,38.10615064689941L147.3,38.10016761106621L147.45,38.09424315931763L147.6,38.088376727284185L147.75000000000003,38.08256775585113L147.9,38.076815691113126L148.05,38.07111998432919L148.2,38.065480091878L148.35000000000002,38.05989547521358L148.5,38.05436560082114L148.65,38.04888994017347L148.8,38.043467969687356L148.95,38.03809917068061L149.10000000000002,38.03278302932915L149.24999999999997,38.02751903662464L149.4,38.02230668833215L149.54999999999998,38.01714548494846L149.7,38.01203493166037L149.85,38.006974538303496L150,38.00196381932136L150.14999999999998,37.99700229372472L150.3,37.992089485051224L150.45000000000002,37.98722492132539L150.6,37.982408135018915L150.75000000000003,37.97763866301118L150.9,37.972916046550196L151.05,37.96823983121374L151.2,37.96360956687083L151.35,37.9590248076435L151.50000000000003,37.95448511186882L151.64999999999998,37.94999004206129L151.8,37.94553916487551L151.95,37.94113205106912L152.1,37.936768275465866L152.25000000000003,37.93244741691937L152.4,37.92816905827675L152.54999999999998,37.923932786342775L152.7,37.91973819184423L152.85000000000002,37.91558486939455L153,37.911472417458796L153.15,37.90740043831876L153.29999999999998,37.90336853803865L153.45000000000002,37.89937632643067L153.6,37.89542341702115L153.75,37.891509427016885L153.9,37.88763397727165L154.04999999999998,37.883796692253114L154.20000000000002,37.87999720000997L154.35,37.876235132139314L154.5,37.87251012375428L154.65000000000003,37.868821813452016L154.8,37.865169843281905L154.95,37.86155385871386L155.1,37.85797350860723L155.25000000000003,37.85442844517965L155.4,37.8509183239763L155.55,37.84744280383937L155.69999999999996,37.84400154687779L155.85000000000002,37.84059421843732L156,37.83722048707058L156.14999999999998,37.83388002450776L156.3,37.83057250562722L156.45,37.827297608426434L156.6,37.82405501399339L156.75,37.820844406477875L156.9,37.817665473063244L157.04999999999998,37.81451790393844L157.20000000000002,37.81140139227004L157.35,37.80831563417479L157.5,37.8052603286922L157.64999999999998,37.80223517775748L157.8,37.79923988617455L157.95000000000002,37.796274161589594L158.09999999999997,37.793337714464386L158.25000000000003,37.79043025805032L158.4,37.7875515083623L158.54999999999998,37.78470118415305L158.70000000000002,37.78187900688755L158.85,37.77908470071783L159,37.77631799245769L159.14999999999998,37.77357861155812L159.3,37.77086629008237L159.45,37.76818076268168L159.60000000000002,37.765521766570984L159.75,37.76288904150498L159.9,37.76028232975422L160.04999999999998,37.75770137608153L160.20000000000002,37.7551459277188L160.35000000000002,37.75261573434351L160.49999999999997,37.750110548056L160.65000000000003,37.74763012335656L160.79999999999998,37.745174217122894L160.95,37.742742588587774L161.10000000000002,37.74033499931677L161.25,37.73795121318639L161.4,37.735590996362205L161.54999999999998,37.7332541172773L161.70000000000002,37.73094034661081L161.85,37.72864945726678L162,37.72638122435313L162.15,37.72413542516078L162.3,37.72191183914305L162.45,37.719710247895094L162.60000000000002,37.71753043513381L162.75000000000003,37.71537218667753L162.89999999999998,37.713235290426226L163.05000000000004,37.71111953634173L163.2,37.709024716428175L163.35,37.70695062471263L163.5,37.70489705722582L163.65,37.70286381198322L163.8,37.700850688965986L163.95,37.698857490102455L164.10000000000002,37.696884019249524L164.25,37.69493008217425L164.4,37.692995486535764L164.54999999999998,37.69108004186718L164.70000000000002,37.68918355955773L164.85,37.687305852835024L165,37.68544673674761L165.15,37.683606028147494L165.29999999999998,37.68178354567303L165.45000000000002,37.67997910973173L165.6,37.67819254248337L165.75,37.67642366782334L165.9,37.674672311366024L166.05,37.672938300428115L166.20000000000002,37.67122146401273L166.35,37.66952163279291L166.50000000000003,37.667838639095734L166.65,37.666172316886545L166.8,37.66452250175317L166.95,37.662889030890284L167.10000000000002,37.661271743084185L167.25,37.65967047869732L167.4,37.65808507965326L167.55,37.65651538942164L167.7,37.65496125300341L167.85000000000002,37.653422516915995L167.99999999999997,37.651899029178736L168.15,37.65039063929852L168.29999999999998,37.6488971982554L168.45,37.64741855848837L168.60000000000002,37.645954573881426L168.75,37.64450509974955L168.89999999999998,37.64306999282503L169.05,37.641649111243666L169.20000000000002,37.64024231453131L169.35,37.63884946359046L169.50000000000003,37.63747042068695L169.65,37.63610504943688L169.8,37.63475321479338L169.95,37.633414783033956L170.1,37.632089621747454L170.25000000000003,37.63077759982161L170.39999999999998,37.6294785874303L170.55,37.628192456021196L170.7,37.62691907830349L170.85,37.62565832823557L171.00000000000003,37.62441008101308L171.15,37.623174213056785L171.29999999999998,37.62195060200082L171.45,37.62073912668093L171.60000000000002,37.61953966712274L171.75,37.618352104530274L171.9,37.61717632127467L172.04999999999998,37.616012200882594L172.20000000000002,37.61485962802526L172.35,37.61371848850716L172.5,37.612588669255274L172.65,37.611470058307944L172.79999999999998,37.61036254480422L172.95000000000002,37.60926601897313L173.1,37.60818037212317L173.25,37.6071054966317L173.40000000000003,37.60604128593455L173.55,37.60498763451588L173.7,37.60394443789785L173.85,37.602911592630605L174.00000000000003,37.60188899628217L174.15,37.6008765474287L174.3,37.59987414564455L174.44999999999996,37.59888169149254L174.60000000000002,37.5978990865145L174.75,37.59692623322155L174.89999999999998,37.59596303508472L175.05,37.595009396525654L175.2,37.59406522290726L175.35,37.5931304205246L175.5,37.59220489659579L175.65,37.59128855925299L175.79999999999998,37.59038131753344L175.95000000000002,37.58948308137069L176.1,37.58859376158594L176.25,37.58771326987916L176.39999999999998,37.58684151882072L176.55,37.58597842184277L176.70000000000002,37.58512389323084L176.84999999999997,37.58427784811563L177.00000000000003,37.58344020246453L177.15,37.582610873073634L177.29999999999998,37.58178977755958L177.45000000000002,37.5809768343515L177.6,37.58017196268315L177.75,37.579375082584946L177.89999999999998,37.57858611487627L178.05,37.5778049811577L178.2,37.57703160380336L178.35000000000002,37.57626590595339L178.5,37.57550781150643L178.65,37.57475724511217L178.79999999999998,37.57401413216408L178.95000000000002,37.573278398792L179.10000000000002,37.57254997185508L179.24999999999997,37.57182877893452L179.40000000000003,37.571114748326536L179.54999999999998,37.570407809035345L179.7,37.569707890766296L179.85000000000002,37.569014923918886L180,37.56832883958005L180.15,37.56764956951734L180.29999999999998,37.56697704617237L180.45000000000002,37.56631120265405L180.6,37.5656519727322L180.75,37.56499929083094L180.9,37.56435309202237L181.05,37.56371331202013L181.2,37.563079887173174L181.35000000000002,37.56245275445946L181.50000000000003,37.561831851479866L181.64999999999998,37.56121711645201L181.80000000000004,37.560608488204196L181.95,37.56000590616949L182.1,37.55940931037965L182.25,37.558818641459325L182.4,37.55823384062032L182.55,37.55765484965562L182.7,37.55708161093388L182.85000000000002,37.55651406739365L183,37.555952162537736L183.15,37.55539584042788L183.29999999999998,37.55484504567896L183.45000000000002,37.554299723453724L183.6,37.55375981945748L183.75,37.55322527993253L183.9,37.55269605165314L184.04999999999998,37.55217208192002L184.20000000000002,37.551653318555495L184.35,37.55113970989805L184.5,37.550631204797455L184.65,37.550127752609654L184.8,37.54962930319178L184.95000000000002,37.549135806897226L185.1,37.54864721457085L185.25000000000003,37.54816347754394L185.4,37.54768454762964L185.55,37.54721037711805L185.7,37.546740918771604L185.85000000000002,37.5462761258204L186,37.54581595195758L186.15,37.54536035133482L186.3,37.5449092785577L186.45,37.54446268868138L186.60000000000002,37.54402053720605L186.74999999999997,37.54358278007261L186.9,37.54314937365831L187.04999999999998,37.54272027477238L187.2,37.54229544065191L187.35000000000002,37.54187482895753L187.5,37.54145839776926L187.64999999999998,37.54104610558238L187.8,37.54063791130329L187.95000000000002,37.540233774245564L188.1,37.5398336541258L188.25000000000003,37.53943751105976L188.4,37.53904530555833L188.55,37.53865699852372L188.7,37.53827255124553L188.85,37.537891925396934L189.00000000000003,37.53751508303097L189.14999999999998,37.537141986576685L189.3,37.53677259883551L189.45,37.5364068829775L189.6,37.53604480253776L189.75000000000003,37.53568632141288L189.9,37.535331403857214L190.04999999999998,37.5349800144795L190.2,37.5346321182393L190.35000000000002,37.534287680443526L190.5,37.53394666674305L190.65,37.53360904312922L190.79999999999998,37.53327477593058L190.95000000000002,37.53294383180955L191.1,37.53261617775908L191.25,37.532291781099346L191.4,37.53197060947463L191.54999999999998,37.531652630850004L191.70000000000002,37.53133781350826L191.85,37.53102612604667L192,37.530717537373945L192.15000000000003,37.53041201670719L192.3,37.530109533568705L192.45,37.52981005778318L192.6,37.52951355947451L192.75000000000003,37.529220009062925L192.9,37.5289293772621L193.05,37.52864163507623L193.19999999999996,37.52835675379703L193.35000000000002,37.5280747050011L193.5,37.52779546054697L193.64999999999998,37.52751899257237L193.8,37.52724527349136L193.95,37.52697427599179L194.1,37.526705973032435L194.25,37.52644033784033L194.4,37.526177343908245L194.54999999999998,37.52591696499188L194.70000000000002,37.525659175107364L194.85,37.525403948528634L195,37.52515125978498L195.14999999999998,37.52490108365839L195.3,37.52465339518109L195.45,37.52440816963312L195.6,37.52416538253985L195.75000000000003,37.52392500966951L195.9,37.52368702703083L196.04999999999998,37.52345141087068L196.20000000000002,37.52321813767166L196.35,37.52298718414977L196.5,37.522758527252165L196.64999999999998,37.52253214415478L196.8,37.522308012260126L196.95000000000002,37.52208610919499L197.10000000000002,37.52186641280831L197.25,37.52164890116883L197.4,37.52143355256315L197.54999999999998,37.521220345493234L197.70000000000002,37.521009258674596L197.85,37.52080027103405L197.99999999999997,37.5205933617076L198.15000000000003,37.52038851003837L198.3,37.52018569557458L198.45,37.51998489806755L198.60000000000002,37.519786097469606L198.75,37.51958927393217L198.9,37.5193944078037L199.04999999999998,37.519201479627796L199.2,37.51901047014124L199.35000000000002,37.51882136027214L199.5,37.51863413113796L199.65,37.518448764043654L199.8,37.51826524047986L199.95,37.51808354212106L200.10000000000002,37.51790365082361L200.25,37.51772554862417L200.39999999999998,37.517549217737724L200.55000000000004,37.5173746405559L200.70000000000002,37.517201799645235L200.85,37.517030677745424L201,37.5168612577675L201.15,37.51669352279231L201.3,37.51652745606876L201.45,37.51636304101207L201.59999999999997,37.51620026120224L201.75,37.51603910038234L201.9,37.51587954245693L202.04999999999998,37.515721571490474L202.20000000000002,37.51556517170569L202.35,37.51541032748203L202.5,37.51525702335414L202.65,37.515105244010286L202.79999999999998,37.51495497429083L202.95,37.51480619918675L203.10000000000002,37.51465890383808L203.25,37.514513073532584L203.4,37.514368693704085L203.55,37.51422574993117L203.70000000000002,37.51408422793568L203.85,37.51394411358133L203.99999999999997,37.51380539287224L204.15,37.5136680519517L204.3,37.51353207710049L204.45,37.513397454735895L204.60000000000002,37.51326417141L204.75,37.5131322138086L204.9,37.513001568749786L205.05,37.51287222318253L205.2,37.51274416418562L205.35,37.51261737896613L205.50000000000003,37.51249185485828L205.65,37.51236757932223L205.8,37.512244539942614L205.95,37.51212272442751L206.10000000000002,37.51200212060715L206.25,37.511882716432694L206.39999999999998,37.511764499975015L206.55,37.51164745942356L206.7,37.511531583085144L206.85,37.51141685938275L207.00000000000003,37.51130327685446L207.15,37.51119082415228L207.3,37.51107949004093L207.45,37.51096926339679L207.6,37.51086013320689L207.75,37.510752088567585L207.89999999999998,37.510645118683726L208.05,37.51053921286733L208.20000000000002,37.51043436053675L208.35,37.51033055121543L208.50000000000003,37.510227774530975L208.65,37.510126020214074L208.79999999999998,37.510025278097515L208.95,37.50992553811514L209.1,37.509826790300764L209.25,37.509729024787376L209.4,37.50963223180598L209.55,37.5095364016847L209.70000000000002,37.50944152484776L209.85,37.50934759181462L210,37.50925459319896L210.15,37.50916251970777L210.29999999999998,37.509071362140375L210.45000000000002,37.5089811113876L210.60000000000002,37.50889175843085L210.75,37.50880329434108L210.90000000000003,37.50871571027811L211.05,37.508628997489595L211.2,37.50854314731019L211.35,37.508458151160696L211.5,37.50837400054722L211.65,37.50829068706028L211.8,37.50820820237402L211.95000000000002,37.508126538245364L212.10000000000002,37.50804568651317L212.25,37.507965639097364L212.39999999999998,37.507886387998326L212.55,37.50780792529589L212.7,37.50773024314863L212.85,37.507653333793144L213.00000000000003,37.50757718954307L213.15,37.50750180278865L213.3,37.50742716599565L213.45000000000002,37.5073532717048L213.6,37.50728011253098L213.75,37.50720768116247L213.89999999999998,37.50713597036027L214.05,37.50706497295738L214.2,37.50699468185803L214.35,37.506925090037L214.50000000000003,37.506856190538926L214.65,37.506787976477554L214.79999999999998,37.50672044103521L214.95000000000002,37.50665357746192L215.1,37.50658737907486L215.25,37.506521839257616L215.39999999999998,37.506456951459555L215.55,37.506392709195296L215.70000000000002,37.50632910604382L215.85000000000002,37.50626613564798L216,37.50620379171386L216.15,37.50614206801016L216.29999999999998,37.50608095836748L216.45000000000002,37.506020456677774L216.6,37.50596055689381L216.75,37.50590125302834L216.90000000000003,37.50584253915383L217.05,37.50578440940157L217.2,37.50572685796118L217.35000000000002,37.5056698790802L217.5,37.505613467063284L217.65,37.50555761627169L217.79999999999998,37.50550232112283L217.95,37.50544757608955L218.10000000000002,37.50539337569971L218.25,37.50533971453558L218.4,37.50528658723333L218.55,37.50523398848239L218.7,37.50518191302511L218.85000000000002,37.50513035565601L219,37.50507931122148L219.14999999999998,37.50502877461912L219.30000000000004,37.50497874079724L219.45000000000002,37.50492920475443L219.6,37.50488016153905L219.75,37.5048316062486L219.9,37.50478353402943L220.05,37.50473594007612L220.2,37.504688819631056L220.34999999999997,37.50464216798392L220.50000000000003,37.50459598047125L220.65,37.504550252475966L220.79999999999998,37.5045049794269L220.95000000000002,37.50446015679833L221.1,37.504415780109596L221.25,37.50437184492458L221.4,37.50432834685124L221.54999999999998,37.50428528154124L221.7,37.50424264468951L221.85000000000002,37.50420043203381L222,37.504158639354216L222.15,37.504117262472846L222.3,37.504076297253334L222.45000000000002,37.50403573960051L222.6,37.50399558545985L222.74999999999997,37.503955830817205L222.9,37.50391647169832L223.05,37.50387750416853L223.2,37.50383892433226L223.35000000000002,37.50380072833266L223.5,37.50376291235128L223.65,37.50372547260764L223.8,37.503688405358844L223.95,37.503651706899234L224.1,37.50361537356001L224.25000000000003,37.503579401708876L224.4,37.50354378774966L224.55,37.50350852812193L224.7,37.50347361930069L224.85000000000002,37.503439057796L225,37.50340484015268"
          stroke="lightblue" stroke-width="3" fill="none"/>
</svg>