<?xml version="1.0" standalone="no"?>
<svg xmlns="http://www.w3.org/2000/svg" id="svg_5" width="150" height="150" style="background-color: rgb(58, 58, 58);">
    <g transform="translate( 75, 0)" class="axis" fill="none" font-size="10" font-family="sans-serif" text-anchor="end">
        <path class="domain" stroke="#000" d="M0,150.5H0.5V0.5H0" style="stroke: orange; stroke-width: 0.5;"/>
    </g>
    <g transform="translate( 0,75)" class="axis" fill="none" font-size="10" font-family="sans-serif"
       text-anchor="middle">
        <path class="domain" stroke="#000" d="M0.5,0V0.5H150.5V0" style="stroke: orange; stroke-width: 0.5;"/>
    </g>
    <path d="M0,74.99965950825586L0.0749999999999984,74.99965608633542L0.1499999999999968,74.99965263002565L0.2249999999999952,74.99964913898104L0.2999999999999936,74.99964561285248L0.374999999999992,74.99964205128742L0.45000000000000373,74.99963845392976L0.5250000000000021,74.99963482041981L0.6000000000000005,74.99963115039426L0.6749999999999989,74.99962744348616L0.7499999999999973,74.99962369932489L0.8249999999999957,74.99961991753607L0.8999999999999941,74.99961609774155L0.9749999999999925,74.99961223955944L1.0500000000000043,74.99960834260399L1.1250000000000027,74.99960440648552L1.200000000000001,74.9996004308105L1.2749999999999995,74.99959641518143L1.3499999999999979,74.99959235919678L1.4249999999999963,74.99958826245106L1.4999999999999947,74.99958412453464L1.574999999999993,74.99957994503376L1.6500000000000048,74.99957572353057L1.7250000000000032,74.99957145960298L1.8000000000000016,74.99956715282467L1.875,74.99956280276501L1.9499999999999984,74.99955840898913L2.024999999999997,74.99955397105765L2.099999999999995,74.99954948852687L2.1749999999999936,74.99954496094865L2.249999999999992,74.99954038787028L2.3250000000000037,74.99953576883452L2.400000000000002,74.9995311033796L2.4750000000000005,74.999526391039L2.549999999999999,74.99952163134161L2.6249999999999973,74.99951682381152L2.6999999999999957,74.99951196796809L2.774999999999994,74.99950706332581L2.8499999999999925,74.9995021093943L2.9250000000000043,74.99949710567829L3.0000000000000027,74.99949205167748L3.075000000000001,74.99948694688658L3.1499999999999995,74.99948179079519L3.224999999999998,74.99947658288784L3.2999999999999963,74.99947132264379L3.3749999999999947,74.99946600953717L3.449999999999993,74.99946064303676L3.525000000000005,74.99945522260603L3.600000000000003,74.99944974770304L3.6750000000000016,74.99944421778042L3.75,74.99943863228529L3.8249999999999984,74.99943299065922L3.899999999999997,74.99942729233817L3.974999999999995,74.99942153675244L4.049999999999994,74.99941572332659L4.124999999999992,74.99940985147943L4.200000000000004,74.99940392062388L4.275000000000002,74.99939793016699L4.3500000000000005,74.99939187950989L4.424999999999999,74.9993857680476L4.499999999999997,74.99937959516917L4.574999999999996,74.99937336025744L4.649999999999994,74.99936706268907L4.7249999999999925,74.99936070183443L4.800000000000004,74.99935427705763L4.875000000000003,74.99934778771633L4.950000000000001,74.99934123316177L5.0249999999999995,74.99933461273868L5.099999999999998,74.99932792578514L5.174999999999996,74.99932117163264L5.249999999999995,74.99931434960597L5.324999999999993,74.99930745902309L5.400000000000005,74.99930049919512L5.475000000000003,74.99929346942628L5.550000000000002,74.99928636901377L5.625,74.99927919724774L5.699999999999998,74.99927195341125L5.774999999999997,74.9992646367801L5.849999999999995,74.99925724662282L5.924999999999994,74.9992497822006L5.999999999999992,74.99924224276725L6.075000000000004,74.99923462756902L6.150000000000002,74.99922693584463L6.2250000000000005,74.99921916682511L6.299999999999999,74.99921131973386L6.374999999999997,74.99920339378632L6.449999999999996,74.99919538819022L6.524999999999994,74.9991873021452L6.5999999999999925,74.99917913484292L6.675000000000004,74.99917088546694L6.750000000000003,74.99916255319253L6.825000000000001,74.99915413718679L6.8999999999999995,74.99914563660839L6.974999999999998,74.99913705060749L7.049999999999996,74.99912837832586L7.124999999999995,74.99911961889651L7.199999999999993,74.99911077144384L7.275000000000005,74.99910183508338L7.350000000000003,74.99909280892179L7.425000000000002,74.99908369205683L7.5,74.99907448357706L7.574999999999998,74.99906518256203L7.649999999999997,74.99905578808198L7.724999999999995,74.99904629919776L7.799999999999994,74.99903671496085L7.874999999999992,74.9990270344132L7.950000000000004,74.99901725658711L8.025000000000002,74.99900738050515L8.100000000000001,74.99899740518013L8.174999999999999,74.99898732961492L8.249999999999996,74.99897715280231L8.324999999999996,74.99896687372507L8.399999999999993,74.99895649135567L8.474999999999993,74.99894600465633L8.550000000000004,74.99893541257879L8.625000000000002,74.99892471406427L8.700000000000001,74.99891390804339L8.774999999999999,74.99890299343599L8.849999999999998,74.99889196915112L8.924999999999997,74.99888083408676L8.999999999999995,74.99886958712995L9.074999999999994,74.99885822715645L9.150000000000006,74.99884675303078L9.225000000000003,74.99883516360607L9.300000000000002,74.99882345772387L9.375,74.99881163421416L9.449999999999998,74.9987996918951L9.524999999999997,74.99878762957304L9.599999999999996,74.99877544604234L9.674999999999994,74.99876314008522L9.749999999999993,74.99875071047165L9.825000000000005,74.99873815595932L9.900000000000002,74.99872547529336L9.975000000000001,74.99871266720635L10.049999999999999,74.99869973041814L10.124999999999996,74.9986866636357L10.199999999999996,74.99867346555301L10.274999999999995,74.99866013485097L10.349999999999993,74.99864667019719L10.425000000000004,74.99863307024593L10.500000000000004,74.99861933363793L10.575000000000001,74.99860545900026L10.649999999999999,74.99859144494623L10.724999999999998,74.99857729007518L10.799999999999997,74.99856299297244L10.874999999999995,74.99854855220907L10.949999999999992,74.99853396634188L11.025000000000006,74.99851923391307L11.100000000000003,74.99850435345026L11.175,74.99848932346629L11.25,74.99847414245903L11.324999999999998,74.99845880891132L11.399999999999997,74.9984433212907L11.474999999999996,74.9984276780494L11.549999999999994,74.998411877624L11.625000000000005,74.99839591843549L11.700000000000005,74.99837979888895L11.775000000000002,74.99836351737342L11.85,74.99834707226182L11.924999999999999,74.99833046191073L11.999999999999998,74.99831368466016L12.074999999999996,74.99829673883353L12.149999999999995,74.99827962273737L12.224999999999993,74.99826233466123L12.300000000000004,74.99824487287749L12.375000000000004,74.9982272356412L12.450000000000001,74.99820942118981L12.524999999999999,74.99819142774318L12.599999999999998,74.99817325350323L12.674999999999997,74.99815489665383L12.749999999999995,74.99813635536063L12.824999999999992,74.99811762777088L12.900000000000006,74.99809871201319L12.975000000000003,74.9980796061974L13.05,74.99806030841435L13.125,74.9980408167358L13.2,74.99802112921401L13.274999999999997,74.99800124388183L13.349999999999994,74.99798115875225L13.424999999999994,74.99796087181838L13.500000000000005,74.99794038105311L13.575000000000003,74.99791968440907L13.650000000000002,74.99789877981827L13.725,74.99787766519201L13.799999999999999,74.99785633842053L13.874999999999998,74.99783479737303L13.949999999999996,74.99781303989718L14.024999999999993,74.99779106381916L14.099999999999993,74.99776886694325L14.175000000000004,74.99774644705171L14.250000000000002,74.99772380190454L14.325000000000001,74.99770092923926L14.4,74.99767782677071L14.474999999999998,74.9976544921907L14.549999999999997,74.99763092316797L14.624999999999995,74.99760711734781L14.699999999999992,74.99758307235189L14.775000000000006,74.997558785778L14.850000000000003,74.99753425519981L14.925,74.99750947816666L15,74.99748445220328L15.075,74.99745917480955L15.149999999999997,74.99743364346028L15.225000000000001,74.9974078556049L15.3,74.9973818086673L15.374999999999998,74.99735550004542L15.449999999999998,74.9973289271112L15.524999999999995,74.99730208721012L15.600000000000001,74.99727497766104L15.674999999999999,74.99724759575592L15.749999999999996,74.9972199387596L15.824999999999996,74.99719200390935L15.900000000000002,74.99716378841481L15.975,74.99713528945759L16.049999999999997,74.99710650419102L16.124999999999996,74.99707742973986L16.200000000000003,74.99704806320004L16.275,74.9970184016383L16.349999999999998,74.99698844209199L16.424999999999997,74.9969581815687L16.500000000000004,74.99692761704605L16.575,74.99689674547129L16.65,74.99686556376103L16.724999999999998,74.99683406880098L16.8,74.99680225744558L16.875,74.9967701265177L16.95,74.99673767280838L17.024999999999995,74.9967048930764L17.1,74.99667178404806L17.175,74.99663834241684L17.25,74.99660456484301L17.324999999999996,74.99657044795335L17.400000000000002,74.99653598834077L17.475,74.99650118256406L17.549999999999997,74.99646602714743L17.624999999999996,74.99643051858028L17.699999999999996,74.99639465331676L17.775000000000002,74.99635842777543L17.849999999999998,74.99632183833899L17.924999999999997,74.9962848813538L17.999999999999996,74.9962475531296L18.075000000000003,74.9962098499391L18.15,74.99617176801765L18.224999999999998,74.99613330356281L18.299999999999997,74.99609445273403L18.375,74.9960552116522L18.45,74.99601557639937L18.525,74.99597554301829L18.599999999999994,74.99593510751193L18.675,74.99589426584328L18.75,74.99585301393479L18.825,74.99581134766807L18.899999999999995,74.9957692628834L18.975,74.9957267553793L19.05,74.99568382091225L19.125,74.99564045519614L19.199999999999996,74.99559665390188L19.275000000000002,74.99555241265695L19.35,74.99550772704504L19.425,74.99546259260555L19.499999999999996,74.9954170048331L19.574999999999996,74.99537095917722L19.650000000000002,74.99532445104177L19.725,74.99527747578455L19.799999999999997,74.9952300287168L19.874999999999996,74.99518210510283L19.950000000000003,74.99513370015936L20.025000000000002,74.99508480905524L20.099999999999998,74.99503542691092L20.174999999999997,74.99498554879783L20.25,74.99493516973811L20.325000000000003,74.99488428470394L20.4,74.99483288861714L20.474999999999998,74.99478097634861L20.55,74.99472854271785L20.625,74.99467558249246L20.7,74.99462209038758L20.775,74.99456806106538L20.85,74.9945134891346L20.925,74.99445836914987L20.999999999999996,74.9944026956113L21.075,74.99434646296388L21.150000000000002,74.99428966559695L21.225,74.99423229784362L21.299999999999997,74.99417435398023L21.374999999999996,74.99411582822576L21.449999999999996,74.99405671474129L21.525000000000002,74.99399700762937L21.599999999999998,74.99393670093355L21.674999999999997,74.99387578863758L21.749999999999993,74.99381426466505L21.825000000000003,74.99375212287863L21.9,74.99368935707956L21.974999999999998,74.99362596100693L22.049999999999994,74.99356192833714L22.125000000000004,74.99349725268328L22.2,74.99343192759446L22.275,74.99336594655516L22.349999999999994,74.99329930298464L22.425000000000004,74.99323199023621L22.5,74.9931640015967L22.575,74.99309533028564L22.649999999999995,74.99302596945469L22.725000000000005,74.99295591218697L22.8,74.99288515149628L22.875,74.99281368032655L22.949999999999996,74.99274149155099L23.025000000000002,74.9926685779715L23.1,74.99259493231793L23.175,74.99252054724734L23.249999999999996,74.99244541534324L23.324999999999996,74.99236952911497L23.4,74.99229288099687L23.475,74.99221546334755L23.549999999999997,74.99213726844913L23.624999999999996,74.99205828850647L23.7,74.99197851564648L23.775,74.99189794191726L23.849999999999998,74.99181655928727L23.924999999999997,74.9917343596447L24,74.99165133479652L24.075,74.99156747646771L24.149999999999995,74.99148277630047L24.224999999999998,74.99139722585342L24.3,74.99131081660069L24.375,74.99122353993108L24.449999999999996,74.99113538714738L24.525,74.99104634946524L24.6,74.99095641801252L24.675,74.99086558382831L24.749999999999996,74.99077383786215L24.824999999999996,74.99068117097295L24.900000000000002,74.99058757392828L24.975,74.99049303740341L25.049999999999997,74.99039755198027L25.124999999999996,74.99030110814672L25.199999999999996,74.99020369629545L25.275000000000002,74.99010530672312L25.349999999999998,74.99000592962942L25.424999999999997,74.98990555511598L25.499999999999996,74.98980417318553L25.575000000000003,74.98970177374093L25.65,74.98959834658399L25.724999999999998,74.98949388141469L25.799999999999997,74.98938836783005L25.875000000000004,74.98928179532307L25.95,74.98917415328185L26.025,74.98906543098839L26.099999999999998,74.98895561761759L26.175,74.98884470223625L26.25,74.98873267380185L26.325,74.98861952116164L26.4,74.98850523305141L26.475,74.98838979809449L26.549999999999997,74.98827320480049L26.625,74.98815544156433L26.7,74.98803649666499L26.775000000000002,74.98791635826443L26.849999999999998,74.98779501440639L26.924999999999997,74.98767245301521L27,74.98754866189466L27.074999999999996,74.98742362872677L27.15,74.98729734107059L27.224999999999998,74.98716978636097L27.3,74.98704095190733L27.374999999999996,74.98691082489245L27.45,74.98677939237119L27.525,74.98664664126919L27.599999999999998,74.98651255838165L27.674999999999997,74.98637713037199L27.75,74.98624034377058L27.825,74.9861021849734L27.9,74.98596264024073L27.974999999999994,74.98582169569578L28.05,74.98567933732332L28.125,74.98553555096835L28.2,74.98539032233475L28.274999999999995,74.9852436369838L28.35,74.98509548033275L28.425,74.98494583765353L28.5,74.98479469407121L28.574999999999996,74.98464203456258L28.650000000000002,74.98448784395462L28.725,74.98433210692313L28.8,74.98417480799118L28.874999999999996,74.98401593152758L28.949999999999996,74.98385546174536L29.025000000000002,74.98369338270028L29.1,74.98352967828923L29.174999999999997,74.9833643322487L29.249999999999996,74.98319732815314L29.325000000000003,74.98302864941337L29.400000000000002,74.98285827927505L29.474999999999998,74.98268620081697L29.549999999999997,74.98251239694939L29.625,74.98233685041241L29.700000000000003,74.98215954377434L29.775,74.98198045942993L29.849999999999998,74.98179957959867L29.925,74.9816168863231L30,74.98143236146701L30.075,74.98124598671379L30.15,74.9810577435645L30.225,74.98086761333616L30.3,74.98067557715999L30.374999999999996,74.98048161597947L30.45,74.98028571054853L30.525000000000002,74.98008784142972L30.6,74.97988798899233L30.674999999999997,74.97968613341044L30.749999999999996,74.97948225466097L30.825000000000003,74.9792763325219L30.900000000000002,74.97906834657016L30.974999999999998,74.97885827617968L31.049999999999997,74.97864610051944L31.124999999999993,74.97843179855147L31.200000000000003,74.97821534902872L31.275,74.9779967304931L31.349999999999998,74.97777592127345L31.424999999999994,74.97755289948326L31.500000000000004,74.97732764301877L31.575,74.97710012955667L31.65,74.97687033655211L31.724999999999994,74.97663824123637L31.800000000000004,74.97640382061478L31.875,74.97616705146442L31.95,74.97592791033199L32.025,74.97568637353143L32.1,74.97544241714176L32.175,74.97519601700465L32.25,74.97494714872225L32.324999999999996,74.97469578765471L32.400000000000006,74.97444190891788L32.475,74.97418548738096L32.55,74.97392649766398L32.62499999999999,74.97366491413545L32.7,74.9734007109099L32.775,74.97313386184533L32.85,74.9728643405408L32.925,74.97259212033383L32.99999999999999,74.9723171742979L33.075,74.97203947523982L33.15,74.9717589956972L33.224999999999994,74.97147570793572L33.3,74.9711895839466L33.375,74.97090059544385L33.45,74.97060871386162L33.525,74.9703139103514L33.599999999999994,74.97001615577932L33.675000000000004,74.9697154207234L33.75,74.96941167547072L33.824999999999996,74.96910489001453L33.9,74.96879503405154L33.975,74.96848207697884L34.050000000000004,74.96816598789118L34.125,74.967846735578L34.199999999999996,74.96752428852025L34.275,74.96719861488772L34.35,74.96686968253583L34.425,74.96653745900261L34.5,74.96620191150562L34.575,74.96586300693892L34.65,74.96552071186976L34.724999999999994,74.96517499253567L34.8,74.96482581484106L34.875,74.96447314435407L34.95,74.96411694630333L35.025,74.96375718557466L35.099999999999994,74.96339382670779L35.175,74.96302683389295L35.25,74.96265617096755L35.324999999999996,74.96228180141279L35.4,74.96190368835015L35.475,74.961521794538L35.550000000000004,74.96113608236809L35.625,74.96074651386193L35.699999999999996,74.96035305066734L35.775,74.9599556540548L35.85,74.95955428491379L35.925,74.9591489037492L36,74.95873947067759L36.074999999999996,74.9583259454234L36.150000000000006,74.9579082873153L36.225,74.9574864552824L36.3,74.95706040785021L36.375,74.95663010313697L36.45,74.95619549884977L36.525,74.9557565522804L36.6,74.95531322030162L36.675,74.9548654593629L36.74999999999999,74.95441322548666L36.825,74.9539564742639L36.9,74.95349516085027L36.975,74.95302923996182L37.05,74.95255866587088L37.125,74.95208339240173L37.2,74.9516033729264L37.275,74.95111856036031L37.349999999999994,74.95062890715799L37.425,74.9501343653086L37.5,74.94963488633161L37.575,74.94913042127222L37.65,74.94862092069694L37.725,74.94810633468899L37.8,74.94758661284372L37.875,74.94706170426404L37.95,74.94653155755572L38.025,74.94599612082257L38.1,74.94545534166187L38.175,74.94490916715942L38.25,74.94435754388485L38.325,74.94380041788658L38.4,74.94323773468706L38.475,74.94266943927764L38.550000000000004,74.94209547611366L38.62499999999999,74.94151578910947L38.7,74.94093032163313L38.775,74.94033901650143L38.85,74.93974181597464L38.92499999999999,74.93913866175133L39,74.93852949496299L39.075,74.93791425616882L39.15,74.9372928853503L39.224999999999994,74.93666532190578L39.300000000000004,74.93603150464503L39.375,74.9353913717837L39.45,74.9347448609378L39.52499999999999,74.93409190911812L39.6,74.93343245272446L39.675000000000004,74.93276642754009L39.75,74.93209376872584L39.824999999999996,74.93141441081444L39.900000000000006,74.93072828770458L39.975,74.93003533265504L40.050000000000004,74.92933547827873L40.12499999999999,74.92862865653674L40.2,74.92791479873223L40.275000000000006,74.92719383550437L40.35,74.92646569682215L40.425,74.92573031197821L40.49999999999999,74.92498760958262L40.575,74.92423751755642L40.650000000000006,74.9234799631255L40.724999999999994,74.92271487281398L40.8,74.92194217243781L40.875,74.92116178709831L40.95,74.9203736411755L41.02499999999999,74.91957765832156L41.099999999999994,74.91877376145408L41.175000000000004,74.91796187274934L41.25,74.91714191363555L41.324999999999996,74.91631380478597L41.4,74.91547746611205L41.475,74.91463281675641L41.550000000000004,74.91377977508583L41.62499999999999,74.91291825868421L41.699999999999996,74.91204818434548L41.775000000000006,74.91116946806629L41.85,74.9102820250389L41.925,74.90938576964378L41.99999999999999,74.90848061544227L42.075,74.90756647516925L42.150000000000006,74.9066432607255L42.224999999999994,74.90571088317029L42.3,74.90476925271378L42.37499999999999,74.90381827870925L42.45,74.90285786964557L42.525,74.9018879331392L42.599999999999994,74.90090837592653L42.675,74.89991910385596L42.75000000000001,74.89892002187979L42.824999999999996,74.89791103404644L42.9,74.89689204349216L42.974999999999994,74.895862952433L43.050000000000004,74.89482366215655L43.125,74.8937740730137L43.199999999999996,74.89271408441034L43.275,74.89164359479888L43.35000000000001,74.89056250166982L43.425,74.88947070154339L43.5,74.88836808996061L43.574999999999996,74.88725456147506L43.650000000000006,74.88613000964389L43.724999999999994,74.88499432701907L43.8,74.88384740513872L43.875,74.88268913451797L43.95,74.8815194046402L44.025,74.88033810394784L44.099999999999994,74.8791451198334L44.175,74.87794033863018L44.25000000000001,74.87672364560318L44.324999999999996,74.87549492493967L44.4,74.87425405973994L44.474999999999994,74.87300093200774L44.55,74.87173542264091L44.625,74.87045741142175L44.699999999999996,74.86916677700745L44.775,74.86786339692026L44.85,74.86654714753791L44.925,74.86521790408366L45,74.86387554061642L45.074999999999996,74.86251993002084L45.15,74.8611509439972L45.225,74.85976845305139L45.3,74.85837232648468L45.375,74.85696243238354L45.45000000000001,74.85553863760934L45.525,74.85410080778793L45.6,74.85264880729922L45.675,74.85118249926676L45.75,74.84970174554701L45.824999999999996,74.84820640671892L45.9,74.84669634207303L45.975,74.84517140960078L46.050000000000004,74.84363146598368L46.125,74.84207636658239L46.2,74.84050596542573L46.275,74.83892011519974L46.35,74.83731866723632L46.425,74.83570147150239L46.49999999999999,74.8340683765884L46.575,74.83241922969715L46.65,74.8307538766323L46.725,74.82907216178712L46.8,74.82737392813276L46.875,74.82565901720683L46.95,74.82392726910167L47.025,74.82217852245279L47.099999999999994,74.82041261442691L47.175,74.81862938071025L47.25,74.81682865549665L47.325,74.81501027147549L47.4,74.81317405981976L47.475,74.81131985017394L47.55,74.80944747064189L47.625,74.80755674777454L47.699999999999996,74.80564750655769L47.775,74.80371957039968L47.85,74.80177276111891L47.925000000000004,74.79980689893144L48,74.79782180243843L48.075,74.79581728861365L48.15,74.79379317279064L48.225,74.79174926865024L48.29999999999999,74.78968538820764L48.37499999999999,74.78760134179973L48.45,74.78549693807204L48.525,74.783371983966L48.6,74.78122628470577L48.675000000000004,74.77905964378535L48.75,74.77687186295535L48.825,74.77466274220997L48.89999999999999,74.7724320797737L48.974999999999994,74.77017967208813L49.050000000000004,74.76790531379856L49.125,74.76560879774073L49.2,74.7632899149274L49.275000000000006,74.76094845453478L49.35,74.75858420388924L49.425000000000004,74.75619694845358L49.49999999999999,74.7537864718135L49.574999999999996,74.751352555664L49.650000000000006,74.74889497979557L49.725,74.74641352208067L49.800000000000004,74.74390795845979L49.875,74.7413780629277L49.95,74.73882360751968L50.025000000000006,74.7362443622975L50.099999999999994,74.7336400953356L50.175,74.73101057270716L50.24999999999999,74.72835555847006L50.325,74.72567481465285L50.39999999999999,74.72296810124075L50.475,74.72023517616161L50.550000000000004,74.71747579527168L50.625,74.71468971234162L50.699999999999996,74.7118766790423L50.775,74.70903644493055L50.849999999999994,74.7061687574351L50.925000000000004,74.70327336184226L50.99999999999999,74.70035000128178L51.075,74.69739841671247L51.150000000000006,74.6944183469081L51.225,74.691409528443L51.3,74.68837169567787L51.37499999999999,74.68530458074544L51.449999999999996,74.68220791353615L51.525000000000006,74.67908142168397L51.599999999999994,74.67592483055195L51.675000000000004,74.67273786321803L51.75000000000001,74.66952024046071L51.825,74.66627168074474L51.9,74.6629919002069L51.974999999999994,74.65968061264167L52.05,74.65633752948699L52.12499999999999,74.65296235981005L52.199999999999996,74.64955481029297L52.275,74.64611458521874L52.35,74.64264138645692L52.425000000000004,74.63913491344952L52.5,74.63559486319694L52.574999999999996,74.63202093024373L52.65,74.62841280666466L52.724999999999994,74.62477018205067L52.8,74.62109274349483L52.875,74.61738017557849L52.95,74.61363216035728L53.025000000000006,74.60984837734738L53.099999999999994,74.60602850351162L53.175,74.6021722132459L53.25,74.59827917836529L53.324999999999996,74.59434906809065L53.4,74.59038154903497L53.474999999999994,74.58637628518993L53.550000000000004,74.58233293791243L53.62500000000001,74.57825116591138L53.699999999999996,74.57413062523439L53.775,74.56997096925461L53.849999999999994,74.56577184865775L53.925,74.56153291142901L54,74.55725380284021L54.074999999999996,74.55293416543712L54.15,74.54857363902669L54.22500000000001,74.54417186066449L54.3,74.53972846464237L54.375,74.535243082476L54.449999999999996,74.5307153428928L54.525,74.52614487181974L54.6,74.52153129237146L54.675,74.51687422483852L54.75,74.51217328667558L54.82500000000001,74.50742809249006L54.9,74.50263825403063L54.975,74.49780338017612L55.05,74.49292307692431L55.125,74.48799694738122L55.199999999999996,74.48302459175028L55.275,74.47800560732185L55.35,74.47293958846281L55.425000000000004,74.46782612660647L55.5,74.46266481024247L55.575,74.45745522490719L55.65,74.45219695317401L55.725,74.446889574644L55.8,74.44153266593678L55.87499999999999,74.43612580068158L55.95,74.43066854950857L56.025,74.42516048004032L56.1,74.4196011568837L56.175,74.4139901416217L56.25,74.40832699280588L56.325,74.4026112659488L56.4,74.39684251351683L56.474999999999994,74.39102028492319L56.55,74.38514412652127L56.625,74.37921358159835L56.7,74.37322819036936L56.775,74.36718748997114L56.85,74.36109101445702L56.925,74.35493829479147L57,74.34872885884538L57.074999999999996,74.34246223139148L57.15,74.33613793410004L57.225,74.32975548553513L57.300000000000004,74.32331440115092L57.375,74.31681419328869L57.45,74.3102543711738L57.525,74.3036344409134L57.6,74.29695390549428L57.67499999999999,74.29021226478113L57.74999999999999,74.28340901551528L57.825,74.27654365131379L57.9,74.26961566266888L57.975,74.26262453694785L58.050000000000004,74.25556975839342L58.125,74.2484508081244L58.2,74.24126716413696L58.27499999999999,74.23401830130615L58.349999999999994,74.22670369138807L58.425000000000004,74.21932280302227L58.5,74.21187510173479L58.575,74.20436004994167L58.650000000000006,74.19677710695288L58.725,74.18912572897666L58.800000000000004,74.18140536912452L58.87499999999999,74.17361547741667L58.949999999999996,74.16575550078802L59.025000000000006,74.1578248830945L59.1,74.14982306512017L59.175000000000004,74.14174948458484L59.25,74.13360357615184L59.325,74.12538477143704L59.400000000000006,74.1170924990178L59.474999999999994,74.1087261844428L59.55,74.1002852502424L59.625,74.09176911593954L59.7,74.08317719806134L59.77499999999999,74.07450891015111L59.85,74.06576366278125L59.925000000000004,74.05694086356644L60,74.0480399171777L60.074999999999996,74.0390602253571L60.15,74.03000118693289L60.224999999999994,74.02086219783548L60.3,74.01164265111397L60.37500000000001,74.00234193695351L60.45,73.99295944269302L60.525000000000006,73.98349455284401L60.6,73.97394664910972L60.675,73.96431511040514L60.74999999999999,73.9545993128778L60.824999999999996,73.94479862992898L60.9,73.93491243223606L60.974999999999994,73.92494008777523L61.050000000000004,73.91488096184511L61.12500000000001,73.90473441709118L61.2,73.89449981353073L61.275,73.88417650857879L61.349999999999994,73.87376385707474L61.425,73.86326121130965L61.49999999999999,73.85266792105443L61.575,73.8419833335889L61.650000000000006,73.83120679373131L61.725,73.82033764386908L61.800000000000004,73.80937522398997L61.875,73.79831887171436L61.949999999999996,73.78716792232811L62.025,73.77592170881644L62.099999999999994,73.76457956189843L62.175,73.7531408100626L62.25000000000001,73.74160477960301L62.325,73.72997079465658L62.400000000000006,73.71823817724096L62.474999999999994,73.70640624729337L62.55,73.69447432271029L62.625,73.68244171938801L62.699999999999996,73.67030775126405L62.775,73.65807173035945L62.84999999999999,73.64573296682194L62.925000000000004,73.6332907689699L63.00000000000001,73.62074444333746L63.074999999999996,73.60809329472005L63.15,73.59533662622133L63.224999999999994,73.58247373930057L63.3,73.56950393382134L63.375,73.55642650810067L63.45,73.5432407589594L63.525000000000006,73.52994598177341L63.60000000000001,73.51654147052552L63.675,73.50302651785861L63.75,73.48940041512937L63.824999999999996,73.47566245246306L63.9,73.46181191880929L63.975,73.44784810199843L64.05,73.43377028879917L64.125,73.4195777649768L64.2,73.40526981535257L64.275,73.39084572386375L64.35,73.37630477362472L64.425,73.36164624698893L64.5,73.34686942561163L64.575,73.3319735905137L64.64999999999999,73.31695802214622L64.725,73.30182200045591L64.80000000000001,73.28656480495148L64.875,73.27118571477092L64.95,73.25568400874954L65.025,73.24005896548886L65.1,73.22430986342651L65.175,73.20843598090688L65.24999999999999,73.19243659625256L65.325,73.17631098783669L65.4,73.16005843415611L65.475,73.14367821390542L65.55,73.12716960605155L65.625,73.1105318899097L65.7,73.09376434521938L65.775,73.07686625222183L65.85,73.05983689173785L65.925,73.04267554524654L66.00000000000001,73.02538149496478L66.075,73.00795402392743L66.15,72.99039241606827L66.225,72.97269595630176L66.3,72.95486393060521L66.375,72.93689562610201L66.44999999999999,72.91879033114535L66.52499999999999,72.90054733540254L66.6,72.88216592994019L66.675,72.86364540730982L66.75,72.84498506163428L66.825,72.82618418869453L66.9,72.80724208601731L66.975,72.78815805296317L67.05,72.76893139081507L67.125,72.74956140286767L67.2,72.73004739451696L67.275,72.71038867335048L67.35000000000001,72.69058454923805L67.425,72.67063433442291L67.5,72.65053734361334L67.575,72.63029289407459L67.64999999999999,72.60990030572151L67.725,72.58935890121114L67.8,72.56866800603609L67.875,72.54782694861787L67.95,72.52683506040084L68.025,72.50569167594634L68.10000000000001,72.48439613302702L68.175,72.46294777272152L68.25,72.44134593950935L68.32499999999999,72.41958998136592L68.39999999999999,72.39767924985786L68.47500000000001,72.37561310023831L68.55,72.35339089154256L68.625,72.33101198668354L68.7,72.30847575254758L68.775,72.28578156009016L68.85,72.26292878443167L68.925,72.23991680495305L69,72.21674500539167L69.075,72.19341277393686L69.15,72.16991950332553L69.22500000000001,72.14626459093762L69.3,72.1224474388913L69.375,72.09846745413826L69.44999999999999,72.07432404855847L69.52499999999999,72.05001663905499L69.6,72.0255446476483L69.675,72.00090750157052L69.75,71.97610463335907L69.825,71.9511354809503L69.9,71.92599948777253L69.97500000000001,71.9006961028386L70.05,71.87522478083821L70.125,71.84958498222963L70.19999999999999,71.823776173331L70.27499999999999,71.79779782641091L70.35000000000001,71.77164941977878L70.42500000000001,71.74533043787416L70.5,71.71884037135585L70.575,71.69217871719015L70.64999999999999,71.66534497873835L70.725,71.63833866584376L70.8,71.6111592949177L70.875,71.58380638902497L70.95,71.55627947796829L71.025,71.52857809837211L71.10000000000001,71.50070179376537L71.17500000000001,71.47265011466344L71.25,71.4444226186492L71.325,71.41601887045303L71.39999999999999,71.38743844203192L71.475,71.35868091264747L71.55,71.32974586894292L71.625,71.3006329050191L71.7,71.27134162250918L71.775,71.24187163065245L71.85,71.21222254636685L71.925,71.18239399432017L72,71.15238560700035L72.075,71.1221970247843L72.14999999999999,71.09182789600547L72.22500000000001,71.06127787702023L72.30000000000001,71.03054663227287L72.375,70.99963383435917L72.45,70.96853916408877L72.52499999999999,70.93726231054605L72.6,70.90580297114943L72.675,70.87416085170965L72.75,70.84233566648605L72.825,70.8103271382418L72.9,70.7781349982974L72.97500000000001,70.7457589865826L73.05,70.71319885168698L73.125,70.68045435090868L73.2,70.64752525030181L73.27499999999999,70.61441132472203L73.35,70.58111235787057L73.425,70.54762814233663L73.5,70.51395847963808L73.575,70.4801031802604L73.65,70.44606206369414L73.725,70.41183495847032L73.8,70.37742170219445L73.875,70.34282214157851L73.95,70.30803613247136L74.02499999999999,70.27306353988733L74.10000000000001,70.23790423803291L74.17500000000001,70.20255811033182L74.25,70.16702504944821L74.325,70.13130495730792L74.4,70.09539774511806L74.475,70.05930333338478L74.55,70.02302165192893L74.62499999999999,69.98655263990035L74.7,69.94989624578974L74.775,69.91305242743914L74.85,69.87602115205024L74.925,69.83880239619103L75,69.80139614580041L75.07499999999999,69.76380239619104L75.15,69.72602115205024L75.225,69.68805242743913L75.3,69.64989624578973L75.37500000000001,69.61155263990034L75.45,69.57302165192895L75.525,69.53430333338477L75.6,69.49539774511808L75.675,69.45630495730792L75.75,69.41702504944821L75.82499999999999,69.37755811033183L75.9,69.33790423803289L75.97500000000001,69.29806353988732L76.05,69.25803613247137L76.12500000000001,69.21782214157852L76.2,69.17742170219445L76.27499999999999,69.13683495847033L76.35,69.09606206369415L76.425,69.05510318026039L76.5,69.01395847963805L76.575,68.97262814233662L76.65,68.93111235787056L76.72500000000001,68.88941132472202L76.8,68.84752525030181L76.875,68.80545435090868L76.95,68.76319885168698L77.02499999999999,68.72075898658261L77.10000000000001,68.6781349982974L77.175,68.63532713824179L77.25,68.59233566648604L77.32500000000002,68.54916085170964L77.4,68.50580297114944L77.475,68.46226231054605L77.55,68.41853916408878L77.625,68.37463383435917L77.7,68.33054663227287L77.77499999999999,68.28627787702024L77.85000000000001,68.24182789600547L77.92500000000001,68.1971970247843L78,68.15238560700035L78.07499999999999,68.10739399432016L78.15,68.06222254636684L78.225,68.01687163065246L78.3,67.97134162250919L78.375,67.92563290501909L78.45,67.87974586894292L78.525,67.83368091264748L78.60000000000001,67.78743844203193L78.675,67.74101887045305L78.75,67.69442261864921L78.82499999999999,67.64765011466345L78.9,67.60070179376537L78.975,67.55357809837211L79.04999999999998,67.5062794779683L79.12500000000001,67.45880638902497L79.2,67.4111592949177L79.27499999999999,67.36333866584374L79.35000000000001,67.31534497873835L79.425,67.26717871719015L79.5,67.21884037135585L79.57499999999999,67.17033043787416L79.64999999999999,67.12164941977878L79.72500000000001,67.07279782641092L79.80000000000001,67.02377617333099L79.875,66.97458498222963L79.95,66.92522478083819L80.02499999999999,66.8756961028386L80.10000000000001,66.82599948777253L80.175,66.7761354809503L80.24999999999999,66.72610463335906L80.32500000000002,66.6759075015705L80.4,66.62554464764831L80.475,66.575016639055L80.55000000000001,66.52432404855847L80.625,66.47346745413826L80.7,66.4224474388913L80.77499999999999,66.37126459093761L80.85,66.31991950332554L80.925,66.26841277393686L81,66.21674500539167L81.075,66.16491680495305L81.15,66.11292878443166L81.225,66.06078156009016L81.30000000000001,66.00847575254757L81.375,65.95601198668354L81.44999999999999,65.90339089154256L81.52499999999999,65.85061310023832L81.60000000000001,65.79767924985785L81.675,65.7445899813659L81.75,65.69134593950933L81.825,65.63794777272152L81.9,65.58439613302701L81.975,65.53069167594634L82.04999999999998,65.47683506040083L82.125,65.42282694861787L82.2,65.36866800603609L82.27499999999999,65.31435890121115L82.35000000000001,65.2599003057215L82.425,65.20529289407459L82.5,65.15053734361332L82.575,65.09563433442291L82.64999999999999,65.04058454923806L82.725,64.98538867335047L82.8,64.93004739451695L82.875,64.87456140286767L82.95,64.81893139081508L83.025,64.76315805296316L83.10000000000001,64.70724208601732L83.175,64.65118418869453L83.24999999999999,64.59498506163428L83.325,64.53864540730982L83.4,64.48216592994018L83.475,64.42554733540253L83.55000000000001,64.36879033114533L83.625,64.31189562610201L83.7,64.25486393060521L83.775,64.19769595630176L83.85,64.14039241606827L83.925,64.08295402392741L83.99999999999999,64.02538149496476L84.075,63.967675545246536L84.15,63.909836891737854L84.225,63.85186625222184L84.30000000000001,63.7937643452194L84.375,63.735531889909694L84.44999999999999,63.677169606051564L84.525,63.6186782139054L84.6,63.56005843415612L84.675,63.50131098783669L84.75000000000001,63.44243659625255L84.825,63.38343598090688L84.9,63.32430986342649L84.975,63.26505896548885L85.05,63.20568400874954L85.125,63.14618571477094L85.19999999999999,63.08656480495149L85.275,63.026822000455894L85.35000000000001,62.966958022146216L85.425,62.9069735905137L85.50000000000001,62.846869425611615L85.575,62.78664624698892L85.64999999999999,62.72630477362473L85.725,62.66584572386377L85.8,62.60526981535257L85.875,62.54457776497681L85.95,62.483770288799164L86.025,62.422848101998426L86.10000000000001,62.36181191880928L86.175,62.30066245246306L86.25,62.23940041512935L86.325,62.17802651785861L86.39999999999999,62.11654147052553L86.47500000000001,62.0549459817734L86.55,61.9932407589594L86.625,61.93142650810066L86.70000000000002,61.86950393382135L86.775,61.807473739300576L86.85,61.7453366262213L86.925,61.68309329472005L87,61.62074444333747L87.075,61.558290768969925L87.15,61.49573296682192L87.22500000000001,61.433071730359444L87.30000000000001,61.370307751264036L87.375,61.30744171938801L87.44999999999999,61.24447432271029L87.525,61.18140624729337L87.6,61.11823817724097L87.675,61.0549707946566L87.75,60.991604779602994L87.825,60.92814081006259L87.9,60.864579561898424L87.97500000000001,60.80092170881643L88.05,60.7371679223281L88.125,60.67331887171434L88.19999999999999,60.60937522398996L88.275,60.545337643869075L88.35,60.48120679373132L88.42499999999998,60.4169833335889L88.50000000000001,60.35266792105445L88.575,60.288261211309646L88.64999999999999,60.223763857074744L88.72500000000001,60.159176508578796L88.8,60.09449981353073L88.875,60.02973441709116L88.94999999999999,59.96488096184511L89.025,59.89994008777522L89.10000000000001,59.83491243223607L89.17500000000001,59.76979862992897L89.25,59.704599312877804L89.325,59.63931511040515L89.39999999999999,59.573946649109715L89.47500000000001,59.508494552844L89.55,59.442959442693024L89.62499999999999,59.377341936953485L89.70000000000002,59.31164265111397L89.775,59.24586219783548L89.85,59.18000118693291L89.92500000000001,59.11406022535711L90,59.048039917177704L90.075,58.98194086356642L90.14999999999999,58.915763662781245L90.22500000000001,58.849508910151116L90.3,58.78317719806134L90.375,58.71676911593954L90.45,58.65028525024239L90.525,58.583726184442796L90.6,58.51709249901781L90.67500000000001,58.45038477143703L90.75,58.38360357615184L90.82499999999999,58.31674948458482L90.90000000000002,58.2498230651202L90.975,58.1828248830945L91.05,58.115755500788026L91.125,58.04861547741669L91.2,57.981405369124516L91.275,57.91412572897664L91.35,57.846777106952885L91.42499999999998,57.77936004994169L91.5,57.711875101734776L91.575,57.64432280302225L91.64999999999999,57.576703691388076L91.72500000000001,57.509018301306156L91.8,57.44126716413696L91.875,57.37345080812439L91.95,57.30556975839342L92.02499999999999,57.23762453694786L92.10000000000001,57.169615662668875L92.175,57.101543651313776L92.25,57.03340901551529L92.325,56.96521226478113L92.4,56.89695390549426L92.47500000000001,56.828634440913405L92.55,56.7602543711738L92.62499999999999,56.69181419328869L92.7,56.62331440115092L92.775,56.554755485535125L92.85,56.48613793410006L92.92500000000001,56.41746223139147L93,56.34872885884538L93.075,56.27993829479145L93.15,56.21109101445701L93.225,56.142187489971136L93.3,56.07322819036936L93.37499999999999,56.004213581598364L93.45,55.93514412652128L93.525,55.86602028492317L93.6,55.79684251351682L93.67500000000001,55.727611265948795L93.75,55.65832699280588L93.82499999999999,55.58899014162168L93.9,55.519601156883695L93.97500000000001,55.450160480040324L94.05,55.380668549508556L94.12500000000001,55.311125800681566L94.2,55.241532665936774L94.275,55.171889574643984L94.35,55.102196953174015L94.425,55.032455224907196L94.5,54.96266481024247L94.57499999999999,54.89282612660645L94.65,54.8229395884628L94.725,54.75300560732184L94.8,54.68302459175028L94.87500000000001,54.612996947381205L94.95,54.54292307692431L95.02499999999999,54.47280338017612L95.1,54.402638254030634L95.175,54.33242809249005L95.25,54.262173286675576L95.325,54.1918742248385L95.4,54.12153129237146L95.47500000000001,54.05114487181973L95.55,53.98071534289281L95.625,53.910243082476L95.7,53.83972846464236L95.77499999999999,53.7691718606645L95.85000000000001,53.69857363902668L95.925,53.627934165437125L96,53.55725380284021L96.07500000000002,53.486532911428995L96.15,53.41577184865777L96.225,53.34497096925462L96.3,53.27413062523438L96.375,53.20325116591137L96.45,53.13233293791242L96.525,53.06137628518994L96.59999999999998,52.99038154903498L96.67500000000001,52.91934906809064L96.75,52.84827917836529L96.82499999999999,52.777172213245876L96.9,52.70602850351162L96.975,52.63484837734737L97.05,52.56363216035727L97.125,52.492380175578475L97.2,52.42109274349485L97.275,52.34977018205066L97.35000000000001,52.27841280666466L97.425,52.20702093024373L97.5,52.13559486319694L97.57499999999999,52.064134913449536L97.65,51.99264138645691L97.72500000000001,51.92111458521873L97.79999999999998,51.84955481029296L97.87500000000001,51.77796235981003L97.95,51.706337529487L98.02499999999999,51.63468061264166L98.10000000000001,51.562991900206896L98.175,51.49127168074473L98.25,51.419520240460685L98.32499999999999,51.34773786321803L98.4,51.27592483055196L98.475,51.204081421683966L98.55000000000001,51.13220791353616L98.625,51.060304580745424L98.7,50.98837169567787L98.77499999999999,50.91640952844301L98.85000000000001,50.8444183469081L98.925,50.77239841671248L98.99999999999999,50.70035000128176L99.07500000000002,50.628273361842275L99.15,50.55616875743509L99.225,50.48403644493055L99.30000000000001,50.411876679042294L99.375,50.33968971234164L99.45,50.267475795271665L99.52499999999999,50.19523517616162L99.60000000000001,50.12296810124076L99.675,50.05067481465284L99.75,49.97835555847004L99.825,49.90601057270716L99.9,49.833640095335596L99.975,49.76124436229749L100.05000000000001,49.68882360751968L100.125,49.61637806292771L100.19999999999999,49.5439079584598L100.27500000000002,49.47141352208067L100.35,49.398894979795585L100.425,49.32635255566399L100.5,49.2537864718135L100.575,49.181196948453575L100.65,49.10858420388925L100.725,49.035948454534775L100.79999999999998,48.96328991492739L100.875,48.890608797740725L100.95,48.81790531379856L101.02499999999999,48.74517967208811L101.10000000000001,48.672432079773714L101.175,48.59966274220996L101.25,48.52687186295536L101.325,48.45405964378534L101.39999999999999,48.381226284705775L101.47500000000001,48.30837198396601L101.55,48.23549693807206L101.625,48.16260134179973L101.7,48.08968538820764L101.775,48.016749268650244L101.85000000000001,47.943793172790635L101.925,47.87081728861362L101.99999999999999,47.79782180243845L102.075,47.72480689893143L102.15,47.651772761118906L102.225,47.578719570399684L102.30000000000001,47.50564750655771L102.375,47.43255674777454L102.45,47.35944747064188L102.525,47.28631985017394L102.6,47.213174059819735L102.675,47.14001027147549L102.74999999999999,47.066828655496636L102.825,46.993629380710274L102.9,46.92041261442691L102.975,46.84717852245279L103.05000000000001,46.77392726910166L103.125,46.7006590172068L103.19999999999999,46.627373928132755L103.275,46.55407216178712L103.35000000000001,46.48075387663232L103.425,46.40741922969714L103.50000000000001,46.334068376588405L103.575,46.26070147150239L103.65,46.187318667236326L103.725,46.11392011519973L103.8,46.04050596542575L103.875,45.96707636658239L103.94999999999999,45.893631465983674L104.025,45.82017140960076L104.1,45.74669634207304L104.175,45.67320640671893L104.25000000000001,45.59970174554701L104.325,45.52618249926675L104.39999999999999,45.45264880729923L104.475,45.379100807787935L104.55,45.30553863760936L104.625,45.231962432383554L104.7,45.15837232648468L104.775,45.08476845305138L104.85000000000001,45.011150943997194L104.925,44.93751993002083L105,44.863875540616434L105.075,44.790217904083676L105.14999999999999,44.71654714753791L105.22500000000001,44.64286339692025L105.3,44.56916677700744L105.375,44.49545741142177L105.45000000000002,44.42173542264091L105.525,44.348000932007736L105.6,44.27425405973993L105.675,44.200494924939676L105.75,44.12672364560318L105.825,44.052940338630165L105.9,43.979145119833376L105.97499999999998,43.905338103947855L106.05000000000001,43.83151940464019L106.125,43.757689134517975L106.19999999999999,43.68384740513872L106.275,43.609994327019095L106.35,43.53613000964387L106.425,43.46225456147508L106.5,43.38836808996062L106.575,43.31447070154336L106.64999999999999,43.24056250166984L106.72500000000001,43.16664359479887L106.8,43.092714084410346L106.875,43.0187740730137L106.94999999999999,42.94482366215654L107.025,42.870862952433L107.10000000000001,42.796892043492164L107.17499999999998,42.72291103404643L107.25000000000001,42.6489200218798L107.325,42.57491910385595L107.39999999999999,42.50090837592654L107.47500000000001,42.42688793313921L107.55,42.35285786964556L107.625,42.27881827870927L107.69999999999999,42.20476925271379L107.775,42.13071088317028L107.85,42.056643260725494L107.92500000000001,41.982566475169264L108,41.90848061544227L108.075,41.834385769643774L108.14999999999999,41.760282025038904L108.22500000000001,41.68616946806631L108.30000000000001,41.61204818434547L108.37499999999999,41.53791825868423L108.45000000000002,41.46377977508584L108.52499999999999,41.38963281675642L108.6,41.31547746611206L108.67500000000001,41.24131380478599L108.75,41.16714191363555L108.825,41.09296187274933L108.89999999999999,41.01877376145407L108.97500000000001,40.94457765832158L109.05,40.870373641175505L109.125,40.79616178709831L109.2,40.72194217243782L109.275,40.64771487281398L109.35,40.57347996312551L109.42500000000001,40.49923751755644L109.50000000000001,40.4249876095826L109.57499999999999,40.35073031197821L109.65000000000002,40.27646569682216L109.725,40.202193835504374L109.8,40.127914798732235L109.875,40.05362865653673L109.95,39.97933547827873L110.025,39.90503533265503L110.1,39.83072828770459L110.17500000000001,39.75641441081444L110.25,39.682093768725835L110.325,39.607766427540085L110.39999999999999,39.533432452724455L110.47500000000001,39.45909190911809L110.55,39.384744860937786L110.625,39.31039137178368L110.7,39.23603150464503L110.77499999999999,39.16166532190576L110.85000000000001,39.087292885350294L110.925,39.01291425616881L111,38.93852949496299L111.075,38.864138661751326L111.15,38.78974181597465L111.22500000000001,38.71533901650142L111.3,38.64093032163312L111.37500000000001,38.566515789109474L111.45,38.49209547611369L111.525,38.41766943927763L111.6,38.343237734687065L111.67500000000001,38.268800417886595L111.75,38.19435754388485L111.825,38.119909167159435L111.9,38.045455341661864L111.975,37.970996120822576L112.05000000000001,37.89653155755572L112.12499999999999,37.82206170426406L112.2,37.74758661284372L112.27499999999999,37.67310633468897L112.35,37.59862092069693L112.42500000000001,37.52413042127222L112.5,37.44963488633161L112.57499999999999,37.375134365308625L112.65,37.300628907157986L112.72500000000001,37.22611856036032L112.8,37.1516033729264L112.87500000000001,37.07708339240173L112.95,37.00255866587088L113.025,36.928029239961816L113.1,36.85349516085026L113.175,36.77895647426389L113.25000000000001,36.70441322548665L113.32499999999999,36.629865459362904L113.4,36.5553132203016L113.475,36.4807565522804L113.55,36.40619549884977L113.62500000000001,36.33163010313697L113.7,36.257060407850204L113.77499999999999,36.1824864552824L113.85,36.107908287315325L113.92500000000001,36.033325945423385L114,35.95873947067757L114.075,35.88414890374919L114.14999999999999,35.80955428491379L114.22500000000001,35.7349556540548L114.3,35.66035305066734L114.375,35.585746513861935L114.45,35.5111360823681L114.52499999999999,35.43652179453801L114.60000000000001,35.36190368835014L114.675,35.287281801412774L114.75,35.21265617096755L114.82500000000002,35.13802683389294L114.9,35.06339382670778L114.975,34.98875718557467L115.05,34.91411694630334L115.12500000000001,34.83947314435406L115.2,34.764825814841075L115.275,34.690174992535674L115.34999999999998,34.61552071186978L115.42500000000001,34.540863006938906L115.5,34.46620191150562L115.57499999999999,34.39153745900262L115.65,34.316869682535824L115.725,34.24219861488774L115.8,34.16752428852024L115.875,34.09284673557798L115.95,34.01816598789121L116.02499999999999,33.94348207697885L116.10000000000001,33.86879503405153L116.175,33.79410489001454L116.25,33.719411675470724L116.32499999999999,33.644715420723415L116.4,33.570016155779314L116.47500000000001,33.495313910351385L116.54999999999998,33.42060871386161L116.62500000000001,33.345900595443865L116.7,33.271189583946594L116.77499999999999,33.196475707935704L116.85000000000001,33.12175899569719L116.925,33.04703947523983L117,32.9723171742979L117.07499999999999,32.89759212033384L117.15,32.82286434054079L117.225,32.74813386184533L117.30000000000001,32.6734007109099L117.375,32.59866491413544L117.45,32.52392649766399L117.52499999999999,32.44918548738097L117.60000000000001,32.37444190891789L117.67500000000001,32.2996957876547L117.74999999999999,32.22494714872225L117.82500000000002,32.150196017004646L117.89999999999999,32.07544241714176L117.975,32.00068637353145L118.05000000000001,31.925927910331993L118.125,31.85116705146443L118.2,31.77640382061479L118.27499999999999,31.701638241236367L118.35000000000001,31.626870336552102L118.425,31.552100129556678L118.5,31.477327643018782L118.575,31.402552899483254L118.65,31.327775921273457L118.725,31.252996730493123L118.80000000000001,31.178215349028733L118.87500000000001,31.103431798551455L118.94999999999999,31.028646100519452L119.02500000000002,30.953858276179687L119.1,30.879068346570165L119.175,30.804276332521923L119.25,30.72948225466098L119.325,30.654686133410436L119.4,30.579887988992326L119.475,30.505087841429713L119.55000000000001,30.430285710548517L119.625,30.355481615979457L119.7,30.280675577159997L119.77499999999999,30.20586761333618L119.85000000000001,30.131057743564497L119.925,30.05624598671379L120,29.981432361467014L120.07499999999999,29.90661688632308L120.14999999999999,29.83179957959868L120.22500000000001,29.75698045942994L120.3,29.682159543774347L120.375,29.607336850412423L120.45000000000002,29.53251239694937L120.525,29.45768620081695L120.6,29.382858279275055L120.675,29.30802864941336L120.75000000000001,29.23319732815314L120.825,29.15836433224871L120.9,29.08352967828924L120.975,29.008693382700272L121.05000000000001,28.933855461745352L121.12499999999999,28.85901593152758L121.2,28.784174807991164L121.27500000000002,28.709332106923128L121.35,28.634487843954616L121.42500000000001,28.55964203456257L121.49999999999999,28.484794694071226L121.575,28.409945837653524L121.64999999999999,28.335095480332754L121.725,28.260243636983773L121.80000000000001,28.18539032233474L121.875,28.11053555096835L121.94999999999999,28.0356793373233L122.025,27.96082169569577L122.10000000000001,27.88596264024072L122.175,27.811102184973407L122.25000000000001,27.736240343770575L122.32500000000002,27.66137713037199L122.4,27.586512558381642L122.47499999999998,27.51164664126921L122.55,27.436779392371193L122.62500000000001,27.361910824892448L122.69999999999999,27.287040951907343L122.775,27.212169786360946L122.85,27.137297341070592L122.925,27.062423628726762L122.99999999999999,26.987548661894635L123.075,26.91267245301522L123.15,26.837795014406396L123.225,26.762916358264434L123.30000000000001,26.688036496664992L123.375,26.613155441564317L123.45,26.538273204800475L123.52499999999999,26.463389798094468L123.60000000000001,26.38850523305142L123.67500000000001,26.31361952116164L123.75,26.238732673801834L123.82499999999999,26.163844702236233L123.89999999999999,26.088955617617586L123.97500000000001,26.01406543098838L124.05,25.93917415328187L124.125,25.86428179532308L124.20000000000002,25.789388367830043L124.275,25.71449388141471L124.35,25.63959834658398L124.425,25.564701773740907L124.50000000000001,25.489804173185533L124.575,25.414905555115965L124.65,25.340005929629427L124.72499999999998,25.265105306723157L124.80000000000001,25.19020369629544L124.87499999999999,25.11530110814671L124.94999999999999,25.040397551980263L125.02500000000002,24.96549303740342L125.1,24.890587573928272L125.175,24.815681170972937L125.25,24.740773837862122L125.325,24.66586558382832L125.39999999999999,24.59095641801251L125.47500000000001,24.516046349465213L125.55000000000001,24.44113538714737L125.625,24.366223539931084L125.69999999999997,24.291310816600685L125.775,24.216397225853413L125.85000000000001,24.141482776300464L125.92499999999998,24.06656747646771L126.00000000000001,23.991651334796515L126.07500000000002,23.916734359644693L126.14999999999999,23.841816559287267L126.225,23.766897941917264L126.3,23.69197851564647L126.375,23.61705828850647L126.44999999999999,23.542137268449096L126.525,23.467215463347557L126.6,23.392292880996877L126.67500000000001,23.317369529114984L126.75,23.242445415343227L126.825,23.167520547247335L126.9,23.092594932317922L126.97500000000001,23.01766857797149L127.05000000000001,22.942741491551004L127.12499999999999,22.867813680326563L127.20000000000002,22.79288515149628L127.27499999999999,22.717955912186966L127.35,22.643025969454698L127.42500000000003,22.56809533028563L127.5,22.49316400159671L127.57499999999999,22.418231990236222L127.64999999999999,22.34329930298462L127.72500000000001,22.268365946555164L127.8,22.193431927594446L127.875,22.118497252683298L127.95000000000002,22.04356192833714L128.025,21.96862596100692L128.1,21.89368935707958L128.175,21.818752122878664L128.25,21.743814264665048L128.325,21.668875788637564L128.4,21.59393670093354L128.475,21.518997007629366L128.55,21.444056714741293L128.625,21.369115828225745L128.7,21.294174353980225L128.775,21.219232297843632L128.85,21.144289665596972L128.925,21.069346462963864L129,20.994402695611313L129.07500000000002,20.91945836914988L129.15,20.844513489134584L129.225,20.76956806106537L129.3,20.694622090387583L129.375,20.619675582492476L129.45,20.544728542717877L129.52499999999998,20.469780976348602L129.60000000000002,20.394832888617117L129.67499999999998,20.31988428470393L129.75,20.244935169738113L129.82500000000002,20.169985548797825L129.9,20.095035426910925L129.975,20.02008480905525L130.05,19.945133700159374L130.125,19.870182105102828L130.2,19.795230028716816L130.275,19.720277475784542L130.35,19.645324451041773L130.425,19.57037095917721L130.49999999999997,19.495417004833087L130.57500000000002,19.42046259260556L130.65,19.34550772704506L130.725,19.27055241265694L130.8,19.195596653901873L130.875,19.120640455196167L130.95,19.045683820912274L131.02499999999998,18.970726755379275L131.1,18.89576926288339L131.175,18.82081134766807L131.25,18.745853013934777L131.325,18.670894265843287L131.4,18.595935107511934L131.47500000000002,18.520975543018267L131.55,18.446015576399418L131.625,18.37105521165219L131.70000000000002,18.296094452734025L131.775,18.221133303562823L131.85,18.146171768017666L131.92499999999998,18.071209849939095L132.00000000000003,17.996247553129592L132.075,17.921284881353785L132.15,17.84632183833898L132.225,17.771358427775453L132.3,17.69639465331676L132.375,17.621430518580297L132.45,17.54646602714743L132.525,17.471501182564054L132.6,17.396535988340787L132.675,17.32157044795335L132.75,17.246604564842983L132.82500000000002,17.171638342416827L132.89999999999998,17.096671784048084L132.97500000000002,17.02170489307639L133.05,16.946737672808382L133.125,16.871770126517703L133.2,16.79680225744559L133.275,16.721834068801L133.35,16.646865563761025L133.42499999999998,16.571896745471292L133.5,16.496927617046055L133.57500000000002,16.421958181568726L133.65,16.34698844209197L133.725,16.27201840163829L133.8,16.197048063200043L133.875,16.122077429739875L133.95,16.04710650419102L134.025,15.972135289457583L134.1,15.897163788414815L134.175,15.82219200390935L134.25,15.7472199387596L134.325,15.67224759575592L134.4,15.597274977661044L134.475,15.522302087210107L134.55,15.447328927111187L134.625,15.372355500045416L134.70000000000002,15.297381808667296L134.775,15.2224078556049L134.85,15.14743364346026L134.925,15.072459174809552L135,14.997484452203253L135.075,14.92250947816666L135.15,14.847534255199804L135.22500000000002,14.772558785778017L135.29999999999998,14.697583072351875L135.375,14.622607117347826L135.45000000000002,14.547630923167958L135.525,14.472654492190685L135.6,14.397677826770718L135.67499999999998,14.32270092923926L135.75,14.247723801904527L135.825,14.172746447051708L135.9,14.097768866943255L135.97500000000002,14.022791063819142L136.05,13.94781303989717L136.125,13.872834797373002L136.20000000000002,13.79785633842053L136.275,13.722877665191987L136.35,13.647898779818263L136.42499999999998,13.572919684409072L136.5,13.497940381053127L136.57500000000002,13.42296087181839L136.64999999999998,13.347981158752248L136.725,13.27300124388185L136.8,13.198021129214027L136.875,13.123040816735795L136.95,13.048060308414364L137.025,12.973079606197388L137.1,12.898098712013166L137.17499999999998,12.82311762777087L137.25,12.748136355360629L137.32500000000002,12.673154896653813L137.4,12.598173253503205L137.475,12.523191427743171L137.55,12.44820942118983L137.625,12.373227235641224L137.7,12.29824487287749L137.775,12.223262334661229L137.85000000000002,12.148279622737363L137.925,12.073296738833534L138,11.998313684660161L138.075,11.923330461910723L138.15,11.848347072261845L138.225,11.773363517373411L138.29999999999998,11.698379798888936L138.375,11.623395918435506L138.45000000000002,11.548411877623977L138.525,11.473427678049404L138.6,11.3984433212907L138.675,11.323458808911312L138.75,11.248474142459031L138.825,11.17348932346627L138.89999999999998,11.098504353450267L138.97500000000002,11.023519233913078L139.04999999999998,10.94853396634187L139.125,10.873548552209087L139.20000000000002,10.798562992972421L139.275,10.723577290075184L139.35,10.64859144494622L139.425,10.573605459000248L139.5,10.498619333637947L139.575,10.423633070245927L139.65,10.348646670197184L139.72500000000002,10.273660134850957L139.8,10.198673465553014L139.87499999999997,10.12368666363568L139.95000000000002,10.04869973041815L140.025,9.973712667206343L140.1,9.89872547529336L140.17499999999998,9.823738155959319L140.25000000000003,9.748750710471654L140.325,9.673763140085214L140.39999999999998,9.598775446042367L140.475,9.523787629573036L140.55,9.44879969189509L140.625,9.373811634214178L140.7,9.29882345772387L140.775,9.223835163606083L140.85000000000002,9.148846753030796L140.925,9.073858227156421L141,8.998869587129946L141.07500000000002,8.92388083408676L141.15,8.848891969151111L141.225,8.773902993435996L141.29999999999998,8.69891390804338L141.37500000000003,8.623924714064287L141.45,8.5489354125788L141.525,8.47394600465634L141.60000000000002,8.398956491355676L141.675,8.323966873725055L141.75,8.248977152802297L141.825,8.173987329614931L141.9,8.098997405180114L141.975,8.024007380505168L142.04999999999998,7.949017256587098L142.12500000000003,7.87402703441316L142.20000000000002,7.799036714960835L142.27499999999998,7.724046299197738L142.35000000000002,7.649055788081995L142.425,7.5740651825620375L142.5,7.49907448357709L142.575,7.424083692056854L142.65,7.349092808921796L142.725,7.274101835083371L142.79999999999998,7.199110771443827L142.875,7.124119618896543L142.95000000000002,7.0491283783258325L143.025,6.974137050607482L143.1,6.899145636608381L143.175,6.824154137186781L143.25,6.749162553192548L143.325,6.674170885466907L143.4,6.599179134842927L143.47500000000002,6.524187302145208L143.55,6.449195388190219L143.625,6.374203393786331L143.7,6.299211319733871L143.775,6.224219166825122L143.85,6.149226935844638L143.92499999999998,6.074234627569041L144.00000000000003,5.999242242767224L144.07500000000002,5.924249782200604L144.15,5.8492572466228125L144.225,5.774264636780117L144.3,5.699271953411255L144.375,5.624279197247745L144.45,5.549286369013771L144.525,5.4742934694262715L144.60000000000002,5.399300499195135L144.67499999999998,5.324307459023061L144.75,5.249314349605953L144.82500000000002,5.174321171632641L144.9,5.099327925785133L144.975,5.02433461273867L145.04999999999998,4.949341233161761L145.125,4.874347787716346L145.2,4.799354277057631L145.275,4.724360701834399L145.35000000000002,4.649367062689038L145.425,4.574373360257454L145.5,4.4993795951691595L145.57500000000002,4.424385768047614L145.65,4.349391879509881L145.725,4.274397930166998L145.79999999999998,4.199403920623865L145.87500000000003,4.124409851479413L145.95000000000002,4.049415723326604L146.02499999999998,3.974421536752402L146.1,3.8994272923381743L146.175,3.8244329906592327L146.25,3.7494386322852904L146.325,3.6744442177804046L146.4,3.5994497477030336L146.475,3.524455222606008L146.54999999999998,3.4494606430367583L146.625,3.374466009537173L146.70000000000002,3.2994713226437966L146.775,3.224476582887803L146.85,3.1494817907951926L146.925,3.074486946886566L147,2.9994920516774926L147.075,2.9244971056782845L147.15,2.849502109394308L147.22500000000002,2.7745070633257853L147.3,2.6995119679680784L147.375,2.6245168238115184L147.45,2.549521631341605L147.525,2.4745263910390065L147.6,2.399531103379587L147.67499999999998,2.3245357688345223L147.75000000000003,2.249540387870269L147.82500000000002,2.1745449609486514L147.9,2.0995494885268613L147.975,2.0245539710576566L148.05,1.9495584089891338L148.125,1.8745628027650412L148.2,1.799567152824693L148.27499999999998,1.7245714596029984L148.35000000000002,1.6495757235305746L148.42499999999998,1.5745799450337472L148.5,1.499584124534607L148.57500000000002,1.424588262451067L148.65,1.349592359196805L148.725,1.2745964151814348L148.8,1.1996004308105057L148.875,1.1246044064855028L148.95,1.0496083426039888L149.025,0.9746122395594341L149.10000000000002,0.899616097741557L149.175,0.8246199175360402L149.24999999999997,0.7496236993248715L149.32500000000002,0.6746274434861732L149.4,0.5996311503942309L149.475,0.5246348204198341L149.54999999999998,0.4496384539297651L149.62500000000003,0.3746420512874238L149.7,0.2996456128524869L149.77499999999998,0.2246491389810501L149.85,0.1496526300256562L149.925,0.0746560863354091L150,-0.0003404917441400812"
          stroke="lightblue" stroke-width="3" fill="none"/>
</svg>