<?xml version="1.0" standalone="no"?>
<svg xmlns="http://www.w3.org/2000/svg" id="svg_4" width="150" height="150" style="background-color: rgb(58, 58, 58);">
    <g transform="translate( 75, 0)" class="axis" fill="none" font-size="10" font-family="sans-serif" text-anchor="end">
        <path class="domain" stroke="#000" d="M0,150.5H0.5V0.5H0" style="stroke: orange; stroke-width: 0.5;"/>
    </g>
    <g transform="translate( 0,75)" class="axis" fill="none" font-size="10" font-family="sans-serif"
       text-anchor="middle">
        <path class="domain" stroke="#000" d="M0.5,0V0.5H150.5V0" style="stroke: orange; stroke-width: 0.5;"/>
    </g>
    <path d="M0,120.45454545454545L0.0749999999999984,120.45040946314832L0.1499999999999968,120.44626593806922L0.2249999999999952,120.44211485870557L0.2999999999999936,120.43795620437956L0.374999999999992,120.4337899543379L0.45000000000000373,120.42961608775137L0.5250000000000021,120.42543458371455L0.6000000000000005,120.42124542124543L0.6749999999999989,120.41704857928505L0.7499999999999973,120.41284403669725L0.8249999999999957,120.40863177226814L0.8999999999999941,120.40441176470588L0.9749999999999925,120.4001839926403L1.0500000000000043,120.39594843462247L1.1250000000000027,120.39170506912441L1.200000000000001,120.38745387453875L1.2749999999999995,120.38319482917821L1.3499999999999979,120.37892791127541L1.4249999999999963,120.37465309898242L1.4999999999999947,120.37037037037038L1.574999999999993,120.36607970342911L1.6500000000000048,120.36178107606679L1.7250000000000032,120.35747446610957L1.8000000000000016,120.35315985130111L1.875,120.34883720930233L1.9499999999999984,120.34450651769087L2.024999999999997,120.34016775396086L2.099999999999995,120.33582089552239L2.1749999999999936,120.33146591970122L2.249999999999992,120.32710280373831L2.3250000000000037,120.32273152478953L2.400000000000002,120.31835205992509L2.4750000000000005,120.31396438612933L2.549999999999999,120.30956848030019L2.6249999999999973,120.30516431924883L2.6999999999999957,120.30075187969925L2.774999999999994,120.29633113828787L2.8499999999999925,120.29190207156309L2.9250000000000043,120.28746465598492L3.0000000000000027,120.28301886792454L3.075000000000001,120.27856468366383L3.1499999999999995,120.27410207939508L3.224999999999998,120.26963103122043L3.2999999999999963,120.26515151515152L3.3749999999999947,120.260663507109L3.449999999999993,120.2561669829222L3.525000000000005,120.25166191832858L3.600000000000003,120.24714828897338L3.6750000000000016,120.24262607040913L3.75,120.23809523809524L3.8249999999999984,120.23355576739752L3.899999999999997,120.22900763358778L3.974999999999995,120.22445081184337L4.049999999999994,120.21988527724665L4.124999999999992,120.2153110047847L4.200000000000004,120.21072796934865L4.275000000000002,120.20613614573347L4.3500000000000005,120.20153550863724L4.424999999999999,120.19692603266091L4.499999999999997,120.1923076923077L4.574999999999996,120.18768046198268L4.649999999999994,120.18304431599229L4.7249999999999925,120.17839922854388L4.800000000000004,120.17374517374517L4.875000000000003,120.16908212560386L4.950000000000001,120.16441005802707L5.0249999999999995,120.15972894482091L5.099999999999998,120.15503875968993L5.174999999999996,120.15033947623667L5.249999999999995,120.14563106796116L5.324999999999993,120.14091350826044L5.400000000000005,120.13618677042803L5.475000000000003,120.13145082765335L5.550000000000002,120.12670565302145L5.625,120.1219512195122L5.699999999999998,120.1171875L5.774999999999997,120.11241446725317L5.849999999999995,120.10763209393346L5.924999999999994,120.1028403525955L5.999999999999992,120.09803921568627L6.075000000000004,120.09322865554465L6.150000000000002,120.08840864440079L6.2250000000000005,120.08357915437561L6.299999999999999,120.07874015748031L6.374999999999997,120.07389162561576L6.449999999999996,120.069033530572L6.524999999999994,120.06416584402764L6.5999999999999925,120.0592885375494L6.675000000000004,120.0544015825915L6.750000000000003,120.04950495049505L6.825000000000001,120.04459861248762L6.8999999999999995,120.03968253968253L6.974999999999998,120.03475670307844L7.049999999999996,120.02982107355865L7.124999999999995,120.02487562189054L7.199999999999993,120.0199203187251L7.275000000000005,120.01495513459622L7.350000000000003,120.00998003992017L7.425000000000002,120.00499500499501L7.5,120L7.574999999999998,119.994994994995L7.649999999999997,119.98997995991985L7.724999999999995,119.98495486459377L7.799999999999994,119.97991967871485L7.874999999999992,119.9748743718593L7.950000000000004,119.96981891348088L8.025000000000002,119.96475327291037L8.100000000000001,119.95967741935483L8.174999999999999,119.95459132189707L8.249999999999996,119.94949494949495L8.324999999999996,119.9443882709808L8.399999999999993,119.93927125506073L8.474999999999993,119.93414387031409L8.550000000000004,119.9290060851927L8.625000000000002,119.9238578680203L8.700000000000001,119.91869918699187L8.774999999999999,119.91353001017293L8.849999999999998,119.90835030549898L8.924999999999997,119.90316004077472L8.999999999999995,119.89795918367346L9.074999999999994,119.89274770173647L9.150000000000006,119.88752556237219L9.225000000000003,119.88229273285569L9.300000000000002,119.87704918032787L9.375,119.87179487179488L9.449999999999998,119.86652977412732L9.524999999999997,119.86125385405961L9.599999999999996,119.85596707818931L9.674999999999994,119.85066941297632L9.749999999999993,119.84536082474227L9.825000000000005,119.84004127966976L9.900000000000002,119.83471074380165L9.975000000000001,119.82936918304033L10.049999999999999,119.824016563147L10.124999999999996,119.81865284974093L10.199999999999996,119.81327800829877L10.274999999999995,119.80789200415369L10.349999999999993,119.8024948024948L10.425000000000004,119.79708636836628L10.500000000000004,119.79166666666667L10.575000000000001,119.78623566214807L10.649999999999999,119.78079331941544L10.724999999999998,119.77533960292581L10.799999999999997,119.76987447698744L10.874999999999995,119.76439790575917L10.949999999999992,119.75890985324948L11.025000000000006,119.75341028331584L11.100000000000003,119.74789915966387L11.175,119.74237644584647L11.25,119.73684210526316L11.324999999999998,119.73129610115912L11.399999999999997,119.72573839662446L11.474999999999996,119.72016895459345L11.549999999999994,119.71458773784356L11.625000000000005,119.70899470899471L11.700000000000005,119.70338983050847L11.775000000000002,119.69777306468717L11.85,119.69214437367305L11.924999999999999,119.6865037194474L11.999999999999998,119.68085106382978L12.074999999999996,119.67518636847711L12.149999999999995,119.66950959488273L12.224999999999993,119.66382070437567L12.300000000000004,119.65811965811966L12.375000000000004,119.6524064171123L12.450000000000001,119.64668094218416L12.524999999999999,119.64094319399786L12.599999999999998,119.63519313304721L12.674999999999997,119.62943071965628L12.749999999999995,119.6236559139785L12.824999999999992,119.6178686759957L12.900000000000006,119.61206896551724L12.975000000000003,119.60625674217907L13.05,119.60043196544277L13.125,119.5945945945946L13.2,119.58874458874459L13.274999999999997,119.58288190682556L13.349999999999994,119.57700650759219L13.424999999999994,119.57111834961998L13.500000000000005,119.56521739130434L13.575000000000003,119.55930359085963L13.650000000000002,119.55337690631808L13.725,119.5474372955289L13.799999999999999,119.5414847161572L13.874999999999998,119.53551912568307L13.949999999999996,119.52954048140043L14.024999999999993,119.52354874041622L14.099999999999993,119.51754385964912L14.175000000000004,119.51152579582876L14.250000000000002,119.5054945054945L14.325000000000001,119.4994499449945L14.4,119.49339207048459L14.474999999999998,119.48732083792723L14.549999999999997,119.4812362030905L14.624999999999995,119.47513812154696L14.699999999999992,119.46902654867257L14.775000000000006,119.46290143964562L14.850000000000003,119.45676274944567L14.925,119.45061043285239L15,119.44444444444444L15.075,119.43826473859845L15.149999999999997,119.43207126948775L15.225000000000001,119.42586399108139L15.3,119.41964285714286L15.374999999999998,119.41340782122906L15.449999999999998,119.40715883668904L15.524999999999995,119.40089585666294L15.600000000000001,119.39461883408072L15.674999999999999,119.38832772166106L15.749999999999996,119.38202247191012L15.824999999999996,119.37570303712036L15.900000000000002,119.36936936936937L15.975,119.3630214205186L16.049999999999997,119.3566591422122L16.124999999999996,119.35028248587571L16.200000000000003,119.34389140271493L16.275,119.3374858437146L16.349999999999998,119.3310657596372L16.424999999999997,119.32463110102157L16.500000000000004,119.31818181818181L16.575,119.31171786120592L16.65,119.30523917995444L16.724999999999998,119.2987457240593L16.8,119.29223744292237L16.875,119.28571428571428L16.95,119.279176201373L17.024999999999995,119.27262313860251L17.1,119.26605504587157L17.175,119.25947187141216L17.25,119.2528735632184L17.324999999999996,119.24626006904488L17.400000000000002,119.23963133640552L17.475,119.23298731257208L17.549999999999997,119.22632794457274L17.624999999999996,119.21965317919076L17.699999999999996,119.21296296296296L17.775000000000002,119.20625724217845L17.849999999999998,119.19953596287702L17.924999999999997,119.19279907084785L17.999999999999996,119.18604651162791L18.075000000000003,119.17927823050059L18.15,119.17249417249417L18.224999999999998,119.1656942823804L18.299999999999997,119.1588785046729L18.375,119.15204678362572L18.45,119.14519906323186L18.525,119.13833528722157L18.599999999999994,119.13145539906104L18.675,119.12455934195066L18.75,119.11764705882352L18.825,119.11071849234393L18.899999999999995,119.10377358490567L18.975,119.09681227863047L19.05,119.08983451536642L19.125,119.0828402366864L19.199999999999996,119.07582938388624L19.275000000000002,119.06880189798339L19.35,119.06175771971496L19.425,119.05469678953627L19.499999999999996,119.04761904761904L19.574999999999996,119.04052443384982L19.650000000000002,119.03341288782816L19.725,119.02628434886499L19.799999999999997,119.01913875598086L19.874999999999996,119.01197604790418L19.950000000000003,119.00479616306954L20.025000000000002,118.99759903961585L20.099999999999998,118.99038461538461L20.174999999999997,118.98315282791818L20.25,118.97590361445782L20.325000000000003,118.9686369119421L20.4,118.96135265700482L20.474999999999998,118.95405078597341L20.55,118.94673123486683L20.625,118.93939393939394L20.7,118.93203883495146L20.775,118.92466585662211L20.85,118.91727493917276L20.925,118.90986601705237L20.999999999999996,118.90243902439025L21.075,118.89499389499389L21.150000000000002,118.8875305623472L21.225,118.88004895960833L21.299999999999997,118.87254901960785L21.374999999999996,118.86503067484662L21.449999999999996,118.85749385749386L21.525000000000002,118.849938499385L21.599999999999998,118.8423645320197L21.674999999999997,118.8347718865598L21.749999999999993,118.82716049382717L21.825000000000003,118.8195302843016L21.9,118.81188118811882L21.974999999999998,118.80421313506815L22.049999999999994,118.79652605459057L22.125000000000004,118.7888198757764L22.2,118.7810945273632L22.275,118.7733499377335L22.349999999999994,118.76558603491273L22.425000000000004,118.7578027465668L22.5,118.75L22.575,118.74217772215269L22.649999999999995,118.734335839599L22.725000000000005,118.72647427854454L22.8,118.71859296482413L22.875,118.71069182389937L22.949999999999996,118.70277078085643L23.025000000000002,118.69482976040354L23.1,118.68686868686868L23.175,118.67888748419722L23.249999999999996,118.67088607594937L23.324999999999996,118.66286438529784L23.4,118.65482233502537L23.475,118.64675984752223L23.549999999999997,118.63867684478372L23.624999999999996,118.63057324840764L23.7,118.62244897959184L23.775,118.61430395913155L23.849999999999998,118.60613810741688L23.924999999999997,118.59795134443021L24,118.58974358974359L24.075,118.58151476251604L24.149999999999995,118.573264781491L24.224999999999998,118.56499356499357L24.3,118.55670103092783L24.375,118.54838709677419L24.449999999999996,118.54005167958655L24.525,118.53169469598966L24.6,118.52331606217616L24.675,118.51491569390402L24.749999999999996,118.5064935064935L24.824999999999996,118.49804941482445L24.900000000000002,118.48958333333333L24.975,118.48109517601043L25.049999999999997,118.47258485639686L25.124999999999996,118.4640522875817L25.199999999999996,118.45549738219896L25.275000000000002,118.44692005242463L25.349999999999998,118.43832020997375L25.424999999999997,118.42969776609723L25.499999999999996,118.42105263157895L25.575000000000003,118.41238471673255L25.65,118.40369393139842L25.724999999999998,118.39498018494055L25.799999999999997,118.3862433862434L25.875000000000004,118.37748344370861L25.95,118.36870026525199L26.025,118.35989375830013L26.099999999999998,118.35106382978724L26.175,118.3422103861518L26.25,118.33333333333333L26.325,118.32443257676903L26.4,118.31550802139037L26.475,118.30655957161981L26.549999999999997,118.2975871313673L26.625,118.28859060402685L26.7,118.27956989247312L26.775000000000002,118.27052489905788L26.849999999999998,118.26145552560646L26.924999999999997,118.2523616734143L27,118.24324324324324L27.074999999999996,118.234100135318L27.15,118.22493224932249L27.224999999999998,118.2157394843962L27.3,118.20652173913044L27.374999999999996,118.19727891156462L27.45,118.18801089918256L27.525,118.17871759890859L27.599999999999998,118.16939890710383L27.674999999999997,118.16005471956224L27.75,118.15068493150685L27.825,118.14128943758573L27.9,118.13186813186813L27.974999999999994,118.12242090784045L28.05,118.11294765840219L28.125,118.10344827586206L28.2,118.0939226519337L28.274999999999995,118.08437067773167L28.35,118.07479224376732L28.425,118.06518723994452L28.5,118.05555555555556L28.574999999999996,118.04589707927677L28.650000000000002,118.03621169916434L28.725,118.02649930264992L28.8,118.01675977653632L28.874999999999996,118.006993006993L28.949999999999996,117.99719887955183L29.025000000000002,117.98737727910239L29.1,117.97752808988764L29.174999999999997,117.9676511954993L29.249999999999996,117.95774647887325L29.325000000000003,117.9478138222849L29.400000000000002,117.93785310734464L29.474999999999998,117.92786421499292L29.549999999999997,117.91784702549575L29.625,117.90780141843972L29.700000000000003,117.89772727272728L29.775,117.88762446657184L29.849999999999998,117.87749287749287L29.925,117.86733238231099L30,117.85714285714286L30.075,117.84692417739628L30.15,117.83667621776505L30.225,117.82639885222382L30.3,117.816091954023L30.374999999999996,117.80575539568346L30.45,117.79538904899135L30.525000000000002,117.7849927849928L30.6,117.77456647398844L30.674999999999997,117.76410998552822L30.749999999999996,117.7536231884058L30.825000000000003,117.74310595065313L30.900000000000002,117.73255813953489L30.974999999999998,117.72197962154294L31.049999999999997,117.71137026239066L31.124999999999993,117.7007299270073L31.200000000000003,117.69005847953215L31.275,117.67935578330894L31.349999999999998,117.66862170087977L31.424999999999994,117.65785609397943L31.500000000000004,117.64705882352942L31.575,117.63622974963181L31.65,117.62536873156341L31.724999999999994,117.61447562776956L31.800000000000004,117.60355029585799L31.875,117.5925925925926L31.95,117.58160237388724L32.025,117.5705794947994L32.1,117.55952380952381L32.175,117.54843517138599L32.25,117.53731343283582L32.324999999999996,117.52615844544096L32.400000000000006,117.51497005988024L32.475,117.50374812593702L32.55,117.49249249249249L32.62499999999999,117.4812030075188L32.7,117.46987951807229L32.775,117.45852187028657L32.85,117.44712990936557L32.925,117.4357034795764L32.99999999999999,117.42424242424244L33.075,117.41274658573596L33.15,117.40121580547113L33.224999999999994,117.3896499238965L33.3,117.3780487804878L33.375,117.36641221374046L33.45,117.35474006116208L33.525,117.34303215926494L33.599999999999994,117.33128834355828L33.675000000000004,117.3195084485407L33.75,117.3076923076923L33.824999999999996,117.29583975346688L33.9,117.28395061728395L33.975,117.27202472952087L34.050000000000004,117.26006191950464L34.125,117.24806201550388L34.199999999999996,117.2360248447205L34.275,117.2239502332815L34.35,117.21183800623052L34.425,117.1996879875195L34.5,117.1875L34.575,117.17527386541471L34.65,117.1630094043887L34.724999999999994,117.15070643642072L34.8,117.13836477987422L34.875,117.1259842519685L34.95,117.11356466876973L35.025,117.10110584518168L35.099999999999994,117.08860759493672L35.175,117.07606973058637L35.25,117.06349206349206L35.324999999999996,117.05087440381558L35.4,117.03821656050957L35.475,117.02551834130782L35.550000000000004,117.01277955271566L35.625,117L35.699999999999996,116.98717948717949L35.775,116.97431781701445L35.85,116.96141479099678L35.925,116.94847020933977L36,116.93548387096774L36.074999999999996,116.92245557350566L36.150000000000006,116.90938511326861L36.225,116.89627228525123L36.3,116.88311688311688L36.375,116.869918699187L36.45,116.85667752442997L36.525,116.84339314845025L36.6,116.83006535947712L36.675,116.81669394435352L36.74999999999999,116.80327868852459L36.825,116.78981937602627L36.9,116.77631578947368L36.975,116.76276771004942L37.05,116.74917491749176L37.125,116.73553719008265L37.2,116.72185430463577L37.275,116.70812603648424L37.349999999999994,116.69435215946844L37.425,116.68053244592346L37.5,116.66666666666667L37.575,116.65275459098498L37.65,116.63879598662209L37.725,116.62479061976549L37.8,116.61073825503357L37.875,116.59663865546219L37.95,116.58249158249157L38.025,116.56829679595279L38.1,116.55405405405405L38.175,116.53976311336717L38.25,116.52542372881356L38.325,116.51103565365025L38.4,116.49659863945578L38.475,116.48211243611584L38.550000000000004,116.46757679180888L38.62499999999999,116.45299145299145L38.7,116.43835616438355L38.775,116.42367066895369L38.85,116.40893470790378L38.92499999999999,116.39414802065406L39,116.37931034482759L39.075,116.36442141623489L39.15,116.34948096885813L39.224999999999994,116.33448873483536L39.300000000000004,116.31944444444444L39.375,116.30434782608695L39.45,116.28919860627178L39.52499999999999,116.2739965095986L39.6,116.25874125874125L39.675000000000004,116.24343257443081L39.75,116.2280701754386L39.824999999999996,116.21265377855889L39.900000000000006,116.19718309859155L39.975,116.1816578483245L40.050000000000004,116.1660777385159L40.12499999999999,116.15044247787611L40.2,116.13475177304964L40.275000000000006,116.11900532859681L40.35,116.10320284697508L40.425,116.0873440285205L40.49999999999999,116.07142857142857L40.575,116.05545617173524L40.650000000000006,116.0394265232975L40.724999999999994,116.02333931777379L40.8,116.0071942446043L40.875,115.99099099099098L40.95,115.97472924187726L41.02499999999999,115.95840867992766L41.099999999999994,115.94202898550725L41.175000000000004,115.9255898366606L41.25,115.9090909090909L41.324999999999996,115.89253187613843L41.4,115.87591240875912L41.475,115.85923217550274L41.550000000000004,115.84249084249085L41.62499999999999,115.8256880733945L41.699999999999996,115.80882352941177L41.775000000000006,115.79189686924494L41.85,115.77490774907749L41.925,115.75785582255082L41.99999999999999,115.74074074074073L42.075,115.72356215213358L42.150000000000006,115.70631970260223L42.224999999999994,115.68901303538175L42.3,115.67164179104478L42.37499999999999,115.65420560747663L42.45,115.63670411985018L42.525,115.61913696060037L42.599999999999994,115.6015037593985L42.675,115.58380414312617L42.75000000000001,115.56603773584905L42.824999999999996,115.54820415879017L42.9,115.53030303030303L42.974999999999994,115.5123339658444L43.050000000000004,115.49429657794677L43.125,115.47619047619048L43.199999999999996,115.45801526717557L43.275,115.43977055449331L43.35000000000001,115.4214559386973L43.425,115.40307101727447L43.5,115.38461538461539L43.574999999999996,115.36608863198458L43.650000000000006,115.34749034749035L43.724999999999994,115.32882011605416L43.8,115.31007751937985L43.875,115.29126213592232L43.95,115.27237354085604L44.025,115.25341130604289L44.099999999999994,115.234375L44.175,115.21526418786692L44.25000000000001,115.19607843137256L44.324999999999996,115.17681728880157L44.4,115.15748031496062L44.474999999999994,115.13806706114399L44.55,115.11857707509881L44.625,115.0990099009901L44.699999999999996,115.07936507936509L44.775,115.0596421471173L44.85,115.0398406374502L44.925,115.01996007984032L45,115L45.074999999999996,114.97995991983967L45.15,114.95983935742971L45.225,114.93963782696176L45.3,114.91935483870967L45.375,114.8989898989899L45.45000000000001,114.87854251012146L45.525,114.8580121703854L45.6,114.83739837398375L45.675,114.81670061099797L45.75,114.79591836734693L45.824999999999996,114.77505112474438L45.9,114.75409836065575L45.975,114.73305954825462L46.050000000000004,114.7119341563786L46.125,114.69072164948454L46.2,114.6694214876033L46.275,114.648033126294L46.35,114.6265560165975L46.425,114.6049896049896L46.49999999999999,114.58333333333333L46.575,114.5615866388309L46.65,114.5397489539749L46.725,114.51781970649895L46.8,114.49579831932775L46.875,114.47368421052632L46.95,114.45147679324894L47.025,114.42917547568709L47.099999999999994,114.40677966101694L47.175,114.38428874734608L47.25,114.36170212765958L47.325,114.33901918976547L47.4,114.31623931623932L47.475,114.29336188436831L47.55,114.27038626609442L47.625,114.24731182795699L47.699999999999996,114.22413793103448L47.775,114.20086393088553L47.85,114.17748917748918L47.925000000000004,114.15401301518439L48,114.13043478260869L48.075,114.10675381263616L48.15,114.08296943231441L48.225,114.05908096280086L48.29999999999999,114.03508771929825L48.37499999999999,114.01098901098901L48.45,113.98678414096916L48.525,113.962472406181L48.6,113.93805309734513L48.675000000000004,113.91352549889135L48.75,113.88888888888889L48.825,113.8641425389755L48.89999999999999,113.83928571428571L48.974999999999994,113.81431767337807L49.050000000000004,113.78923766816143L49.125,113.76404494382022L49.2,113.73873873873875L49.275000000000006,113.71331828442439L49.35,113.68778280542986L49.425000000000004,113.66213151927437L49.49999999999999,113.63636363636363L49.574999999999996,113.61047835990888L49.650000000000006,113.58447488584474L49.725,113.55835240274598L49.800000000000004,113.53211009174312L49.875,113.50574712643679L49.95,113.47926267281106L50.025000000000006,113.45265588914549L50.099999999999994,113.42592592592592L50.175,113.39907192575406L50.24999999999999,113.37209302325581L50.325,113.34498834498834L50.39999999999999,113.3177570093458L50.475,113.29039812646371L50.550000000000004,113.26291079812208L50.625,113.23529411764706L50.699999999999996,113.20754716981133L50.775,113.17966903073285L50.849999999999994,113.1516587677725L50.925000000000004,113.12351543942992L50.99999999999999,113.0952380952381L51.075,113.06682577565633L51.150000000000006,113.03827751196172L51.225,113.00959232613909L51.3,112.98076923076923L51.37499999999999,112.95180722891565L51.449999999999996,112.92270531400966L51.525000000000006,112.89346246973366L51.599999999999994,112.86407766990291L51.675000000000004,112.8345498783455L51.75000000000001,112.8048780487805L51.825,112.77506112469437L51.9,112.74509803921569L51.974999999999994,112.71498771498771L52.05,112.6847290640394L52.12499999999999,112.65432098765432L52.199999999999996,112.62376237623764L52.275,112.59305210918114L52.35,112.56218905472637L52.425000000000004,112.53117206982544L52.5,112.5L52.574999999999996,112.468671679198L52.65,112.43718592964824L52.724999999999994,112.40554156171285L52.8,112.37373737373738L52.875,112.34177215189874L52.95,112.30964467005077L53.025000000000006,112.27735368956743L53.099999999999994,112.24489795918367L53.175,112.21227621483376L53.25,112.17948717948718L53.324999999999996,112.14652956298201L53.4,112.11340206185568L53.474999999999994,112.08010335917312L53.550000000000004,112.04663212435233L53.62500000000001,112.01298701298703L53.699999999999996,111.97916666666667L53.775,111.94516971279373L53.849999999999994,111.91099476439791L53.925,111.8766404199475L54,111.8421052631579L54.074999999999996,111.80738786279684L54.15,111.77248677248677L54.22500000000001,111.73740053050398L54.3,111.70212765957447L54.375,111.66666666666666L54.449999999999996,111.63101604278074L54.525,111.59517426273459L54.6,111.55913978494624L54.675,111.52291105121293L54.75,111.48648648648648L54.82500000000001,111.44986449864498L54.9,111.41304347826087L54.975,111.37602179836512L55.05,111.33879781420765L55.125,111.30136986301369L55.199999999999996,111.26373626373626L55.275,111.22589531680441L55.35,111.1878453038674L55.425000000000004,111.14958448753463L55.5,111.11111111111111L55.575,111.0724233983287L55.65,111.03351955307262L55.725,110.99439775910363L55.8,110.95505617977528L55.87499999999999,110.91549295774648L55.95,110.87570621468927L56.025,110.8356940509915L56.1,110.79545454545455L56.175,110.75498575498577L56.25,110.71428571428572L56.325,110.67335243553009L56.4,110.63218390804599L56.474999999999994,110.5907780979827L56.55,110.54913294797689L56.625,110.5072463768116L56.7,110.46511627906978L56.775,110.42274052478135L56.85,110.38011695906432L56.925,110.33724340175954L57,110.29411764705883L57.074999999999996,110.25073746312685L57.15,110.20710059171597L57.225,110.16320474777447L57.300000000000004,110.11904761904762L57.375,110.07462686567163L57.45,110.02994011976048L57.525,109.98498498498499L57.6,109.93975903614458L57.67499999999999,109.89425981873111L57.74999999999999,109.84848484848484L57.825,109.80243161094225L57.9,109.75609756097562L57.975,109.70948012232415L58.050000000000004,109.66257668711657L58.125,109.61538461538461L58.2,109.5679012345679L58.27499999999999,109.52012383900929L58.349999999999994,109.472049689441L58.425000000000004,109.42367601246106L58.5,109.375L58.575,109.32601880877743L58.650000000000006,109.27672955974843L58.725,109.22712933753942L58.800000000000004,109.17721518987341L58.87499999999999,109.12698412698413L58.949999999999996,109.07643312101911L59.025000000000006,109.02555910543131L59.1,108.97435897435898L59.175000000000004,108.92282958199357L59.25,108.87096774193549L59.325,108.81877022653723L59.400000000000006,108.76623376623377L59.474999999999994,108.71335504885994L59.55,108.66013071895425L59.625,108.60655737704917L59.7,108.55263157894737L59.77499999999999,108.4983498349835L59.85,108.44370860927151L59.925000000000004,108.38870431893687L60,108.33333333333333L60.074999999999996,108.27759197324414L60.15,108.2214765100671L60.224999999999994,108.16498316498317L60.3,108.10810810810811L60.37500000000001,108.05084745762711L60.45,107.99319727891157L60.525000000000006,107.93515358361776L60.6,107.87671232876713L60.675,107.81786941580756L60.74999999999999,107.75862068965517L60.824999999999996,107.69896193771626L60.9,107.63888888888889L60.974999999999994,107.57839721254355L61.050000000000004,107.5174825174825L61.12500000000001,107.45614035087719L61.2,107.3943661971831L61.275,107.3321554770318L61.349999999999994,107.26950354609929L61.425,107.20640569395019L61.49999999999999,107.14285714285714L61.575,107.07885304659499L61.650000000000006,107.01438848920863L61.725,106.94945848375451L61.800000000000004,106.8840579710145L61.875,106.81818181818181L61.949999999999996,106.75182481751824L62.025,106.68498168498168L62.099999999999994,106.61764705882354L62.175,106.54981549815497L62.25000000000001,106.48148148148148L62.325,106.41263940520446L62.400000000000006,106.34328358208955L62.474999999999994,106.27340823970037L62.55,106.203007518797L62.625,106.13207547169812L62.699999999999996,106.06060606060606L62.775,105.98859315589354L62.84999999999999,105.91603053435114L62.925000000000004,105.84291187739464L63.00000000000001,105.76923076923077L63.074999999999996,105.6949806949807L63.15,105.62015503875969L63.224999999999994,105.54474708171206L63.3,105.46875L63.375,105.3921568627451L63.45,105.31496062992126L63.525000000000006,105.23715415019763L63.60000000000001,105.15873015873015L63.675,105.0796812749004L63.75,105L63.824999999999996,104.91967871485943L63.9,104.83870967741936L63.975,104.75708502024293L64.05,104.67479674796749L64.125,104.59183673469389L64.2,104.50819672131148L64.275,104.42386831275721L64.35,104.3388429752066L64.425,104.25311203319501L64.5,104.16666666666666L64.575,104.07949790794979L64.64999999999999,103.99159663865547L64.725,103.90295358649789L64.80000000000001,103.8135593220339L64.875,103.72340425531914L64.95,103.63247863247864L65.025,103.54077253218884L65.1,103.44827586206895L65.175,103.35497835497836L65.24999999999999,103.26086956521739L65.325,103.16593886462883L65.4,103.0701754385965L65.475,102.97356828193833L65.55,102.87610619469027L65.625,102.77777777777777L65.7,102.67857142857142L65.775,102.57847533632287L65.85,102.47747747747749L65.925,102.37556561085972L66.00000000000001,102.27272727272728L66.075,102.1689497716895L66.15,102.06422018348624L66.225,101.95852534562212L66.3,101.85185185185185L66.375,101.74418604651163L66.44999999999999,101.6355140186916L66.52499999999999,101.52582159624414L66.6,101.41509433962264L66.675,101.30331753554502L66.75,101.19047619047619L66.825,101.07655502392345L66.9,100.96153846153845L66.975,100.84541062801932L67.05,100.72815533980582L67.125,100.60975609756098L67.2,100.49019607843138L67.275,100.3694581280788L67.35000000000001,100.24752475247524L67.425,100.12437810945273L67.5,100L67.575,99.87437185929647L67.64999999999999,99.74747474747475L67.725,99.61928934010152L67.8,99.48979591836735L67.875,99.35897435897436L67.95,99.22680412371135L68.025,99.09326424870466L68.10000000000001,98.95833333333334L68.175,98.82198952879583L68.25,98.6842105263158L68.32499999999999,98.54497354497354L68.39999999999999,98.40425531914894L68.47500000000001,98.2620320855615L68.55,98.11827956989248L68.625,97.97297297297297L68.7,97.82608695652175L68.775,97.6775956284153L68.85,97.52747252747253L68.925,97.37569060773481L69,97.22222222222223L69.075,97.06703910614524L69.15,96.91011235955057L69.22500000000001,96.75141242937852L69.3,96.5909090909091L69.375,96.42857142857143L69.44999999999999,96.26436781609196L69.52499999999999,96.09826589595376L69.6,95.93023255813952L69.675,95.76023391812865L69.75,95.58823529411764L69.825,95.41420118343196L69.9,95.23809523809524L69.97500000000001,95.05988023952096L70.05,94.87951807228916L70.125,94.69696969696969L70.19999999999999,94.51219512195121L70.27499999999999,94.32515337423312L70.35000000000001,94.1358024691358L70.42500000000001,93.94409937888199L70.5,93.75L70.575,93.55345911949686L70.64999999999999,93.35443037974684L70.725,93.15286624203821L70.8,92.94871794871796L70.875,92.74193548387098L70.95,92.53246753246754L71.025,92.3202614379085L71.10000000000001,92.10526315789474L71.17500000000001,91.88741721854305L71.25,91.66666666666666L71.325,91.44295302013424L71.39999999999999,91.21621621621622L71.475,90.98639455782313L71.55,90.75342465753425L71.625,90.51724137931035L71.7,90.27777777777777L71.775,90.03496503496504L71.85,89.7887323943662L71.925,89.53900709219857L72,89.28571428571429L72.075,89.02877697841727L72.14999999999999,88.76811594202897L72.22500000000001,88.5036496350365L72.30000000000001,88.23529411764704L72.375,87.96296296296296L72.45,87.68656716417911L72.52499999999999,87.40601503759399L72.6,87.12121212121212L72.675,86.8320610687023L72.75,86.53846153846155L72.825,86.24031007751938L72.9,85.9375L72.97500000000001,85.62992125984253L73.05,85.31746031746032L73.125,85L73.2,84.6774193548387L73.27499999999999,84.34959349593495L73.35,84.01639344262296L73.425,83.67768595041323L73.5,83.33333333333334L73.575,82.98319327731093L73.65,82.6271186440678L73.725,82.26495726495726L73.8,81.89655172413794L73.875,81.52173913043478L73.95,81.14035087719299L74.02499999999999,80.75221238938053L74.10000000000001,80.35714285714286L74.17500000000001,79.95495495495496L74.25,79.54545454545455L74.325,79.12844036697248L74.4,78.7037037037037L74.475,78.27102803738318L74.55,77.83018867924528L74.62499999999999,77.38095238095238L74.7,76.92307692307692L74.775,76.45631067961165L74.85,75.98039215686273L74.925,75.49504950495049L75,75L75.07499999999999,74.5049504950495L75.15,74.01960784313727L75.225,73.54368932038835L75.3,73.07692307692307L75.37500000000001,72.6190476190476L75.45,72.16981132075472L75.525,71.72897196261682L75.6,71.29629629629629L75.675,70.87155963302753L75.75,70.45454545454545L75.82499999999999,70.04504504504506L75.9,69.64285714285714L75.97500000000001,69.24778761061947L76.05,68.85964912280703L76.12500000000001,68.47826086956522L76.2,68.10344827586206L76.27499999999999,67.73504273504274L76.35,67.37288135593221L76.425,67.01680672268907L76.5,66.66666666666666L76.575,66.32231404958677L76.65,65.98360655737706L76.72500000000001,65.65040650406505L76.8,65.32258064516128L76.875,65L76.95,64.6825396825397L77.02499999999999,64.37007874015748L77.10000000000001,64.0625L77.175,63.75968992248063L77.25,63.46153846153845L77.32500000000002,63.16793893129771L77.4,62.87878787878789L77.475,62.59398496240601L77.55,62.31343283582089L77.625,62.037037037037024L77.7,61.76470588235294L77.77499999999999,61.496350364963504L77.85000000000001,61.231884057971016L77.92500000000001,60.971223021582745L78,60.71428571428571L78.07499999999999,60.460992907801426L78.15,60.21126760563381L78.225,59.96503496503496L78.3,59.722222222222214L78.375,59.48275862068965L78.45,59.24657534246576L78.525,59.01360544217685L78.60000000000001,58.78378378378379L78.675,58.557046979865774L78.75,58.33333333333334L78.82499999999999,58.11258278145695L78.9,57.89473684210526L78.975,57.6797385620915L79.04999999999998,57.467532467532465L79.12500000000001,57.258064516129025L79.2,57.051282051282044L79.27499999999999,56.84713375796177L79.35000000000001,56.64556962025317L79.425,56.446540880503136L79.5,56.25L79.57499999999999,56.05590062111803L79.64999999999999,55.8641975308642L79.72500000000001,55.67484662576686L79.80000000000001,55.48780487804879L79.875,55.3030303030303L79.95,55.12048192771084L80.02499999999999,54.94011976047902L80.10000000000001,54.76190476190477L80.175,54.585798816568044L80.24999999999999,54.41176470588236L80.32500000000002,54.23976608187134L80.4,54.06976744186048L80.475,53.90173410404623L80.55000000000001,53.73563218390805L80.625,53.57142857142857L80.7,53.40909090909091L80.77499999999999,53.24858757062148L80.85,53.08988764044943L80.925,52.93296089385474L81,52.777777777777786L81.075,52.62430939226519L81.15,52.472527472527474L81.225,52.322404371584696L81.30000000000001,52.173913043478265L81.375,52.02702702702703L81.44999999999999,51.88172043010752L81.52499999999999,51.7379679144385L81.60000000000001,51.59574468085107L81.675,51.45502645502644L81.75,51.315789473684205L81.825,51.17801047120419L81.9,51.04166666666667L81.975,50.90673575129533L82.04999999999998,50.77319587628867L82.125,50.64102564102565L82.2,50.51020408163264L82.27499999999999,50.38071065989847L82.35000000000001,50.252525252525245L82.425,50.12562814070351L82.5,50L82.575,49.875621890547265L82.64999999999999,49.75247524752474L82.725,49.63054187192118L82.8,49.50980392156863L82.875,49.390243902439025L82.95,49.27184466019416L83.025,49.15458937198068L83.10000000000001,49.03846153846155L83.175,48.92344497607655L83.24999999999999,48.809523809523824L83.325,48.696682464454966L83.4,48.58490566037736L83.475,48.47417840375586L83.55000000000001,48.364485981308405L83.625,48.25581395348837L83.7,48.14814814814815L83.775,48.04147465437789L83.85,47.93577981651376L83.925,47.8310502283105L83.99999999999999,47.727272727272734L84.075,47.62443438914029L84.15,47.52252252252251L84.225,47.42152466367713L84.30000000000001,47.321428571428584L84.375,47.22222222222223L84.44999999999999,47.12389380530972L84.525,47.02643171806167L84.6,46.92982456140351L84.675,46.834061135371186L84.75000000000001,46.73913043478262L84.825,46.64502164502166L84.9,46.551724137931046L84.975,46.45922746781115L85.05,46.36752136752136L85.125,46.27659574468086L85.19999999999999,46.18644067796609L85.275,46.09704641350213L85.35000000000001,46.00840336134452L85.425,45.920502092050214L85.50000000000001,45.83333333333336L85.575,45.746887966805005L85.64999999999999,45.6611570247934L85.725,45.57613168724279L85.8,45.491803278688536L85.875,45.40816326530613L85.95,45.32520325203251L86.025,45.242914979757074L86.10000000000001,45.161290322580655L86.175,45.08032128514057L86.25,44.999999999999986L86.325,44.920318725099605L86.39999999999999,44.84126984126985L86.47500000000001,44.76284584980236L86.55,44.685039370078755L86.625,44.60784313725489L86.70000000000002,44.53125L86.775,44.455252918287925L86.85,44.379844961240295L86.925,44.305019305019314L87,44.230769230769226L87.075,44.15708812260537L87.15,44.08396946564885L87.22500000000001,44.011406844106475L87.30000000000001,43.93939393939394L87.375,43.86792452830187L87.44999999999999,43.79699248120302L87.525,43.72659176029963L87.6,43.656716417910445L87.675,43.58736059479553L87.75,43.518518518518505L87.825,43.450184501845015L87.9,43.382352941176464L87.97500000000001,43.31501831501831L88.05,43.24817518248176L88.125,43.18181818181819L88.19999999999999,43.1159420289855L88.275,43.05054151624549L88.35,42.98561151079137L88.42499999999998,42.921146953405L88.50000000000001,42.85714285714286L88.575,42.793594306049826L88.64999999999999,42.73049645390073L88.72500000000001,42.66784452296818L88.8,42.6056338028169L88.875,42.54385964912282L88.94999999999999,42.48251748251748L89.025,42.421602787456436L89.10000000000001,42.361111111111114L89.17500000000001,42.30103806228374L89.25,42.24137931034484L89.325,42.182130584192436L89.39999999999999,42.12328767123287L89.47500000000001,42.06484641638224L89.55,42.00680272108842L89.62499999999999,41.949152542372886L89.70000000000002,41.89189189189187L89.775,41.835016835016816L89.85,41.778523489932866L89.92500000000001,41.72240802675584L90,41.66666666666667L90.075,41.611295681063126L90.14999999999999,41.556291390728475L90.22500000000001,41.501650165016514L90.3,41.44736842105263L90.375,41.393442622950815L90.45,41.339869281045736L90.525,41.28664495114006L90.6,41.23376623376625L90.67500000000001,41.18122977346279L90.75,41.1290322580645L90.82499999999999,41.07717041800643L90.90000000000002,41.02564102564101L90.975,40.9744408945687L91.05,40.92356687898088L91.125,40.87301587301587L91.2,40.82278481012658L91.275,40.77287066246056L91.35,40.72327044025157L91.42499999999998,40.67398119122255L91.5,40.625L91.575,40.57632398753894L91.64999999999999,40.52795031055901L91.72500000000001,40.47987616099071L91.8,40.4320987654321L91.875,40.38461538461537L91.95,40.33742331288343L92.02499999999999,40.29051987767585L92.10000000000001,40.24390243902438L92.175,40.19756838905775L92.25,40.15151515151514L92.325,40.105740181268885L92.4,40.060240963855435L92.47500000000001,40.01501501501501L92.55,39.97005988023952L92.62499999999999,39.92537313432835L92.7,39.88095238095238L92.775,39.83679525222553L92.85,39.79289940828403L92.92500000000001,39.749262536873175L93,39.705882352941174L93.075,39.66275659824045L93.15,39.61988304093566L93.225,39.57725947521867L93.3,39.53488372093024L93.37499999999999,39.49275362318839L93.45,39.45086705202311L93.525,39.40922190201728L93.6,39.36781609195404L93.67500000000001,39.32664756446991L93.75,39.28571428571428L93.82499999999999,39.24501424501426L93.9,39.20454545454545L93.97500000000001,39.16430594900851L94.05,39.124293785310726L94.12500000000001,39.08450704225352L94.2,39.04494382022472L94.275,39.00560224089635L94.35,38.96648044692738L94.425,38.92757660167132L94.5,38.88888888888887L94.57499999999999,38.850415512465375L94.65,38.812154696132595L94.725,38.7741046831956L94.8,38.73626373626374L94.87500000000001,38.69863013698631L94.95,38.661202185792334L95.02499999999999,38.62397820163487L95.1,38.58695652173914L95.175,38.550135501355015L95.25,38.5135135135135L95.325,38.477088948787056L95.4,38.440860215053746L95.47500000000001,38.404825737265426L95.55,38.36898395721926L95.625,38.33333333333333L95.7,38.29787234042553L95.77499999999999,38.262599469496024L95.85000000000001,38.22751322751324L95.925,38.19261213720314L96,38.15789473684211L96.07500000000002,38.12335958005248L96.15,38.0890052356021L96.225,38.05483028720627L96.3,38.02083333333333L96.375,37.98701298701299L96.45,37.95336787564766L96.525,37.91989664082686L96.59999999999998,37.886597938144334L96.67500000000001,37.85347043701799L96.75,37.82051282051282L96.82499999999999,37.787723785166236L96.9,37.755102040816325L96.975,37.722646310432566L97.05,37.69035532994924L97.125,37.658227848101276L97.2,37.62626262626263L97.275,37.59445843828715L97.35000000000001,37.56281407035175L97.425,37.531328320802004L97.5,37.5L97.57499999999999,37.468827930174555L97.65,37.43781094527364L97.72500000000001,37.40694789081887L97.79999999999998,37.37623762376239L97.87500000000001,37.345679012345684L97.95,37.315270935960584L98.02499999999999,37.285012285012286L98.10000000000001,37.25490196078431L98.175,37.224938875305625L98.25,37.195121951219505L98.32499999999999,37.1654501216545L98.4,37.13592233009709L98.475,37.10653753026634L98.55000000000001,37.07729468599035L98.625,37.048192771084345L98.7,37.019230769230774L98.77499999999999,36.990407673860915L98.85000000000001,36.96172248803826L98.925,36.93317422434369L98.99999999999999,36.90476190476191L99.07500000000002,36.87648456057006L99.15,36.84834123222748L99.225,36.82033096926713L99.30000000000001,36.792452830188694L99.375,36.76470588235294L99.45,36.737089201877936L99.52499999999999,36.709601873536286L99.60000000000001,36.68224299065422L99.675,36.65501165501166L99.75,36.627906976744185L99.825,36.60092807424596L99.9,36.574074074074076L99.975,36.547344110854496L100.05000000000001,36.52073732718894L100.125,36.49425287356323L100.19999999999999,36.46788990825689L100.27500000000002,36.44164759725402L100.35,36.415525114155244L100.425,36.38952164009112L100.5,36.36363636363639L100.575,36.33786848072563L100.65,36.31221719457014L100.725,36.28668171557561L100.79999999999998,36.261261261261254L100.875,36.235955056179776L100.95,36.21076233183858L101.02499999999999,36.185682326621915L101.10000000000001,36.16071428571428L101.175,36.1358574610245L101.25,36.11111111111113L101.325,36.086474501108654L101.39999999999999,36.06194690265485L101.47500000000001,36.03752759381899L101.55,36.013215859030836L101.625,35.98901098901099L101.7,35.96491228070177L101.775,35.94091903719914L101.85000000000001,35.917030567685586L101.925,35.89324618736383L101.99999999999999,35.86956521739131L102.075,35.84598698481561L102.15,35.82251082251082L102.225,35.79913606911447L102.30000000000001,35.77586206896552L102.375,35.75268817204301L102.45,35.729613733905566L102.525,35.70663811563169L102.6,35.68376068376068L102.675,35.66098081023455L102.74999999999999,35.63829787234043L102.825,35.61571125265394L102.9,35.593220338983045L102.975,35.57082452431291L103.05000000000001,35.54852320675106L103.125,35.526315789473685L103.19999999999999,35.50420168067228L103.275,35.48218029350103L103.35000000000001,35.46025104602511L103.425,35.43841336116911L103.50000000000001,35.41666666666667L103.575,35.3950103950104L103.65,35.373443983402495L103.725,35.351966873706004L103.8,35.3305785123967L103.875,35.30927835051547L103.94999999999999,35.28806584362138L104.025,35.266940451745384L104.1,35.24590163934427L104.175,35.224948875255635L104.25000000000001,35.20408163265307L104.325,35.183299389002045L104.39999999999999,35.162601626016254L104.475,35.14198782961459L104.55,35.12145748987854L104.625,35.101010101010104L104.7,35.08064516129032L104.775,35.06036217303823L104.85000000000001,35.04016064257027L104.925,35.020040080160314L105,35.000000000000014L105.075,34.98003992015967L105.14999999999999,34.96015936254979L105.22500000000001,34.9403578528827L105.3,34.92063492063494L105.375,34.90099009900992L105.45000000000002,34.88142292490117L105.525,34.861932938856015L105.6,34.84251968503938L105.675,34.82318271119844L105.75,34.80392156862746L105.825,34.784735812133064L105.9,34.765625L105.97499999999998,34.74658869395712L106.05000000000001,34.72762645914398L106.125,34.70873786407766L106.19999999999999,34.68992248062014L106.275,34.67117988394584L106.35,34.65250965250965L106.425,34.633911368015404L106.5,34.61538461538463L106.575,34.596928982725515L106.64999999999999,34.578544061302665L106.72500000000001,34.56022944550671L106.8,34.54198473282442L106.875,34.52380952380953L106.94999999999999,34.50570342205323L107.025,34.487666034155595L107.10000000000001,34.46969696969697L107.17499999999998,34.45179584120983L107.25000000000001,34.433962264150935L107.325,34.41619585687383L107.39999999999999,34.39849624060152L107.47500000000001,34.38086303939963L107.55,34.36329588014982L107.625,34.34579439252336L107.69999999999999,34.32835820895522L107.775,34.31098696461825L107.85,34.29368029739777L107.92500000000001,34.27643784786642L108,34.25925925925927L108.075,34.24214417744916L108.14999999999999,34.225092250922515L108.22500000000001,34.20810313075506L108.30000000000001,34.19117647058823L108.37499999999999,34.17431192660548L108.45000000000002,34.15750915750917L108.52499999999999,34.140767824497274L108.6,34.12408759124088L108.67500000000001,34.107468123861565L108.75,34.09090909090908L108.825,34.07441016333938L108.89999999999999,34.05797101449275L108.97500000000001,34.04159132007234L109.05,34.025270758122744L109.125,34.009009009009006L109.2,33.992805755395665L109.275,33.976660682226225L109.35,33.96057347670252L109.42500000000001,33.944543828264756L109.50000000000001,33.928571428571445L109.57499999999999,33.912655971479495L109.65000000000002,33.896797153024906L109.725,33.88099467140319L109.8,33.86524822695036L109.875,33.849557522123874L109.95,33.83392226148409L110.025,33.818342151675466L110.1,33.80281690140846L110.17500000000001,33.787346221441126L110.25,33.77192982456141L110.325,33.75656742556919L110.39999999999999,33.74125874125876L110.47500000000001,33.72600349040141L110.55,33.71080139372822L110.625,33.69565217391305L110.7,33.68055555555556L110.77499999999999,33.66551126516464L110.85000000000001,33.65051903114187L110.925,33.63557858376511L111,33.62068965517241L111.075,33.60585197934596L111.15,33.59106529209622L111.22500000000001,33.57632933104631L111.3,33.56164383561645L111.37500000000001,33.54700854700853L111.45,33.53242320819112L111.525,33.51788756388416L111.6,33.50340136054422L111.67500000000001,33.488964346349746L111.75,33.474576271186436L111.825,33.46023688663283L111.9,33.44594594594594L111.975,33.431703204047224L112.05000000000001,33.4175084175084L112.12499999999999,33.403361344537814L112.2,33.38926174496643L112.27499999999999,33.37520938023451L112.35,33.361204013377915L112.42500000000001,33.34724540901503L112.5,33.33333333333333L112.57499999999999,33.319467554076525L112.65,33.30564784053156L112.72500000000001,33.291873963515755L112.8,33.27814569536423L112.87500000000001,33.26446280991735L112.95,33.25082508250826L113.025,33.23723228995057L113.1,33.22368421052633L113.175,33.21018062397373L113.25000000000001,33.1967213114754L113.32499999999999,33.18330605564647L113.4,33.16993464052287L113.475,33.15660685154975L113.55,33.14332247557003L113.62500000000001,33.13008130081302L113.7,33.11688311688313L113.77499999999999,33.103727714748786L113.85,33.0906148867314L113.92500000000001,33.077544426494356L114,33.06451612903224L114.075,33.051529790660226L114.14999999999999,33.038585209003216L114.22500000000001,33.02568218298556L114.3,33.01282051282051L114.375,33.000000000000014L114.45,32.98722044728436L114.52499999999999,32.974481658692184L114.60000000000001,32.96178343949046L114.675,32.949125596184416L114.75,32.93650793650794L114.82500000000002,32.92393026941363L114.9,32.91139240506328L114.975,32.898894154818336L115.05,32.886435331230274L115.12500000000001,32.87401574803148L115.2,32.86163522012576L115.275,32.84929356357928L115.34999999999998,32.8369905956113L115.42500000000001,32.82472613458529L115.5,32.8125L115.57499999999999,32.800312012480504L115.65,32.78816199376945L115.725,32.7760497667185L115.8,32.763975155279525L115.875,32.751937984496124L115.95,32.73993808049535L116.02499999999999,32.727975270479135L116.10000000000001,32.716049382716065L116.175,32.704160246533135L116.25,32.69230769230769L116.32499999999999,32.68049155145928L116.4,32.668711656441715L116.47500000000001,32.656967840735064L116.54999999999998,32.64525993883791L116.62500000000001,32.63358778625954L116.7,32.621951219512184L116.77499999999999,32.610350076103515L116.85000000000001,32.59878419452886L116.925,32.587253414264026L117,32.575757575757564L117.07499999999999,32.564296520423596L117.15,32.55287009063443L117.225,32.541478129713425L117.30000000000001,32.53012048192771L117.375,32.518796992481214L117.45,32.5075075075075L117.52499999999999,32.49625187406298L117.60000000000001,32.48502994011977L117.67500000000001,32.47384155455903L117.74999999999999,32.46268656716417L117.82500000000002,32.451564828614025L117.89999999999999,32.44047619047619L117.975,32.429420505200596L118.05000000000001,32.418397626112764L118.125,32.407407407407405L118.2,32.396449704142015L118.27499999999999,32.385524372230435L118.35000000000001,32.37463126843659L118.425,32.36377025036819L118.5,32.352941176470594L118.575,32.34214390602057L118.65,32.33137829912022L118.725,32.32064421669108L118.80000000000001,32.309941520467845L118.87500000000001,32.29927007299273L118.94999999999999,32.28862973760934L119.02500000000002,32.27802037845707L119.1,32.26744186046511L119.175,32.2568940493469L119.25,32.2463768115942L119.325,32.23589001447179L119.4,32.22543352601157L119.475,32.215007215007205L119.55000000000001,32.20461095100865L119.625,32.19424460431655L119.7,32.18390804597702L119.77499999999999,32.17360114777618L119.85000000000001,32.16332378223497L119.925,32.153075822603725L120,32.14285714285714L120.07499999999999,32.13266761768901L120.14999999999999,32.12250712250713L120.22500000000001,32.112375533428164L120.3,32.10227272727272L120.375,32.09219858156027L120.45000000000002,32.082152974504254L120.525,32.07213578500706L120.6,32.06214689265536L120.675,32.05218617771507L120.75000000000001,32.04225352112675L120.825,32.0323488045007L120.9,32.02247191011236L120.975,32.01262272089761L121.05000000000001,32.00280112044818L121.12499999999999,31.993006993007L121.2,31.98324022346368L121.27500000000002,31.973500697350076L121.35,31.96378830083566L121.42500000000001,31.95410292072323L121.49999999999999,31.944444444444443L121.575,31.93481276005548L121.64999999999999,31.92520775623268L121.725,31.91562932226833L121.80000000000001,31.90607734806629L121.875,31.89655172413795L121.94999999999999,31.88705234159781L122.025,31.877579092159564L122.10000000000001,31.86813186813187L122.175,31.85871056241426L122.25000000000001,31.849315068493155L122.32500000000002,31.839945280437746L122.4,31.83060109289616L122.47499999999998,31.82128240109141L122.55,31.811989100817428L122.62500000000001,31.80272108843539L122.69999999999999,31.793478260869577L122.775,31.78426051560379L122.85,31.775067750677522L122.925,31.765899864682012L122.99999999999999,31.756756756756744L123.075,31.747638326585687L123.15,31.73854447439352L123.225,31.72947510094214L123.30000000000001,31.72043010752688L123.375,31.711409395973163L123.45,31.70241286863272L123.52499999999999,31.69344042838017L123.60000000000001,31.684491978609643L123.67500000000001,31.67556742323096L123.75,31.66666666666667L123.82499999999999,31.657789613848195L123.89999999999999,31.648936170212764L123.97500000000001,31.64010624169987L124.05,31.631299734748012L124.125,31.622516556291387L124.20000000000002,31.613756613756593L124.275,31.60501981505942L124.35,31.596306068601564L124.425,31.587615283267453L124.50000000000001,31.57894736842107L124.575,31.570302233902765L124.65,31.561679790026247L124.72499999999998,31.55307994757537L124.80000000000001,31.544502617801044L124.87499999999999,31.535947712418306L124.94999999999999,31.527415143603136L125.02500000000002,31.518904823989573L125.1,31.510416666666686L125.175,31.501950585175564L125.25,31.4935064935065L125.325,31.485084306095985L125.39999999999999,31.476683937823836L125.47500000000001,31.468305304010343L125.55000000000001,31.459948320413446L125.625,31.451612903225794L125.69999999999997,31.443298969072174L125.775,31.43500643500643L125.85000000000001,31.426735218508995L125.92499999999998,31.418485237483964L126.00000000000001,31.41025641025641L126.07500000000002,31.40204865556977L126.14999999999999,31.393861892583132L126.225,31.385696040868453L126.3,31.377551020408163L126.375,31.369426751592343L126.44999999999999,31.361323155216283L126.525,31.353240152477753L126.6,31.345177664974628L126.67500000000001,31.33713561470215L126.75,31.329113924050617L126.825,31.32111251580278L126.9,31.313131313131322L126.97500000000001,31.305170239596464L127.05000000000001,31.297229219143574L127.12499999999999,31.289308176100633L127.20000000000002,31.281407035175874L127.27499999999999,31.273525721455457L127.35,31.265664160401002L127.42500000000003,31.257822277847296L127.5,31.25L127.57499999999999,31.242197253433204L127.64999999999999,31.23441396508727L127.72500000000001,31.2266500622665L127.8,31.21890547263682L127.875,31.211180124223617L127.95000000000002,31.203473945409428L128.025,31.19578686493186L128.1,31.188118811881196L128.175,31.18046971569838L128.25,31.172839506172835L128.325,31.165228113440207L128.4,31.1576354679803L128.475,31.150061500615024L128.55,31.142506142506136L128.625,31.134969325153392L128.7,31.12745098039217L128.775,31.11995104039167L128.85,31.11246943765282L128.925,31.10500610500611L129,31.097560975609767L129.07500000000002,31.09013398294765L129.15,31.082725060827244L129.225,31.075334143377887L129.3,31.06796116504853L129.375,31.060606060606062L129.45,31.05326876513317L129.52499999999998,31.045949214026592L129.60000000000002,31.038647342995176L129.67499999999998,31.031363088057887L129.75,31.024096385542165L129.82500000000002,31.01684717208184L129.9,31.009615384615373L129.975,31.002400960384165L130.05,30.99520383693047L130.125,30.988023952095816L130.2,30.980861244019138L130.275,30.97371565113501L130.35,30.966587112171837L130.425,30.959475566150175L130.49999999999997,30.952380952380963L130.57500000000002,30.94530321046375L130.65,30.938242280285024L130.725,30.93119810201661L130.8,30.92417061611374L130.875,30.917159763313606L130.95,30.910165484633566L131.02499999999998,30.903187721369534L131.1,30.89622641509436L131.175,30.88928150765605L131.25,30.882352941176478L131.325,30.875440658049342L131.4,30.868544600938947L131.47500000000002,30.861664712778435L131.55,30.85480093676813L131.625,30.84795321637428L131.70000000000002,30.841121495327087L131.775,30.8343057176196L131.85,30.827505827505817L131.92499999999998,30.820721769499414L132.00000000000003,30.813953488372093L132.075,30.807200929152145L132.15,30.80046403712298L132.225,30.793742757821548L132.3,30.787037037037024L132.375,30.780346820809257L132.45,30.773672055427255L132.525,30.767012687427908L132.6,30.760368663594477L132.675,30.75373993095512L132.75,30.747126436781613L132.82500000000002,30.740528128587826L132.89999999999998,30.733944954128447L132.97500000000002,30.727376861397488L133.05,30.720823798626995L133.125,30.714285714285722L133.2,30.70776255707763L133.275,30.701254275940713L133.35,30.69476082004556L133.42499999999998,30.68828213879408L133.5,30.681818181818187L133.57500000000002,30.675368898978434L133.65,30.668934240362816L133.725,30.662514156285383L133.8,30.65610859728507L133.875,30.64971751412432L133.95,30.64334085778779L134.025,30.636978579481394L134.1,30.63063063063062L134.175,30.624296962879654L134.25,30.61797752808988L134.325,30.611672278338943L134.4,30.605381165919283L134.475,30.59910414333706L134.55,30.592841163310965L134.625,30.586592178770957L134.70000000000002,30.58035714285714L134.775,30.5741360089186L134.85,30.567928730512236L134.925,30.56173526140155L135,30.555555555555557L135.075,30.549389567147614L135.15,30.543237250554327L135.22500000000002,30.53709856035438L135.29999999999998,30.530973451327426L135.375,30.524861878453052L135.45000000000002,30.518763796909496L135.525,30.51267916207277L135.6,30.50660792951541L135.67499999999998,30.500550055005505L135.75,30.494505494505503L135.825,30.48847420417124L135.9,30.482456140350877L135.97500000000002,30.476451259583783L136.05,30.47045951859957L136.125,30.464480874316948L136.20000000000002,30.458515283842814L136.275,30.45256270447109L136.35,30.44662309368192L136.42499999999998,30.440696409140386L136.5,30.434782608695656L136.57500000000002,30.42888165038002L136.64999999999998,30.422993492407798L136.725,30.41711809317445L136.8,30.411255411255397L136.875,30.40540540540539L136.95,30.399568034557234L137.025,30.393743257820915L137.1,30.38793103448276L137.17499999999998,30.38213132400432L137.25,30.376344086021504L137.32500000000002,30.370569280343716L137.4,30.364806866952776L137.475,30.359056806002144L137.55,30.35331905781584L137.625,30.347593582887697L137.7,30.34188034188034L137.775,30.336179295624333L137.85000000000002,30.33049040511729L137.925,30.324813631522886L138,30.319148936170237L138.075,30.3134962805526L138.15,30.30785562632697L138.225,30.30222693531283L138.29999999999998,30.296610169491515L138.375,30.291005291005305L138.45000000000002,30.28541226215644L138.525,30.279831045406553L138.6,30.274261603375535L138.675,30.268703898840883L138.75,30.263157894736835L138.825,30.25762355415354L138.89999999999998,30.25210084033614L138.97500000000002,30.24658971668414L139.04999999999998,30.241090146750523L139.125,30.235602094240832L139.20000000000002,30.230125523012532L139.275,30.22466039707419L139.35,30.219206680584563L139.425,30.213764337851913L139.5,30.20833333333333L139.575,30.20291363163372L139.65,30.197505197505194L139.72500000000002,30.1921079958463L139.8,30.186721991701248L139.87499999999997,30.18134715025907L139.95000000000002,30.175983436852988L140.025,30.170630816959672L140.1,30.16528925619835L140.17499999999998,30.159958720330238L140.25000000000003,30.154639175257742L140.325,30.149330587023698L140.39999999999998,30.144032921810705L140.475,30.138746145940388L140.55,30.133470225872685L140.625,30.12820512820514L140.7,30.12295081967214L140.775,30.11770726714431L140.85000000000002,30.11247443762781L140.925,30.107252298263546L141,30.102040816326536L141.07500000000002,30.096839959225278L141.15,30.091649694501015L141.225,30.086469989827066L141.29999999999998,30.081300813008127L141.37500000000003,30.076142131979694L141.45,30.07099391480729L141.525,30.065856129685912L141.60000000000002,30.06072874493927L141.675,30.055611729019205L141.75,30.050505050505052L141.825,30.04540867810293L141.9,30.040322580645153L141.975,30.03524672708963L142.04999999999998,30.03018108651912L142.12500000000003,30.0251256281407L142.20000000000002,30.020080321285135L142.27499999999998,30.015045135406226L142.35000000000002,30.01002004008015L142.425,30.005005005005003L142.5,30.000000000000014L142.575,29.99500499500499L142.65,29.990019960079835L142.725,29.985044865403793L142.79999999999998,29.980079681274887L142.875,29.975124378109456L142.95000000000002,29.970178926441363L143.025,29.965243296921557L143.1,29.96031746031747L143.175,29.95540138751238L143.25,29.95049504950495L143.325,29.945598417408505L143.4,29.940711462450594L143.47500000000002,29.93583415597236L143.55,29.930966469428L143.625,29.926108374384228L143.7,29.921259842519675L143.775,29.916420845624373L143.85,29.911591355599214L143.92499999999998,29.906771344455336L144.00000000000003,29.90196078431373L144.07500000000002,29.89715964740452L144.15,29.892367906066525L144.225,29.887585532746826L144.3,29.8828125L144.375,29.878048780487802L144.45,29.873294346978568L144.525,29.868549172346647L144.60000000000002,29.86381322957199L144.67499999999998,29.859086491739532L144.75,29.854368932038838L144.82500000000002,29.849660523763333L144.9,29.844961240310084L144.975,29.8402710551791L145.04999999999998,29.83558994197294L145.125,29.830917874396135L145.2,29.82625482625484L145.275,29.82160077145612L145.35000000000002,29.816955684007695L145.425,29.81231953801732L145.5,29.80769230769232L145.57500000000002,29.803073967339103L145.65,29.798464491362765L145.725,29.793863854266533L145.79999999999998,29.789272030651333L145.87500000000003,29.784688995215305L145.95000000000002,29.780114722753353L146.02499999999998,29.77554918815663L146.1,29.770992366412216L146.175,29.76644423260248L146.25,29.761904761904773L146.325,29.757373929590855L146.4,29.752851711026622L146.475,29.74833808167142L146.54999999999998,29.74383301707779L146.625,29.739336492891L146.70000000000002,29.734848484848484L146.775,29.730368968779572L146.85,29.725897920604908L146.925,29.721435316336155L147,29.71698113207549L147.075,29.712535344015066L147.15,29.708097928436928L147.22500000000002,29.703668861712146L147.3,29.69924812030075L147.375,29.69483568075117L147.45,29.690431519699814L147.525,29.686035613870672L147.6,29.68164794007491L147.67499999999998,29.677268475210482L147.75000000000003,29.672897196261687L147.82500000000002,29.668534080298784L147.9,29.66417910447761L147.975,29.659832246039144L148.05,29.655493482309126L148.125,29.651162790697683L148.2,29.6468401486989L148.27499999999998,29.642525533890435L148.35000000000002,29.638218923933223L148.42499999999998,29.633920296570906L148.5,29.629629629629633L148.57500000000002,29.625346901017565L148.65,29.62107208872459L148.725,29.61680517082179L148.8,29.61254612546125L148.875,29.608294930875573L148.95,29.60405156537753L149.025,29.599816007359692L149.10000000000002,29.595588235294116L149.175,29.591368227731863L149.24999999999997,29.587155963302735L149.32500000000002,29.58295142071495L149.4,29.578754578754584L149.475,29.574565416285438L149.54999999999998,29.570383912248616L149.62500000000003,29.56621004566209L149.7,29.56204379562044L149.77499999999998,29.55788514129445L149.85,29.553734061930783L149.925,29.549590536851696L150,29.545454545454533"
          stroke="lightblue" stroke-width="3" fill="none"/>
</svg>