<?xml version="1.0" standalone="no"?>
<svg xmlns="http://www.w3.org/2000/svg" id="svg_8" width="150" height="150" style="background-color: rgb(58, 58, 58);">
    <g transform="translate( 4.838709677419355, 0)" class="axis" fill="none" font-size="10" font-family="sans-serif"
       text-anchor="end">
        <path class="domain" stroke="#000" d="M0,150.5H0.5V0.5H0" style="stroke: orange; stroke-width: 0.5;"/>
    </g>
    <g transform="translate( 0,145.16129032258064)" class="axis" fill="none" font-size="10" font-family="sans-serif"
       text-anchor="middle">
        <path class="domain" stroke="#000" d="M0.5,0V0.5H150.5V0" style="stroke: orange; stroke-width: 0.5;"/>
    </g>
    <path d="M4.838709677419355,96.7741935483871L5.32258064516129,96.7741935483871L5.806451612903226,96.7741935483871L6.290322580645162,96.7741935483871L6.774193548387098,96.7741935483871L7.258064516129033,96.7741935483871L7.741935483870968,96.7741935483871L8.225806451612904,96.7741935483871L8.709677419354838,96.7741935483871L9.193548387096774,96.7741935483871L9.67741935483871,96.7741935483871L10.161290322580646,96.7741935483871L10.64516129032258,96.7741935483871L11.129032258064516,96.7741935483871L11.612903225806452,96.7741935483871L12.096774193548386,96.7741935483871L12.580645161290324,96.7741935483871L13.064516129032258,96.7741935483871L13.548387096774196,96.7741935483871L14.03225806451613,96.7741935483871L14.516129032258066,96.7741935483871L14.999999999999998,96.7741935483871L15.483870967741936,96.7741935483871L15.967741935483872,96.7741935483871L16.451612903225804,96.7741935483871L16.93548387096774,96.7741935483871L17.419354838709676,96.7741935483871L17.903225806451612,96.7741935483871L18.387096774193548,96.7741935483871L18.87096774193548,96.7741935483871L19.35483870967742,96.7741935483871L19.838709677419356,96.7741935483871L20.322580645161292,96.7741935483871L20.806451612903228,96.7741935483871L21.29032258064516,96.7741935483871L21.7741935483871,96.7741935483871L22.258064516129032,96.7741935483871L22.741935483870968,96.7741935483871L23.2258064516129,96.7741935483871L23.709677419354836,96.7741935483871L24.193548387096772,96.7741935483871L24.67741935483871,96.7741935483871L25.161290322580648,96.7741935483871L25.64516129032258,96.7741935483871L26.129032258064516,96.7741935483871L26.612903225806452,96.7741935483871L27.09677419354839,96.7741935483871L27.580645161290327,96.7741935483871L28.064516129032256,96.7741935483871L28.548387096774192,96.7741935483871L29.032258064516128,96.7741935483871L29.516129032258064,96.7741935483871L29.999999999999996,96.7741935483871L30.483870967741936,96.7741935483871L30.967741935483872,96.7741935483871L31.451612903225808,96.7741935483871L31.935483870967744,96.7741935483871L32.41935483870968,96.7741935483871L32.90322580645161,96.7741935483871L33.387096774193544,96.7741935483871L33.87096774193548,96.7741935483871L34.354838709677416,96.7741935483871L34.83870967741935,96.7741935483871L35.32258064516129,96.7741935483871L35.806451612903224,96.7741935483871L36.29032258064516,96.7741935483871L36.774193548387096,96.7741935483871L37.25806451612903,96.7741935483871L37.74193548387096,96.7741935483871L38.225806451612904,96.7741935483871L38.70967741935484,96.7741935483871L39.193548387096776,96.7741935483871L39.677419354838705,96.7741935483871L40.16129032258064,96.7741935483871L40.64516129032258,96.7741935483871L41.12903225806451,96.7741935483871L41.61290322580645,96.7741935483871L42.096774193548384,96.7741935483871L42.58064516129032,96.7741935483871L43.064516129032256,96.7741935483871L43.5483870967742,96.7741935483871L44.032258064516135,96.7741935483871L44.516129032258064,96.7741935483871L45,96.7741935483871L45.483870967741936,96.7741935483871L45.967741935483865,96.7741935483871L46.4516129032258,96.7741935483871L46.93548387096774,96.7741935483871L47.41935483870967,96.7741935483871L47.90322580645161,96.7741935483871L48.387096774193544,96.7741935483871L48.87096774193548,96.7741935483871L49.35483870967742,96.7741935483871L49.83870967741936,96.7741935483871L50.322580645161295,96.7741935483871L50.80645161290323,96.7741935483871L51.29032258064516,96.7741935483871L51.774193548387096,96.7741935483871L52.25806451612903,96.7741935483871L52.74193548387097,96.7741935483871L53.225806451612904,96.7741935483871L53.70967741935484,96.7741935483871L54.19354838709678,96.7741935483871L54.67741935483872,96.7741935483871L55.161290322580655,96.7741935483871L55.64516129032259,96.7741935483871L56.12903225806452,96.7741935483871L56.612903225806456,96.7741935483871L57.09677419354839,96.7741935483871L57.58064516129033,96.7741935483871L58.06451612903226,96.7741935483871L58.5483870967742,96.7741935483871L59.032258064516135,96.7741935483871L59.51612903225808,96.7741935483871L60.000000000000014,96.7741935483871L60.48387096774195,96.7741935483871L60.96774193548387,96.7741935483871L61.45161290322581,96.7741935483871L61.935483870967744,96.7741935483871L62.41935483870968,96.7741935483871L62.903225806451616,96.7741935483871L63.38709677419355,96.7741935483871L63.87096774193549,96.7741935483871L64.35483870967742,96.7741935483871L64.83870967741936,96.7741935483871L65.3225806451613,96.7741935483871L65.80645161290323,96.7741935483871L66.29032258064517,96.7741935483871L66.7741935483871,96.7741935483871L67.25806451612904,96.7741935483871L67.74193548387098,96.7741935483871L68.22580645161291,96.7741935483871L68.70967741935485,96.7741935483871L69.19354838709678,96.7741935483871L69.67741935483872,96.7741935483871L70.16129032258065,96.7741935483871L70.64516129032259,96.7741935483871L71.12903225806453,96.7741935483871L71.61290322580646,96.7741935483871L72.0967741935484,96.7741935483871L72.58064516129033,96.7741935483871L73.06451612903226,96.7741935483871L73.54838709677419,96.7741935483871L74.03225806451613,96.7741935483871L74.51612903225806,96.7741935483871L75,96.7741935483871L75.48387096774192,96.7741935483871L75.96774193548387,96.7741935483871L76.45161290322581,96.7741935483871L76.93548387096774,96.7741935483871L77.41935483870968,96.7741935483871L77.90322580645162,96.7741935483871L78.38709677419355,96.7741935483871L78.87096774193549,96.7741935483871L79.35483870967742,96.7741935483871L79.83870967741937,96.7741935483871L80.3225806451613,96.7741935483871L80.80645161290322,96.7741935483871L81.29032258064517,96.7741935483871L81.7741935483871,96.7741935483871L82.25806451612904,96.7741935483871L82.74193548387098,96.7741935483871L83.22580645161291,96.7741935483871L83.70967741935485,96.7741935483871L84.19354838709678,96.7741935483871L84.67741935483872,96.7741935483871L85.16129032258064,96.7741935483871L85.64516129032258,96.7741935483871L86.12903225806451,96.7741935483871L86.61290322580645,96.7741935483871L87.0967741935484,96.7741935483871L87.58064516129032,96.7741935483871L88.06451612903227,96.7741935483871L88.54838709677419,96.7741935483871L89.03225806451613,96.7741935483871L89.51612903225806,96.7741935483871L90,96.7741935483871L90.48387096774194,96.7741935483871L90.96774193548387,96.7741935483871L91.45161290322582,96.7741935483871L91.93548387096774,96.7741935483871L92.4193548387097,96.7741935483871L92.90322580645162,96.7741935483871L93.38709677419355,96.7741935483871L93.87096774193549,96.7741935483871L94.35483870967742,96.7741935483871L94.83870967741936,96.7741935483871L95.3225806451613,96.7741935483871L95.80645161290323,96.7741935483871L96.29032258064517,96.7741935483871L96.77419354838709,96.7741935483871L97.25806451612904,96.7741935483871L97.74193548387096,96.7741935483871L98.2258064516129,96.7741935483871L98.70967741935485,96.7741935483871L99.19354838709677,96.7741935483871L99.67741935483872,96.7741935483871L100.16129032258064,96.7741935483871L100.64516129032259,96.7741935483871L101.1290322580645,96.7741935483871L101.61290322580646,96.7741935483871L102.09677419354841,96.7741935483871L102.58064516129032,96.7741935483871L103.06451612903228,96.7741935483871L103.54838709677419,96.7741935483871L104.03225806451611,96.7741935483871L104.51612903225806,96.7741935483871L105,96.7741935483871L105.48387096774194,96.7741935483871L105.96774193548387,96.7741935483871L106.45161290322581,96.7741935483871L106.93548387096774,96.7741935483871L107.41935483870968,96.7741935483871L107.90322580645162,96.7741935483871L108.38709677419357,96.7741935483871L108.87096774193549,96.7741935483871L109.35483870967744,96.7741935483871L109.83870967741936,96.7741935483871L110.32258064516131,96.7741935483871L110.80645161290322,96.7741935483871L111.29032258064518,96.7741935483871L111.77419354838709,96.7741935483871L112.25806451612904,96.7741935483871L112.74193548387096,96.7741935483871L113.22580645161291,96.7741935483871L113.70967741935483,96.7741935483871L114.19354838709678,96.7741935483871L114.6774193548387,96.7741935483871L115.16129032258065,96.7741935483871L115.64516129032259,96.7741935483871L116.12903225806453,96.7741935483871L116.61290322580646,96.7741935483871L117.09677419354838,96.7741935483871L117.58064516129033,96.7741935483871L118.06451612903226,96.7741935483871L118.5483870967742,96.7741935483871L119.03225806451611,96.7741935483871L119.51612903225808,96.7741935483871L119.99999999999999,96.7741935483871L120.48387096774194,96.7741935483871L120.96774193548386,96.7741935483871L121.45161290322581,96.7741935483871L121.93548387096774,96.7741935483871L122.41935483870968,96.7741935483871L122.90322580645162,96.7741935483871L123.38709677419355,96.7741935483871L123.87096774193549,96.7741935483871L124.35483870967742,96.7741935483871L124.83870967741936,96.7741935483871L125.3225806451613,96.7741935483871L125.80645161290323,96.7741935483871L126.29032258064518,96.7741935483871L126.7741935483871,96.7741935483871L127.25806451612905,96.7741935483871L127.74193548387098,96.7741935483871L128.22580645161293,96.7741935483871L128.70967741935485,96.7741935483871L129.19354838709677,96.7741935483871L129.67741935483872,96.7741935483871L130.16129032258064,96.7741935483871L130.6451612903226,96.7741935483871L131.1290322580645,96.7741935483871L131.61290322580646,96.7741935483871L132.09677419354838,96.7741935483871L132.58064516129033,96.7741935483871L133.06451612903226,96.7741935483871L133.5483870967742,96.7741935483871L134.03225806451613,96.7741935483871L134.51612903225808,96.7741935483871L135,96.7741935483871L135.48387096774195,96.7741935483871L135.96774193548387,96.7741935483871L136.45161290322582,96.7741935483871L136.93548387096774,96.7741935483871L137.4193548387097,96.7741935483871L137.90322580645162,96.7741935483871L138.38709677419357,96.7741935483871L138.8709677419355,96.7741935483871L139.35483870967744,96.7741935483871L139.83870967741936,96.7741935483871L140.3225806451613,96.7741935483871L140.80645161290323,96.7741935483871L141.29032258064515,96.7741935483871L141.7741935483871,96.7741935483871L142.25806451612902,96.7741935483871L142.74193548387098,96.7741935483871L143.2258064516129,96.7741935483871L143.70967741935485,96.7741935483871L144.19354838709677,96.7741935483871L144.67741935483872,96.7741935483871L145.16129032258064,96.7741935483871L145.6451612903226,96.7741935483871L146.1290322580645,96.7741935483871L146.61290322580646,96.7741935483871L147.09677419354838,96.7741935483871L147.58064516129033,96.7741935483871L148.06451612903226,96.7741935483871L148.5483870967742,96.7741935483871L149.03225806451613,96.7741935483871L149.51612903225808,96.7741935483871L150,96.7741935483871L150.48387096774195,96.7741935483871L150.96774193548384,96.7741935483871L151.45161290322582,96.7741935483871L151.93548387096774,96.7741935483871L152.41935483870967,96.7741935483871L152.90322580645162,96.7741935483871L153.38709677419357,96.7741935483871L153.8709677419355,96.7741935483871L154.3548387096774,96.7741935483871L154.83870967741936,96.7741935483871L155.32258064516128,96.7741935483871L155.80645161290323,96.7741935483871L156.29032258064518,96.7741935483871L156.7741935483871,96.7741935483871L157.25806451612902,96.7741935483871L157.74193548387098,96.7741935483871L158.22580645161293,96.7741935483871L158.70967741935485,96.7741935483871L159.19354838709677,96.7741935483871L159.67741935483875,96.7741935483871L160.16129032258064,96.7741935483871L160.6451612903226,96.7741935483871L161.1290322580645,96.7741935483871L161.61290322580643,96.7741935483871L162.09677419354838,96.7741935483871L162.58064516129033,96.7741935483871L163.06451612903226,96.7741935483871L163.5483870967742,96.7741935483871L164.03225806451613,96.7741935483871L164.51612903225808,96.7741935483871L165,96.7741935483871L165.48387096774195,96.7741935483871L165.96774193548387,96.7741935483871L166.4516129032258,96.7741935483871L166.93548387096777,96.7741935483871L167.41935483870967,96.7741935483871L167.90322580645162,96.7741935483871L168.38709677419354,96.7741935483871L168.8709677419355,96.7741935483871L169.3548387096774,96.7741935483871L169.83870967741936,96.7741935483871L170.32258064516128,96.7741935483871L170.80645161290323,96.7741935483871L171.29032258064515,96.7741935483871L171.7741935483871,96.7741935483871L172.25806451612902,96.7741935483871L172.74193548387098,96.7741935483871L173.2258064516129,96.7741935483871L173.70967741935485,96.7741935483871L174.1935483870968,96.7741935483871L174.67741935483872,96.7741935483871L175.16129032258064,96.7741935483871L175.6451612903226,96.7741935483871L176.12903225806454,96.7741935483871L176.61290322580646,96.7741935483871L177.09677419354838,96.7741935483871L177.58064516129036,96.7741935483871L178.06451612903226,96.7741935483871L178.54838709677418,96.7741935483871L179.03225806451613,96.7741935483871L179.51612903225808,96.7741935483871L180,96.7741935483871L180.48387096774192,96.7741935483871L180.96774193548387,96.7741935483871L181.45161290322582,96.7741935483871L181.93548387096774,96.7741935483871L182.41935483870967,96.7741935483871L182.90322580645164,96.7741935483871L183.38709677419357,96.7741935483871L183.8709677419355,96.7741935483871L184.3548387096774,96.7741935483871L184.8387096774194,96.7741935483871L185.32258064516128,96.7741935483871L185.80645161290323,96.7741935483871L186.29032258064515,96.7741935483871L186.7741935483871,96.7741935483871L187.25806451612902,96.7741935483871L187.74193548387098,96.7741935483871L188.2258064516129,96.7741935483871L188.70967741935485,96.7741935483871L189.19354838709677,96.7741935483871L189.67741935483872,96.7741935483871L190.16129032258067,96.7741935483871L190.6451612903226,96.7741935483871L191.1290322580645,96.7741935483871L191.61290322580643,96.7741935483871L192.0967741935484,96.7741935483871L192.58064516129033,96.7741935483871L193.06451612903226,96.7741935483871L193.54838709677418,96.7741935483871L194.03225806451613,96.7741935483871L194.51612903225805,96.7741935483871L195,96.7741935483871L195.48387096774192,96.7741935483871L195.96774193548387,96.7741935483871L196.4516129032258,96.7741935483871L196.93548387096774,96.7741935483871L197.4193548387097,96.7741935483871L197.90322580645162,96.7741935483871L198.38709677419354,96.7741935483871L198.87096774193546,96.7741935483871L199.35483870967744,96.7741935483871L199.83870967741936,96.7741935483871L200.32258064516128,96.7741935483871L200.80645161290317,96.7741935483871L201.29032258064518,96.7741935483871L201.7741935483871,96.7741935483871L202.258064516129,96.7741935483871L202.74193548387092,96.7741935483871L203.22580645161287,96.7741935483871L203.70967741935482,96.7741935483871L204.19354838709674,96.7741935483871L204.67741935483866,96.7741935483871L205.1612903225806,96.7741935483871L205.64516129032256,96.7741935483871L206.12903225806448,96.7741935483871L206.61290322580643,96.7741935483871L207.09677419354836,96.7741935483871L207.5806451612903,96.7741935483871L208.06451612903223,96.7741935483871L208.54838709677418,96.7741935483871L209.0322580645161,96.7741935483871L209.51612903225805,96.7741935483871L210,96.7741935483871L210.48387096774192,96.7741935483871L210.96774193548384,96.7741935483871L211.4516129032258,96.7741935483871L211.93548387096774,96.7741935483871L212.41935483870967,96.7741935483871L212.9032258064516,96.7741935483871L213.38709677419357,96.7741935483871L213.8709677419355,96.7741935483871L214.3548387096774,96.7741935483871L214.83870967741933,96.7741935483871L215.3225806451613,96.7741935483871L215.80645161290323,96.7741935483871L216.29032258064515,96.7741935483871L216.77419354838707,96.7741935483871L217.25806451612897,96.7741935483871L217.74193548387098,96.7741935483871L218.2258064516129,96.7741935483871L218.7096774193548,96.7741935483871L219.1935483870967,96.7741935483871L219.67741935483872,96.7741935483871L220.1612903225806,96.7741935483871L220.64516129032253,96.7741935483871L221.12903225806448,96.7741935483871L221.61290322580643,96.7741935483871L222.09677419354836,96.7741935483871L222.58064516129028,96.7741935483871L223.06451612903223,96.7741935483871L223.54838709677418,96.7741935483871L224.0322580645161,96.7741935483871L224.51612903225805,96.7741935483871L224.99999999999997,96.7741935483871L225.48387096774192,96.7741935483871L225.96774193548384,96.7741935483871L226.4516129032258,96.7741935483871L226.93548387096772,96.7741935483871L227.41935483870967,96.7741935483871L227.90322580645162,96.7741935483871L228.38709677419354,96.7741935483871L228.87096774193546,96.7741935483871L229.35483870967738,96.7741935483871L229.83870967741936,96.7741935483871L230.32258064516128,96.7741935483871L230.8064516129032,96.7741935483871L231.29032258064512,96.7741935483871L231.7741935483871,96.7741935483871L232.25806451612902,96.7741935483871L232.74193548387095,96.7741935483871L233.22580645161287,96.7741935483871L233.70967741935485,96.7741935483871L234.19354838709677,96.7741935483871L234.6774193548387,96.7741935483871L235.16129032258058,96.7741935483871L235.6451612903226,96.7741935483871L236.1290322580645,96.7741935483871L236.6129032258064,96.7741935483871L237.09677419354836,96.7741935483871L237.58064516129033,96.7741935483871L238.06451612903223,96.7741935483871L238.54838709677415,96.7741935483871L239.0322580645161,96.7741935483871L239.51612903225805,96.7741935483871L239.99999999999997,96.7741935483871L240.48387096774192,96.7741935483871L240.96774193548384,96.7741935483871L241.45161290322577,96.7741935483871L241.93548387096772,96.7741935483871L242.41935483870967,96.7741935483871L242.9032258064516,96.7741935483871L243.3870967741935,96.7741935483871L243.8709677419355,96.7741935483871L244.3548387096774,96.7741935483871L244.83870967741933,96.7741935483871L245.32258064516125,96.7741935483871L245.80645161290323,96.7741935483871L246.29032258064515,96.7741935483871L246.77419354838707,96.7741935483871L247.258064516129,96.7741935483871L247.74193548387098,96.7741935483871L248.2258064516129,96.7741935483871L248.70967741935482,96.7741935483871L249.19354838709674,96.7741935483871L249.67741935483872,96.7741935483871L250.16129032258064,96.7741935483871L250.64516129032256,96.7741935483871L251.1290322580645,96.7741935483871L251.61290322580646,96.7741935483871L252.09677419354838,96.7741935483871L252.5806451612903,96.7741935483871L253.0645161290322,96.7741935483871L253.54838709677415,96.7741935483871L254.03225806451613,96.7741935483871L254.51612903225802,96.7741935483871L254.99999999999997,96.7741935483871L255.4838709677419,96.7741935483871L255.96774193548384,96.7741935483871L256.4516129032258,96.7741935483871L256.9354838709677,96.7741935483871L257.41935483870964,96.7741935483871L257.9032258064516,96.7741935483871L258.38709677419354,96.7741935483871L258.87096774193543,96.7741935483871L259.3548387096774,96.7741935483871L259.83870967741933,96.7741935483871L260.3225806451613,96.7741935483871L260.8064516129032,96.7741935483871L261.2903225806451,96.7741935483871L261.7741935483871,96.7741935483871L262.258064516129,96.7741935483871L262.741935483871,96.7741935483871L263.22580645161287,96.7741935483871L263.7096774193548,96.7741935483871L264.19354838709677,96.7741935483871L264.6774193548387,96.7741935483871L265.1612903225806,96.7741935483871L265.64516129032256,96.7741935483871L266.1290322580645,96.7741935483871L266.61290322580646,96.7741935483871L267.09677419354836,96.7741935483871L267.5806451612903,96.7741935483871L268.06451612903226,96.7741935483871L268.5483870967742,96.7741935483871L269.0322580645161,96.7741935483871L269.516129032258,96.7741935483871L270,96.7741935483871L270.48387096774195,96.7741935483871L270.96774193548384,96.7741935483871L271.45161290322574,96.7741935483871L271.93548387096774,96.7741935483871L272.41935483870964,96.7741935483871L272.9032258064516,96.7741935483871L273.3870967741935,96.7741935483871L273.8709677419355,96.7741935483871L274.3548387096774,96.7741935483871L274.83870967741933,96.7741935483871L275.3225806451612,96.7741935483871L275.80645161290323,96.7741935483871L276.2903225806451,96.7741935483871L276.7741935483871,96.7741935483871L277.258064516129,96.7741935483871L277.7419354838709,96.7741935483871L278.22580645161287,96.7741935483871L278.7096774193548,96.7741935483871L279.19354838709677,96.7741935483871L279.67741935483866,96.7741935483871L280.1612903225806,96.7741935483871L280.64516129032256,96.7741935483871L281.1290322580645,96.7741935483871L281.6129032258064,96.7741935483871L282.09677419354836,96.7741935483871L282.5806451612903,96.7741935483871L283.06451612903226,96.7741935483871L283.54838709677415,96.7741935483871L284.03225806451616,96.7741935483871L284.51612903225805,96.7741935483871L285,96.7741935483871L285.4838709677419,96.7741935483871L285.9677419354839,96.7741935483871L286.4516129032258,96.7741935483871L286.93548387096774,96.7741935483871L287.41935483870964,96.7741935483871L287.90322580645164,96.7741935483871L288.38709677419354,96.7741935483871L288.87096774193543,96.7741935483871L289.3548387096774,96.7741935483871L289.83870967741933,96.7741935483871L290.3225806451613,96.7741935483871L290.8064516129032,96.7741935483871L291.2903225806451,96.7741935483871L291.7741935483871,96.7741935483871L292.258064516129,96.7741935483871L292.7419354838709,96.7741935483871L293.22580645161287,96.7741935483871L293.7096774193548,96.7741935483871L294.19354838709677,96.7741935483871L294.67741935483866,96.7741935483871L295.1612903225806,96.7741935483871L295.64516129032256,96.7741935483871L296.1290322580645,96.7741935483871L296.61290322580646,96.7741935483871L297.09677419354836,96.7741935483871L297.5806451612903,96.7741935483871L298.06451612903226,96.7741935483871L298.5483870967742,96.7741935483871L299.0322580645161,96.7741935483871L299.51612903225805,96.7741935483871L300,96.7741935483871L300.4838709677419,96.7741935483871L300.96774193548384,96.7741935483871L301.45161290322574,96.7741935483871L301.9354838709677,96.7741935483871L302.4193548387097,96.7741935483871L302.9032258064516,96.7741935483871L303.38709677419354,96.7741935483871L303.87096774193543,96.7741935483871L304.3548387096774,96.7741935483871L304.83870967741933,96.7741935483871L305.3225806451612,96.7741935483871L305.80645161290323,96.7741935483871L306.2903225806452,96.7741935483871L306.7741935483871,96.7741935483871L307.258064516129,96.7741935483871L307.7419354838709,96.7741935483871L308.22580645161287,96.7741935483871L308.7096774193548,96.7741935483871L309.1935483870967,96.7741935483871L309.6774193548387,96.7741935483871L310.16129032258067,96.7741935483871L310.64516129032256,96.7741935483871L311.1290322580645,96.7741935483871L311.6129032258064,96.7741935483871L312.09677419354836,96.7741935483871L312.58064516129036,96.7741935483871L313.06451612903226,96.7741935483871L313.5483870967742,96.7741935483871L314.03225806451616,96.7741935483871L314.51612903225805,96.7741935483871L315,96.7741935483871L315.4838709677419,96.7741935483871L315.9677419354838,96.7741935483871L316.45161290322585,96.7741935483871L316.93548387096774,96.7741935483871L317.41935483870964,96.7741935483871L317.9032258064516,96.7741935483871L318.38709677419354,96.7741935483871L318.87096774193543,96.7741935483871L319.3548387096774,96.7741935483871L319.8387096774193,96.7741935483871L320.3225806451613,96.7741935483871L320.80645161290323,96.7741935483871L321.2903225806451,96.7741935483871L321.7741935483871,96.7741935483871L322.258064516129,96.7741935483871L322.7419354838709,96.7741935483871L323.22580645161287,96.7741935483871L323.7096774193548,96.7741935483871L324.19354838709677,96.7741935483871L324.6774193548387,96.7741935483871L325.1612903225806,96.7741935483871L325.64516129032256,96.7741935483871L326.1290322580645,96.7741935483871L326.6129032258064,96.7741935483871L327.0967741935484,96.7741935483871L327.5806451612903,96.7741935483871L328.06451612903226,96.7741935483871L328.5483870967742,96.7741935483871L329.0322580645161,96.7741935483871L329.51612903225805,96.7741935483871L329.99999999999994,96.7741935483871L330.48387096774195,96.7741935483871L330.9677419354839,96.7741935483871L331.4516129032258,96.7741935483871L331.9354838709677,96.7741935483871L332.4193548387097,96.7741935483871L332.9032258064516,96.7741935483871L333.3870967741935,96.7741935483871L333.87096774193543,96.7741935483871L334.35483870967744,96.7741935483871L334.83870967741933,96.7741935483871L335.3225806451613,96.7741935483871L335.8064516129032,96.7741935483871L336.2903225806451,96.7741935483871L336.7741935483871,96.7741935483871L337.25806451612897,96.7741935483871L337.741935483871,96.7741935483871L338.2258064516129,96.7741935483871L338.7096774193548,96.7741935483871L339.19354838709677,96.7741935483871L339.67741935483866,96.7741935483871L340.1612903225806,96.7741935483871L340.64516129032256,96.7741935483871L341.12903225806446,96.7741935483871L341.61290322580646,96.7741935483871L342.09677419354836,96.7741935483871L342.5806451612903,96.7741935483871L343.06451612903226,96.7741935483871L343.54838709677415,96.7741935483871L344.0322580645161,96.7741935483871L344.51612903225805,96.7741935483871L345,96.7741935483871L345.48387096774195,96.7741935483871L345.96774193548384,96.7741935483871L346.4516129032258,96.7741935483871L346.93548387096774,96.7741935483871L347.41935483870964,96.7741935483871L347.9032258064516,96.7741935483871L348.3870967741936,96.7741935483871L348.8709677419355,96.7741935483871L349.35483870967744,96.7741935483871L349.83870967741933,96.7741935483871L350.3225806451613,96.7741935483871L350.80645161290323,96.7741935483871L351.2903225806451,96.7741935483871L351.774193548387,96.7741935483871L352.258064516129,96.7741935483871L352.741935483871,96.7741935483871L353.22580645161287,96.7741935483871L353.7096774193548,96.7741935483871L354.1935483870967,96.7741935483871L354.67741935483866,96.7741935483871L355.1612903225806,96.7741935483871L355.6451612903225,96.7741935483871L356.1290322580645,96.7741935483871L356.61290322580646,96.7741935483871L357.09677419354836,96.7741935483871L357.5806451612903,96.7741935483871L358.0645161290322,96.7741935483871L358.54838709677415,96.7741935483871L359.03225806451616,96.7741935483871L359.51612903225805,96.7741935483871L360,96.7741935483871L360.48387096774195,96.7741935483871L360.96774193548384,96.7741935483871L361.4516129032258,96.7741935483871L361.9354838709677,96.7741935483871L362.41935483870964,96.7741935483871L362.90322580645164,96.7741935483871L363.38709677419354,96.7741935483871L363.8709677419355,96.7741935483871L364.3548387096774,96.7741935483871L364.83870967741933,96.7741935483871L365.3225806451613,96.7741935483871L365.8064516129032,96.7741935483871L366.29032258064507,96.7741935483871L366.77419354838713,96.7741935483871L367.258064516129,96.7741935483871L367.7419354838709,96.7741935483871L368.22580645161287,96.7741935483871L368.7096774193548,96.7741935483871L369.1935483870967,96.7741935483871L369.67741935483866,96.7741935483871L370.16129032258056,96.7741935483871L370.64516129032256,96.7741935483871L371.1290322580645,96.7741935483871L371.6129032258064,96.7741935483871L372.09677419354836,96.7741935483871L372.5806451612903,96.7741935483871L373.0645161290322,96.7741935483871L373.5483870967742,96.7741935483871L374.0322580645161,96.7741935483871L374.51612903225805,96.7741935483871L375,96.7741935483871L375.4838709677419,96.7741935483871L375.96774193548384,96.7741935483871L376.45161290322574,96.7741935483871L376.9354838709677,96.7741935483871L377.4193548387097,96.7741935483871L377.9032258064516,96.7741935483871L378.38709677419354,96.7741935483871L378.8709677419355,96.7741935483871L379.3548387096774,96.7741935483871L379.83870967741933,96.7741935483871L380.3225806451612,96.7741935483871L380.80645161290323,96.7741935483871L381.2903225806452,96.7741935483871L381.7741935483871,96.7741935483871L382.258064516129,96.7741935483871L382.741935483871,96.7741935483871L383.22580645161287,96.7741935483871L383.7096774193548,96.7741935483871L384.1935483870967,96.7741935483871L384.6774193548387,96.7741935483871L385.16129032258067,96.7741935483871L385.64516129032256,96.7741935483871L386.12903225806446,96.7741935483871L386.61290322580646,96.7741935483871L387.09677419354836,96.7741935483871L387.58064516129025,96.7741935483871L388.06451612903226,96.7741935483871L388.54838709677426,96.7741935483871L389.03225806451616,96.7741935483871L389.5161290322581,96.7741935483871L390,96.7741935483871L390.4838709677419,96.7741935483871L390.96774193548384,96.7741935483871L391.45161290322574,96.7741935483871L391.93548387096774,96.7741935483871L392.41935483870964,96.7741935483871L392.9032258064516,96.7741935483871L393.3870967741935,96.7741935483871L393.8709677419355,96.7741935483871L394.3548387096774,96.7741935483871L394.8387096774194,96.7741935483871L395.3225806451613,96.7741935483871L395.80645161290323,96.7741935483871L396.2903225806451,96.7741935483871L396.7741935483871,96.7741935483871L397.25806451612897,96.7741935483871L397.741935483871,96.7741935483871L398.22580645161287,96.7741935483871L398.7096774193549,96.7741935483871L399.19354838709677,96.7741935483871L399.6774193548387,96.7741935483871L400.1612903225806,96.7741935483871L400.64516129032256,96.7741935483871L401.12903225806446,96.7741935483871L401.61290322580635,96.7741935483871L402.0967741935484,96.7741935483871L402.58064516129036,96.7741935483871L403.06451612903226,96.7741935483871L403.5483870967742,96.7741935483871L404.0322580645161,96.7741935483871L404.516129032258,96.7741935483871L404.99999999999994,96.7741935483871L405.48387096774184,96.7741935483871L405.9677419354839,96.7741935483871L406.45161290322585,96.7741935483871L406.93548387096774,96.7741935483871L407.41935483870964,96.7741935483871L407.9032258064516,96.7741935483871L408.3870967741935,96.7741935483871L408.87096774193543,96.7741935483871L409.3548387096773,96.7741935483871L409.8387096774194,96.7741935483871L410.3225806451613,96.7741935483871L410.80645161290323,96.7741935483871L411.2903225806451,96.7741935483871L411.7741935483871,96.7741935483871L412.25806451612897,96.7741935483871L412.741935483871,96.7741935483871L413.22580645161287,96.7741935483871L413.7096774193548,96.7741935483871L414.19354838709677,96.7741935483871L414.6774193548387,96.7741935483871L415.1612903225806,96.7741935483871L415.64516129032256,96.7741935483871L416.12903225806446,96.7741935483871L416.61290322580646,96.7741935483871L417.09677419354836,96.7741935483871L417.58064516129025,96.7741935483871L418.06451612903226,96.7741935483871L418.5483870967742,96.7741935483871L419.0322580645161,96.7741935483871L419.51612903225805,96.7741935483871L420,96.7741935483871L420.4838709677419,96.7741935483871L420.96774193548384,96.7741935483871L421.45161290322574,96.7741935483871L421.93548387096774,96.7741935483871L422.4193548387097,96.7741935483871L422.9032258064516,96.7741935483871L423.3870967741935,96.7741935483871L423.8709677419355,96.7741935483871L424.3548387096774,96.7741935483871L424.83870967741933,96.7741935483871L425.3225806451612,96.7741935483871L425.80645161290323,96.7741935483871L426.2903225806451,96.7741935483871L426.77419354838713,96.7741935483871L427.258064516129,96.7741935483871L427.741935483871,96.7741935483871L428.22580645161287,96.7741935483871L428.7096774193548,96.7741935483871L429.1935483870967,96.7741935483871L429.67741935483866,96.7741935483871L430.1612903225806,96.7741935483871L430.6451612903226,96.7741935483871L431.1290322580645,96.7741935483871L431.61290322580646,96.7741935483871L432.09677419354836,96.7741935483871L432.5806451612903,96.7741935483871L433.0645161290322,96.7741935483871L433.54838709677415,96.7741935483871L434.03225806451616,96.7741935483871L434.5161290322581,96.7741935483871L435,96.7741935483871L435.48387096774195,96.7741935483871L435.96774193548384,96.7741935483871L436.4516129032258,96.7741935483871L436.9354838709677,96.7741935483871L437.4193548387096,96.7741935483871L437.90322580645164,96.7741935483871L438.3870967741936,96.7741935483871L438.8709677419355,96.7741935483871L439.35483870967744,96.7741935483871L439.83870967741933,96.7741935483871L440.3225806451612,96.7741935483871L440.8064516129032,96.7741935483871L441.29032258064507,96.7741935483871L441.7741935483871,96.7741935483871L442.2580645161291,96.7741935483871L442.741935483871,96.7741935483871L443.22580645161287,96.7741935483871L443.7096774193548,96.7741935483871L444.1935483870967,96.7741935483871L444.67741935483866,96.7741935483871L445.16129032258056,96.7741935483871L445.64516129032256,96.7741935483871L446.1290322580645,96.7741935483871L446.61290322580646,96.7741935483871L447.09677419354836,96.7741935483871L447.5806451612903,96.7741935483871L448.0645161290322,96.7741935483871L448.5483870967742,96.7741935483871L449.0322580645161,96.7741935483871L449.51612903225805,96.7741935483871L450,96.7741935483871L450.48387096774195,96.7741935483871L450.96774193548384,96.7741935483871L451.4516129032258,96.7741935483871L451.9354838709677,96.7741935483871L452.4193548387097,96.7741935483871L452.9032258064516,96.7741935483871L453.3870967741935,96.7741935483871L453.87096774193543,96.7741935483871L454.35483870967744,96.7741935483871L454.83870967741933,96.7741935483871L455.32258064516134,96.7741935483871L455.80645161290323,96.7741935483871L456.2903225806451,96.7741935483871L456.7741935483871,96.7741935483871L457.25806451612897,96.7741935483871L457.7419354838709,96.7741935483871L458.2258064516129,96.7741935483871L458.7096774193548,96.7741935483871L459.1935483870967,96.7741935483871L459.6774193548387,96.7741935483871L460.1612903225806,96.7741935483871L460.64516129032256,96.7741935483871L461.12903225806446,96.7741935483871L461.6129032258064,96.7741935483871L462.09677419354836,96.7741935483871L462.58064516129036,96.7741935483871L463.06451612903226,96.7741935483871L463.5483870967742,96.7741935483871L464.0322580645161,96.7741935483871L464.51612903225805,96.7741935483871L464.99999999999994,96.7741935483871L465.4838709677419,96.7741935483871L465.9677419354838,96.7741935483871L466.45161290322585,96.7741935483871L466.93548387096774,96.7741935483871L467.4193548387097,96.7741935483871L467.9032258064516,96.7741935483871L468.38709677419354,96.7741935483871L468.87096774193543,96.7741935483871L469.3548387096774,96.7741935483871L469.8387096774193,96.7741935483871L470.32258064516134,96.7741935483871L470.80645161290323,96.7741935483871L471.2903225806452,96.7741935483871L471.7741935483871,96.7741935483871L472.258064516129,96.7741935483871L472.7419354838709,96.7741935483871L473.2258064516128,96.7741935483871L473.7096774193548,96.7741935483871L474.1935483870968,96.7741935483871L474.6774193548387,96.7741935483871L475.16129032258067,96.7741935483871L475.64516129032256,96.7741935483871L476.12903225806446,96.7741935483871L476.6129032258064,96.7741935483871L477.0967741935483,96.7741935483871L477.5806451612903,96.7741935483871L478.0645161290322,96.7741935483871L478.5483870967742,96.7741935483871L479.0322580645161,96.7741935483871L479.51612903225805,96.7741935483871L479.99999999999994,96.7741935483871L480.48387096774195,96.7741935483871L480.96774193548384,96.7741935483871L481.4516129032258,96.7741935483871L481.9354838709677,96.7741935483871L482.4193548387097,96.7741935483871L482.9032258064516,96.7741935483871L483.38709677419354,96.7741935483871L483.87096774193543,96.7741935483871L484.35483870967744,96.7741935483871L484.83870967741933,96.7741935483871L485.3225806451613,96.7741935483871L485.8064516129032,96.7741935483871L486.2903225806452,96.7741935483871L486.7741935483871,96.7741935483871L487.258064516129,96.7741935483871L487.741935483871,96.7741935483871L488.2258064516129,96.7741935483871L488.7096774193548,96.7741935483871"
          stroke="lightblue" stroke-width="3" fill="none"/>
</svg>