<?xml version="1.0" standalone="no"?>
<svg xmlns="http://www.w3.org/2000/svg" id="svg_7" width="150" height="150" style="background-color: rgb(58, 58, 58);">
    <g transform="translate( 75, 0)" class="axis" fill="none" font-size="10" font-family="sans-serif" text-anchor="end">
        <path class="domain" stroke="#000" d="M0,150.5H0.5V0.5H0" style="stroke: orange; stroke-width: 0.5;"/>
    </g>
    <g transform="translate( 0,75)" class="axis" fill="none" font-size="10" font-family="sans-serif"
       text-anchor="middle">
        <path class="domain" stroke="#000" d="M0.5,0V0.5H150.5V0" style="stroke: orange; stroke-width: 0.5;"/>
    </g>
    <path d="M0,112.49999984541347L0.0749999999999984,112.49999984229063L0.1499999999999968,112.49999983910469L0.2249999999999952,112.4999998358544L0.2999999999999936,112.49999983253842L0.374999999999992,112.49999982915548L0.45000000000000373,112.49999982570418L0.5250000000000021,112.49999982218318L0.6000000000000005,112.49999981859104L0.6749999999999989,112.49999981492633L0.7499999999999973,112.49999981118759L0.8249999999999957,112.49999980737334L0.8999999999999941,112.49999980348201L0.9749999999999925,112.4999997995121L1.0500000000000043,112.49999979546196L1.1250000000000027,112.49999979133003L1.200000000000001,112.4999997871146L1.2749999999999995,112.49999978281403L1.3499999999999979,112.4999997784266L1.4249999999999963,112.49999977395052L1.4999999999999947,112.49999976938402L1.574999999999993,112.49999976472526L1.6500000000000048,112.4999997599724L1.7250000000000032,112.49999975512351L1.8000000000000016,112.49999975017667L1.875,112.49999974512991L1.9499999999999984,112.4999997399812L2.024999999999997,112.49999973472848L2.099999999999995,112.49999972936963L2.1749999999999936,112.49999972390253L2.249999999999992,112.499999718325L2.3250000000000037,112.49999971263478L2.400000000000002,112.49999970682961L2.4750000000000005,112.49999970090718L2.549999999999999,112.49999969486511L2.6249999999999973,112.49999968870097L2.6999999999999957,112.49999968241232L2.774999999999994,112.49999967599663L2.8499999999999925,112.49999966945131L2.9250000000000043,112.4999996627738L3.0000000000000027,112.49999965596137L3.075000000000001,112.49999964901133L3.1499999999999995,112.49999964192088L3.224999999999998,112.49999963468721L3.2999999999999963,112.4999996273074L3.3749999999999947,112.49999961977852L3.449999999999993,112.49999961209753L3.525000000000005,112.49999960426138L3.600000000000003,112.49999959626692L3.6750000000000016,112.499999588111L3.75,112.49999957979028L3.8249999999999984,112.49999957130147L3.899999999999997,112.4999995626412L3.974999999999995,112.49999955380595L4.049999999999994,112.49999954479225L4.124999999999992,112.49999953559643L4.200000000000004,112.49999952621485L4.275000000000002,112.49999951664375L4.3500000000000005,112.4999995068793L4.424999999999999,112.49999949691761L4.499999999999997,112.49999948675469L4.574999999999996,112.49999947638642L4.649999999999994,112.49999946580874L4.7249999999999925,112.49999945501736L4.800000000000004,112.49999944400798L4.875000000000003,112.49999943277619L4.950000000000001,112.49999942131751L5.0249999999999995,112.49999940962735L5.099999999999998,112.49999939770103L5.174999999999996,112.49999938553378L5.249999999999995,112.49999937312074L5.324999999999993,112.49999936045694L5.400000000000005,112.49999934753733L5.475000000000003,112.4999993343567L5.550000000000002,112.49999932090981L5.625,112.49999930719127L5.699999999999998,112.49999929319563L5.774999999999997,112.49999927891722L5.849999999999995,112.49999926435038L5.924999999999994,112.49999924948926L5.999999999999992,112.49999923432796L6.075000000000004,112.49999921886035L6.150000000000002,112.49999920308028L6.2250000000000005,112.49999918698144L6.299999999999999,112.49999917055737L6.374999999999997,112.49999915380153L6.449999999999996,112.49999913670717L6.524999999999994,112.4999991192675L6.5999999999999925,112.49999910147554L6.675000000000004,112.49999908332413L6.750000000000003,112.49999906480605L6.825000000000001,112.49999904591388L6.8999999999999995,112.49999902664007L6.974999999999998,112.49999900697688L7.049999999999996,112.4999989869165L7.124999999999995,112.49999896645085L7.199999999999993,112.49999894557178L7.275000000000005,112.49999892427091L7.350000000000003,112.49999890253974L7.425000000000002,112.49999888036956L7.5,112.49999885775154L7.574999999999998,112.49999883467659L7.649999999999997,112.4999988111355L7.724999999999995,112.49999878711884L7.799999999999994,112.49999876261701L7.874999999999992,112.49999873762022L7.950000000000004,112.49999871211845L8.025000000000002,112.49999868610152L8.100000000000001,112.49999865955903L8.174999999999999,112.49999863248031L8.249999999999996,112.49999860485458L8.324999999999996,112.49999857667078L8.399999999999993,112.49999854791761L8.474999999999993,112.4999985185836L8.550000000000004,112.49999848865701L8.625000000000002,112.49999845812584L8.700000000000001,112.49999842697794L8.774999999999999,112.49999839520078L8.849999999999998,112.4999983627817L8.924999999999997,112.4999983297077L8.999999999999995,112.49999829596555L9.074999999999994,112.49999826154176L9.150000000000006,112.49999822642258L9.225000000000003,112.49999819059394L9.300000000000002,112.49999815404152L9.375,112.49999811675067L9.449999999999998,112.49999807870653L9.524999999999997,112.49999803989382L9.599999999999996,112.49999800029704L9.674999999999994,112.49999795990037L9.749999999999993,112.49999791868763L9.825000000000005,112.49999787664233L9.900000000000002,112.49999783374767L9.975000000000001,112.49999778998645L10.049999999999999,112.49999774534123L10.124999999999996,112.49999769979411L10.199999999999996,112.49999765332686L10.274999999999995,112.49999760592092L10.349999999999993,112.49999755755731L10.425000000000004,112.4999975082167L10.500000000000004,112.49999745787935L10.575000000000001,112.4999974065251L10.649999999999999,112.49999735413343L10.724999999999998,112.49999730068339L10.799999999999997,112.49999724615358L10.874999999999995,112.4999971905222L10.949999999999992,112.49999713376698L11.025000000000006,112.49999707586522L11.100000000000003,112.4999970167938L11.175,112.49999695652903L11.25,112.49999689504685L11.324999999999998,112.49999683232264L11.399999999999997,112.4999967683313L11.474999999999996,112.49999670304727L11.549999999999994,112.49999663644441L11.625000000000005,112.49999656849607L11.700000000000005,112.49999649917511L11.775000000000002,112.49999642845376L11.85,112.49999635630374L11.924999999999999,112.4999962826962L11.999999999999998,112.49999620760168L12.074999999999996,112.49999613099016L12.149999999999995,112.49999605283098L12.224999999999993,112.49999597309287L12.300000000000004,112.49999589174396L12.375000000000004,112.49999580875169L12.450000000000001,112.49999572408286L12.524999999999999,112.49999563770362L12.599999999999998,112.49999554957938L12.674999999999997,112.49999545967493L12.749999999999995,112.49999536795428L12.824999999999992,112.49999527438075L12.900000000000006,112.49999517891692L12.975000000000003,112.49999508152459L13.05,112.4999949821648L13.125,112.49999488079783L13.2,112.49999477738308L13.274999999999997,112.49999467187922L13.349999999999994,112.49999456424405L13.424999999999994,112.4999944544345L13.500000000000005,112.49999434240667L13.575000000000003,112.4999942281157L13.650000000000002,112.49999411151592L13.725,112.49999399256066L13.799999999999999,112.49999387120235L13.874999999999998,112.49999374739242L13.949999999999996,112.49999362108139L14.024999999999993,112.49999349221869L14.099999999999993,112.4999933607528L14.175000000000004,112.49999322663112L14.250000000000002,112.49999308980001L14.325000000000001,112.49999295020473L14.4,112.49999280778943L14.474999999999998,112.49999266249714L14.549999999999997,112.49999251426976L14.624999999999995,112.49999236304802L14.699999999999992,112.49999220877135L14.775000000000006,112.49999205137811L14.850000000000003,112.49999189080532L14.925,112.49999172698874L15,112.49999155986285L15.075,112.49999138936079L15.149999999999997,112.49999121541435L15.225000000000001,112.49999103795398L15.3,112.49999085690865L15.374999999999998,112.49999067220598L15.449999999999998,112.49999048377207L15.524999999999995,112.49999029153153L15.600000000000001,112.4999900954075L15.674999999999999,112.49998989532148L15.749999999999996,112.49998969119346L15.824999999999996,112.49998948294179L15.900000000000002,112.49998927048314L15.975,112.49998905373255L16.049999999999997,112.49998883260332L16.124999999999996,112.49998860700697L16.200000000000003,112.49998837685328L16.275,112.49998814205019L16.349999999999998,112.49998790250375L16.424999999999997,112.49998765811816L16.500000000000004,112.49998740879565L16.575,112.49998715443648L16.65,112.49998689493893L16.724999999999998,112.49998663019917L16.8,112.49998636011134L16.875,112.49998608456735L16.95,112.49998580345704L17.024999999999995,112.49998551666789L17.1,112.49998522408524L17.175,112.49998492559202L17.25,112.49998462106885L17.324999999999996,112.49998431039388L17.400000000000002,112.49998399344288L17.475,112.49998367008905L17.549999999999997,112.49998334020304L17.624999999999996,112.49998300365289L17.699999999999996,112.49998266030398L17.775000000000002,112.49998231001896L17.849999999999998,112.49998195265775L17.924999999999997,112.49998158807733L17.999999999999996,112.49998121613191L18.075000000000003,112.4999808366727L18.15,112.49998044954792L18.224999999999998,112.49998005460267L18.299999999999997,112.49997965167904L18.375,112.4999792406158L18.45,112.49997882124855L18.525,112.4999783934095L18.599999999999994,112.49997795692755L18.675,112.49997751162809L18.75,112.49997705733298L18.825,112.49997659386051L18.899999999999995,112.49997612102527L18.975,112.49997563863815L19.05,112.49997514650616L19.125,112.49997464443243L19.199999999999996,112.49997413221618L19.275000000000002,112.49997360965247L19.35,112.49997307653227L19.425,112.49997253264235L19.499999999999996,112.49997197776511L19.574999999999996,112.49997141167864L19.650000000000002,112.49997083415647L19.725,112.49997024496759L19.799999999999997,112.49996964387628L19.874999999999996,112.49996903064218L19.950000000000003,112.4999684050199L20.025000000000002,112.49996776675924L20.099999999999998,112.49996711560487L20.174999999999997,112.49996645129633L20.25,112.49996577356785L20.325000000000003,112.49996508214839L20.4,112.49996437676133L20.474999999999998,112.49996365712451L20.55,112.49996292295009L20.625,112.4999621739444L20.7,112.49996140980777L20.775,112.49996063023457L20.85,112.499959834913L20.925,112.49995902352485L20.999999999999996,112.49995819574559L21.075,112.49995735124412L21.150000000000002,112.4999564896826L21.225,112.49995561071641L21.299999999999997,112.49995471399393L21.374999999999996,112.4999537991565L21.449999999999996,112.49995286583814L21.525000000000002,112.49995191366551L21.599999999999998,112.49995094225775L21.674999999999997,112.49994995122628L21.749999999999993,112.49994894017468L21.825000000000003,112.49994790869852L21.9,112.49994685638515L21.974999999999998,112.49994578281371L22.049999999999994,112.49994468755469L22.125000000000004,112.49994357017002L22.2,112.49994243021271L22.275,112.49994126722677L22.349999999999994,112.499940080747L22.425000000000004,112.49993887029879L22.5,112.49993763539793L22.575,112.49993637555048L22.649999999999995,112.49993509025245L22.725000000000005,112.49993377898971L22.8,112.49993244123777L22.875,112.49993107646151L22.949999999999996,112.49992968411496L23.025000000000002,112.49992826364122L23.1,112.49992681447205L23.175,112.49992533602779L23.249999999999996,112.49992382771703L23.324999999999996,112.49992228893643L23.4,112.49992071907049L23.475,112.4999191174912L23.549999999999997,112.49991748355794L23.624999999999996,112.49991581661709L23.7,112.4999141160019L23.775,112.49991238103208L23.849999999999998,112.49991061101363L23.924999999999997,112.49990880523852L24,112.49990696298443L24.075,112.49990508351442L24.149999999999995,112.49990316607668L24.224999999999998,112.49990120990424L24.3,112.49989921421462L24.375,112.4998971782095L24.449999999999996,112.49989510107443L24.525,112.4998929819786L24.6,112.49989082007431L24.675,112.49988861449678L24.749999999999996,112.49988636436376L24.824999999999996,112.49988406877519L24.900000000000002,112.49988172681279L24.975,112.49987933753977L25.049999999999997,112.49987690000037L25.124999999999996,112.49987441321959L25.199999999999996,112.49987187620266L25.275000000000002,112.49986928793479L25.349999999999998,112.4998666473806L25.424999999999997,112.49986395348388L25.499999999999996,112.49986120516704L25.575000000000003,112.49985840133073L25.65,112.49985554085336L25.724999999999998,112.49985262259075L25.799999999999997,112.49984964537558L25.875000000000004,112.49984660801688L25.95,112.49984350929975L26.025,112.49984034798462L26.099999999999998,112.49983712280698L26.175,112.49983383247671L26.25,112.49983047567767L26.325,112.49982705106707L26.4,112.49982355727509L26.475,112.49981999290416L26.549999999999997,112.49981635652853L26.625,112.49981264669358L26.7,112.49980886191537L26.775000000000002,112.49980500067997L26.849999999999998,112.49980106144285L26.924999999999997,112.49979704262829L27,112.49979294262874L27.074999999999996,112.49978875980415L27.15,112.4997844924814L27.224999999999998,112.4997801389535L27.3,112.49977569747901L27.374999999999996,112.49977116628133L27.45,112.49976654354798L27.525,112.49976182742978L27.599999999999998,112.49975701604029L27.674999999999997,112.49975210745492L27.75,112.49974709971022L27.825,112.49974199080305L27.9,112.49973677868982L27.974999999999994,112.49973146128568L28.05,112.49972603646361L28.125,112.49972050205369L28.2,112.4997148558421L28.274999999999995,112.49970909557035L28.35,112.49970321893431L28.425,112.4996972235833L28.5,112.49969110711913L28.574999999999996,112.49968486709524L28.650000000000002,112.49967850101557L28.725,112.49967200633367L28.8,112.49966538045165L28.874999999999996,112.49965862071915L28.949999999999996,112.49965172443223L29.025000000000002,112.4996446888324L29.1,112.49963751110539L29.174999999999997,112.49963018838007L29.249999999999996,112.49962271772736L29.325000000000003,112.499615096159L29.400000000000002,112.49960732062635L29.474999999999998,112.49959938801916L29.549999999999997,112.49959129516444L29.625,112.49958303882497L29.700000000000003,112.49957461569826L29.775,112.49956602241508L29.849999999999998,112.49955725553808L29.925,112.49954831156052L30,112.49953918690483L30.075,112.49952987792116L30.15,112.49952038088593L30.225,112.49951069200034L30.3,112.49950080738884L30.374999999999996,112.49949072309764L30.45,112.49948043509303L30.525000000000002,112.49946993925988L30.6,112.49945923139983L30.674999999999997,112.49944830722981L30.749999999999996,112.49943716238022L30.825000000000003,112.49942579239313L30.900000000000002,112.49941419272062L30.974999999999998,112.49940235872288L31.049999999999997,112.49939028566638L31.124999999999993,112.49937796872197L31.200000000000003,112.49936540296292L31.275,112.49935258336305L31.349999999999998,112.49933950479462L31.424999999999994,112.49932616202626L31.500000000000004,112.49931254972101L31.575,112.49929866243403L31.65,112.49928449461055L31.724999999999994,112.49927004058357L31.800000000000004,112.49925529457161L31.875,112.49924025067642L31.95,112.49922490288063L32.025,112.49920924504525L32.1,112.49919327090737L32.175,112.4991769740775L32.25,112.49916034803712L32.324999999999996,112.49914338613604L32.400000000000006,112.49912608158974L32.475,112.49910842747664L32.55,112.49909041673538L32.62499999999999,112.49907204216191L32.7,112.49905329640673L32.775,112.49903417197183L32.85,112.49901466120775L32.925,112.49899475631055L32.99999999999999,112.49897444931867L33.075,112.49895373210964L33.15,112.49893259639703L33.224999999999994,112.498911033727L33.3,112.4988890354749L33.375,112.49886659284192L33.45,112.49884369685154L33.525,112.49882033834587L33.599999999999994,112.49879650798209L33.675000000000004,112.49877219622861L33.75,112.4987473933614L33.824999999999996,112.49872208945992L33.9,112.49869627440333L33.975,112.49866993786631L34.050000000000004,112.49864306931502L34.125,112.49861565800282L34.199999999999996,112.49858769296604L34.275,112.49855916301952L34.35,112.49853005675223L34.425,112.49850036252262L34.5,112.498470068454L34.575,112.49843916242983L34.65,112.4984076320888L34.724999999999994,112.49837546481996L34.8,112.4983426477576L34.875,112.49830916777623L34.95,112.49827501148515L35.025,112.49824016522328L35.099999999999994,112.4982046150536L35.175,112.49816834675758L35.25,112.49813134582953L35.324999999999996,112.49809359747078L35.4,112.49805508658376L35.475,112.49801579776597L35.550000000000004,112.49797571530384L35.625,112.4979348231664L35.699999999999996,112.49789310499895L35.775,112.49785054411643L35.85,112.49780712349684L35.925,112.49776282577437L36,112.49771763323247L36.074999999999996,112.49767152779677L36.150000000000006,112.49762449102792L36.225,112.4975765041141L36.3,112.4975275478636L36.375,112.4974776026971L36.45,112.49742664863987L36.525,112.49737466531374L36.6,112.49732163192903L36.675,112.49726752727618L36.74999999999999,112.49721232971729L36.825,112.49715601717746L36.9,112.49709856713602L36.975,112.49703995661746L37.05,112.49698016218227L37.125,112.49691915991764L37.2,112.49685692542778L37.275,112.49679343382427L37.349999999999994,112.49672865971607L37.425,112.49666257719939L37.5,112.49659515984732L37.575,112.49652638069931L37.65,112.49645621225034L37.725,112.49638462643999L37.8,112.49631159464116L37.875,112.49623708764872L37.95,112.49616107566774L38.025,112.49608352830168L38.1,112.49600441454015L38.175,112.49592370274665L38.25,112.4958413606458L38.325,112.49575735531047L38.4,112.49567165314875L38.475,112.49558421989039L38.550000000000004,112.49549502057312L38.62499999999999,112.49540401952875L38.7,112.49531118036896L38.775,112.49521646597057L38.85,112.49511983846097L38.92499999999999,112.49502125920276L39,112.49492068877852L39.075,112.4948180869749L39.15,112.49471341276667L39.224999999999994,112.49460662430027L39.300000000000004,112.49449767887717L39.375,112.4943865329367L39.45,112.49427314203881L39.52499999999999,112.49415746084617L39.6,112.4940394431062L39.675000000000004,112.49391904163252L39.75,112.49379620828611L39.824999999999996,112.49367089395619L39.900000000000006,112.49354304854043L39.975,112.49341262092514L40.050000000000004,112.49327955896479L40.12499999999999,112.49314380946109L40.2,112.49300531814197L40.275000000000006,112.49286402963972L40.35,112.49271988746904L40.425,112.49257283400433L40.49999999999999,112.49242281045692L40.575,112.49226975685136L40.650000000000006,112.49211361200167L40.724999999999994,112.49195431348684L40.8,112.49179179762595L40.875,112.49162599945278L40.95,112.49145685268981L41.02499999999999,112.49128428972189L41.099999999999994,112.49110824156917L41.175000000000004,112.49092863785962L41.25,112.49074540680104L41.324999999999996,112.49055847515224L41.4,112.49036776819402L41.475,112.49017320969924L41.550000000000004,112.48997472190248L41.62499999999999,112.48977222546904L41.699999999999996,112.48956563946325L41.775000000000006,112.48935488131627L41.85,112.48913986679312L41.925,112.48892050995909L41.99999999999999,112.48869672314552L42.075,112.48846841691486L42.150000000000006,112.48823550002498L42.224999999999994,112.48799787939285L42.3,112.4877554600574L42.37499999999999,112.4875081451417L42.45,112.48725583581438L42.525,112.48699843125023L42.599999999999994,112.48673582859L42.675,112.4864679228995L42.75000000000001,112.48619460712774L42.824999999999996,112.48591577206432L42.9,112.4856313062959L42.974999999999994,112.4853410961619L43.050000000000004,112.48504502570917L43.125,112.48474297664586L43.199999999999996,112.48443482829433L43.275,112.48412045754307L43.35000000000001,112.48379973879776L43.425,112.48347254393124L43.5,112.48313874223251L43.574999999999996,112.48279820035475L43.650000000000006,112.48245078226228L43.724999999999994,112.48209634917637L43.8,112.48173475952012L43.875,112.48136586886204L43.95,112.48098952985877L44.025,112.48060559219631L44.099999999999994,112.48021390253038L44.175,112.47981430442542L44.25000000000001,112.4794066382924L44.324999999999996,112.47899074132539L44.4,112.47856644743686L44.474999999999994,112.4781335871917L44.55,112.47769198773989L44.625,112.47724147274783L44.699999999999996,112.47678186232834L44.775,112.47631297296917L44.85,112.47583461746015L44.925,112.47534660481891L45,112.47484874021501L45.074999999999996,112.47434082489264L45.15,112.47382265609176L45.225,112.47329402696758L45.3,112.47275472650864L45.375,112.47220453945302L45.45000000000001,112.47164324620297L45.525,112.4710706227379L45.6,112.47048644052552L45.675,112.46989046643128L45.75,112.46928246262604L45.824999999999996,112.46866218649174L45.9,112.46802939052537L45.975,112.46738382224092L46.050000000000004,112.46672522406942L46.125,112.46605333325697L46.2,112.4653678817607L46.275,112.46466859614279L46.35,112.46395519746224L46.425,112.46322740116449L46.49999999999999,112.46248491696903L46.575,112.46172744875449L46.65,112.46095469444168L46.725,112.4601663458742L46.8,112.45936208869671L46.875,112.45854160223072L46.95,112.45770455934809L47.025,112.45685062634169L47.099999999999994,112.45597946279393L47.175,112.4550907214423L47.25,112.45418404804242L47.325,112.4532590812284L47.4,112.45231545237036L47.475,112.45135278542915L47.55,112.45037069680822L47.625,112.44936879520253L47.699999999999996,112.4483466814445L47.775,112.44730394834687L47.85,112.44624018054252L47.925000000000004,112.44515495432105L48,112.44404783746225L48.075,112.44291838906611L48.15,112.44176615937968L48.225,112.44059068962036L48.29999999999999,112.43939151179579L48.37499999999999,112.43816814852013L48.45,112.43692011282684L48.525,112.43564690797763L48.6,112.4343480272678L48.675000000000004,112.43302295382765L48.75,112.43167116041994L48.825,112.43029210923369L48.89999999999999,112.42888525167348L48.974999999999994,112.42745002814492L49.050000000000004,112.42598586783592L49.125,112.42449218849359L49.2,112.42296839619664L49.275000000000006,112.42141388512371L49.35,112.41982803731685L49.425000000000004,112.41821022244042L49.49999999999999,112.41655979753548L49.574999999999996,112.41487610676914L49.650000000000006,112.4131584811793L49.725,112.41140623841406L49.800000000000004,112.40961868246657L49.875,112.4077951034042L49.95,112.40593477709274L50.025000000000006,112.40403696491526L50.099999999999994,112.4021009134855L50.175,112.40012585435547L50.24999999999999,112.39811100371783L50.325,112.39605556210215L50.39999999999999,112.39395871406545L50.475,112.39181962787681L50.550000000000004,112.38963745519578L50.625,112.38741133074473L50.699999999999996,112.38514037197476L50.775,112.38282367872533L50.849999999999994,112.38046033287728L50.925000000000004,112.37804939799916L50.99999999999999,112.37558991898692L51.075,112.37308092169653L51.150000000000006,112.37052141256972L51.225,112.36791037825253L51.3,112.36524678520661L51.37499999999999,112.36252957931305L51.449999999999996,112.3597576854687L51.525000000000006,112.35693000717497L51.599999999999994,112.35404542611857L51.675000000000004,112.35110280174462L51.75000000000001,112.34810097082126L51.825,112.34503874699658L51.9,112.34191492034677L51.974999999999994,112.33872825691581L52.05,112.33547749824685L52.12499999999999,112.33216136090428L52.199999999999996,112.32877853598727L52.275,112.32532768863399L52.35,112.32180745751663L52.425000000000004,112.31821645432694L52.5,112.31455326325239L52.574999999999996,112.31081644044227L52.65,112.30700451346422L52.724999999999994,112.30311598075048L52.8,112.299149311034L52.875,112.29510294277418L52.95,112.29097528357184L53.025000000000006,112.28676470957379L53.099999999999994,112.28246956486618L53.175,112.27808816085695L53.25,112.27361877564687L53.324999999999996,112.2690596533892L53.4,112.2644090036378L53.474999999999994,112.25966500068324L53.550000000000004,112.2548257828771L53.62500000000001,112.249889451944L53.699999999999996,112.2448540722812L53.775,112.2397176702458L53.849999999999994,112.23447823342902L53.925,112.22913370991763L54,112.2236820075423L54.074999999999996,112.21812099311244L54.15,112.21244849163769L54.22500000000001,112.2066622855356L54.3,112.20076011382544L54.375,112.19473967130779L54.449999999999996,112.18859860772996L54.525,112.18233452693674L54.6,112.17594498600661L54.675,112.1694274943728L54.75,112.1627795129294L54.82500000000001,112.15599845312221L54.9,112.14908167602368L54.975,112.14202649139276L55.05,112.1348301567181L55.125,112.12748987624573L55.199999999999996,112.12000279999003L55.275,112.11236602272837L55.35,112.10457658297885L55.425000000000004,112.09663146196135L55.5,112.08852758254122L55.575,112.08026180815577L55.65,112.07183094172325L55.725,112.06323172453413L55.8,112.05446083512447L55.87499999999999,112.04551488813118L55.95,112.03639043312917L56.025,112.02708395344982L56.1,112.0175918649811L56.175,112.00791051494879L56.25,111.99803618067864L56.325,111.98796506833963L56.4,111.97769331166785L56.474999999999994,111.96721697067085L56.55,111.95653203031264L56.625,111.94563439917886L56.7,111.93451990812198L56.775,111.92318430888687L56.85,111.91162327271583L56.925,111.89983238893379L57,111.887807163513L57.074999999999996,111.87554301761747L57.15,111.86303528612666L57.225,111.85027921613901L57.300000000000004,111.83726996545442L57.375,111.82400260103641L57.45,111.81047209745338L57.525,111.79667333529923L57.6,111.78260109959312L57.67499999999999,111.76825007815864L57.74999999999999,111.75361485998218L57.825,111.73868993355055L57.9,111.72346968516811L57.975,111.70794839725326L58.050000000000004,111.6921202466144L58.125,111.67597930270551L58.2,111.65951952586178L58.27499999999999,111.64273476551469L58.349999999999994,111.62561875838752L58.425000000000004,111.60816512667097L58.5,111.59036737617943L58.575,111.57221889448782L58.650000000000006,111.5537129490496L58.725,111.53484268529607L58.800000000000004,111.51560112471729L58.87499999999999,111.49598116292515L58.949999999999996,111.4759755676987L59.025000000000006,111.45557697701247L59.1,111.43477789704818L59.175000000000004,111.41357070018998L59.25,111.39194762300451L59.325,111.36990076420554L59.400000000000006,111.34742208260434L59.474999999999994,111.32450339504635L59.55,111.3011363743348L59.625,111.27731254714193L59.7,111.25302329190887L59.77499999999999,111.22825983673494L59.85,111.2030132572571L59.925000000000004,111.1772744745208L60,111.15103425284313L60.074999999999996,111.12428319766926L60.15,111.0970117534234L60.224999999999994,111.06921020135565L60.3,111.04086865738552L60.37500000000001,111.01197706994418L60.45,110.98252521781609L60.525000000000006,110.95250270798203L60.6,110.92189897346488L60.675,110.89070327117975L60.74999999999999,110.85890467979021L60.824999999999996,110.82649209757258L60.9,110.7934542402897L60.974999999999994,110.7597796390767L61.050000000000004,110.7254566383404L61.12500000000001,110.69047339367481L61.2,110.65481786979454L61.275,110.61847783848901L61.349999999999994,110.58144087659943L61.425,110.54369436402128L61.49999999999999,110.50522548173507L61.575,110.46602120986778L61.650000000000006,110.42606832578826L61.725,110.3853534022393L61.800000000000004,110.3438628055095L61.875,110.30158269364827L61.949999999999996,110.25849901472728L62.025,110.21459750515169L62.099999999999994,110.16986368802495L62.175,110.12428287157077L62.25000000000001,110.0778401476162L62.325,110.03052039013977L62.400000000000006,109.98230825388882L62.474999999999994,109.9331881730703L62.55,109.88314436011974L62.625,109.83216080455229L62.699999999999996,109.78022127190138L62.775,109.72730930274923L62.84999999999999,109.67340821185456L62.925000000000004,109.6185010873826L63.00000000000001,109.56257079024267L63.074999999999996,109.50559995353896L63.15,109.44757098214001L63.224999999999994,109.3884660523728L63.3,109.32826711184745L63.375,109.26695587941853L63.45,109.2045138452894L63.525000000000006,109.14092227126599L63.60000000000001,109.07616219116673L63.675,109.01021441139514L63.75,108.94305951168249L63.824999999999996,108.8746778460071L63.9,108.805049543698L63.975,108.73415451073001L64.05,108.66197243121813L64.125,108.58848276911868L64.2,108.51366477014523L64.275,108.43749746390729L64.35,108.35995966627993L64.425,108.28102998201246L64.5,108.20068680758484L64.575,108.11890833432028L64.64999999999999,108.03567255176239L64.725,107.95095725132609L64.80000000000001,107.86474003023085L64.875,107.77699829572526L64.95,107.68770926961196L65.025,107.59684999308206L65.1,107.5043973318682L65.175,107.41032798172542L65.24999999999999,107.31461847424899L65.325,107.21724518303873L65.4,107.11818433021865L65.475,107.01741199332164L65.55,106.9149041125479L65.625,106.81063649840672L65.7,106.70458483975051L65.775,106.59672471220986L65.85,106.48703158703907L65.925,106.3754808403804L66.00000000000001,106.26204776295582L66.075,106.14670757019482L66.15,106.02943541280625L66.225,105.91020638780242L66.3,105.7889955499829L66.375,105.66577792388578L66.44999999999999,105.54052851621323L66.52499999999999,105.41322232873804L66.6,105.28383437169805L66.675,105.15233967768346L66.75,105.01871331602361L66.825,104.88293040767725L66.9,104.74496614063128L66.975,104.60479578581177L67.05,104.46239471351039L67.125,104.31773841032903L67.2,104.17080249664444L67.275,104.02156274459408L67.35000000000001,103.86999509658376L67.425,103.71607568431646L67.5,103.55978084834118L67.575,103.40108715811974L67.64999999999999,103.2399714326082L67.725,103.07641076134908L67.8,102.9103825260689L67.875,102.74186442277517L67.95,102.57083448434508L68.025,102.39727110359789L68.10000000000001,102.22115305684054L68.175,102.04245952787625L68.25,101.86117013246341L68.32499999999999,101.6772649432111L68.39999999999999,101.49072451489633L68.47500000000001,101.30152991018673L68.55,101.10966272575055L68.625,100.91510511873489L68.7,100.71783983359106L68.775,100.51785022922482L68.85,100.3151203064478L68.925,100.1096347357039L69,99.90137888504435L69.075,99.69033884832191L69.15,99.47650147357461L69.22500000000001,99.25985439156625L69.3,99.04038604445049L69.375,98.81808571452328L69.44999999999999,98.59294355302633L69.52499999999999,98.36495060896354L69.6,98.13409885788994L69.675,97.90038123063167L69.75,97.66379164189364L69.825,97.4243250187103L69.9,97.18197732869312L69.97500000000001,96.93674560802734L70.05,96.68862798916896L70.125,96.4376237281919L70.19999999999999,96.18373323173344L70.27499999999999,95.92695808348591L70.35000000000001,95.66730107018051L70.42500000000001,95.40476620700878L70.5,95.13935876242633L70.575,94.87108528228234L70.64999999999999,94.59995361321828L70.725,94.32597292527785L70.8,94.0491537336711L70.875,93.76950791963382L70.95,93.48704875032467L71.025,93.20179089770143L71.10000000000001,92.91375045631867L71.17500000000001,92.62294495998891L71.25,92.32939339725036L71.325,92.0331162255847L71.39999999999999,91.73413538432924L71.475,91.43247430622878L71.55,91.12815792757422L71.625,90.82121269687529L71.7,90.51166658201757L71.775,90.19954907585486L71.85,89.8848912001904L71.925,89.56772550810228L72,89.24808608457093L72.075,88.92600854536903L72.14999999999999,88.60153003417693L72.22500000000001,88.27468921788923L72.30000000000001,87.94552628008203L72.375,87.61408291261246L72.45,87.28040230532645L72.52499999999999,86.9445291338539L72.6,86.60650954547393L72.675,86.26639114303703L72.75,85.92422296693465L72.825,85.5800554751113L72.9,85.23394052111747L72.97500000000001,84.88593133020761L73.05,84.53608247348967L73.125,84.18444984013908L73.2,83.83109060769367L73.27499999999999,83.47606321045016L73.35,83.11942730598858L73.425,82.76124373985446L73.5,82.4015745084339L73.575,82.04048272006071L73.65,81.67803255439988L73.725,81.31428922015556L73.8,80.9493189111562L73.875,80.58318876087442L73.95,80.21596679544218L74.02499999999999,79.84772188522719L74.10000000000001,79.47852369503947L74.17500000000001,79.10844263304111L74.25,78.73754979843584L74.325,78.3659169280185L74.4,77.99361634166742L74.475,77.62072088686608L74.55,77.24730388234288L74.62499999999999,76.8734390609205L74.7,76.49920051166863L74.775,76.12466262145576L74.85,75.74990001599741L74.925,75.37498750049998L75,75L75.07499999999999,74.62501249950002L75.15,74.25009998400259L75.225,73.87533737854424L75.3,73.50079948833137L75.37500000000001,73.1265609390795L75.45,72.75269611765712L75.525,72.37927911313392L75.6,72.00638365833257L75.675,71.6340830719815L75.75,71.26245020156415L75.82499999999999,70.89155736695889L75.9,70.52147630496054L75.97500000000001,70.15227811477281L76.05,69.78403320455782L76.12500000000001,69.41681123912556L76.2,69.0506810888438L76.27499999999999,68.68571077984444L76.35,68.32196744560012L76.425,67.95951727993929L76.5,67.5984254915661L76.575,67.23875626014554L76.65,66.8805726940114L76.72500000000001,66.52393678954984L76.8,66.16890939230632L76.875,65.81555015986092L76.95,65.46391752651034L77.02499999999999,65.11406866979239L77.10000000000001,64.76605947888253L77.175,64.4199445248887L77.25,64.07577703306535L77.32500000000002,63.733608856962974L77.4,63.39349045452606L77.475,63.055470866146095L77.55,62.71959769467355L77.625,62.38591708738754L77.7,62.054473719917965L77.77499999999999,61.72531078211078L77.85000000000001,61.39846996582308L77.92500000000001,61.07399145463097L78,60.75191391542906L78.07499999999999,60.432274491897715L78.15,60.115108799809605L78.225,59.80045092414514L78.3,59.48833341798242L78.375,59.17878730312471L78.45,58.87184207242578L78.525,58.5675256937712L78.60000000000001,58.265864615670765L78.675,57.96688377441528L78.75,57.67060660274964L78.82499999999999,57.377055040011086L78.9,57.08624954368133L78.975,56.79820910229857L79.04999999999998,56.512951249675325L79.12500000000001,56.230492080366176L79.2,55.95084626632888L79.27499999999999,55.67402707472212L79.35000000000001,55.400046386781725L79.425,55.12891471771765L79.5,54.860641237573674L79.57499999999999,54.59523379299121L79.64999999999999,54.3326989298195L79.72500000000001,54.073041916514086L79.80000000000001,53.81626676826656L79.875,53.562376271808105L79.95,53.311372010831036L80.02499999999999,53.06325439197268L80.10000000000001,52.81802267130688L80.175,52.575674981289694L80.24999999999999,52.33620835810636L80.32500000000002,52.09961876936835L80.4,51.86590114211006L80.475,51.635049391036446L80.55000000000001,51.407056446973655L80.625,51.18191428547672L80.7,50.959613955549514L80.77499999999999,50.74014560843375L80.85,50.52349852642537L80.925,50.309661151678085L81,50.09862111495566L81.075,49.89036526429609L81.15,49.684879693552205L81.225,49.48214977077518L81.30000000000001,49.28216016640896L81.375,49.0848948812651L81.44999999999999,48.89033727424945L81.52499999999999,48.698470089813284L81.60000000000001,48.50927548510367L81.675,48.3227350567889L81.75,48.138829867536586L81.825,47.95754047212375L81.9,47.77884694315948L81.975,47.6027288964021L82.04999999999998,47.429165515654915L82.125,47.258135577224834L82.2,47.0896174739311L82.27499999999999,46.92358923865093L82.35000000000001,46.7600285673918L82.425,46.598912841880264L82.5,46.44021915165882L82.575,46.28392431568355L82.64999999999999,46.13000490341622L82.725,45.97843725540592L82.8,45.82919750335556L82.875,45.68226158967097L82.95,45.53760528648961L83.025,45.395204214188226L83.10000000000001,45.25503385936872L83.175,45.11706959232275L83.24999999999999,44.98128668397638L83.325,44.84766032231654L83.4,44.71616562830195L83.475,44.58677767126194L83.55000000000001,44.45947148378677L83.625,44.3342220761142L83.7,44.2110044500171L83.775,44.089793612197596L83.85,43.97056458719375L83.925,43.853292429805194L83.99999999999999,43.7379522370442L84.075,43.62451915961961L84.15,43.512968412960916L84.225,43.40327528779015L84.30000000000001,43.29541516024949L84.375,43.18936350159328L84.44999999999999,43.0850958874521L84.525,42.982588006678355L84.6,42.881815669781346L84.675,42.78275481696129L84.75000000000001,42.685381525751026L84.825,42.589672018274584L84.9,42.495602668131795L84.975,42.40315000691794L85.05,42.31229073038804L85.125,42.223001704274736L85.19999999999999,42.13525996976914L85.275,42.04904274867391L85.35000000000001,41.96432744823761L85.425,41.88109166567972L85.50000000000001,41.799313192415156L85.575,41.71897001798756L85.64999999999999,41.64004033372008L85.725,41.56250253609271L85.8,41.486335229854774L85.875,41.41151723088133L85.95,41.33802756878187L86.025,41.26584548926998L86.10000000000001,41.194950456301996L86.175,41.12532215399288L86.25,41.05694048831751L86.325,40.98978558860486L86.39999999999999,40.923837808833284L86.47500000000001,40.85907772873401L86.55,40.79548615471059L86.625,40.733044120581454L86.70000000000002,40.67173288815252L86.775,40.611533947627194L86.85,40.55242901785999L86.925,40.494400046461024L87,40.437429209757326L87.075,40.3814989126174L87.15,40.32659178814545L87.22500000000001,40.272690697250766L87.30000000000001,40.21977872809863L87.375,40.16783919544771L87.44999999999999,40.11685563988027L87.525,40.066811826929694L87.6,40.0176917461112L87.675,39.96947960986023L87.75,39.9221598523838L87.825,39.87571712842923L87.9,39.83013631197507L87.97500000000001,39.78540249484831L88.05,39.74150098527272L88.125,39.698417306351715L88.19999999999999,39.65613719449048L88.275,39.6146465977607L88.35,39.573931674211735L88.42499999999998,39.533978790132224L88.50000000000001,39.49477451826495L88.575,39.45630563597872L88.64999999999999,39.418559123400584L88.72500000000001,39.381522161511L88.8,39.345182130205444L88.875,39.30952660632519L88.94999999999999,39.274543361659596L89.025,39.2402203609233L89.10000000000001,39.206545759710295L89.17500000000001,39.17350790242742L89.25,39.141095320209786L89.325,39.10929672882027L89.39999999999999,39.07810102653512L89.47500000000001,39.04749729201798L89.55,39.01747478218391L89.62499999999999,38.98802293005582L89.70000000000002,38.959131342614484L89.775,38.930789798644355L89.85,38.9029882465766L89.92500000000001,38.87571680233074L90,38.84896574715687L90.075,38.8227255254792L90.14999999999999,38.79698674274292L90.22500000000001,38.771740163265065L90.3,38.746976708091125L90.375,38.72268745285807L90.45,38.6988636256652L90.525,38.675496604953636L90.6,38.65257791739566L90.67500000000001,38.63009923579446L90.75,38.608052376995474L90.82499999999999,38.58642929981002L90.90000000000002,38.56522210295185L90.975,38.54442302298753L91.05,38.52402443230133L91.125,38.50401883707485L91.2,38.48439887528271L91.275,38.465157314703944L91.35,38.44628705095042L91.42499999999998,38.42778110551218L91.5,38.40963262382057L91.575,38.39183487332903L91.64999999999999,38.3743812416125L91.72500000000001,38.3572652344853L91.8,38.34048047413822L91.875,38.324020697294486L91.95,38.30787975338562L92.02499999999999,38.29205160274674L92.10000000000001,38.27653031483189L92.175,38.261310066449454L92.25,38.24638514001782L92.325,38.231749921841356L92.4,38.21739890040688L92.47500000000001,38.20332666470077L92.55,38.189527902546615L92.62499999999999,38.175997398963574L92.7,38.16273003454559L92.775,38.149720783860985L92.85,38.136964713873326L92.92500000000001,38.124456982382526L93,38.112192836487L93.075,38.10016761106621L93.15,38.08837672728417L93.225,38.076815691113126L93.3,38.065480091878L93.37499999999999,38.05436560082114L93.45,38.043467969687356L93.525,38.03278302932917L93.6,38.02230668833215L93.67500000000001,38.01203493166035L93.75,38.001963819321375L93.82499999999999,37.99208948505121L93.9,37.982408135018915L93.97500000000001,37.972916046550196L94.05,37.96360956687084L94.12500000000001,37.95448511186882L94.2,37.94553916487553L94.275,37.936768275465866L94.35,37.92816905827675L94.425,37.91973819184423L94.5,37.91147241745878L94.57499999999999,37.90336853803865L94.65,37.89542341702115L94.725,37.88763397727165L94.8,37.87999720000997L94.87500000000001,37.87251012375427L94.95,37.865169843281905L95.02499999999999,37.85797350860723L95.1,37.8509183239763L95.175,37.84400154687779L95.25,37.837220487070596L95.325,37.8305725056272L95.4,37.82405501399339L95.47500000000001,37.81766547306327L95.55,37.81140139227004L95.625,37.8052603286922L95.7,37.79923988617456L95.77499999999999,37.7933377144644L95.85000000000001,37.7875515083623L95.925,37.78187900688755L96,37.77631799245769L96.07500000000002,37.77086629008237L96.15,37.765521766570984L96.225,37.76028232975419L96.3,37.7551459277188L96.375,37.750110548056L96.45,37.745174217122894L96.525,37.74033499931676L96.59999999999998,37.735590996362205L96.67500000000001,37.73094034661081L96.75,37.72638122435313L96.82499999999999,37.72191183914305L96.9,37.71753043513381L96.975,37.713235290426226L97.05,37.709024716428175L97.125,37.704897057225836L97.2,37.700850688966L97.275,37.696884019249524L97.35000000000001,37.69299548653578L97.425,37.68918355955773L97.5,37.68544673674761L97.57499999999999,37.68178354567304L97.65,37.67819254248337L97.72500000000001,37.674672311366024L97.79999999999998,37.67122146401273L97.87500000000001,37.66783863909572L97.95,37.664522501753154L98.02499999999999,37.661271743084185L98.10000000000001,37.65808507965325L98.175,37.65496125300341L98.25,37.651899029178736L98.32499999999999,37.6488971982554L98.4,37.645954573881426L98.475,37.64306999282503L98.55000000000001,37.64024231453131L98.625,37.63747042068695L98.7,37.63475321479338L98.77499999999999,37.632089621747454L98.85000000000001,37.6294785874303L98.925,37.62691907830347L98.99999999999999,37.62441008101308L99.07500000000002,37.62195060200084L99.15,37.61953966712274L99.225,37.61717632127467L99.30000000000001,37.61485962802524L99.375,37.612588669255274L99.45,37.61036254480422L99.52499999999999,37.60818037212317L99.60000000000001,37.60604128593455L99.675,37.603944437897866L99.75,37.60188899628217L99.825,37.599874145644534L99.9,37.5978990865145L99.975,37.595963035084736L100.05000000000001,37.59406522290726L100.125,37.59220489659582L100.19999999999999,37.59038131753343L100.27500000000002,37.58859376158594L100.35,37.586841518820705L100.425,37.58512389323087L100.5,37.58344020246453L100.575,37.58178977755958L100.65,37.58017196268315L100.725,37.57858611487627L100.79999999999998,37.57703160380336L100.875,37.57550781150644L100.95,37.57401413216408L101.02499999999999,37.572549971855096L101.10000000000001,37.571114748326536L101.175,37.569707890766296L101.25,37.56832883958005L101.325,37.56697704617237L101.39999999999999,37.5656519727322L101.47500000000001,37.56435309202236L101.55,37.56307988717316L101.625,37.561831851479866L101.7,37.560608488204224L101.775,37.55940931037962L101.85000000000001,37.55823384062032L101.925,37.55708161093388L101.99999999999999,37.555952162537736L102.075,37.55484504567896L102.15,37.55375981945748L102.225,37.55269605165313L102.30000000000001,37.551653318555495L102.375,37.550631204797455L102.45,37.54962930319178L102.525,37.54864721457085L102.6,37.54768454762964L102.675,37.546740918771604L102.74999999999999,37.54581595195758L102.825,37.5449092785577L102.9,37.54402053720605L102.975,37.54314937365831L103.05000000000001,37.54229544065191L103.125,37.54145839776926L103.19999999999999,37.54063791130329L103.275,37.5398336541258L103.35000000000001,37.53904530555833L103.425,37.5382725512455L103.50000000000001,37.53751508303097L103.575,37.53677259883551L103.65,37.53604480253776L103.725,37.535331403857214L103.8,37.5346321182393L103.875,37.53394666674305L103.94999999999999,37.53327477593058L104.025,37.53261617775908L104.1,37.53197060947463L104.175,37.53133781350826L104.25000000000001,37.530717537373945L104.325,37.530109533568705L104.39999999999999,37.52951355947448L104.475,37.5289293772621L104.55,37.52835675379704L104.625,37.52779546054697L104.7,37.527245273491346L104.775,37.52670597303242L104.85000000000001,37.52617734390826L104.925,37.525659175107364L105,37.52515125978499L105.075,37.52465339518109L105.14999999999999,37.52416538253985L105.22500000000001,37.523687027030846L105.3,37.52321813767166L105.375,37.522758527252165L105.45000000000002,37.52230801226011L105.525,37.52186641280831L105.6,37.52143355256314L105.675,37.521009258674596L105.75,37.5205933617076L105.825,37.52018569557458L105.9,37.519786097469606L105.97499999999998,37.51939440780369L106.05000000000001,37.519010470141225L106.125,37.51863413113796L106.19999999999999,37.51826524047988L106.275,37.51790365082361L106.35,37.517549217737724L106.425,37.517201799645235L106.5,37.5168612577675L106.575,37.51652745606876L106.64999999999999,37.51620026120224L106.72500000000001,37.51587954245693L106.8,37.51556517170569L106.875,37.51525702335414L106.94999999999999,37.51495497429083L107.025,37.5146589038381L107.10000000000001,37.514368693704085L107.17499999999998,37.51408422793568L107.25000000000001,37.51380539287226L107.325,37.51353207710049L107.39999999999999,37.51326417141L107.47500000000001,37.513001568749786L107.55,37.51274416418562L107.625,37.51249185485831L107.69999999999999,37.512244539942614L107.775,37.51200212060715L107.85,37.511764499975015L107.92500000000001,37.511531583085144L108,37.51130327685446L108.075,37.51107949004093L108.14999999999999,37.51086013320689L108.22500000000001,37.510645118683726L108.30000000000001,37.51043436053675L108.37499999999999,37.51022777453095L108.45000000000002,37.510025278097515L108.52499999999999,37.509826790300764L108.6,37.50963223180598L108.67500000000001,37.50944152484776L108.75,37.50925459319896L108.825,37.509071362140375L108.89999999999999,37.508891758430835L108.97500000000001,37.50871571027811L109.05,37.50854314731019L109.125,37.50837400054722L109.2,37.50820820237402L109.275,37.50804568651316L109.35,37.507886387998326L109.42500000000001,37.50773024314863L109.50000000000001,37.507577189543085L109.57499999999999,37.50742716599565L109.65000000000002,37.50728011253098L109.725,37.50713597036027L109.8,37.50699468185803L109.875,37.50685619053891L109.95,37.50672044103521L110.025,37.50658737907486L110.1,37.506456951459555L110.17500000000001,37.50632910604382L110.25,37.50620379171387L110.325,37.50608095836748L110.39999999999999,37.5059605568938L110.47500000000001,37.50584253915383L110.55,37.50572685796118L110.625,37.5056134670633L110.7,37.50550232112283L110.77499999999999,37.505393375699725L110.85000000000001,37.50528658723333L110.925,37.50518191302511L111,37.50507931122149L111.075,37.50497874079724L111.15,37.50488016153905L111.22500000000001,37.50478353402943L111.3,37.504688819631056L111.37500000000001,37.50459598047124L111.45,37.50450497942688L111.525,37.504415780109625L111.6,37.50432834685124L111.67500000000001,37.50424264468951L111.75,37.504158639354216L111.825,37.504076297253334L111.9,37.50399558545985L111.975,37.50391647169832L112.05000000000001,37.50383892433226L112.12499999999999,37.50376291235128L112.2,37.503688405358844L112.27499999999999,37.503615373560024L112.35,37.50354378774966L112.42500000000001,37.50347361930069L112.5,37.50340484015267L112.57499999999999,37.50333742280063L112.65,37.503271340283945L112.72500000000001,37.503206566175734L112.8,37.50314307457221L112.87500000000001,37.50308084008235L112.95,37.50301983781773L113.025,37.502960043382544L113.1,37.50290143286398L113.175,37.50284398282254L113.25000000000001,37.502787670282714L113.32499999999999,37.50273247272382L113.4,37.50267836807096L113.475,37.50262533468626L113.55,37.50257335136014L113.62500000000001,37.5025223973029L113.7,37.502472452136416L113.77499999999999,37.50242349588591L113.85,37.502375508972094L113.92500000000001,37.50232847220323L114,37.502282366767545L114.075,37.50223717422564L114.14999999999999,37.502192876503145L114.22500000000001,37.50214945588357L114.3,37.50210689500105L114.375,37.5020651768336L114.45,37.50202428469616L114.52499999999999,37.50198420223401L114.60000000000001,37.50194491341624L114.675,37.5019064025292L114.75,37.501868654170465L114.82500000000002,37.50183165324242L114.9,37.50179538494639L114.975,37.50175983477672L115.05,37.501724988514866L115.12500000000001,37.50169083222379L115.2,37.50165735224239L115.275,37.50162453518004L115.34999999999998,37.5015923679112L115.42500000000001,37.50156083757018L115.5,37.50152993154599L115.57499999999999,37.50149963747738L115.65,37.501469943247756L115.725,37.50144083698048L115.8,37.50141230703396L115.875,37.501384341997166L115.95,37.50135693068498L116.02499999999999,37.501330062133675L116.10000000000001,37.501303725596685L116.175,37.50127791054008L116.25,37.5012526066386L116.32499999999999,37.501227803771386L116.4,37.50120349201791L116.47500000000001,37.50117966165412L116.54999999999998,37.50115630314846L116.62500000000001,37.50113340715808L116.7,37.5011109645251L116.77499999999999,37.501088966273L116.85000000000001,37.501067403602974L116.925,37.50104626789036L117,37.50102555068135L117.07499999999999,37.50100524368946L117.15,37.50098533879226L117.225,37.500965828028185L117.30000000000001,37.500946703593286L117.375,37.50092795783809L117.45,37.5009095832646L117.52499999999999,37.50089157252336L117.60000000000001,37.50087391841025L117.67500000000001,37.50085661386396L117.74999999999999,37.50083965196289L117.82500000000002,37.500823025922514L117.89999999999999,37.50080672909263L117.975,37.50079075495475L118.05000000000001,37.50077509711937L118.125,37.50075974932355L118.2,37.50074470542839L118.27499999999999,37.50072995941643L118.35000000000001,37.50071550538944L118.425,37.50070133756597L118.5,37.500687450279L118.575,37.500673837973736L118.65,37.50066049520538L118.725,37.50064741663694L118.80000000000001,37.50063459703709L118.87500000000001,37.50062203127804L118.94999999999999,37.500609714333635L119.02500000000002,37.50059764127711L119.1,37.50058580727938L119.175,37.500574207606874L119.25,37.500562837619796L119.325,37.50055169277019L119.4,37.50054076860016L119.475,37.50053006074013L119.55000000000001,37.500519564906966L119.625,37.50050927690235L119.7,37.500499192611144L119.77499999999999,37.50048930799967L119.85000000000001,37.500479619114074L119.925,37.50047012207884L120,37.50046081309516L120.07499999999999,37.50045168843948L120.14999999999999,37.50044274446192L120.22500000000001,37.50043397758492L120.3,37.500425384301735L120.375,37.50041696117502L120.45000000000002,37.50040870483558L120.525,37.50040061198082L120.6,37.50039267937365L120.675,37.50038490384098L120.75000000000001,37.50037728227262L120.825,37.50036981161995L120.9,37.50036248889462L120.975,37.50035531116761L121.05000000000001,37.500348275567774L121.12499999999999,37.500341379280854L121.2,37.500334619548354L121.27500000000002,37.50032799366633L121.35,37.500321498984434L121.42500000000001,37.50031513290476L121.49999999999999,37.50030889288085L121.575,37.5003027764167L121.64999999999999,37.500296781065686L121.725,37.50029090442965L121.80000000000001,37.5002851441579L121.875,37.50027949794631L121.94999999999999,37.50027396353639L122.025,37.50026853871434L122.10000000000001,37.50026322131018L122.175,37.50025800919694L122.25000000000001,37.50025290028978L122.32500000000002,37.500247892545076L122.4,37.50024298395971L122.47499999999998,37.50023817257022L122.55,37.50023345645202L122.62500000000001,37.50022883371865L122.69999999999999,37.50022430252099L122.775,37.50021986104652L122.85,37.500215507518604L122.925,37.50021124019584L122.99999999999999,37.50020705737127L123.075,37.50020295737171L123.15,37.50019893855715L123.225,37.50019499932003L123.30000000000001,37.50019113808463L123.375,37.500187353306416L123.45,37.50018364347147L123.52499999999999,37.50018000709585L123.60000000000001,37.50017644272491L123.67500000000001,37.50017294893293L123.75,37.500169524322345L123.82499999999999,37.50016616752329L123.89999999999999,37.50016287719302L123.97500000000001,37.50015965201537L124.05,37.50015649070026L124.125,37.50015339198312L124.20000000000002,37.50015035462444L124.275,37.50014737740925L124.35,37.50014445914664L124.425,37.50014159866929L124.50000000000001,37.500138794832964L124.575,37.50013604651612L124.65,37.5001333526194L124.72499999999998,37.50013071206523L124.80000000000001,37.50012812379734L124.87499999999999,37.50012558678041L124.94999999999999,37.50012309999963L125.02500000000002,37.50012066246023L125.1,37.50011827318721L125.175,37.5001159312248L125.25,37.50011363563624L125.325,37.50011138550322L125.39999999999999,37.50010917992569L125.47500000000001,37.50010701802141L125.55000000000001,37.50010489892556L125.625,37.50010282179052L125.69999999999997,37.50010078578538L125.775,37.50009879009575L125.85000000000001,37.50009683392331L125.92499999999998,37.500094916485594L126.00000000000001,37.50009303701559L126.07500000000002,37.50009119476148L126.14999999999999,37.50008938898638L126.225,37.50008761896791L126.3,37.500085883998096L126.375,37.500084183382896L126.44999999999999,37.50008251644206L126.525,37.5000808825088L126.6,37.500079280929526L126.67500000000001,37.500077711063554L126.75,37.50007617228296L126.825,37.5000746639722L126.9,37.50007318552794L126.97500000000001,37.50007173635878L127.05000000000001,37.500070315885026L127.12499999999999,37.50006892353851L127.20000000000002,37.50006755876224L127.27499999999999,37.500066221010286L127.35,37.500064909747564L127.42500000000003,37.50006362444954L127.5,37.50006236460207L127.57499999999999,37.50006112970122L127.64999999999999,37.50005991925299L127.72500000000001,37.500058732773226L127.8,37.50005756978729L127.875,37.50005642982998L127.95000000000002,37.50005531244531L128.025,37.5000542171863L128.1,37.50005314361485L128.175,37.500052091301484L128.25,37.500051059825324L128.325,37.500050048773716L128.4,37.50004905774223L128.475,37.50004808633449L128.55,37.50004713416186L128.625,37.5000462008435L128.7,37.500045286006056L128.775,37.50004438928359L128.85,37.50004351031738L128.925,37.50004264875588L129,37.50004180425441L129.07500000000002,37.50004097647515L129.15,37.50004016508703L129.225,37.50003936976542L129.3,37.50003859019225L129.375,37.50003782605562L129.45,37.50003707704991L129.52499999999998,37.500036342875475L129.60000000000002,37.500035623238674L129.67499999999998,37.50003491785161L129.75,37.500034226432135L129.82500000000002,37.50003354870368L129.9,37.500032884395125L129.975,37.50003223324076L130.05,37.5000315949801L130.125,37.50003096935782L130.2,37.500030356123716L130.275,37.500029755032415L130.35,37.50002916584353L130.425,37.500028588321356L130.49999999999997,37.500028022234886L130.57500000000002,37.500027467357654L130.65,37.500026923467715L130.725,37.50002639034754L130.8,37.50002586778382L130.875,37.50002535556756L130.95,37.50002485349384L131.02499999999998,37.50002436136187L131.1,37.500023878974716L131.175,37.50002340613949L131.25,37.500022942667016L131.325,37.50002248837191L131.4,37.500022043072434L131.47500000000002,37.50002160659048L131.55,37.50002117875145L131.625,37.5000207593842L131.70000000000002,37.500020348320945L131.775,37.5000199453973L131.85,37.500019550452095L131.92499999999998,37.500019163327295L132.00000000000003,37.5000187838681L132.075,37.50001841192267L132.15,37.50001804734225L132.225,37.500017689981036L132.3,37.500017339696015L132.375,37.5000169963471L132.45,37.500016659796955L132.525,37.500016329910935L132.6,37.50001600655712L132.675,37.500015689606116L132.75,37.50001537893117L132.82500000000002,37.50001507440798L132.89999999999998,37.500014775914764L132.97500000000002,37.500014483332095L133.05,37.50001419654298L133.125,37.500013915432646L133.2,37.50001363988865L133.275,37.50001336980081L133.35,37.50001310506107L133.42499999999998,37.50001284556352L133.5,37.50001259120437L133.57500000000002,37.500012341881856L133.65,37.50001209749625L133.725,37.50001185794983L133.8,37.50001162314672L133.875,37.50001139299303L133.95,37.50001116739669L134.025,37.50001094626744L134.1,37.50001072951686L134.175,37.500010517058215L134.25,37.50001030880654L134.325,37.50001010467852L134.4,37.50000990459252L134.475,37.50000970846847L134.55,37.500009516227934L134.625,37.50000932779402L134.70000000000002,37.50000914309135L134.775,37.500008962046024L134.85,37.500008784585646L134.925,37.50000861063921L135,37.50000844013715L135.075,37.50000827301126L135.15,37.50000810919468L135.22500000000002,37.50000794862187L135.29999999999998,37.50000779122864L135.375,37.50000763695199L135.45000000000002,37.50000748573022L135.525,37.500007337502836L135.6,37.500007192210575L135.67499999999998,37.500007049795286L135.75,37.500006910199986L135.825,37.50000677336888L135.9,37.500006639247204L135.97500000000002,37.50000650778129L136.05,37.50000637891861L136.125,37.50000625260758L136.20000000000002,37.50000612879765L136.275,37.50000600743934L136.35,37.50000588848407L136.42499999999998,37.500005771884304L136.5,37.500005657593334L136.57500000000002,37.500005545565486L136.64999999999998,37.50000543575595L136.725,37.50000532812078L136.8,37.50000522261692L136.875,37.500005119202186L136.95,37.50000501783518L137.025,37.50000491847541L137.1,37.50000482108308L137.17499999999998,37.50000472561925L137.25,37.500004632045716L137.32500000000002,37.50000454032508L137.4,37.50000445042062L137.475,37.500004362296394L137.55,37.500004275917135L137.625,37.50000419124831L137.7,37.500004108256036L137.775,37.50000402690712L137.85000000000002,37.50000394716902L137.925,37.50000386900983L138,37.50000379239832L138.075,37.5000037173038L138.15,37.50000364369626L138.225,37.500003571546245L138.29999999999998,37.500003500824874L138.375,37.50000343150391L138.45000000000002,37.50000336355561L138.525,37.50000329695274L138.6,37.5000032316687L138.675,37.50000316767738L138.75,37.500003104953166L138.825,37.50000304347097L138.89999999999998,37.500002983206215L138.97500000000002,37.50000292413476L139.04999999999998,37.50000286623302L139.125,37.50000280947782L139.20000000000002,37.50000275384643L139.275,37.50000269931661L139.35,37.50000264586656L139.425,37.5000025934749L139.5,37.50000254212067L139.575,37.50000249178329L139.65,37.50000244244268L139.72500000000002,37.50000239407909L139.8,37.50000234667314L139.87499999999997,37.50000230020589L139.95000000000002,37.50000225465878L140.025,37.500002210013534L140.1,37.500002166252344L140.17499999999998,37.500002123357675L140.25000000000003,37.500002081312374L140.325,37.500002040099645L140.39999999999998,37.50000199970296L140.475,37.500001960106175L140.55,37.500001921293475L140.625,37.500001883249325L140.7,37.50000184595848L140.775,37.50000180940606L140.85000000000002,37.500001773577424L140.925,37.500001738458224L141,37.50000170403446L141.07500000000002,37.500001670292306L141.15,37.500001637218304L141.225,37.50000160479922L141.29999999999998,37.50000157302206L141.37500000000003,37.50000154187414L141.45,37.500001511343L141.525,37.500001481416405L141.60000000000002,37.50000145208237L141.675,37.50000142332922L141.75,37.50000139514542L141.825,37.5000013675197L141.9,37.50000134044099L141.975,37.500001313898494L142.04999999999998,37.50000128788153L142.12500000000003,37.50000126237977L142.20000000000002,37.500001237383L142.27499999999998,37.50000121288116L142.35000000000002,37.5000011888645L142.425,37.50000116532341L142.5,37.500001142248465L142.575,37.500001119630426L142.65,37.500001097460256L142.725,37.50000107572909L142.79999999999998,37.500001054428225L142.875,37.50000103354914L142.95000000000002,37.50000101308352L143.025,37.50000099302309L143.1,37.50000097335993L143.175,37.500000954086104L143.25,37.50000093519395L143.325,37.50000091667587L143.4,37.500000898524476L143.47500000000002,37.5000008807325L143.55,37.500000863292826L143.625,37.500000846198475L143.7,37.50000082944261L143.775,37.50000081301856L143.85,37.50000079691971L143.92499999999998,37.50000078113965L144.00000000000003,37.50000076567204L144.07500000000002,37.50000075051072L144.15,37.50000073564962L144.225,37.50000072108277L144.3,37.500000706804386L144.375,37.50000069280871L144.45,37.500000679090206L144.525,37.50000066564331L144.60000000000002,37.500000652462674L144.67499999999998,37.500000639543046L144.75,37.50000062687924L144.82500000000002,37.50000061446622L144.9,37.500000602298954L144.975,37.50000059037265L145.04999999999998,37.50000057868249L145.125,37.50000056722382L145.2,37.50000055599202L145.275,37.50000054498264L145.35000000000002,37.50000053419126L145.425,37.500000523613565L145.5,37.50000051324531L145.57500000000002,37.500000503082376L145.65,37.500000493120695L145.725,37.50000048335623L145.79999999999998,37.50000047378515L145.87500000000003,37.500000464403584L145.95000000000002,37.50000045520777L146.02499999999998,37.50000044619405L146.1,37.50000043735882L146.175,37.50000042869853L146.25,37.50000042020973L146.325,37.50000041188902L146.4,37.50000040373308L146.475,37.50000039573861L146.54999999999998,37.500000387902475L146.625,37.50000038022149L146.70000000000002,37.5000003726926L146.775,37.5000003653128L146.85,37.50000035807912L146.925,37.50000035098867L147,37.500000344038625L147.075,37.50000033722621L147.15,37.50000033054869L147.22500000000002,37.500000324003395L147.3,37.50000031758769L147.375,37.50000031129902L147.45,37.50000030513489L147.525,37.50000029909282L147.6,37.50000029317039L147.67499999999998,37.500000287365225L147.75000000000003,37.500000281675L147.82500000000002,37.50000027609747L147.9,37.500000270630366L147.975,37.50000026527154L148.05,37.50000026001881L148.125,37.50000025487009L148.2,37.50000024982333L148.27499999999998,37.50000024487649L148.35000000000002,37.5000002400276L148.42499999999998,37.50000023527474L148.5,37.50000023061598L148.57500000000002,37.50000022604948L148.65,37.500000221573416L148.725,37.50000021718597L148.8,37.500000212885396L148.875,37.50000020866999L148.95,37.50000020453804L149.025,37.500000200487904L149.10000000000002,37.50000019651799L149.175,37.50000019262666L149.24999999999997,37.50000018881239L149.32500000000002,37.50000018507366L149.4,37.500000181408964L149.475,37.50000017781683L149.54999999999998,37.500000174295806L149.62500000000003,37.500000170844515L149.7,37.50000016746158L149.77499999999998,37.50000016414562L149.85,37.500000160895326L149.925,37.500000157709366L150,37.50000015458653"
          stroke="lightblue" stroke-width="3" fill="none"/>
</svg>